M48
; DRILL file {KiCad (6.0.5)} date Tue 14 Jun 2022 16:58:07 BST
; FORMAT={-:-/ absolute / metric / decimal}
; #@! TF.CreationDate,2022-06-14T16:58:07+01:00
; #@! TF.GenerationSoftware,Kicad,Pcbnew,(6.0.5)
; #@! TF.FileFunction,Plated,1,2,PTH
FMAT,2
METRIC
; #@! TA.AperFunction,Plated,PTH,ViaDrill
T1C0.400
; #@! TA.AperFunction,Plated,PTH,ComponentDrill
T2C0.800
; #@! TA.AperFunction,Plated,PTH,ComponentDrill
T3C1.000
%
G90
G05
T1
X117.26Y-57.15
X118.11Y-74.93
X120.015Y-55.88
X123.914Y-74.295
X142.24Y-61.595
X142.24Y-67.31
X145.326Y-60.96
X145.415Y-53.975
X145.96Y-63.5
X146.139Y-64.77
X146.864Y-56.515
X148.044Y-48.26
X148.59Y-55.79
X148.59Y-72.39
X149.77Y-66.04
X149.86Y-74.93
X149.86Y-78.105
X150.495Y-72.39
X154.305Y-69.85
X154.901Y-65.444
X154.94Y-57.695
X154.94Y-83.185
X155.702Y-56.896
X155.702Y-64.008
X156.12Y-79.375
X156.21Y-72.39
X157.48Y-69.85
X157.48Y-73.025
X158.75Y-69.126
X161.424Y-74.796
X161.925Y-71.12
X162.014Y-79.375
X162.165Y-78.255
X163.83Y-85.725
X165.1Y-85.09
X166.28Y-73.66
X167.5Y-38.0
X168.185Y-73.66
X170.18Y-73.66
X171.45Y-83.185
X172.72Y-71.12
X174.625Y-51.435
X180.34Y-66.675
X180.975Y-73.66
X180.975Y-85.814
X183.014Y-57.016
X183.515Y-71.12
X185.42Y-84.365
X187.96Y-72.39
X187.96Y-73.66
X187.96Y-85.09
X189.23Y-69.215
X193.28Y-71.12
T2
X120.073Y-46.99
X123.573Y-46.99
X130.185Y-64.13
X130.185Y-66.67
X137.805Y-64.13
X137.805Y-66.67
X143.51Y-44.538
X143.51Y-47.038
X152.4Y-46.482
X152.4Y-48.482
X160.655Y-56.74
X160.655Y-58.74
X160.655Y-63.09
X160.655Y-65.09
X162.56Y-50.165
X165.1Y-50.165
X167.64Y-50.165
X170.18Y-56.74
X170.18Y-58.74
X170.18Y-63.09
X170.18Y-65.09
X176.845Y-50.165
X178.845Y-50.165
X185.42Y-48.348
X185.42Y-50.848
T3
X110.8Y-52.3
X113.8Y-52.3
X125.98Y-36.3
X131.06Y-36.3
X138.68Y-36.3
X141.22Y-36.3
X147.828Y-52.578
X150.368Y-52.578
X152.908Y-52.578
X157.0Y-27.165
X157.0Y-30.165
X160.0Y-27.165
X160.0Y-30.165
X163.0Y-27.165
X163.0Y-30.165
X194.665Y-58.25
X194.665Y-61.25
X194.665Y-64.25
X194.665Y-79.75
X194.665Y-82.75
X194.685Y-39.9
X197.665Y-58.25
X197.665Y-61.25
X197.665Y-64.25
X197.665Y-79.75
X197.665Y-82.75
X197.685Y-39.9
T0
M30
