%TF.GenerationSoftware,KiCad,Pcbnew,(6.0.5)*%
%TF.CreationDate,2022-06-14T16:57:57+01:00*%
%TF.ProjectId,hv_sense,68765f73-656e-4736-952e-6b696361645f,rev?*%
%TF.SameCoordinates,Original*%
%TF.FileFunction,Copper,L1,Top*%
%TF.FilePolarity,Positive*%
%FSLAX46Y46*%
G04 Gerber Fmt 4.6, Leading zero omitted, Abs format (unit mm)*
G04 Created by KiCad (PCBNEW (6.0.5)) date 2022-06-14 16:57:57*
%MOMM*%
%LPD*%
G01*
G04 APERTURE LIST*
G04 Aperture macros list*
%AMRoundRect*
0 Rectangle with rounded corners*
0 $1 Rounding radius*
0 $2 $3 $4 $5 $6 $7 $8 $9 X,Y pos of 4 corners*
0 Add a 4 corners polygon primitive as box body*
4,1,4,$2,$3,$4,$5,$6,$7,$8,$9,$2,$3,0*
0 Add four circle primitives for the rounded corners*
1,1,$1+$1,$2,$3*
1,1,$1+$1,$4,$5*
1,1,$1+$1,$6,$7*
1,1,$1+$1,$8,$9*
0 Add four rect primitives between the rounded corners*
20,1,$1+$1,$2,$3,$4,$5,0*
20,1,$1+$1,$4,$5,$6,$7,0*
20,1,$1+$1,$6,$7,$8,$9,0*
20,1,$1+$1,$8,$9,$2,$3,0*%
G04 Aperture macros list end*
%TA.AperFunction,ComponentPad*%
%ADD10C,1.700000*%
%TD*%
%TA.AperFunction,SMDPad,CuDef*%
%ADD11RoundRect,0.250000X0.362500X1.425000X-0.362500X1.425000X-0.362500X-1.425000X0.362500X-1.425000X0*%
%TD*%
%TA.AperFunction,SMDPad,CuDef*%
%ADD12RoundRect,0.225000X0.225000X0.250000X-0.225000X0.250000X-0.225000X-0.250000X0.225000X-0.250000X0*%
%TD*%
%TA.AperFunction,SMDPad,CuDef*%
%ADD13RoundRect,0.150000X-0.825000X-0.150000X0.825000X-0.150000X0.825000X0.150000X-0.825000X0.150000X0*%
%TD*%
%TA.AperFunction,ComponentPad*%
%ADD14RoundRect,0.250001X0.499999X-0.499999X0.499999X0.499999X-0.499999X0.499999X-0.499999X-0.499999X0*%
%TD*%
%TA.AperFunction,ComponentPad*%
%ADD15C,1.500000*%
%TD*%
%TA.AperFunction,ComponentPad*%
%ADD16R,1.600000X1.600000*%
%TD*%
%TA.AperFunction,ComponentPad*%
%ADD17C,1.600000*%
%TD*%
%TA.AperFunction,SMDPad,CuDef*%
%ADD18RoundRect,0.200000X-0.275000X0.200000X-0.275000X-0.200000X0.275000X-0.200000X0.275000X0.200000X0*%
%TD*%
%TA.AperFunction,SMDPad,CuDef*%
%ADD19R,0.700000X0.450000*%
%TD*%
%TA.AperFunction,SMDPad,CuDef*%
%ADD20RoundRect,0.250000X-0.312500X-0.625000X0.312500X-0.625000X0.312500X0.625000X-0.312500X0.625000X0*%
%TD*%
%TA.AperFunction,SMDPad,CuDef*%
%ADD21RoundRect,0.250000X0.450000X-0.262500X0.450000X0.262500X-0.450000X0.262500X-0.450000X-0.262500X0*%
%TD*%
%TA.AperFunction,SMDPad,CuDef*%
%ADD22RoundRect,0.218750X0.256250X-0.218750X0.256250X0.218750X-0.256250X0.218750X-0.256250X-0.218750X0*%
%TD*%
%TA.AperFunction,SMDPad,CuDef*%
%ADD23RoundRect,0.250000X-0.262500X-0.450000X0.262500X-0.450000X0.262500X0.450000X-0.262500X0.450000X0*%
%TD*%
%TA.AperFunction,SMDPad,CuDef*%
%ADD24RoundRect,0.200000X-0.200000X-0.275000X0.200000X-0.275000X0.200000X0.275000X-0.200000X0.275000X0*%
%TD*%
%TA.AperFunction,ComponentPad*%
%ADD25O,1.600000X1.600000*%
%TD*%
%TA.AperFunction,ComponentPad*%
%ADD26R,1.700000X1.700000*%
%TD*%
%TA.AperFunction,ComponentPad*%
%ADD27O,1.700000X1.700000*%
%TD*%
%TA.AperFunction,SMDPad,CuDef*%
%ADD28RoundRect,0.250000X-0.450000X0.262500X-0.450000X-0.262500X0.450000X-0.262500X0.450000X0.262500X0*%
%TD*%
%TA.AperFunction,ComponentPad*%
%ADD29RoundRect,0.250001X0.499999X0.499999X-0.499999X0.499999X-0.499999X-0.499999X0.499999X-0.499999X0*%
%TD*%
%TA.AperFunction,SMDPad,CuDef*%
%ADD30RoundRect,0.200000X0.200000X0.275000X-0.200000X0.275000X-0.200000X-0.275000X0.200000X-0.275000X0*%
%TD*%
%TA.AperFunction,ComponentPad*%
%ADD31RoundRect,0.250001X-0.499999X0.499999X-0.499999X-0.499999X0.499999X-0.499999X0.499999X0.499999X0*%
%TD*%
%TA.AperFunction,SMDPad,CuDef*%
%ADD32RoundRect,0.200000X0.275000X-0.200000X0.275000X0.200000X-0.275000X0.200000X-0.275000X-0.200000X0*%
%TD*%
%TA.AperFunction,ComponentPad*%
%ADD33C,1.440000*%
%TD*%
%TA.AperFunction,ViaPad*%
%ADD34C,0.800000*%
%TD*%
%TA.AperFunction,Conductor*%
%ADD35C,1.000000*%
%TD*%
%TA.AperFunction,Conductor*%
%ADD36C,0.500000*%
%TD*%
%TA.AperFunction,Conductor*%
%ADD37C,0.250000*%
%TD*%
G04 APERTURE END LIST*
D10*
%TO.P,PS1,1,+Vin*%
%TO.N,+12V*%
X141220000Y-36300000D03*
%TO.P,PS1,2,-Vin*%
%TO.N,GND*%
X138680000Y-36300000D03*
%TO.P,PS1,5,-Vout*%
%TO.N,/HV_GND*%
X131060000Y-36300000D03*
%TO.P,PS1,7,+Vout*%
%TO.N,/HV_+12V*%
X125980000Y-36300000D03*
%TD*%
D11*
%TO.P,R7,1*%
%TO.N,+12V*%
X164887500Y-38100000D03*
%TO.P,R7,2*%
%TO.N,Net-(R12-Pad2)*%
X158962500Y-38100000D03*
%TD*%
D12*
%TO.P,C10,1*%
%TO.N,+12V*%
X162065000Y-73660000D03*
%TO.P,C10,2*%
%TO.N,GND*%
X160515000Y-73660000D03*
%TD*%
D13*
%TO.P,U4,1*%
%TO.N,Net-(C3-Pad1)*%
X169610000Y-75565000D03*
%TO.P,U4,2*%
%TO.N,Net-(U4-Pad2)*%
X169610000Y-76835000D03*
%TO.P,U4,3*%
X169610000Y-78105000D03*
%TO.P,U4,4*%
%TO.N,Net-(D1-Pad1)*%
X169610000Y-79375000D03*
%TO.P,U4,5*%
%TO.N,Net-(C4-Pad1)*%
X169610000Y-80645000D03*
%TO.P,U4,6*%
%TO.N,Net-(U4-Pad6)*%
X169610000Y-81915000D03*
%TO.P,U4,7,VSS*%
%TO.N,GND*%
X169610000Y-83185000D03*
%TO.P,U4,8*%
%TO.N,Net-(D2-Pad1)*%
X174560000Y-83185000D03*
%TO.P,U4,9*%
%TO.N,Net-(U4-Pad6)*%
X174560000Y-81915000D03*
%TO.P,U4,10*%
%TO.N,Net-(U4-Pad10)*%
X174560000Y-80645000D03*
%TO.P,U4,11*%
%TO.N,Net-(C5-Pad1)*%
X174560000Y-79375000D03*
%TO.P,U4,12*%
%TO.N,Net-(D3-Pad1)*%
X174560000Y-78105000D03*
%TO.P,U4,13*%
%TO.N,Net-(U4-Pad10)*%
X174560000Y-76835000D03*
%TO.P,U4,14,VDD*%
%TO.N,+12V*%
X174560000Y-75565000D03*
%TD*%
D14*
%TO.P,J6,1,Pin_1*%
%TO.N,+12V*%
X194685000Y-39900000D03*
D15*
%TO.P,J6,2,Pin_2*%
%TO.N,GND*%
X197685000Y-39900000D03*
%TD*%
D16*
%TO.P,C4,1*%
%TO.N,Net-(C4-Pad1)*%
X170180000Y-65090113D03*
D17*
%TO.P,C4,2*%
%TO.N,GND*%
X170180000Y-63090113D03*
%TD*%
D18*
%TO.P,R10,1*%
%TO.N,Net-(R10-Pad1)*%
X173990000Y-63310001D03*
%TO.P,R10,2*%
%TO.N,Net-(C4-Pad1)*%
X173990000Y-64960001D03*
%TD*%
D16*
%TO.P,C8,1*%
%TO.N,Net-(C8-Pad1)*%
X152400000Y-46482000D03*
D17*
%TO.P,C8,2*%
%TO.N,GND*%
X152400000Y-48482000D03*
%TD*%
D19*
%TO.P,D6,1,A*%
%TO.N,Net-(D6-Pad1)*%
X121555000Y-79995000D03*
%TO.P,D6,2,NC*%
%TO.N,unconnected-(D6-Pad2)*%
X121555000Y-81295000D03*
%TO.P,D6,3,K*%
%TO.N,/HV_+12V*%
X123555000Y-80645000D03*
%TD*%
D20*
%TO.P,R27,1*%
%TO.N,Net-(R27-Pad1)*%
X121092500Y-65405000D03*
%TO.P,R27,2*%
%TO.N,Net-(R27-Pad2)*%
X124017500Y-65405000D03*
%TD*%
D21*
%TO.P,R23,1*%
%TO.N,Net-(D6-Pad1)*%
X110744000Y-80160500D03*
%TO.P,R23,2*%
%TO.N,Net-(R22-Pad2)*%
X110744000Y-78335500D03*
%TD*%
D22*
%TO.P,D7,1,K*%
%TO.N,Net-(D7-Pad1)*%
X119380000Y-35077500D03*
%TO.P,D7,2,A*%
%TO.N,/HV_+12V*%
X119380000Y-33502500D03*
%TD*%
D18*
%TO.P,R14,1*%
%TO.N,GND*%
X185420000Y-86805000D03*
%TO.P,R14,2*%
%TO.N,Net-(D1-Pad3)*%
X185420000Y-88455000D03*
%TD*%
D23*
%TO.P,R29,1*%
%TO.N,Net-(D6-Pad1)*%
X111863500Y-82804000D03*
%TO.P,R29,2*%
%TO.N,Net-(R25-Pad1)*%
X113688500Y-82804000D03*
%TD*%
D16*
%TO.P,C6,1*%
%TO.N,Net-(C6-Pad1)*%
X176844888Y-50165000D03*
D17*
%TO.P,C6,2*%
%TO.N,GND*%
X178844888Y-50165000D03*
%TD*%
D13*
%TO.P,U6,1,Q*%
%TO.N,/Implausibility and LED logic/IMPLAUSIBLE*%
X180405000Y-75565000D03*
%TO.P,U6,2,~{Q}*%
%TO.N,unconnected-(U6-Pad2)*%
X180405000Y-76835000D03*
%TO.P,U6,3,C*%
%TO.N,GND*%
X180405000Y-78105000D03*
%TO.P,U6,4,R*%
%TO.N,/Implausibility and LED logic/POR*%
X180405000Y-79375000D03*
%TO.P,U6,5,D*%
%TO.N,GND*%
X180405000Y-80645000D03*
%TO.P,U6,6,S*%
%TO.N,Net-(D1-Pad3)*%
X180405000Y-81915000D03*
%TO.P,U6,7,VSS*%
%TO.N,GND*%
X180405000Y-83185000D03*
%TO.P,U6,8,S*%
X185355000Y-83185000D03*
%TO.P,U6,9,D*%
X185355000Y-81915000D03*
%TO.P,U6,10,R*%
X185355000Y-80645000D03*
%TO.P,U6,11,C*%
X185355000Y-79375000D03*
%TO.P,U6,12,~{Q}*%
%TO.N,unconnected-(U6-Pad12)*%
X185355000Y-78105000D03*
%TO.P,U6,13,Q*%
%TO.N,unconnected-(U6-Pad13)*%
X185355000Y-76835000D03*
%TO.P,U6,14,VDD*%
%TO.N,+12V*%
X185355000Y-75565000D03*
%TD*%
D19*
%TO.P,D2,1,A*%
%TO.N,Net-(D2-Pad1)*%
X175530000Y-86980000D03*
%TO.P,D2,2,NC*%
%TO.N,unconnected-(D2-Pad2)*%
X175530000Y-88280000D03*
%TO.P,D2,3,K*%
%TO.N,Net-(D1-Pad3)*%
X177530000Y-87630000D03*
%TD*%
D24*
%TO.P,R25,1*%
%TO.N,Net-(R25-Pad1)*%
X116015000Y-82804000D03*
%TO.P,R25,2*%
%TO.N,/HV_GND*%
X117665000Y-82804000D03*
%TD*%
D16*
%TO.P,C3,1*%
%TO.N,Net-(C3-Pad1)*%
X160655000Y-65090113D03*
D17*
%TO.P,C3,2*%
%TO.N,GND*%
X160655000Y-63090113D03*
%TD*%
D18*
%TO.P,R26,1*%
%TO.N,Net-(D7-Pad1)*%
X119380000Y-36640000D03*
%TO.P,R26,2*%
%TO.N,/HV_GND*%
X119380000Y-38290000D03*
%TD*%
D13*
%TO.P,U3,1*%
%TO.N,/PRCHG_INTENDED_ON*%
X158815000Y-75565000D03*
%TO.P,U3,2*%
%TO.N,/~{PRCHG_MECH_ON}*%
X158815000Y-76835000D03*
%TO.P,U3,3*%
%TO.N,Net-(R9-Pad1)*%
X158815000Y-78105000D03*
%TO.P,U3,4*%
%TO.N,Net-(R10-Pad1)*%
X158815000Y-79375000D03*
%TO.P,U3,5*%
%TO.N,/LOW_AIR_INTENDED_ON*%
X158815000Y-80645000D03*
%TO.P,U3,6*%
%TO.N,/~{LOW_AIR_MECH_ON}*%
X158815000Y-81915000D03*
%TO.P,U3,7,VSS*%
%TO.N,GND*%
X158815000Y-83185000D03*
%TO.P,U3,8*%
%TO.N,/HIGH_AIR_INTENDED_ON*%
X163765000Y-83185000D03*
%TO.P,U3,9*%
%TO.N,/~{HIGH_AIR_MECH_ON}*%
X163765000Y-81915000D03*
%TO.P,U3,10*%
%TO.N,Net-(R11-Pad1)*%
X163765000Y-80645000D03*
%TO.P,U3,11*%
%TO.N,Net-(U1-Pad1)*%
X163765000Y-79375000D03*
%TO.P,U3,12*%
%TO.N,Net-(U2-Pad3)*%
X163765000Y-78105000D03*
%TO.P,U3,13*%
%TO.N,/LOW_AIR_INTENDED_ON*%
X163765000Y-76835000D03*
%TO.P,U3,14,VDD*%
%TO.N,+12V*%
X163765000Y-75565000D03*
%TD*%
D19*
%TO.P,D4,1,A*%
%TO.N,Net-(D4-Pad1)*%
X181880000Y-67295000D03*
%TO.P,D4,2,NC*%
%TO.N,unconnected-(D4-Pad2)*%
X181880000Y-68595000D03*
%TO.P,D4,3,K*%
%TO.N,Net-(D1-Pad3)*%
X183880000Y-67945000D03*
%TD*%
D12*
%TO.P,C12,1*%
%TO.N,+12V*%
X151270000Y-73660000D03*
%TO.P,C12,2*%
%TO.N,GND*%
X149720000Y-73660000D03*
%TD*%
D24*
%TO.P,R19,1*%
%TO.N,Net-(C8-Pad1)*%
X156655000Y-48260000D03*
%TO.P,R19,2*%
%TO.N,Net-(D5-Pad3)*%
X158305000Y-48260000D03*
%TD*%
D16*
%TO.P,U10,1*%
%TO.N,/HV_+12V*%
X130185000Y-64130000D03*
D25*
%TO.P,U10,2*%
%TO.N,Net-(R27-Pad2)*%
X130185000Y-66670000D03*
%TO.P,U10,3*%
%TO.N,/~{HV_DETECTED}*%
X137805000Y-66670000D03*
%TO.P,U10,4*%
%TO.N,+12V*%
X137805000Y-64130000D03*
%TD*%
D26*
%TO.P,SW1,1,A*%
%TO.N,/Implausibility and LED logic/~{TSAL_ACTIVE}*%
X152908000Y-52578000D03*
D27*
%TO.P,SW1,2,B*%
%TO.N,Net-(D5-Pad1)*%
X150368000Y-52578000D03*
%TO.P,SW1,3,C*%
%TO.N,/~{HV_DETECTED}*%
X147828000Y-52578000D03*
%TD*%
D11*
%TO.P,R4,1*%
%TO.N,+12V*%
X185207500Y-42545000D03*
%TO.P,R4,2*%
%TO.N,Net-(R2-Pad2)*%
X179282500Y-42545000D03*
%TD*%
D16*
%TO.P,C7,1*%
%TO.N,/HV_+12V*%
X123572651Y-46990000D03*
D17*
%TO.P,C7,2*%
%TO.N,/HV_GND*%
X120072651Y-46990000D03*
%TD*%
D18*
%TO.P,R9,1*%
%TO.N,Net-(R9-Pad1)*%
X164465000Y-63310001D03*
%TO.P,R9,2*%
%TO.N,Net-(C3-Pad1)*%
X164465000Y-64960001D03*
%TD*%
D24*
%TO.P,R15,1*%
%TO.N,+12V*%
X171895000Y-51435000D03*
%TO.P,R15,2*%
%TO.N,GND*%
X173545000Y-51435000D03*
%TD*%
D28*
%TO.P,R20,1*%
%TO.N,Net-(R18-Pad1)*%
X110744000Y-66143500D03*
%TO.P,R20,2*%
%TO.N,Net-(R20-Pad2)*%
X110744000Y-67968500D03*
%TD*%
D29*
%TO.P,J2,1,Pin_1*%
%TO.N,/~{LOW_AIR_MECH_ON}*%
X163000000Y-30165000D03*
D15*
%TO.P,J2,2,Pin_2*%
%TO.N,/~{HIGH_AIR_MECH_ON}*%
X160000000Y-30165000D03*
%TO.P,J2,3,Pin_3*%
%TO.N,/~{PRCHG_MECH_ON}*%
X157000000Y-30165000D03*
%TO.P,J2,4,Pin_4*%
%TO.N,GND*%
X163000000Y-27165000D03*
%TO.P,J2,5,Pin_5*%
X160000000Y-27165000D03*
%TO.P,J2,6,Pin_6*%
X157000000Y-27165000D03*
%TD*%
D16*
%TO.P,C5,1*%
%TO.N,Net-(C5-Pad1)*%
X160655000Y-58740113D03*
D17*
%TO.P,C5,2*%
%TO.N,GND*%
X160655000Y-56740113D03*
%TD*%
D19*
%TO.P,D1,1,A*%
%TO.N,Net-(D1-Pad1)*%
X170450000Y-86980000D03*
%TO.P,D1,2,NC*%
%TO.N,unconnected-(D1-Pad2)*%
X170450000Y-88280000D03*
%TO.P,D1,3,K*%
%TO.N,Net-(D1-Pad3)*%
X172450000Y-87630000D03*
%TD*%
D11*
%TO.P,R13,1*%
%TO.N,Net-(R12-Pad2)*%
X155997500Y-42545000D03*
%TO.P,R13,2*%
%TO.N,/~{HIGH_AIR_MECH_ON}*%
X150072500Y-42545000D03*
%TD*%
D12*
%TO.P,C15,1*%
%TO.N,+12V*%
X183655000Y-73660000D03*
%TO.P,C15,2*%
%TO.N,GND*%
X182105000Y-73660000D03*
%TD*%
D11*
%TO.P,R2,1*%
%TO.N,+12V*%
X185207500Y-38100000D03*
%TO.P,R2,2*%
%TO.N,Net-(R2-Pad2)*%
X179282500Y-38100000D03*
%TD*%
D28*
%TO.P,R22,1*%
%TO.N,Net-(R21-Pad1)*%
X110744000Y-74271500D03*
%TO.P,R22,2*%
%TO.N,Net-(R22-Pad2)*%
X110744000Y-76096500D03*
%TD*%
D18*
%TO.P,R6,1*%
%TO.N,Net-(R6-Pad1)*%
X173990000Y-56960001D03*
%TO.P,R6,2*%
%TO.N,Net-(C2-Pad1)*%
X173990000Y-58610001D03*
%TD*%
D19*
%TO.P,D5,1,A*%
%TO.N,Net-(D5-Pad1)*%
X156480000Y-50785000D03*
%TO.P,D5,2,NC*%
%TO.N,unconnected-(D5-Pad2)*%
X156480000Y-52085000D03*
%TO.P,D5,3,K*%
%TO.N,Net-(D5-Pad3)*%
X158480000Y-51435000D03*
%TD*%
%TO.P,D3,1,A*%
%TO.N,Net-(D3-Pad1)*%
X180610000Y-86980000D03*
%TO.P,D3,2,NC*%
%TO.N,unconnected-(D3-Pad2)*%
X180610000Y-88280000D03*
%TO.P,D3,3,K*%
%TO.N,Net-(D1-Pad3)*%
X182610000Y-87630000D03*
%TD*%
D28*
%TO.P,R17,1*%
%TO.N,Net-(J1-Pad2)*%
X110744000Y-58015500D03*
%TO.P,R17,2*%
%TO.N,Net-(R17-Pad2)*%
X110744000Y-59840500D03*
%TD*%
D11*
%TO.P,R8,1*%
%TO.N,Net-(R12-Pad2)*%
X155997500Y-38100000D03*
%TO.P,R8,2*%
%TO.N,/~{HIGH_AIR_MECH_ON}*%
X150072500Y-38100000D03*
%TD*%
D30*
%TO.P,R24,1*%
%TO.N,/HV_+12V*%
X123380000Y-55245000D03*
%TO.P,R24,2*%
%TO.N,/VREF_2.5V*%
X121730000Y-55245000D03*
%TD*%
D14*
%TO.P,J3,1,Pin_1*%
%TO.N,unconnected-(J3-Pad1)*%
X194665000Y-82750000D03*
D15*
%TO.P,J3,2,Pin_2*%
%TO.N,/HIGH_AIR_INTENDED_ON*%
X194665000Y-79750000D03*
%TO.P,J3,3,Pin_3*%
%TO.N,/LOW_AIR_INTENDED_ON*%
X197665000Y-82750000D03*
%TO.P,J3,4,Pin_4*%
%TO.N,/PRCHG_INTENDED_ON*%
X197665000Y-79750000D03*
%TD*%
D11*
%TO.P,R3,1*%
%TO.N,Net-(R2-Pad2)*%
X176317500Y-38100000D03*
%TO.P,R3,2*%
%TO.N,/~{LOW_AIR_MECH_ON}*%
X170392500Y-38100000D03*
%TD*%
D12*
%TO.P,C1,1*%
%TO.N,/HV_+12V*%
X123330000Y-67945000D03*
%TO.P,C1,2*%
%TO.N,/HV_GND*%
X121780000Y-67945000D03*
%TD*%
D11*
%TO.P,R12,1*%
%TO.N,+12V*%
X164887500Y-42545000D03*
%TO.P,R12,2*%
%TO.N,Net-(R12-Pad2)*%
X158962500Y-42545000D03*
%TD*%
%TO.P,R5,1*%
%TO.N,Net-(R2-Pad2)*%
X176317500Y-42545000D03*
%TO.P,R5,2*%
%TO.N,/~{LOW_AIR_MECH_ON}*%
X170392500Y-42545000D03*
%TD*%
D13*
%TO.P,U2,1*%
%TO.N,/PRCHG_INTENDED_ON*%
X148020000Y-75565000D03*
%TO.P,U2,2*%
%TO.N,/HIGH_AIR_INTENDED_ON*%
X148020000Y-76835000D03*
%TO.P,U2,3*%
%TO.N,Net-(U2-Pad3)*%
X148020000Y-78105000D03*
%TO.P,U2,4*%
%TO.N,Net-(U2-Pad4)*%
X148020000Y-79375000D03*
%TO.P,U2,5*%
%TO.N,Net-(U2-Pad5)*%
X148020000Y-80645000D03*
%TO.P,U2,6*%
%TO.N,/Implausibility and LED logic/IMPLAUSIBLE*%
X148020000Y-81915000D03*
%TO.P,U2,7,VSS*%
%TO.N,GND*%
X148020000Y-83185000D03*
%TO.P,U2,8*%
X152970000Y-83185000D03*
%TO.P,U2,9*%
X152970000Y-81915000D03*
%TO.P,U2,10*%
%TO.N,unconnected-(U2-Pad10)*%
X152970000Y-80645000D03*
%TO.P,U2,11*%
%TO.N,unconnected-(U2-Pad11)*%
X152970000Y-79375000D03*
%TO.P,U2,12*%
%TO.N,GND*%
X152970000Y-78105000D03*
%TO.P,U2,13*%
X152970000Y-76835000D03*
%TO.P,U2,14,VDD*%
%TO.N,+12V*%
X152970000Y-75565000D03*
%TD*%
%TO.P,U5,1*%
%TO.N,Net-(D5-Pad3)*%
X180405000Y-57785000D03*
%TO.P,U5,2*%
%TO.N,/Implausibility and LED logic/RED_LED_ON*%
X180405000Y-59055000D03*
%TO.P,U5,3*%
%TO.N,Net-(C2-Pad1)*%
X180405000Y-60325000D03*
%TO.P,U5,4*%
%TO.N,Net-(U5-Pad4)*%
X180405000Y-61595000D03*
%TO.P,U5,5*%
X180405000Y-62865000D03*
%TO.P,U5,6*%
%TO.N,Net-(D4-Pad1)*%
X180405000Y-64135000D03*
%TO.P,U5,7,VSS*%
%TO.N,GND*%
X180405000Y-65405000D03*
%TO.P,U5,8*%
%TO.N,Net-(U2-Pad5)*%
X185355000Y-65405000D03*
%TO.P,U5,9*%
%TO.N,/Implausibility and LED logic/~{TSAL_ACTIVE}*%
X185355000Y-64135000D03*
%TO.P,U5,10*%
%TO.N,/Implausibility and LED logic/GREEN_LED_ON*%
X185355000Y-62865000D03*
%TO.P,U5,11*%
%TO.N,Net-(U2-Pad4)*%
X185355000Y-61595000D03*
%TO.P,U5,12*%
%TO.N,/Implausibility and LED logic/POR*%
X185355000Y-60325000D03*
%TO.P,U5,13*%
%TO.N,Net-(C6-Pad1)*%
X185355000Y-59055000D03*
%TO.P,U5,14,VDD*%
%TO.N,+12V*%
X185355000Y-57785000D03*
%TD*%
D18*
%TO.P,R11,1*%
%TO.N,Net-(R11-Pad1)*%
X164465000Y-56960001D03*
%TO.P,R11,2*%
%TO.N,Net-(C5-Pad1)*%
X164465000Y-58610001D03*
%TD*%
D16*
%TO.P,C2,1*%
%TO.N,Net-(C2-Pad1)*%
X170180000Y-58740113D03*
D17*
%TO.P,C2,2*%
%TO.N,GND*%
X170180000Y-56740113D03*
%TD*%
D16*
%TO.P,C17,1*%
%TO.N,+12V*%
X185420000Y-48347621D03*
D17*
%TO.P,C17,2*%
%TO.N,GND*%
X185420000Y-50847621D03*
%TD*%
D21*
%TO.P,R18,1*%
%TO.N,Net-(R18-Pad1)*%
X110744000Y-63904500D03*
%TO.P,R18,2*%
%TO.N,Net-(R17-Pad2)*%
X110744000Y-62079500D03*
%TD*%
D11*
%TO.P,R30,1*%
%TO.N,Net-(R1-Pad2)*%
X176262500Y-27100000D03*
%TO.P,R30,2*%
%TO.N,/~{PRCHG_MECH_ON}*%
X170337500Y-27100000D03*
%TD*%
D14*
%TO.P,J7,1,Pin_1*%
%TO.N,+12V*%
X194665000Y-64250000D03*
D15*
%TO.P,J7,2,Pin_2*%
%TO.N,/Implausibility and LED logic/GREEN_LED_ON*%
X194665000Y-61250000D03*
%TO.P,J7,3,Pin_3*%
%TO.N,/Implausibility and LED logic/RED_LED_ON*%
X194665000Y-58250000D03*
%TO.P,J7,4,Pin_4*%
%TO.N,/Implausibility and LED logic/GREEN_LED_ON*%
X197665000Y-64250000D03*
%TO.P,J7,5,Pin_5*%
%TO.N,/Implausibility and LED logic/RED_LED_ON*%
X197665000Y-61250000D03*
%TO.P,J7,6,Pin_6*%
%TO.N,GND*%
X197665000Y-58250000D03*
%TD*%
D13*
%TO.P,U9,1,K*%
%TO.N,/VREF_2.5V*%
X120080000Y-57150000D03*
%TO.P,U9,2,A*%
%TO.N,/HV_GND*%
X120080000Y-58420000D03*
%TO.P,U9,3,A*%
X120080000Y-59690000D03*
%TO.P,U9,4*%
%TO.N,N/C*%
X120080000Y-60960000D03*
%TO.P,U9,5*%
X125030000Y-60960000D03*
%TO.P,U9,6,A*%
%TO.N,/HV_GND*%
X125030000Y-59690000D03*
%TO.P,U9,7,A*%
X125030000Y-58420000D03*
%TO.P,U9,8,REF*%
%TO.N,/VREF_2.5V*%
X125030000Y-57150000D03*
%TD*%
D11*
%TO.P,R32,1*%
%TO.N,Net-(R1-Pad2)*%
X176262500Y-31500000D03*
%TO.P,R32,2*%
%TO.N,/~{PRCHG_MECH_ON}*%
X170337500Y-31500000D03*
%TD*%
D16*
%TO.P,C16,1*%
%TO.N,+12V*%
X143510000Y-44537621D03*
D17*
%TO.P,C16,2*%
%TO.N,GND*%
X143510000Y-47037621D03*
%TD*%
D31*
%TO.P,J1,1,Pin_1*%
%TO.N,/HV_GND*%
X113800000Y-52300000D03*
D15*
%TO.P,J1,2,Pin_2*%
%TO.N,Net-(J1-Pad2)*%
X110800000Y-52300000D03*
%TD*%
D32*
%TO.P,R28,1*%
%TO.N,GND*%
X140970000Y-66865000D03*
%TO.P,R28,2*%
%TO.N,/~{HV_DETECTED}*%
X140970000Y-65215000D03*
%TD*%
D12*
%TO.P,C13,1*%
%TO.N,+12V*%
X183655000Y-55880000D03*
%TO.P,C13,2*%
%TO.N,GND*%
X182105000Y-55880000D03*
%TD*%
D30*
%TO.P,R16,1*%
%TO.N,Net-(C6-Pad1)*%
X173545000Y-48895000D03*
%TO.P,R16,2*%
%TO.N,+12V*%
X171895000Y-48895000D03*
%TD*%
D13*
%TO.P,U8,1*%
%TO.N,Net-(R27-Pad1)*%
X120080000Y-69850000D03*
%TO.P,U8,2,-*%
%TO.N,/VREF_2.5V*%
X120080000Y-71120000D03*
%TO.P,U8,3,+*%
%TO.N,Net-(R25-Pad1)*%
X120080000Y-72390000D03*
%TO.P,U8,4,V+*%
%TO.N,/HV_+12V*%
X120080000Y-73660000D03*
%TO.P,U8,5,+*%
%TO.N,/HV_GND*%
X120080000Y-74930000D03*
%TO.P,U8,6,-*%
%TO.N,/HV_+12V*%
X120080000Y-76200000D03*
%TO.P,U8,7*%
%TO.N,unconnected-(U8-Pad7)*%
X120080000Y-77470000D03*
%TO.P,U8,8*%
%TO.N,unconnected-(U8-Pad8)*%
X125030000Y-77470000D03*
%TO.P,U8,9,-*%
%TO.N,/HV_+12V*%
X125030000Y-76200000D03*
%TO.P,U8,10,+*%
%TO.N,/HV_GND*%
X125030000Y-74930000D03*
%TO.P,U8,11,V-*%
X125030000Y-73660000D03*
%TO.P,U8,12,+*%
X125030000Y-72390000D03*
%TO.P,U8,13,-*%
%TO.N,/HV_+12V*%
X125030000Y-71120000D03*
%TO.P,U8,14*%
%TO.N,unconnected-(U8-Pad14)*%
X125030000Y-69850000D03*
%TD*%
D12*
%TO.P,C11,1*%
%TO.N,+12V*%
X172860000Y-73660000D03*
%TO.P,C11,2*%
%TO.N,GND*%
X171310000Y-73660000D03*
%TD*%
D13*
%TO.P,U1,1*%
%TO.N,Net-(U1-Pad1)*%
X148020000Y-57785000D03*
%TO.P,U1,2*%
%TO.N,/~{HV_DETECTED}*%
X148020000Y-59055000D03*
%TO.P,U1,3*%
%TO.N,Net-(R6-Pad1)*%
X148020000Y-60325000D03*
%TO.P,U1,4*%
%TO.N,Net-(U1-Pad12)*%
X148020000Y-61595000D03*
%TO.P,U1,5*%
%TO.N,/~{PRCHG_MECH_ON}*%
X148020000Y-62865000D03*
%TO.P,U1,6*%
%TO.N,/~{LOW_AIR_MECH_ON}*%
X148020000Y-64135000D03*
%TO.P,U1,7,VSS*%
%TO.N,GND*%
X148020000Y-65405000D03*
%TO.P,U1,8*%
%TO.N,/~{HIGH_AIR_MECH_ON}*%
X152970000Y-65405000D03*
%TO.P,U1,9*%
%TO.N,/~{HV_DETECTED}*%
X152970000Y-64135000D03*
%TO.P,U1,10*%
%TO.N,Net-(U1-Pad10)*%
X152970000Y-62865000D03*
%TO.P,U1,11*%
%TO.N,/Implausibility and LED logic/~{TSAL_ACTIVE}*%
X152970000Y-61595000D03*
%TO.P,U1,12*%
%TO.N,Net-(U1-Pad12)*%
X152970000Y-60325000D03*
%TO.P,U1,13*%
%TO.N,Net-(U1-Pad10)*%
X152970000Y-59055000D03*
%TO.P,U1,14,VDD*%
%TO.N,+12V*%
X152970000Y-57785000D03*
%TD*%
D21*
%TO.P,R21,1*%
%TO.N,Net-(R21-Pad1)*%
X110744000Y-72032500D03*
%TO.P,R21,2*%
%TO.N,Net-(R20-Pad2)*%
X110744000Y-70207500D03*
%TD*%
D12*
%TO.P,C9,1*%
%TO.N,+12V*%
X151270000Y-55880000D03*
%TO.P,C9,2*%
%TO.N,GND*%
X149720000Y-55880000D03*
%TD*%
D11*
%TO.P,R31,1*%
%TO.N,+12V*%
X185162500Y-27100000D03*
%TO.P,R31,2*%
%TO.N,Net-(R1-Pad2)*%
X179237500Y-27100000D03*
%TD*%
D33*
%TO.P,RV1,1,1*%
%TO.N,/Implausibility and LED logic/RED_LED_ON*%
X167640000Y-50165000D03*
%TO.P,RV1,2,2*%
%TO.N,Net-(D5-Pad3)*%
X165100000Y-50165000D03*
%TO.P,RV1,3,3*%
X162560000Y-50165000D03*
%TD*%
D11*
%TO.P,R1,1*%
%TO.N,+12V*%
X185162500Y-31500000D03*
%TO.P,R1,2*%
%TO.N,Net-(R1-Pad2)*%
X179237500Y-31500000D03*
%TD*%
D34*
%TO.N,/HV_GND*%
X123914500Y-74295000D03*
X118110000Y-74930000D03*
%TO.N,+12V*%
X150495000Y-72390000D03*
X193280000Y-71120000D03*
X161925000Y-71120000D03*
X183515000Y-71120000D03*
X167500000Y-38000000D03*
X172720000Y-71120000D03*
%TO.N,GND*%
X183013730Y-57016270D03*
X180340000Y-66675000D03*
X174625000Y-51435000D03*
X185420000Y-84365500D03*
X149770500Y-66040000D03*
X180975000Y-73660000D03*
X170180000Y-73660000D03*
X149860000Y-74930000D03*
X142240000Y-67310000D03*
X171450000Y-83185000D03*
X148590000Y-55790500D03*
X161423730Y-74796270D03*
X154940000Y-83185000D03*
%TO.N,Net-(C3-Pad1)*%
X168185500Y-73660000D03*
X166280500Y-73660000D03*
%TO.N,/VREF_2.5V*%
X117260500Y-57150000D03*
X120015000Y-55880000D03*
%TO.N,/~{HV_DETECTED}*%
X145325500Y-60960000D03*
X142240000Y-61595000D03*
X146864000Y-56515000D03*
%TO.N,/~{PRCHG_MECH_ON}*%
X145414989Y-53975000D03*
X145960500Y-63500000D03*
%TO.N,/~{LOW_AIR_MECH_ON}*%
X148044500Y-48260000D03*
X146139500Y-64770000D03*
%TO.N,/~{HIGH_AIR_MECH_ON}*%
X154900736Y-65444264D03*
X154940000Y-57695500D03*
%TO.N,/HIGH_AIR_INTENDED_ON*%
X187960000Y-85090000D03*
X165100000Y-85090000D03*
%TO.N,/LOW_AIR_INTENDED_ON*%
X157480000Y-73025000D03*
X187960000Y-73660000D03*
%TO.N,Net-(R9-Pad1)*%
X154305000Y-69850000D03*
X157480000Y-69850000D03*
%TO.N,Net-(U1-Pad1)*%
X156120500Y-79375000D03*
X162014500Y-79375000D03*
%TO.N,/PRCHG_INTENDED_ON*%
X156210000Y-72390000D03*
X148590000Y-72390000D03*
X187960000Y-72390000D03*
%TO.N,Net-(U2-Pad3)*%
X162164549Y-78255049D03*
X149860000Y-78105000D03*
%TO.N,/Implausibility and LED logic/~{TSAL_ACTIVE}*%
X158750000Y-69125500D03*
X189230000Y-69215000D03*
X155702000Y-64008000D03*
X155702000Y-56896000D03*
%TO.N,/Implausibility and LED logic/IMPLAUSIBLE*%
X180975000Y-85814500D03*
X163830000Y-85725000D03*
%TD*%
D35*
%TO.N,+12V*%
X143510000Y-44537621D02*
X141220000Y-42247621D01*
X141220000Y-42247621D02*
X141220000Y-36300000D01*
D36*
%TO.N,/HV_+12V*%
X125980000Y-36300000D02*
X123182500Y-33502500D01*
X123182500Y-33502500D02*
X119380000Y-33502500D01*
X123572651Y-46990000D02*
X123572651Y-38707349D01*
X123572651Y-38707349D02*
X125980000Y-36300000D01*
X124777500Y-53657500D02*
X127000000Y-55880000D01*
X126454520Y-71991671D02*
X126454520Y-75475480D01*
D37*
X123380000Y-55245000D02*
X123380000Y-55055000D01*
D36*
X123005480Y-63684520D02*
X123005480Y-67620480D01*
D37*
X121856500Y-75628500D02*
X122698000Y-76470000D01*
X125030000Y-76200000D02*
X123825000Y-76200000D01*
D36*
X125030000Y-71120000D02*
X125582849Y-71120000D01*
X127000000Y-62865000D02*
X128270000Y-64135000D01*
X123572651Y-46990000D02*
X123572651Y-52452651D01*
D37*
X120080000Y-73660000D02*
X121284282Y-73660000D01*
D36*
X125730000Y-76200000D02*
X125030000Y-76200000D01*
X123330000Y-69972849D02*
X124477151Y-71120000D01*
X128275000Y-64130000D02*
X130185000Y-64130000D01*
X125582849Y-71120000D02*
X126454520Y-71991671D01*
D37*
X121285000Y-76200000D02*
X120080000Y-76200000D01*
X121284282Y-73660000D02*
X121920000Y-74295718D01*
D36*
X123825000Y-62865000D02*
X123005480Y-63684520D01*
D37*
X121920000Y-74295718D02*
X121920000Y-75565000D01*
X123555000Y-76470000D02*
X123825000Y-76200000D01*
D36*
X126454520Y-75475480D02*
X125730000Y-76200000D01*
D37*
X121856500Y-75628500D02*
X121285000Y-76200000D01*
X123380000Y-55055000D02*
X124777500Y-53657500D01*
X122698000Y-76470000D02*
X123555000Y-76470000D01*
D36*
X127000000Y-62865000D02*
X123825000Y-62865000D01*
X123330000Y-67945000D02*
X123330000Y-69972849D01*
X124477151Y-71120000D02*
X125030000Y-71120000D01*
X128270000Y-64135000D02*
X128275000Y-64130000D01*
D37*
X121920000Y-75565000D02*
X121856500Y-75628500D01*
X123555000Y-80645000D02*
X123555000Y-76470000D01*
D36*
X127000000Y-55880000D02*
X127000000Y-62865000D01*
X123005480Y-67620480D02*
X123330000Y-67945000D01*
X123572651Y-52452651D02*
X124777500Y-53657500D01*
%TO.N,/HV_GND*%
X118745000Y-62230000D02*
X118110000Y-61595000D01*
D37*
X120080000Y-58420000D02*
X125030000Y-58420000D01*
D36*
X122305960Y-64520960D02*
X120015000Y-62230000D01*
X117880000Y-52300000D02*
X118110000Y-52070000D01*
X120080000Y-58420000D02*
X118110000Y-58420000D01*
D37*
X125030000Y-72390000D02*
X125030000Y-73660000D01*
D36*
X120015000Y-62230000D02*
X118745000Y-62230000D01*
D37*
X125030000Y-73660000D02*
X125030000Y-74930000D01*
X124460000Y-72390000D02*
X121780000Y-69710000D01*
D36*
X122305960Y-67419040D02*
X122305960Y-64520960D01*
X118110000Y-58420000D02*
X118110000Y-55245000D01*
D37*
X125030000Y-58420000D02*
X125030000Y-59690000D01*
X117665000Y-75375000D02*
X118110000Y-74930000D01*
D36*
X120072651Y-38982651D02*
X120072651Y-46990000D01*
D37*
X125030000Y-72390000D02*
X124460000Y-72390000D01*
X120080000Y-58420000D02*
X120080000Y-59690000D01*
D36*
X118110000Y-55245000D02*
X118110000Y-52070000D01*
X118110000Y-52070000D02*
X118110000Y-48952651D01*
X118110000Y-61595000D02*
X118110000Y-58420000D01*
X118110000Y-48952651D02*
X120072651Y-46990000D01*
D37*
X117880000Y-52300000D02*
X113800000Y-52300000D01*
D36*
X121780000Y-67945000D02*
X122305960Y-67419040D01*
X123914500Y-74295000D02*
X124395000Y-74295000D01*
D37*
X117665000Y-75375000D02*
X117665000Y-82804000D01*
D36*
X124395000Y-74295000D02*
X125030000Y-73660000D01*
X119380000Y-38290000D02*
X120072651Y-38982651D01*
X118110000Y-74930000D02*
X120080000Y-74930000D01*
D37*
X121780000Y-69710000D02*
X121780000Y-67945000D01*
D35*
%TO.N,+12V*%
X167400000Y-38100000D02*
X167500000Y-38000000D01*
X172720000Y-73520000D02*
X172860000Y-73660000D01*
D37*
X183655000Y-55880000D02*
X183655000Y-56085000D01*
D35*
X144145000Y-57150000D02*
X141605000Y-54610000D01*
D37*
X183655000Y-56085000D02*
X185355000Y-57785000D01*
X183655000Y-55880000D02*
X184447379Y-55087621D01*
D35*
X185207500Y-42545000D02*
X185207500Y-38100000D01*
X194685000Y-36622500D02*
X194685000Y-39900000D01*
X143510000Y-60325000D02*
X143510000Y-57785000D01*
D37*
X141610000Y-60325000D02*
X143510000Y-60325000D01*
X151270000Y-56085000D02*
X152970000Y-57785000D01*
D35*
X185207500Y-38100000D02*
X192885000Y-38100000D01*
X185207500Y-31545000D02*
X185162500Y-31500000D01*
X183515000Y-71120000D02*
X183515000Y-73520000D01*
X164887500Y-38100000D02*
X164887500Y-42545000D01*
X144145000Y-57150000D02*
X146685000Y-54610000D01*
X185207500Y-48135121D02*
X185420000Y-48347621D01*
D37*
X183655000Y-73865000D02*
X185355000Y-75565000D01*
X162065000Y-73660000D02*
X162065000Y-73520000D01*
X174560000Y-75565000D02*
X174560000Y-75360000D01*
X183655000Y-73660000D02*
X183655000Y-73865000D01*
D35*
X193280000Y-65585000D02*
X194665000Y-64200000D01*
X185207500Y-37042500D02*
X185207500Y-42545000D01*
D37*
X184447379Y-55087621D02*
X187337621Y-55087621D01*
D35*
X141605000Y-46355000D02*
X143422379Y-44537621D01*
X150495000Y-72390000D02*
X151270000Y-73165000D01*
D37*
X173800000Y-46990000D02*
X180975000Y-46990000D01*
D35*
X150495000Y-72390000D02*
X143510000Y-65405000D01*
X164887500Y-38100000D02*
X167400000Y-38100000D01*
X143510000Y-65405000D02*
X143510000Y-60325000D01*
X185207500Y-42545000D02*
X185207500Y-48135121D01*
X146685000Y-54610000D02*
X150232468Y-54610000D01*
D37*
X171895000Y-48895000D02*
X171895000Y-51435000D01*
X151270000Y-73865000D02*
X152970000Y-75565000D01*
X188750000Y-51677621D02*
X188750000Y-53675242D01*
D35*
X151270000Y-73165000D02*
X151270000Y-73660000D01*
X192885000Y-38100000D02*
X194685000Y-39900000D01*
D37*
X162065000Y-73865000D02*
X163765000Y-75565000D01*
X137805000Y-64130000D02*
X141610000Y-60325000D01*
X185420000Y-48347621D02*
X188750000Y-51677621D01*
X171895000Y-48895000D02*
X173800000Y-46990000D01*
D35*
X151270000Y-55647532D02*
X151270000Y-55880000D01*
D37*
X174560000Y-75360000D02*
X172860000Y-73660000D01*
X180975000Y-46990000D02*
X182332621Y-48347621D01*
X162065000Y-73660000D02*
X162065000Y-73865000D01*
D35*
X193280000Y-71120000D02*
X193280000Y-65585000D01*
X161925000Y-73520000D02*
X162065000Y-73660000D01*
D37*
X151270000Y-73660000D02*
X151270000Y-73865000D01*
D35*
X143510000Y-57785000D02*
X144145000Y-57150000D01*
X150232468Y-54610000D02*
X151270000Y-55647532D01*
D37*
X182332621Y-48347621D02*
X185420000Y-48347621D01*
D35*
X185162500Y-27100000D02*
X194685000Y-36622500D01*
D37*
X151270000Y-55880000D02*
X151270000Y-56085000D01*
D35*
X143422379Y-44537621D02*
X143510000Y-44537621D01*
X161925000Y-71120000D02*
X161925000Y-73520000D01*
X185207500Y-38100000D02*
X185207500Y-31545000D01*
X172720000Y-71120000D02*
X172720000Y-73520000D01*
X141605000Y-54610000D02*
X141605000Y-46355000D01*
X185162500Y-27100000D02*
X185162500Y-31500000D01*
X183515000Y-73520000D02*
X183655000Y-73660000D01*
D37*
X188750000Y-53675242D02*
X187337621Y-55087621D01*
%TO.N,GND*%
X180405000Y-83185000D02*
X179705000Y-83185000D01*
X148020000Y-65405000D02*
X149135500Y-65405000D01*
X185355000Y-83185000D02*
X185355000Y-81915000D01*
X154305000Y-80956072D02*
X153346072Y-81915000D01*
X169610000Y-83185000D02*
X171450000Y-83185000D01*
X185355000Y-84300500D02*
X185420000Y-84365500D01*
X160515000Y-73887540D02*
X161423730Y-74796270D01*
X152970000Y-78105000D02*
X153346072Y-78105000D01*
X152970000Y-83185000D02*
X152970000Y-81915000D01*
X148679500Y-55880000D02*
X148590000Y-55790500D01*
X149135500Y-65405000D02*
X149770500Y-66040000D01*
X179705000Y-80645000D02*
X180405000Y-80645000D01*
X185420000Y-86805000D02*
X185420000Y-84365500D01*
X160515000Y-73660000D02*
X160515000Y-73887540D01*
X180405000Y-80645000D02*
X185355000Y-80645000D01*
X180405000Y-80645000D02*
X180028928Y-80645000D01*
X182105000Y-73660000D02*
X180975000Y-73660000D01*
X179070000Y-79686072D02*
X179070000Y-78740000D01*
X179070000Y-81280000D02*
X179705000Y-80645000D01*
X141795000Y-66865000D02*
X142240000Y-67310000D01*
X140970000Y-66865000D02*
X141795000Y-66865000D01*
X180405000Y-65405000D02*
X180405000Y-66610000D01*
X149720000Y-74790000D02*
X149860000Y-74930000D01*
X179070000Y-82550000D02*
X179070000Y-81280000D01*
X153346072Y-81915000D02*
X152970000Y-81915000D01*
X148020000Y-83185000D02*
X152970000Y-83185000D01*
X185355000Y-80645000D02*
X185355000Y-79375000D01*
X180028928Y-80645000D02*
X179070000Y-79686072D01*
X179705000Y-83185000D02*
X179070000Y-82550000D01*
X149720000Y-73660000D02*
X149720000Y-74790000D01*
X185355000Y-83185000D02*
X185355000Y-84300500D01*
X185355000Y-81915000D02*
X185355000Y-80645000D01*
X173545000Y-51435000D02*
X174625000Y-51435000D01*
X152970000Y-83185000D02*
X158815000Y-83185000D01*
X182105000Y-56107540D02*
X183013730Y-57016270D01*
X149720000Y-55880000D02*
X148679500Y-55880000D01*
X182105000Y-55880000D02*
X182105000Y-56107540D01*
X153346072Y-78105000D02*
X154305000Y-79063928D01*
X171310000Y-73660000D02*
X170180000Y-73660000D01*
X179705000Y-78105000D02*
X180405000Y-78105000D01*
X180405000Y-66610000D02*
X180340000Y-66675000D01*
X154305000Y-79063928D02*
X154305000Y-80956072D01*
X179070000Y-78740000D02*
X179705000Y-78105000D01*
X152970000Y-76835000D02*
X152970000Y-78105000D01*
%TO.N,Net-(D1-Pad1)*%
X167640000Y-84170000D02*
X167640000Y-80010000D01*
X170450000Y-86980000D02*
X167640000Y-84170000D01*
X168275000Y-79375000D02*
X169610000Y-79375000D01*
X167640000Y-80010000D02*
X168275000Y-79375000D01*
%TO.N,Net-(D2-Pad1)*%
X175530000Y-84155000D02*
X175530000Y-86980000D01*
X174560000Y-83185000D02*
X175530000Y-84155000D01*
%TO.N,Net-(J1-Pad2)*%
X110744000Y-58015500D02*
X110800000Y-57959500D01*
X110800000Y-57959500D02*
X110800000Y-52300000D01*
%TO.N,Net-(C2-Pad1)*%
X173859888Y-58740113D02*
X173990000Y-58610001D01*
X175704999Y-60325000D02*
X173990000Y-58610001D01*
X180405000Y-60325000D02*
X175704999Y-60325000D01*
X170180000Y-58740113D02*
X173859888Y-58740113D01*
%TO.N,Net-(C3-Pad1)*%
X168185500Y-74140500D02*
X169610000Y-75565000D01*
X160655000Y-65090113D02*
X162874887Y-65090113D01*
X168185500Y-73660000D02*
X168185500Y-74140500D01*
X162874887Y-63185113D02*
X162874887Y-65090113D01*
X166280500Y-63410500D02*
X165100000Y-62230000D01*
X162874887Y-65090113D02*
X164334888Y-65090113D01*
X164334888Y-65090113D02*
X164465000Y-64960001D01*
X166280500Y-73660000D02*
X166280500Y-63410500D01*
X163830000Y-62230000D02*
X162874887Y-63185113D01*
X165100000Y-62230000D02*
X163830000Y-62230000D01*
%TO.N,Net-(C4-Pad1)*%
X170621072Y-74930000D02*
X170180000Y-74930000D01*
X170180000Y-74930000D02*
X168910000Y-73660000D01*
X168910000Y-66360113D02*
X170180000Y-65090113D01*
X170815000Y-80645000D02*
X171450000Y-80010000D01*
X168910000Y-73660000D02*
X168910000Y-66360113D01*
X171450000Y-75758928D02*
X170621072Y-74930000D01*
X173859888Y-65090113D02*
X173990000Y-64960001D01*
X169610000Y-80645000D02*
X170815000Y-80645000D01*
X171450000Y-80010000D02*
X171450000Y-75758928D01*
X170180000Y-65090113D02*
X173859888Y-65090113D01*
%TO.N,Net-(C5-Pad1)*%
X175895000Y-63500000D02*
X173355000Y-60960000D01*
X163830000Y-55880000D02*
X162880113Y-56829887D01*
X160655000Y-58740113D02*
X162880113Y-58740113D01*
X162880113Y-56829887D02*
X162880113Y-58740113D01*
X173355000Y-60960000D02*
X169545000Y-60960000D01*
X173990000Y-79375000D02*
X173260480Y-78645480D01*
X173260480Y-77565238D02*
X173355718Y-77470000D01*
X165735000Y-56515000D02*
X165100000Y-55880000D01*
X173260480Y-78645480D02*
X173260480Y-77565238D01*
X162880113Y-58740113D02*
X164334888Y-58740113D01*
X165100000Y-55880000D02*
X163830000Y-55880000D01*
X175571072Y-77470000D02*
X175895000Y-77146072D01*
X165735000Y-57150000D02*
X165735000Y-56515000D01*
X164334888Y-58740113D02*
X164465000Y-58610001D01*
X175895000Y-77146072D02*
X175895000Y-63500000D01*
X169545000Y-60960000D02*
X165735000Y-57150000D01*
X174560000Y-79375000D02*
X173990000Y-79375000D01*
X173355718Y-77470000D02*
X175571072Y-77470000D01*
%TO.N,Net-(C6-Pad1)*%
X176844888Y-51872026D02*
X176844888Y-50165000D01*
X173545000Y-48895000D02*
X174815000Y-50165000D01*
X174815000Y-50165000D02*
X176844888Y-50165000D01*
X184027862Y-59055000D02*
X176844888Y-51872026D01*
X185355000Y-59055000D02*
X184027862Y-59055000D01*
%TO.N,Net-(C8-Pad1)*%
X154178000Y-48260000D02*
X152400000Y-46482000D01*
X156655000Y-48260000D02*
X154178000Y-48260000D01*
%TO.N,Net-(D1-Pad3)*%
X185420000Y-88455000D02*
X184595000Y-87630000D01*
X177165000Y-87630000D02*
X177530000Y-87630000D01*
X177165000Y-87630000D02*
X182610000Y-87630000D01*
X185420000Y-88455000D02*
X185865000Y-88455000D01*
X185865000Y-88455000D02*
X186690000Y-87630000D01*
X180405000Y-81915000D02*
X181610000Y-81915000D01*
X172450000Y-87630000D02*
X177165000Y-87630000D01*
X186690000Y-87630000D02*
X186690000Y-70755000D01*
X184595000Y-87630000D02*
X182610000Y-87630000D01*
X181610000Y-81915000D02*
X182610000Y-82915000D01*
X182610000Y-82915000D02*
X182610000Y-87630000D01*
X186690000Y-70755000D02*
X183880000Y-67945000D01*
%TO.N,/VREF_2.5V*%
X121920000Y-57150000D02*
X125030000Y-57150000D01*
X120080000Y-71120000D02*
X119380000Y-71120000D01*
X120015000Y-57085000D02*
X120080000Y-57150000D01*
X119380000Y-71120000D02*
X118110000Y-69850000D01*
X118110000Y-69850000D02*
X117260500Y-69000500D01*
X121730000Y-55245000D02*
X121730000Y-56960000D01*
X120080000Y-57150000D02*
X121920000Y-57150000D01*
X117260500Y-69000500D02*
X117260500Y-57150000D01*
X120015000Y-55880000D02*
X120015000Y-57085000D01*
X121730000Y-56960000D02*
X121920000Y-57150000D01*
%TO.N,Net-(R10-Pad1)*%
X167454520Y-78926916D02*
X165735000Y-80646436D01*
X157294520Y-79560480D02*
X157480000Y-79375000D01*
X168910000Y-61595000D02*
X167454520Y-63050480D01*
X165735000Y-81915000D02*
X165100000Y-82550000D01*
X172274999Y-61595000D02*
X168910000Y-61595000D01*
X173990000Y-63310001D02*
X172274999Y-61595000D01*
X157480000Y-79375000D02*
X158815000Y-79375000D01*
X157480718Y-81280000D02*
X157294520Y-81093802D01*
X165735000Y-80646436D02*
X165735000Y-81915000D01*
X167454520Y-63050480D02*
X167454520Y-78926916D01*
X161290000Y-82550000D02*
X160020000Y-81280000D01*
X157294520Y-81093802D02*
X157294520Y-79560480D01*
X165100000Y-82550000D02*
X161290000Y-82550000D01*
X160020000Y-81280000D02*
X157480718Y-81280000D01*
%TO.N,Net-(R11-Pad1)*%
X167005000Y-78740718D02*
X167005000Y-59500001D01*
X165100718Y-80645000D02*
X167005000Y-78740718D01*
X167005000Y-59500001D02*
X164465000Y-56960001D01*
X163765000Y-80645000D02*
X165100718Y-80645000D01*
%TO.N,Net-(D3-Pad1)*%
X180610000Y-86980000D02*
X177800000Y-84170000D01*
X177800000Y-84170000D02*
X177800000Y-79375000D01*
X177800000Y-79375000D02*
X176530000Y-78105000D01*
X176530000Y-78105000D02*
X174560000Y-78105000D01*
%TO.N,Net-(D4-Pad1)*%
X180975000Y-64135000D02*
X182245000Y-65405000D01*
X182245000Y-65405000D02*
X182245000Y-66930000D01*
X180405000Y-64135000D02*
X180975000Y-64135000D01*
X182245000Y-66930000D02*
X181880000Y-67295000D01*
%TO.N,/~{HV_DETECTED}*%
X149225718Y-62230000D02*
X151130718Y-64135000D01*
X149860000Y-57785000D02*
X149225000Y-57150000D01*
X139515000Y-66670000D02*
X140970000Y-65215000D01*
X149225000Y-57150000D02*
X148590000Y-56515000D01*
X137805000Y-66670000D02*
X139515000Y-66670000D01*
X147320000Y-59055000D02*
X146050000Y-60325000D01*
X146685000Y-62230000D02*
X149225718Y-62230000D01*
X140970000Y-65215000D02*
X140970000Y-62865000D01*
X148590000Y-56515000D02*
X146864000Y-56515000D01*
X148020000Y-59055000D02*
X147320000Y-59055000D01*
X149860000Y-58420000D02*
X149860000Y-57785000D01*
X148020000Y-59055000D02*
X149225000Y-59055000D01*
X140970000Y-62865000D02*
X142240000Y-61595000D01*
X146050000Y-60960000D02*
X145325500Y-60960000D01*
X146050000Y-60960000D02*
X146050000Y-61595000D01*
X146050000Y-60325000D02*
X146050000Y-60960000D01*
X151130718Y-64135000D02*
X152970000Y-64135000D01*
X149225000Y-59055000D02*
X149860000Y-58420000D01*
X146050000Y-61595000D02*
X146685000Y-62230000D01*
%TO.N,Net-(D5-Pad3)*%
X158480000Y-48435000D02*
X158480000Y-51435000D01*
X168500489Y-49120489D02*
X166144511Y-49120489D01*
X169545000Y-50165000D02*
X168500489Y-49120489D01*
X158305000Y-48260000D02*
X158480000Y-48435000D01*
X162560000Y-50165000D02*
X165100000Y-50165000D01*
X173355000Y-54610000D02*
X169545000Y-50800000D01*
X169545000Y-50800000D02*
X169545000Y-50165000D01*
X180405000Y-57785000D02*
X179070000Y-57785000D01*
X179070000Y-57785000D02*
X175895000Y-54610000D01*
X161290000Y-51435000D02*
X162560000Y-50165000D01*
X166144511Y-49120489D02*
X165100000Y-50165000D01*
X158480000Y-51435000D02*
X161290000Y-51435000D01*
X175895000Y-54610000D02*
X173355000Y-54610000D01*
%TO.N,Net-(D6-Pad1)*%
X117857263Y-83828520D02*
X121555000Y-80130783D01*
X111863500Y-82804000D02*
X110744000Y-81684500D01*
X121555000Y-80130783D02*
X121555000Y-79995000D01*
X110744000Y-81684500D02*
X110744000Y-80160500D01*
X112888020Y-83828520D02*
X117857263Y-83828520D01*
X111863500Y-82804000D02*
X112888020Y-83828520D01*
%TO.N,Net-(D7-Pad1)*%
X119380000Y-36640000D02*
X119380000Y-35077500D01*
%TO.N,/~{PRCHG_MECH_ON}*%
X146595500Y-62865000D02*
X145960500Y-63500000D01*
D35*
X155300000Y-26000000D02*
X156324521Y-24975479D01*
D37*
X151130000Y-70483564D02*
X156210000Y-75563564D01*
X156210000Y-75565000D02*
X157480000Y-76835000D01*
X150635000Y-30165000D02*
X157000000Y-30165000D01*
D35*
X155300000Y-28900000D02*
X155300000Y-26000000D01*
D37*
X148020000Y-62865000D02*
X146595500Y-62865000D01*
D35*
X156565000Y-30165000D02*
X155300000Y-28900000D01*
X168212979Y-24975479D02*
X170337500Y-27100000D01*
X157000000Y-30165000D02*
X156565000Y-30165000D01*
X170337500Y-27100000D02*
X170337500Y-31500000D01*
D37*
X157480000Y-76835000D02*
X158815000Y-76835000D01*
X148020000Y-62865000D02*
X149225000Y-62865000D01*
X149225000Y-62865000D02*
X151130000Y-64770000D01*
X145414989Y-53975000D02*
X145414989Y-35385011D01*
X151130000Y-64770000D02*
X151130000Y-70483564D01*
X145414989Y-35385011D02*
X150635000Y-30165000D01*
D35*
X156324521Y-24975479D02*
X168212979Y-24975479D01*
D37*
X156210000Y-75563564D02*
X156210000Y-75565000D01*
%TO.N,/~{LOW_AIR_MECH_ON}*%
X148044500Y-47281500D02*
X150368000Y-44958000D01*
X149225000Y-64135000D02*
X150495000Y-65405000D01*
D35*
X170392500Y-38100000D02*
X170392500Y-42545000D01*
D37*
X148020000Y-64135000D02*
X146774500Y-64135000D01*
X148044500Y-48260000D02*
X148044500Y-47281500D01*
X150495000Y-65405000D02*
X150495000Y-70484282D01*
X156845000Y-76835718D02*
X156845000Y-81280000D01*
X156845000Y-81280000D02*
X157480000Y-81915000D01*
X167979500Y-44958000D02*
X170392500Y-42545000D01*
X155760480Y-75751198D02*
X156845000Y-76835718D01*
D35*
X170392500Y-37557500D02*
X163000000Y-30165000D01*
D37*
X157480000Y-81915000D02*
X158815000Y-81915000D01*
D35*
X170392500Y-38100000D02*
X170392500Y-37557500D01*
D37*
X155760480Y-75749762D02*
X155760480Y-75751198D01*
X150495000Y-70484282D02*
X155760480Y-75749762D01*
X146774500Y-64135000D02*
X146139500Y-64770000D01*
X148020000Y-64135000D02*
X149225000Y-64135000D01*
X150368000Y-44958000D02*
X167979500Y-44958000D01*
%TO.N,/~{HIGH_AIR_MECH_ON}*%
X159740480Y-74137618D02*
X159740480Y-74015480D01*
X154861472Y-65405000D02*
X154900736Y-65444264D01*
X163765000Y-81915000D02*
X162560000Y-81915000D01*
X154469500Y-57695500D02*
X154269520Y-57495520D01*
X152970000Y-65405000D02*
X154861472Y-65405000D01*
X147320000Y-50408990D02*
X147320000Y-45297500D01*
D35*
X155765000Y-34400000D02*
X160000000Y-30165000D01*
D37*
X161925000Y-80645000D02*
X162560000Y-80010000D01*
D35*
X153772500Y-34400000D02*
X155765000Y-34400000D01*
D37*
X149002511Y-52873521D02*
X149002511Y-52091501D01*
X154940000Y-57695500D02*
X154469500Y-57695500D01*
X165735000Y-76835000D02*
X165100000Y-76200000D01*
X152970000Y-67245000D02*
X152970000Y-65405000D01*
X147320000Y-45297500D02*
X150072500Y-42545000D01*
X162560000Y-80010000D02*
X165100000Y-80010000D01*
X165100000Y-76200000D02*
X161802862Y-76200000D01*
X150541027Y-53752511D02*
X149881501Y-53752511D01*
X149002511Y-52091501D02*
X147320000Y-50408990D01*
X161802862Y-76200000D02*
X159740480Y-74137618D01*
X154269520Y-57438448D02*
X152137076Y-55306004D01*
X165735000Y-79375000D02*
X165735000Y-76835000D01*
X159740480Y-74015480D02*
X152970000Y-67245000D01*
X165100000Y-80010000D02*
X165735000Y-79375000D01*
X162560000Y-81915000D02*
X161925000Y-81280000D01*
X149881501Y-53752511D02*
X149002511Y-52873521D01*
X152094520Y-55306004D02*
X150541027Y-53752511D01*
X161925000Y-81280000D02*
X161925000Y-80645000D01*
X154269520Y-57495520D02*
X154269520Y-57438448D01*
X152137076Y-55306004D02*
X152094520Y-55306004D01*
D35*
X150072500Y-38100000D02*
X153772500Y-34400000D01*
X150072500Y-38100000D02*
X150072500Y-42545000D01*
D37*
%TO.N,/HIGH_AIR_INTENDED_ON*%
X154940000Y-81280000D02*
X156210000Y-82550000D01*
X156210000Y-82550000D02*
X160020000Y-82550000D01*
X154305000Y-76200000D02*
X154940000Y-76835000D01*
X154940000Y-76835000D02*
X154940000Y-81280000D01*
X192045000Y-79750000D02*
X194665000Y-79750000D01*
X187960000Y-85090000D02*
X187960000Y-83835000D01*
X160655000Y-83185000D02*
X163765000Y-83185000D01*
X151765000Y-76200000D02*
X154305000Y-76200000D01*
X151130000Y-76835000D02*
X151765000Y-76200000D01*
X163765000Y-83755000D02*
X165100000Y-85090000D01*
X160020000Y-82550000D02*
X160655000Y-83185000D01*
X163765000Y-83185000D02*
X163765000Y-83755000D01*
X187960000Y-83835000D02*
X192045000Y-79750000D01*
X148020000Y-76835000D02*
X151130000Y-76835000D01*
%TO.N,/LOW_AIR_INTENDED_ON*%
X191134282Y-73660000D02*
X196250000Y-78775718D01*
X157992144Y-73025000D02*
X157480000Y-73025000D01*
X196250000Y-81335000D02*
X197665000Y-82750000D01*
X162560000Y-76835000D02*
X161802144Y-76835000D01*
X158815000Y-80645000D02*
X160020000Y-80645000D01*
X196250000Y-78775718D02*
X196250000Y-81335000D01*
X161290000Y-79375000D02*
X161290000Y-78105000D01*
X161802144Y-76835000D02*
X157992144Y-73025000D01*
X187960000Y-73660000D02*
X191134282Y-73660000D01*
X162560000Y-76835000D02*
X163765000Y-76835000D01*
X160020000Y-80645000D02*
X161290000Y-79375000D01*
X161290000Y-78105000D02*
X162560000Y-76835000D01*
%TO.N,/Implausibility and LED logic/GREEN_LED_ON*%
X194665000Y-61200000D02*
X197665000Y-64200000D01*
X193000000Y-62865000D02*
X194665000Y-61200000D01*
X193000000Y-62865000D02*
X185355000Y-62865000D01*
%TO.N,/Implausibility and LED logic/RED_LED_ON*%
X172720000Y-55245000D02*
X175260000Y-55245000D01*
X175260000Y-55245000D02*
X179070000Y-59055000D01*
X193185480Y-59679520D02*
X181029520Y-59679520D01*
X197665000Y-61200000D02*
X194665000Y-58200000D01*
X194665000Y-58200000D02*
X193185480Y-59679520D01*
X181029520Y-59679520D02*
X180405000Y-59055000D01*
X179070000Y-59055000D02*
X180405000Y-59055000D01*
X167640000Y-50165000D02*
X172720000Y-55245000D01*
D35*
%TO.N,Net-(R2-Pad2)*%
X179282500Y-42545000D02*
X177800000Y-42545000D01*
X176317500Y-38100000D02*
X177800000Y-38100000D01*
X177800000Y-42545000D02*
X176317500Y-42545000D01*
X177800000Y-38100000D02*
X179282500Y-38100000D01*
X177800000Y-38100000D02*
X177800000Y-42545000D01*
D37*
%TO.N,Net-(R6-Pad1)*%
X149860000Y-60325000D02*
X151765000Y-58420000D01*
X156845000Y-58420000D02*
X160655000Y-54610000D01*
X170180000Y-54610000D02*
X172530001Y-56960001D01*
X172530001Y-56960001D02*
X173990000Y-56960001D01*
X148020000Y-60325000D02*
X149860000Y-60325000D01*
X151765000Y-58420000D02*
X156845000Y-58420000D01*
X160655000Y-54610000D02*
X170180000Y-54610000D01*
D35*
%TO.N,Net-(R12-Pad2)*%
X155997500Y-38100000D02*
X157480000Y-38100000D01*
X157480000Y-38100000D02*
X158962500Y-38100000D01*
X157480000Y-42545000D02*
X158962500Y-42545000D01*
X157480000Y-38100000D02*
X157480000Y-42545000D01*
X155997500Y-42545000D02*
X157480000Y-42545000D01*
D37*
%TO.N,Net-(R9-Pad1)*%
X157803928Y-76200000D02*
X157480718Y-76200000D01*
X158815000Y-78105000D02*
X160020000Y-78105000D01*
X156845359Y-75564641D02*
X156845359Y-75563205D01*
X157480000Y-69850000D02*
X161290000Y-69850000D01*
X160020000Y-76200000D02*
X158750000Y-76200000D01*
X160655000Y-76835000D02*
X160020000Y-76200000D01*
X156845359Y-75563205D02*
X154305000Y-73022846D01*
X160655000Y-77470000D02*
X160655000Y-76835000D01*
X165735000Y-65405000D02*
X165735000Y-64580001D01*
X161290000Y-69850000D02*
X165735000Y-65405000D01*
X154305000Y-73022846D02*
X154305000Y-69850000D01*
X160020000Y-78105000D02*
X160655000Y-77470000D01*
X157480718Y-76200000D02*
X156845359Y-75564641D01*
X165735000Y-64580001D02*
X164465000Y-63310001D01*
X158750000Y-76200000D02*
X157803928Y-76200000D01*
%TO.N,Net-(R17-Pad2)*%
X110744000Y-62079500D02*
X110744000Y-59840500D01*
%TO.N,Net-(R18-Pad1)*%
X110744000Y-66143500D02*
X110744000Y-63904500D01*
%TO.N,Net-(R20-Pad2)*%
X110744000Y-70207500D02*
X110744000Y-67968500D01*
%TO.N,Net-(R21-Pad1)*%
X110744000Y-74271500D02*
X110744000Y-72032500D01*
%TO.N,Net-(R22-Pad2)*%
X110744000Y-78335500D02*
X110744000Y-76096500D01*
%TO.N,Net-(R27-Pad1)*%
X121092500Y-65405000D02*
X120080000Y-66417500D01*
X120080000Y-66417500D02*
X120080000Y-69850000D01*
D36*
%TO.N,Net-(R27-Pad2)*%
X124017500Y-65405000D02*
X125282500Y-66670000D01*
X125282500Y-66670000D02*
X130185000Y-66670000D01*
D37*
%TO.N,Net-(U1-Pad1)*%
X144334520Y-60770480D02*
X147320000Y-57785000D01*
X162014500Y-79375000D02*
X163765000Y-79375000D01*
X156120500Y-79375000D02*
X156120500Y-77379783D01*
X144334520Y-64959520D02*
X144334520Y-60770480D01*
X156120500Y-77379783D02*
X155310960Y-76570243D01*
X147320000Y-57785000D02*
X148020000Y-57785000D01*
X155310960Y-75935960D02*
X144334520Y-64959520D01*
X155310960Y-76570243D02*
X155310960Y-75935960D01*
%TO.N,Net-(U1-Pad12)*%
X150495000Y-61595000D02*
X148020000Y-61595000D01*
X152970000Y-60325000D02*
X151765000Y-60325000D01*
X151765000Y-60325000D02*
X150495000Y-61595000D01*
%TO.N,Net-(U1-Pad10)*%
X152970000Y-59055000D02*
X153670000Y-59055000D01*
X153670000Y-62865000D02*
X152970000Y-62865000D01*
X154940000Y-60325000D02*
X154940000Y-61595000D01*
X154940000Y-61595000D02*
X153670000Y-62865000D01*
X153670000Y-59055000D02*
X154940000Y-60325000D01*
%TO.N,Net-(D5-Pad1)*%
X152161000Y-50785000D02*
X156480000Y-50785000D01*
X150368000Y-52578000D02*
X152161000Y-50785000D01*
%TO.N,/PRCHG_INTENDED_ON*%
X156659520Y-74108084D02*
X156210000Y-73658564D01*
X197665000Y-79555000D02*
X197665000Y-79750000D01*
X187960000Y-72390000D02*
X188595000Y-73025000D01*
X158115000Y-75565000D02*
X156659520Y-74109520D01*
X156210000Y-73658564D02*
X156210000Y-72390000D01*
X158815000Y-75565000D02*
X158115000Y-75565000D01*
X148020000Y-72960000D02*
X148590000Y-72390000D01*
X191135000Y-73025000D02*
X197665000Y-79555000D01*
X156659520Y-74109520D02*
X156659520Y-74108084D01*
X188595000Y-73025000D02*
X191135000Y-73025000D01*
X148020000Y-75565000D02*
X148020000Y-72960000D01*
%TO.N,Net-(U2-Pad3)*%
X163614951Y-78255049D02*
X163765000Y-78105000D01*
X148020000Y-78105000D02*
X149860000Y-78105000D01*
X162164549Y-78255049D02*
X163614951Y-78255049D01*
%TO.N,Net-(U2-Pad4)*%
X183515000Y-66040000D02*
X189415480Y-71940480D01*
X192580000Y-90170000D02*
X151920000Y-90170000D01*
X191690480Y-71940480D02*
X200025000Y-80275000D01*
X145500000Y-81518928D02*
X147643928Y-79375000D01*
X184150000Y-61595000D02*
X183515000Y-62230000D01*
X147643928Y-79375000D02*
X148020000Y-79375000D01*
X200025000Y-80275000D02*
X200025000Y-82725000D01*
X185355000Y-61595000D02*
X184150000Y-61595000D01*
X145500000Y-83750000D02*
X145500000Y-81518928D01*
X189415480Y-71940480D02*
X191690480Y-71940480D01*
X151920000Y-90170000D02*
X145500000Y-83750000D01*
X200025000Y-82725000D02*
X192580000Y-90170000D01*
X183515000Y-62230000D02*
X183515000Y-66040000D01*
%TO.N,/Implausibility and LED logic/~{TSAL_ACTIVE}*%
X187960000Y-64135000D02*
X185355000Y-64135000D01*
X189230000Y-65405000D02*
X187960000Y-64135000D01*
X155349536Y-64868464D02*
X158750000Y-68268928D01*
X153981072Y-63500000D02*
X155349536Y-64868464D01*
X151130000Y-62865000D02*
X151765000Y-63500000D01*
X151765000Y-63500000D02*
X153981072Y-63500000D01*
X155702000Y-64516000D02*
X155702000Y-64008000D01*
X151765000Y-61595000D02*
X151130000Y-62230000D01*
X152970000Y-61595000D02*
X151765000Y-61595000D01*
X155349536Y-64868464D02*
X155702000Y-64516000D01*
X152908000Y-54102000D02*
X152908000Y-52578000D01*
X189230000Y-69215000D02*
X189230000Y-65405000D01*
X158750000Y-68268928D02*
X158750000Y-69125500D01*
X151130000Y-62230000D02*
X151130000Y-62865000D01*
X155702000Y-56896000D02*
X152908000Y-54102000D01*
%TO.N,/Implausibility and LED logic/IMPLAUSIBLE*%
X179070000Y-75565000D02*
X180405000Y-75565000D01*
X178435000Y-76200000D02*
X179070000Y-75565000D01*
X180975000Y-85814500D02*
X180429500Y-85814500D01*
X162560000Y-84455000D02*
X147643928Y-84455000D01*
X147643928Y-84455000D02*
X146685000Y-83496072D01*
X146685000Y-82873928D02*
X147643928Y-81915000D01*
X146685000Y-83496072D02*
X146685000Y-82873928D01*
X180429500Y-85814500D02*
X178435000Y-83820000D01*
X147643928Y-81915000D02*
X148020000Y-81915000D01*
X178435000Y-83820000D02*
X178435000Y-76200000D01*
X163830000Y-85725000D02*
X162560000Y-84455000D01*
%TO.N,Net-(U4-Pad2)*%
X169610000Y-76835000D02*
X169610000Y-78105000D01*
%TO.N,Net-(U4-Pad6)*%
X169610000Y-81915000D02*
X174560000Y-81915000D01*
%TO.N,Net-(U4-Pad10)*%
X174560000Y-80645000D02*
X173355000Y-80645000D01*
X172720000Y-80010000D02*
X172720000Y-77470000D01*
X173355000Y-80645000D02*
X172720000Y-80010000D01*
X173355000Y-76835000D02*
X174560000Y-76835000D01*
X172720000Y-77470000D02*
X173355000Y-76835000D01*
%TO.N,Net-(U5-Pad4)*%
X180405000Y-61595000D02*
X180405000Y-62865000D01*
%TO.N,/Implausibility and LED logic/POR*%
X180975000Y-79375000D02*
X182245000Y-78105000D01*
X181610000Y-74930000D02*
X180340000Y-74930000D01*
X180405000Y-79375000D02*
X180975000Y-79375000D01*
X182245000Y-78105000D02*
X182245000Y-75565000D01*
X184784282Y-60325000D02*
X185355000Y-60325000D01*
X182880000Y-62229282D02*
X184784282Y-60325000D01*
X182880000Y-69850000D02*
X182880000Y-62229282D01*
X179705000Y-74295000D02*
X179705000Y-73025000D01*
X182245000Y-75565000D02*
X181610000Y-74930000D01*
X180340000Y-74930000D02*
X179705000Y-74295000D01*
X179705000Y-73025000D02*
X182880000Y-69850000D01*
%TO.N,Net-(R25-Pad1)*%
X116015000Y-74485000D02*
X118110000Y-72390000D01*
X113688500Y-82804000D02*
X116015000Y-82804000D01*
X116015000Y-82804000D02*
X116015000Y-74485000D01*
X118110000Y-72390000D02*
X120080000Y-72390000D01*
%TO.N,Net-(U2-Pad5)*%
X148020000Y-80645000D02*
X149225000Y-80645000D01*
X151055000Y-90805000D02*
X195422465Y-90805000D01*
X149860000Y-80010000D02*
X149860000Y-79375000D01*
X191990960Y-71490960D02*
X189601678Y-71490960D01*
X144500000Y-80290000D02*
X144500000Y-84250000D01*
X195422465Y-90805000D02*
X200660000Y-85567465D01*
X144500000Y-84250000D02*
X151055000Y-90805000D01*
X146050000Y-78740000D02*
X144500000Y-80290000D01*
X200660000Y-80160000D02*
X191990960Y-71490960D01*
X200660000Y-85567465D02*
X200660000Y-80160000D01*
X185355000Y-67244282D02*
X185355000Y-65405000D01*
X189601678Y-71490960D02*
X185355000Y-67244282D01*
X149860000Y-79375000D02*
X149225000Y-78740000D01*
X149225000Y-78740000D02*
X146050000Y-78740000D01*
X149225000Y-80645000D02*
X149860000Y-80010000D01*
D35*
%TO.N,Net-(R1-Pad2)*%
X177757500Y-27055000D02*
X179240000Y-27055000D01*
X179240000Y-31500000D02*
X177757500Y-31500000D01*
X177757500Y-31500000D02*
X176275000Y-31500000D01*
X176275000Y-27055000D02*
X177757500Y-27055000D01*
X177757500Y-27055000D02*
X177757500Y-31500000D01*
%TD*%
M02*
