%TF.GenerationSoftware,KiCad,Pcbnew,(6.0.5)*%
%TF.CreationDate,2022-06-14T16:57:57+01:00*%
%TF.ProjectId,hv_sense,68765f73-656e-4736-952e-6b696361645f,rev?*%
%TF.SameCoordinates,Original*%
%TF.FileFunction,Paste,Top*%
%TF.FilePolarity,Positive*%
%FSLAX46Y46*%
G04 Gerber Fmt 4.6, Leading zero omitted, Abs format (unit mm)*
G04 Created by KiCad (PCBNEW (6.0.5)) date 2022-06-14 16:57:57*
%MOMM*%
%LPD*%
G01*
G04 APERTURE LIST*
G04 Aperture macros list*
%AMRoundRect*
0 Rectangle with rounded corners*
0 $1 Rounding radius*
0 $2 $3 $4 $5 $6 $7 $8 $9 X,Y pos of 4 corners*
0 Add a 4 corners polygon primitive as box body*
4,1,4,$2,$3,$4,$5,$6,$7,$8,$9,$2,$3,0*
0 Add four circle primitives for the rounded corners*
1,1,$1+$1,$2,$3*
1,1,$1+$1,$4,$5*
1,1,$1+$1,$6,$7*
1,1,$1+$1,$8,$9*
0 Add four rect primitives between the rounded corners*
20,1,$1+$1,$2,$3,$4,$5,0*
20,1,$1+$1,$4,$5,$6,$7,0*
20,1,$1+$1,$6,$7,$8,$9,0*
20,1,$1+$1,$8,$9,$2,$3,0*%
G04 Aperture macros list end*
%ADD10RoundRect,0.250000X0.362500X1.425000X-0.362500X1.425000X-0.362500X-1.425000X0.362500X-1.425000X0*%
%ADD11RoundRect,0.225000X0.225000X0.250000X-0.225000X0.250000X-0.225000X-0.250000X0.225000X-0.250000X0*%
%ADD12RoundRect,0.150000X-0.825000X-0.150000X0.825000X-0.150000X0.825000X0.150000X-0.825000X0.150000X0*%
%ADD13RoundRect,0.200000X-0.275000X0.200000X-0.275000X-0.200000X0.275000X-0.200000X0.275000X0.200000X0*%
%ADD14R,0.700000X0.450000*%
%ADD15RoundRect,0.250000X-0.312500X-0.625000X0.312500X-0.625000X0.312500X0.625000X-0.312500X0.625000X0*%
%ADD16RoundRect,0.250000X0.450000X-0.262500X0.450000X0.262500X-0.450000X0.262500X-0.450000X-0.262500X0*%
%ADD17RoundRect,0.218750X0.256250X-0.218750X0.256250X0.218750X-0.256250X0.218750X-0.256250X-0.218750X0*%
%ADD18RoundRect,0.250000X-0.262500X-0.450000X0.262500X-0.450000X0.262500X0.450000X-0.262500X0.450000X0*%
%ADD19RoundRect,0.200000X-0.200000X-0.275000X0.200000X-0.275000X0.200000X0.275000X-0.200000X0.275000X0*%
%ADD20RoundRect,0.250000X-0.450000X0.262500X-0.450000X-0.262500X0.450000X-0.262500X0.450000X0.262500X0*%
%ADD21RoundRect,0.200000X0.200000X0.275000X-0.200000X0.275000X-0.200000X-0.275000X0.200000X-0.275000X0*%
%ADD22RoundRect,0.200000X0.275000X-0.200000X0.275000X0.200000X-0.275000X0.200000X-0.275000X-0.200000X0*%
G04 APERTURE END LIST*
D10*
%TO.C,R7*%
X164887500Y-38100000D03*
X158962500Y-38100000D03*
%TD*%
D11*
%TO.C,C10*%
X162065000Y-73660000D03*
X160515000Y-73660000D03*
%TD*%
D12*
%TO.C,U4*%
X169610000Y-75565000D03*
X169610000Y-76835000D03*
X169610000Y-78105000D03*
X169610000Y-79375000D03*
X169610000Y-80645000D03*
X169610000Y-81915000D03*
X169610000Y-83185000D03*
X174560000Y-83185000D03*
X174560000Y-81915000D03*
X174560000Y-80645000D03*
X174560000Y-79375000D03*
X174560000Y-78105000D03*
X174560000Y-76835000D03*
X174560000Y-75565000D03*
%TD*%
D13*
%TO.C,R10*%
X173990000Y-63310001D03*
X173990000Y-64960001D03*
%TD*%
D14*
%TO.C,D6*%
X121555000Y-79995000D03*
X121555000Y-81295000D03*
X123555000Y-80645000D03*
%TD*%
D15*
%TO.C,R27*%
X121092500Y-65405000D03*
X124017500Y-65405000D03*
%TD*%
D16*
%TO.C,R23*%
X110744000Y-80160500D03*
X110744000Y-78335500D03*
%TD*%
D17*
%TO.C,D7*%
X119380000Y-35077500D03*
X119380000Y-33502500D03*
%TD*%
D13*
%TO.C,R14*%
X185420000Y-86805000D03*
X185420000Y-88455000D03*
%TD*%
D18*
%TO.C,R29*%
X111863500Y-82804000D03*
X113688500Y-82804000D03*
%TD*%
D12*
%TO.C,U6*%
X180405000Y-75565000D03*
X180405000Y-76835000D03*
X180405000Y-78105000D03*
X180405000Y-79375000D03*
X180405000Y-80645000D03*
X180405000Y-81915000D03*
X180405000Y-83185000D03*
X185355000Y-83185000D03*
X185355000Y-81915000D03*
X185355000Y-80645000D03*
X185355000Y-79375000D03*
X185355000Y-78105000D03*
X185355000Y-76835000D03*
X185355000Y-75565000D03*
%TD*%
D14*
%TO.C,D2*%
X175530000Y-86980000D03*
X175530000Y-88280000D03*
X177530000Y-87630000D03*
%TD*%
D19*
%TO.C,R25*%
X116015000Y-82804000D03*
X117665000Y-82804000D03*
%TD*%
D13*
%TO.C,R26*%
X119380000Y-36640000D03*
X119380000Y-38290000D03*
%TD*%
D12*
%TO.C,U3*%
X158815000Y-75565000D03*
X158815000Y-76835000D03*
X158815000Y-78105000D03*
X158815000Y-79375000D03*
X158815000Y-80645000D03*
X158815000Y-81915000D03*
X158815000Y-83185000D03*
X163765000Y-83185000D03*
X163765000Y-81915000D03*
X163765000Y-80645000D03*
X163765000Y-79375000D03*
X163765000Y-78105000D03*
X163765000Y-76835000D03*
X163765000Y-75565000D03*
%TD*%
D14*
%TO.C,D4*%
X181880000Y-67295000D03*
X181880000Y-68595000D03*
X183880000Y-67945000D03*
%TD*%
D11*
%TO.C,C12*%
X151270000Y-73660000D03*
X149720000Y-73660000D03*
%TD*%
D19*
%TO.C,R19*%
X156655000Y-48260000D03*
X158305000Y-48260000D03*
%TD*%
D10*
%TO.C,R4*%
X185207500Y-42545000D03*
X179282500Y-42545000D03*
%TD*%
D13*
%TO.C,R9*%
X164465000Y-63310001D03*
X164465000Y-64960001D03*
%TD*%
D19*
%TO.C,R15*%
X171895000Y-51435000D03*
X173545000Y-51435000D03*
%TD*%
D20*
%TO.C,R20*%
X110744000Y-66143500D03*
X110744000Y-67968500D03*
%TD*%
D14*
%TO.C,D1*%
X170450000Y-86980000D03*
X170450000Y-88280000D03*
X172450000Y-87630000D03*
%TD*%
D10*
%TO.C,R13*%
X155997500Y-42545000D03*
X150072500Y-42545000D03*
%TD*%
D11*
%TO.C,C15*%
X183655000Y-73660000D03*
X182105000Y-73660000D03*
%TD*%
D10*
%TO.C,R2*%
X185207500Y-38100000D03*
X179282500Y-38100000D03*
%TD*%
D20*
%TO.C,R22*%
X110744000Y-74271500D03*
X110744000Y-76096500D03*
%TD*%
D13*
%TO.C,R6*%
X173990000Y-56960001D03*
X173990000Y-58610001D03*
%TD*%
D14*
%TO.C,D5*%
X156480000Y-50785000D03*
X156480000Y-52085000D03*
X158480000Y-51435000D03*
%TD*%
%TO.C,D3*%
X180610000Y-86980000D03*
X180610000Y-88280000D03*
X182610000Y-87630000D03*
%TD*%
D20*
%TO.C,R17*%
X110744000Y-58015500D03*
X110744000Y-59840500D03*
%TD*%
D10*
%TO.C,R8*%
X155997500Y-38100000D03*
X150072500Y-38100000D03*
%TD*%
D21*
%TO.C,R24*%
X123380000Y-55245000D03*
X121730000Y-55245000D03*
%TD*%
D10*
%TO.C,R3*%
X176317500Y-38100000D03*
X170392500Y-38100000D03*
%TD*%
D11*
%TO.C,C1*%
X123330000Y-67945000D03*
X121780000Y-67945000D03*
%TD*%
D10*
%TO.C,R12*%
X164887500Y-42545000D03*
X158962500Y-42545000D03*
%TD*%
%TO.C,R5*%
X176317500Y-42545000D03*
X170392500Y-42545000D03*
%TD*%
D12*
%TO.C,U2*%
X148020000Y-75565000D03*
X148020000Y-76835000D03*
X148020000Y-78105000D03*
X148020000Y-79375000D03*
X148020000Y-80645000D03*
X148020000Y-81915000D03*
X148020000Y-83185000D03*
X152970000Y-83185000D03*
X152970000Y-81915000D03*
X152970000Y-80645000D03*
X152970000Y-79375000D03*
X152970000Y-78105000D03*
X152970000Y-76835000D03*
X152970000Y-75565000D03*
%TD*%
%TO.C,U5*%
X180405000Y-57785000D03*
X180405000Y-59055000D03*
X180405000Y-60325000D03*
X180405000Y-61595000D03*
X180405000Y-62865000D03*
X180405000Y-64135000D03*
X180405000Y-65405000D03*
X185355000Y-65405000D03*
X185355000Y-64135000D03*
X185355000Y-62865000D03*
X185355000Y-61595000D03*
X185355000Y-60325000D03*
X185355000Y-59055000D03*
X185355000Y-57785000D03*
%TD*%
D13*
%TO.C,R11*%
X164465000Y-56960001D03*
X164465000Y-58610001D03*
%TD*%
D16*
%TO.C,R18*%
X110744000Y-63904500D03*
X110744000Y-62079500D03*
%TD*%
D10*
%TO.C,R30*%
X176262500Y-27100000D03*
X170337500Y-27100000D03*
%TD*%
D12*
%TO.C,U9*%
X120080000Y-57150000D03*
X120080000Y-58420000D03*
X120080000Y-59690000D03*
X120080000Y-60960000D03*
X125030000Y-60960000D03*
X125030000Y-59690000D03*
X125030000Y-58420000D03*
X125030000Y-57150000D03*
%TD*%
D10*
%TO.C,R32*%
X176262500Y-31500000D03*
X170337500Y-31500000D03*
%TD*%
D22*
%TO.C,R28*%
X140970000Y-66865000D03*
X140970000Y-65215000D03*
%TD*%
D11*
%TO.C,C13*%
X183655000Y-55880000D03*
X182105000Y-55880000D03*
%TD*%
D21*
%TO.C,R16*%
X173545000Y-48895000D03*
X171895000Y-48895000D03*
%TD*%
D12*
%TO.C,U8*%
X120080000Y-69850000D03*
X120080000Y-71120000D03*
X120080000Y-72390000D03*
X120080000Y-73660000D03*
X120080000Y-74930000D03*
X120080000Y-76200000D03*
X120080000Y-77470000D03*
X125030000Y-77470000D03*
X125030000Y-76200000D03*
X125030000Y-74930000D03*
X125030000Y-73660000D03*
X125030000Y-72390000D03*
X125030000Y-71120000D03*
X125030000Y-69850000D03*
%TD*%
D11*
%TO.C,C11*%
X172860000Y-73660000D03*
X171310000Y-73660000D03*
%TD*%
D12*
%TO.C,U1*%
X148020000Y-57785000D03*
X148020000Y-59055000D03*
X148020000Y-60325000D03*
X148020000Y-61595000D03*
X148020000Y-62865000D03*
X148020000Y-64135000D03*
X148020000Y-65405000D03*
X152970000Y-65405000D03*
X152970000Y-64135000D03*
X152970000Y-62865000D03*
X152970000Y-61595000D03*
X152970000Y-60325000D03*
X152970000Y-59055000D03*
X152970000Y-57785000D03*
%TD*%
D16*
%TO.C,R21*%
X110744000Y-72032500D03*
X110744000Y-70207500D03*
%TD*%
D11*
%TO.C,C9*%
X151270000Y-55880000D03*
X149720000Y-55880000D03*
%TD*%
D10*
%TO.C,R31*%
X185162500Y-27100000D03*
X179237500Y-27100000D03*
%TD*%
%TO.C,R1*%
X185162500Y-31500000D03*
X179237500Y-31500000D03*
%TD*%
M02*
