%TF.GenerationSoftware,KiCad,Pcbnew,(6.0.5)*%
%TF.CreationDate,2022-06-14T16:57:57+01:00*%
%TF.ProjectId,hv_sense,68765f73-656e-4736-952e-6b696361645f,rev?*%
%TF.SameCoordinates,Original*%
%TF.FileFunction,Legend,Top*%
%TF.FilePolarity,Positive*%
%FSLAX46Y46*%
G04 Gerber Fmt 4.6, Leading zero omitted, Abs format (unit mm)*
G04 Created by KiCad (PCBNEW (6.0.5)) date 2022-06-14 16:57:57*
%MOMM*%
%LPD*%
G01*
G04 APERTURE LIST*
G04 Aperture macros list*
%AMRoundRect*
0 Rectangle with rounded corners*
0 $1 Rounding radius*
0 $2 $3 $4 $5 $6 $7 $8 $9 X,Y pos of 4 corners*
0 Add a 4 corners polygon primitive as box body*
4,1,4,$2,$3,$4,$5,$6,$7,$8,$9,$2,$3,0*
0 Add four circle primitives for the rounded corners*
1,1,$1+$1,$2,$3*
1,1,$1+$1,$4,$5*
1,1,$1+$1,$6,$7*
1,1,$1+$1,$8,$9*
0 Add four rect primitives between the rounded corners*
20,1,$1+$1,$2,$3,$4,$5,0*
20,1,$1+$1,$4,$5,$6,$7,0*
20,1,$1+$1,$6,$7,$8,$9,0*
20,1,$1+$1,$8,$9,$2,$3,0*%
G04 Aperture macros list end*
%ADD10C,0.150000*%
%ADD11C,0.200000*%
%ADD12C,0.600000*%
%ADD13C,0.300000*%
%ADD14C,0.120000*%
%ADD15C,1.700000*%
%ADD16RoundRect,0.250000X0.362500X1.425000X-0.362500X1.425000X-0.362500X-1.425000X0.362500X-1.425000X0*%
%ADD17RoundRect,0.225000X0.225000X0.250000X-0.225000X0.250000X-0.225000X-0.250000X0.225000X-0.250000X0*%
%ADD18RoundRect,0.150000X-0.825000X-0.150000X0.825000X-0.150000X0.825000X0.150000X-0.825000X0.150000X0*%
%ADD19C,1.000000*%
%ADD20RoundRect,0.250001X0.499999X-0.499999X0.499999X0.499999X-0.499999X0.499999X-0.499999X-0.499999X0*%
%ADD21C,1.500000*%
%ADD22R,1.600000X1.600000*%
%ADD23C,1.600000*%
%ADD24RoundRect,0.200000X-0.275000X0.200000X-0.275000X-0.200000X0.275000X-0.200000X0.275000X0.200000X0*%
%ADD25R,0.700000X0.450000*%
%ADD26RoundRect,0.250000X-0.312500X-0.625000X0.312500X-0.625000X0.312500X0.625000X-0.312500X0.625000X0*%
%ADD27RoundRect,0.250000X0.450000X-0.262500X0.450000X0.262500X-0.450000X0.262500X-0.450000X-0.262500X0*%
%ADD28RoundRect,0.218750X0.256250X-0.218750X0.256250X0.218750X-0.256250X0.218750X-0.256250X-0.218750X0*%
%ADD29RoundRect,0.250000X-0.262500X-0.450000X0.262500X-0.450000X0.262500X0.450000X-0.262500X0.450000X0*%
%ADD30RoundRect,0.200000X-0.200000X-0.275000X0.200000X-0.275000X0.200000X0.275000X-0.200000X0.275000X0*%
%ADD31O,1.600000X1.600000*%
%ADD32R,1.700000X1.700000*%
%ADD33O,1.700000X1.700000*%
%ADD34RoundRect,0.250000X-0.450000X0.262500X-0.450000X-0.262500X0.450000X-0.262500X0.450000X0.262500X0*%
%ADD35RoundRect,0.250001X0.499999X0.499999X-0.499999X0.499999X-0.499999X-0.499999X0.499999X-0.499999X0*%
%ADD36C,3.200000*%
%ADD37RoundRect,0.200000X0.200000X0.275000X-0.200000X0.275000X-0.200000X-0.275000X0.200000X-0.275000X0*%
%ADD38RoundRect,0.250001X-0.499999X0.499999X-0.499999X-0.499999X0.499999X-0.499999X0.499999X0.499999X0*%
%ADD39RoundRect,0.200000X0.275000X-0.200000X0.275000X0.200000X-0.275000X0.200000X-0.275000X-0.200000X0*%
%ADD40C,1.440000*%
G04 APERTURE END LIST*
D10*
X139700000Y-93472000D02*
X139700000Y-19304000D01*
X127000000Y-19304000D02*
X127000000Y-93472000D01*
D11*
X130350000Y-89182380D02*
X130350000Y-88182380D01*
X130778571Y-89134761D02*
X130873809Y-89182380D01*
X131064285Y-89182380D01*
X131159523Y-89134761D01*
X131207142Y-89039523D01*
X131207142Y-88991904D01*
X131159523Y-88896666D01*
X131064285Y-88849047D01*
X130921428Y-88849047D01*
X130826190Y-88801428D01*
X130778571Y-88706190D01*
X130778571Y-88658571D01*
X130826190Y-88563333D01*
X130921428Y-88515714D01*
X131064285Y-88515714D01*
X131159523Y-88563333D01*
X131778571Y-89182380D02*
X131683333Y-89134761D01*
X131635714Y-89087142D01*
X131588095Y-88991904D01*
X131588095Y-88706190D01*
X131635714Y-88610952D01*
X131683333Y-88563333D01*
X131778571Y-88515714D01*
X131921428Y-88515714D01*
X132016666Y-88563333D01*
X132064285Y-88610952D01*
X132111904Y-88706190D01*
X132111904Y-88991904D01*
X132064285Y-89087142D01*
X132016666Y-89134761D01*
X131921428Y-89182380D01*
X131778571Y-89182380D01*
X132683333Y-89182380D02*
X132588095Y-89134761D01*
X132540476Y-89039523D01*
X132540476Y-88182380D01*
X133492857Y-89182380D02*
X133492857Y-88658571D01*
X133445238Y-88563333D01*
X133350000Y-88515714D01*
X133159523Y-88515714D01*
X133064285Y-88563333D01*
X133492857Y-89134761D02*
X133397619Y-89182380D01*
X133159523Y-89182380D01*
X133064285Y-89134761D01*
X133016666Y-89039523D01*
X133016666Y-88944285D01*
X133064285Y-88849047D01*
X133159523Y-88801428D01*
X133397619Y-88801428D01*
X133492857Y-88753809D01*
X133826190Y-88515714D02*
X134207142Y-88515714D01*
X133969047Y-88182380D02*
X133969047Y-89039523D01*
X134016666Y-89134761D01*
X134111904Y-89182380D01*
X134207142Y-89182380D01*
X134540476Y-89182380D02*
X134540476Y-88515714D01*
X134540476Y-88182380D02*
X134492857Y-88230000D01*
X134540476Y-88277619D01*
X134588095Y-88230000D01*
X134540476Y-88182380D01*
X134540476Y-88277619D01*
X135159523Y-89182380D02*
X135064285Y-89134761D01*
X135016666Y-89087142D01*
X134969047Y-88991904D01*
X134969047Y-88706190D01*
X135016666Y-88610952D01*
X135064285Y-88563333D01*
X135159523Y-88515714D01*
X135302380Y-88515714D01*
X135397619Y-88563333D01*
X135445238Y-88610952D01*
X135492857Y-88706190D01*
X135492857Y-88991904D01*
X135445238Y-89087142D01*
X135397619Y-89134761D01*
X135302380Y-89182380D01*
X135159523Y-89182380D01*
X135921428Y-88515714D02*
X135921428Y-89182380D01*
X135921428Y-88610952D02*
X135969047Y-88563333D01*
X136064285Y-88515714D01*
X136207142Y-88515714D01*
X136302380Y-88563333D01*
X136350000Y-88658571D01*
X136350000Y-89182380D01*
X128111904Y-90125714D02*
X127350000Y-90411428D01*
X128111904Y-90697142D01*
X128588095Y-90411428D02*
X129350000Y-90411428D01*
X131111904Y-90792380D02*
X130540476Y-90792380D01*
X130826190Y-90792380D02*
X130826190Y-89792380D01*
X130730952Y-89935238D01*
X130635714Y-90030476D01*
X130540476Y-90078095D01*
X131492857Y-89887619D02*
X131540476Y-89840000D01*
X131635714Y-89792380D01*
X131873809Y-89792380D01*
X131969047Y-89840000D01*
X132016666Y-89887619D01*
X132064285Y-89982857D01*
X132064285Y-90078095D01*
X132016666Y-90220952D01*
X131445238Y-90792380D01*
X132064285Y-90792380D01*
X132492857Y-90697142D02*
X132540476Y-90744761D01*
X132492857Y-90792380D01*
X132445238Y-90744761D01*
X132492857Y-90697142D01*
X132492857Y-90792380D01*
X132873809Y-89792380D02*
X133540476Y-89792380D01*
X133111904Y-90792380D01*
X133921428Y-90792380D02*
X133921428Y-90125714D01*
X133921428Y-90220952D02*
X133969047Y-90173333D01*
X134064285Y-90125714D01*
X134207142Y-90125714D01*
X134302380Y-90173333D01*
X134350000Y-90268571D01*
X134350000Y-90792380D01*
X134350000Y-90268571D02*
X134397619Y-90173333D01*
X134492857Y-90125714D01*
X134635714Y-90125714D01*
X134730952Y-90173333D01*
X134778571Y-90268571D01*
X134778571Y-90792380D01*
X135254761Y-90792380D02*
X135254761Y-90125714D01*
X135254761Y-90220952D02*
X135302380Y-90173333D01*
X135397619Y-90125714D01*
X135540476Y-90125714D01*
X135635714Y-90173333D01*
X135683333Y-90268571D01*
X135683333Y-90792380D01*
X135683333Y-90268571D02*
X135730952Y-90173333D01*
X135826190Y-90125714D01*
X135969047Y-90125714D01*
X136064285Y-90173333D01*
X136111904Y-90268571D01*
X136111904Y-90792380D01*
X137350000Y-90411428D02*
X138111904Y-90411428D01*
X138588095Y-90125714D02*
X139350000Y-90411428D01*
X138588095Y-90697142D01*
X136350000Y-29352619D02*
X136350000Y-30352619D01*
X135921428Y-29400238D02*
X135826190Y-29352619D01*
X135635714Y-29352619D01*
X135540476Y-29400238D01*
X135492857Y-29495476D01*
X135492857Y-29543095D01*
X135540476Y-29638333D01*
X135635714Y-29685952D01*
X135778571Y-29685952D01*
X135873809Y-29733571D01*
X135921428Y-29828809D01*
X135921428Y-29876428D01*
X135873809Y-29971666D01*
X135778571Y-30019285D01*
X135635714Y-30019285D01*
X135540476Y-29971666D01*
X134921428Y-29352619D02*
X135016666Y-29400238D01*
X135064285Y-29447857D01*
X135111904Y-29543095D01*
X135111904Y-29828809D01*
X135064285Y-29924047D01*
X135016666Y-29971666D01*
X134921428Y-30019285D01*
X134778571Y-30019285D01*
X134683333Y-29971666D01*
X134635714Y-29924047D01*
X134588095Y-29828809D01*
X134588095Y-29543095D01*
X134635714Y-29447857D01*
X134683333Y-29400238D01*
X134778571Y-29352619D01*
X134921428Y-29352619D01*
X134016666Y-29352619D02*
X134111904Y-29400238D01*
X134159523Y-29495476D01*
X134159523Y-30352619D01*
X133207142Y-29352619D02*
X133207142Y-29876428D01*
X133254761Y-29971666D01*
X133350000Y-30019285D01*
X133540476Y-30019285D01*
X133635714Y-29971666D01*
X133207142Y-29400238D02*
X133302380Y-29352619D01*
X133540476Y-29352619D01*
X133635714Y-29400238D01*
X133683333Y-29495476D01*
X133683333Y-29590714D01*
X133635714Y-29685952D01*
X133540476Y-29733571D01*
X133302380Y-29733571D01*
X133207142Y-29781190D01*
X132873809Y-30019285D02*
X132492857Y-30019285D01*
X132730952Y-30352619D02*
X132730952Y-29495476D01*
X132683333Y-29400238D01*
X132588095Y-29352619D01*
X132492857Y-29352619D01*
X132159523Y-29352619D02*
X132159523Y-30019285D01*
X132159523Y-30352619D02*
X132207142Y-30305000D01*
X132159523Y-30257380D01*
X132111904Y-30305000D01*
X132159523Y-30352619D01*
X132159523Y-30257380D01*
X131540476Y-29352619D02*
X131635714Y-29400238D01*
X131683333Y-29447857D01*
X131730952Y-29543095D01*
X131730952Y-29828809D01*
X131683333Y-29924047D01*
X131635714Y-29971666D01*
X131540476Y-30019285D01*
X131397619Y-30019285D01*
X131302380Y-29971666D01*
X131254761Y-29924047D01*
X131207142Y-29828809D01*
X131207142Y-29543095D01*
X131254761Y-29447857D01*
X131302380Y-29400238D01*
X131397619Y-29352619D01*
X131540476Y-29352619D01*
X130778571Y-30019285D02*
X130778571Y-29352619D01*
X130778571Y-29924047D02*
X130730952Y-29971666D01*
X130635714Y-30019285D01*
X130492857Y-30019285D01*
X130397619Y-29971666D01*
X130350000Y-29876428D01*
X130350000Y-29352619D01*
X138588095Y-28409285D02*
X139350000Y-28123571D01*
X138588095Y-27837857D01*
X138111904Y-28123571D02*
X137350000Y-28123571D01*
X135588095Y-27742619D02*
X136159523Y-27742619D01*
X135873809Y-27742619D02*
X135873809Y-28742619D01*
X135969047Y-28599761D01*
X136064285Y-28504523D01*
X136159523Y-28456904D01*
X135207142Y-28647380D02*
X135159523Y-28695000D01*
X135064285Y-28742619D01*
X134826190Y-28742619D01*
X134730952Y-28695000D01*
X134683333Y-28647380D01*
X134635714Y-28552142D01*
X134635714Y-28456904D01*
X134683333Y-28314047D01*
X135254761Y-27742619D01*
X134635714Y-27742619D01*
X134207142Y-27837857D02*
X134159523Y-27790238D01*
X134207142Y-27742619D01*
X134254761Y-27790238D01*
X134207142Y-27837857D01*
X134207142Y-27742619D01*
X133826190Y-28742619D02*
X133159523Y-28742619D01*
X133588095Y-27742619D01*
X132778571Y-27742619D02*
X132778571Y-28409285D01*
X132778571Y-28314047D02*
X132730952Y-28361666D01*
X132635714Y-28409285D01*
X132492857Y-28409285D01*
X132397619Y-28361666D01*
X132350000Y-28266428D01*
X132350000Y-27742619D01*
X132350000Y-28266428D02*
X132302380Y-28361666D01*
X132207142Y-28409285D01*
X132064285Y-28409285D01*
X131969047Y-28361666D01*
X131921428Y-28266428D01*
X131921428Y-27742619D01*
X131445238Y-27742619D02*
X131445238Y-28409285D01*
X131445238Y-28314047D02*
X131397619Y-28361666D01*
X131302380Y-28409285D01*
X131159523Y-28409285D01*
X131064285Y-28361666D01*
X131016666Y-28266428D01*
X131016666Y-27742619D01*
X131016666Y-28266428D02*
X130969047Y-28361666D01*
X130873809Y-28409285D01*
X130730952Y-28409285D01*
X130635714Y-28361666D01*
X130588095Y-28266428D01*
X130588095Y-27742619D01*
X129350000Y-28123571D02*
X128588095Y-28123571D01*
X128111904Y-28409285D02*
X127350000Y-28123571D01*
X128111904Y-27837857D01*
D12*
X112649285Y-85987142D02*
X114363571Y-85987142D01*
X113506428Y-88987142D02*
X113506428Y-85987142D01*
X115220714Y-88844285D02*
X115649285Y-88987142D01*
X116363571Y-88987142D01*
X116649285Y-88844285D01*
X116792142Y-88701428D01*
X116935000Y-88415714D01*
X116935000Y-88130000D01*
X116792142Y-87844285D01*
X116649285Y-87701428D01*
X116363571Y-87558571D01*
X115792142Y-87415714D01*
X115506428Y-87272857D01*
X115363571Y-87130000D01*
X115220714Y-86844285D01*
X115220714Y-86558571D01*
X115363571Y-86272857D01*
X115506428Y-86130000D01*
X115792142Y-85987142D01*
X116506428Y-85987142D01*
X116935000Y-86130000D01*
X157122857Y-91527142D02*
X155694285Y-91527142D01*
X155694285Y-88527142D01*
X157694285Y-88527142D02*
X158694285Y-91527142D01*
X159694285Y-88527142D01*
D13*
X108355714Y-92118571D02*
X108355714Y-90618571D01*
X108355714Y-91332857D02*
X109212857Y-91332857D01*
X109212857Y-92118571D02*
X109212857Y-90618571D01*
X109927142Y-92118571D02*
X109927142Y-91118571D01*
X109927142Y-90618571D02*
X109855714Y-90690000D01*
X109927142Y-90761428D01*
X109998571Y-90690000D01*
X109927142Y-90618571D01*
X109927142Y-90761428D01*
X111284285Y-91118571D02*
X111284285Y-92332857D01*
X111212857Y-92475714D01*
X111141428Y-92547142D01*
X110998571Y-92618571D01*
X110784285Y-92618571D01*
X110641428Y-92547142D01*
X111284285Y-92047142D02*
X111141428Y-92118571D01*
X110855714Y-92118571D01*
X110712857Y-92047142D01*
X110641428Y-91975714D01*
X110570000Y-91832857D01*
X110570000Y-91404285D01*
X110641428Y-91261428D01*
X110712857Y-91190000D01*
X110855714Y-91118571D01*
X111141428Y-91118571D01*
X111284285Y-91190000D01*
X111998571Y-92118571D02*
X111998571Y-90618571D01*
X112641428Y-92118571D02*
X112641428Y-91332857D01*
X112570000Y-91190000D01*
X112427142Y-91118571D01*
X112212857Y-91118571D01*
X112070000Y-91190000D01*
X111998571Y-91261428D01*
X114284285Y-90618571D02*
X114784285Y-92118571D01*
X115284285Y-90618571D01*
X115998571Y-92118571D02*
X115855714Y-92047142D01*
X115784285Y-91975714D01*
X115712857Y-91832857D01*
X115712857Y-91404285D01*
X115784285Y-91261428D01*
X115855714Y-91190000D01*
X115998571Y-91118571D01*
X116212857Y-91118571D01*
X116355714Y-91190000D01*
X116427142Y-91261428D01*
X116498571Y-91404285D01*
X116498571Y-91832857D01*
X116427142Y-91975714D01*
X116355714Y-92047142D01*
X116212857Y-92118571D01*
X115998571Y-92118571D01*
X117355714Y-92118571D02*
X117212857Y-92047142D01*
X117141428Y-91904285D01*
X117141428Y-90618571D01*
X117712857Y-91118571D02*
X118284285Y-91118571D01*
X117927142Y-90618571D02*
X117927142Y-91904285D01*
X117998571Y-92047142D01*
X118141428Y-92118571D01*
X118284285Y-92118571D01*
X119427142Y-92118571D02*
X119427142Y-91332857D01*
X119355714Y-91190000D01*
X119212857Y-91118571D01*
X118927142Y-91118571D01*
X118784285Y-91190000D01*
X119427142Y-92047142D02*
X119284285Y-92118571D01*
X118927142Y-92118571D01*
X118784285Y-92047142D01*
X118712857Y-91904285D01*
X118712857Y-91761428D01*
X118784285Y-91618571D01*
X118927142Y-91547142D01*
X119284285Y-91547142D01*
X119427142Y-91475714D01*
X120784285Y-91118571D02*
X120784285Y-92332857D01*
X120712857Y-92475714D01*
X120641428Y-92547142D01*
X120498571Y-92618571D01*
X120284285Y-92618571D01*
X120141428Y-92547142D01*
X120784285Y-92047142D02*
X120641428Y-92118571D01*
X120355714Y-92118571D01*
X120212857Y-92047142D01*
X120141428Y-91975714D01*
X120070000Y-91832857D01*
X120070000Y-91404285D01*
X120141428Y-91261428D01*
X120212857Y-91190000D01*
X120355714Y-91118571D01*
X120641428Y-91118571D01*
X120784285Y-91190000D01*
X122070000Y-92047142D02*
X121927142Y-92118571D01*
X121641428Y-92118571D01*
X121498571Y-92047142D01*
X121427142Y-91904285D01*
X121427142Y-91332857D01*
X121498571Y-91190000D01*
X121641428Y-91118571D01*
X121927142Y-91118571D01*
X122070000Y-91190000D01*
X122141428Y-91332857D01*
X122141428Y-91475714D01*
X121427142Y-91618571D01*
X122784285Y-91975714D02*
X122855714Y-92047142D01*
X122784285Y-92118571D01*
X122712857Y-92047142D01*
X122784285Y-91975714D01*
X122784285Y-92118571D01*
X122784285Y-91547142D02*
X122712857Y-90690000D01*
X122784285Y-90618571D01*
X122855714Y-90690000D01*
X122784285Y-91547142D01*
X122784285Y-90618571D01*
D10*
%TO.C,PS1*%
X132135714Y-34652380D02*
X132135714Y-33652380D01*
X132516666Y-33652380D01*
X132611904Y-33700000D01*
X132659523Y-33747619D01*
X132707142Y-33842857D01*
X132707142Y-33985714D01*
X132659523Y-34080952D01*
X132611904Y-34128571D01*
X132516666Y-34176190D01*
X132135714Y-34176190D01*
X133088095Y-34604761D02*
X133230952Y-34652380D01*
X133469047Y-34652380D01*
X133564285Y-34604761D01*
X133611904Y-34557142D01*
X133659523Y-34461904D01*
X133659523Y-34366666D01*
X133611904Y-34271428D01*
X133564285Y-34223809D01*
X133469047Y-34176190D01*
X133278571Y-34128571D01*
X133183333Y-34080952D01*
X133135714Y-34033333D01*
X133088095Y-33938095D01*
X133088095Y-33842857D01*
X133135714Y-33747619D01*
X133183333Y-33700000D01*
X133278571Y-33652380D01*
X133516666Y-33652380D01*
X133659523Y-33700000D01*
X134611904Y-34652380D02*
X134040476Y-34652380D01*
X134326190Y-34652380D02*
X134326190Y-33652380D01*
X134230952Y-33795238D01*
X134135714Y-33890476D01*
X134040476Y-33938095D01*
%TO.C,R7*%
X161758333Y-36012380D02*
X161425000Y-35536190D01*
X161186904Y-36012380D02*
X161186904Y-35012380D01*
X161567857Y-35012380D01*
X161663095Y-35060000D01*
X161710714Y-35107619D01*
X161758333Y-35202857D01*
X161758333Y-35345714D01*
X161710714Y-35440952D01*
X161663095Y-35488571D01*
X161567857Y-35536190D01*
X161186904Y-35536190D01*
X162091666Y-35012380D02*
X162758333Y-35012380D01*
X162329761Y-36012380D01*
%TO.C,C10*%
X160647142Y-72620142D02*
X160599523Y-72667761D01*
X160456666Y-72715380D01*
X160361428Y-72715380D01*
X160218571Y-72667761D01*
X160123333Y-72572523D01*
X160075714Y-72477285D01*
X160028095Y-72286809D01*
X160028095Y-72143952D01*
X160075714Y-71953476D01*
X160123333Y-71858238D01*
X160218571Y-71763000D01*
X160361428Y-71715380D01*
X160456666Y-71715380D01*
X160599523Y-71763000D01*
X160647142Y-71810619D01*
X161599523Y-72715380D02*
X161028095Y-72715380D01*
X161313809Y-72715380D02*
X161313809Y-71715380D01*
X161218571Y-71858238D01*
X161123333Y-71953476D01*
X161028095Y-72001095D01*
X162218571Y-71715380D02*
X162313809Y-71715380D01*
X162409047Y-71763000D01*
X162456666Y-71810619D01*
X162504285Y-71905857D01*
X162551904Y-72096333D01*
X162551904Y-72334428D01*
X162504285Y-72524904D01*
X162456666Y-72620142D01*
X162409047Y-72667761D01*
X162313809Y-72715380D01*
X162218571Y-72715380D01*
X162123333Y-72667761D01*
X162075714Y-72620142D01*
X162028095Y-72524904D01*
X161980476Y-72334428D01*
X161980476Y-72096333D01*
X162028095Y-71905857D01*
X162075714Y-71810619D01*
X162123333Y-71763000D01*
X162218571Y-71715380D01*
%TO.C,U4*%
X173990095Y-73547380D02*
X173990095Y-74356904D01*
X174037714Y-74452142D01*
X174085333Y-74499761D01*
X174180571Y-74547380D01*
X174371047Y-74547380D01*
X174466285Y-74499761D01*
X174513904Y-74452142D01*
X174561523Y-74356904D01*
X174561523Y-73547380D01*
X175466285Y-73880714D02*
X175466285Y-74547380D01*
X175228190Y-73499761D02*
X174990095Y-74214047D01*
X175609142Y-74214047D01*
%TO.C,J6*%
X190467380Y-40233333D02*
X191181666Y-40233333D01*
X191324523Y-40280952D01*
X191419761Y-40376190D01*
X191467380Y-40519047D01*
X191467380Y-40614285D01*
X190467380Y-39328571D02*
X190467380Y-39519047D01*
X190515000Y-39614285D01*
X190562619Y-39661904D01*
X190705476Y-39757142D01*
X190895952Y-39804761D01*
X191276904Y-39804761D01*
X191372142Y-39757142D01*
X191419761Y-39709523D01*
X191467380Y-39614285D01*
X191467380Y-39423809D01*
X191419761Y-39328571D01*
X191372142Y-39280952D01*
X191276904Y-39233333D01*
X191038809Y-39233333D01*
X190943571Y-39280952D01*
X190895952Y-39328571D01*
X190848333Y-39423809D01*
X190848333Y-39614285D01*
X190895952Y-39709523D01*
X190943571Y-39757142D01*
X191038809Y-39804761D01*
%TO.C,C4*%
X167219333Y-62206142D02*
X167171714Y-62253761D01*
X167028857Y-62301380D01*
X166933619Y-62301380D01*
X166790761Y-62253761D01*
X166695523Y-62158523D01*
X166647904Y-62063285D01*
X166600285Y-61872809D01*
X166600285Y-61729952D01*
X166647904Y-61539476D01*
X166695523Y-61444238D01*
X166790761Y-61349000D01*
X166933619Y-61301380D01*
X167028857Y-61301380D01*
X167171714Y-61349000D01*
X167219333Y-61396619D01*
X168076476Y-61634714D02*
X168076476Y-62301380D01*
X167838380Y-61253761D02*
X167600285Y-61968047D01*
X168219333Y-61968047D01*
%TO.C,R10*%
X173601142Y-66873380D02*
X173267809Y-66397190D01*
X173029714Y-66873380D02*
X173029714Y-65873380D01*
X173410666Y-65873380D01*
X173505904Y-65921000D01*
X173553523Y-65968619D01*
X173601142Y-66063857D01*
X173601142Y-66206714D01*
X173553523Y-66301952D01*
X173505904Y-66349571D01*
X173410666Y-66397190D01*
X173029714Y-66397190D01*
X174553523Y-66873380D02*
X173982095Y-66873380D01*
X174267809Y-66873380D02*
X174267809Y-65873380D01*
X174172571Y-66016238D01*
X174077333Y-66111476D01*
X173982095Y-66159095D01*
X175172571Y-65873380D02*
X175267809Y-65873380D01*
X175363047Y-65921000D01*
X175410666Y-65968619D01*
X175458285Y-66063857D01*
X175505904Y-66254333D01*
X175505904Y-66492428D01*
X175458285Y-66682904D01*
X175410666Y-66778142D01*
X175363047Y-66825761D01*
X175267809Y-66873380D01*
X175172571Y-66873380D01*
X175077333Y-66825761D01*
X175029714Y-66778142D01*
X174982095Y-66682904D01*
X174934476Y-66492428D01*
X174934476Y-66254333D01*
X174982095Y-66063857D01*
X175029714Y-65968619D01*
X175077333Y-65921000D01*
X175172571Y-65873380D01*
%TO.C,C8*%
X148931333Y-49633142D02*
X148883714Y-49680761D01*
X148740857Y-49728380D01*
X148645619Y-49728380D01*
X148502761Y-49680761D01*
X148407523Y-49585523D01*
X148359904Y-49490285D01*
X148312285Y-49299809D01*
X148312285Y-49156952D01*
X148359904Y-48966476D01*
X148407523Y-48871238D01*
X148502761Y-48776000D01*
X148645619Y-48728380D01*
X148740857Y-48728380D01*
X148883714Y-48776000D01*
X148931333Y-48823619D01*
X149502761Y-49156952D02*
X149407523Y-49109333D01*
X149359904Y-49061714D01*
X149312285Y-48966476D01*
X149312285Y-48918857D01*
X149359904Y-48823619D01*
X149407523Y-48776000D01*
X149502761Y-48728380D01*
X149693238Y-48728380D01*
X149788476Y-48776000D01*
X149836095Y-48823619D01*
X149883714Y-48918857D01*
X149883714Y-48966476D01*
X149836095Y-49061714D01*
X149788476Y-49109333D01*
X149693238Y-49156952D01*
X149502761Y-49156952D01*
X149407523Y-49204571D01*
X149359904Y-49252190D01*
X149312285Y-49347428D01*
X149312285Y-49537904D01*
X149359904Y-49633142D01*
X149407523Y-49680761D01*
X149502761Y-49728380D01*
X149693238Y-49728380D01*
X149788476Y-49680761D01*
X149836095Y-49633142D01*
X149883714Y-49537904D01*
X149883714Y-49347428D01*
X149836095Y-49252190D01*
X149788476Y-49204571D01*
X149693238Y-49156952D01*
%TO.C,D6*%
X121943904Y-83129380D02*
X121943904Y-82129380D01*
X122182000Y-82129380D01*
X122324857Y-82177000D01*
X122420095Y-82272238D01*
X122467714Y-82367476D01*
X122515333Y-82557952D01*
X122515333Y-82700809D01*
X122467714Y-82891285D01*
X122420095Y-82986523D01*
X122324857Y-83081761D01*
X122182000Y-83129380D01*
X121943904Y-83129380D01*
X123372476Y-82129380D02*
X123182000Y-82129380D01*
X123086761Y-82177000D01*
X123039142Y-82224619D01*
X122943904Y-82367476D01*
X122896285Y-82557952D01*
X122896285Y-82938904D01*
X122943904Y-83034142D01*
X122991523Y-83081761D01*
X123086761Y-83129380D01*
X123277238Y-83129380D01*
X123372476Y-83081761D01*
X123420095Y-83034142D01*
X123467714Y-82938904D01*
X123467714Y-82700809D01*
X123420095Y-82605571D01*
X123372476Y-82557952D01*
X123277238Y-82510333D01*
X123086761Y-82510333D01*
X122991523Y-82557952D01*
X122943904Y-82605571D01*
X122896285Y-82700809D01*
%TO.C,R27*%
X121912142Y-64037380D02*
X121578809Y-63561190D01*
X121340714Y-64037380D02*
X121340714Y-63037380D01*
X121721666Y-63037380D01*
X121816904Y-63085000D01*
X121864523Y-63132619D01*
X121912142Y-63227857D01*
X121912142Y-63370714D01*
X121864523Y-63465952D01*
X121816904Y-63513571D01*
X121721666Y-63561190D01*
X121340714Y-63561190D01*
X122293095Y-63132619D02*
X122340714Y-63085000D01*
X122435952Y-63037380D01*
X122674047Y-63037380D01*
X122769285Y-63085000D01*
X122816904Y-63132619D01*
X122864523Y-63227857D01*
X122864523Y-63323095D01*
X122816904Y-63465952D01*
X122245476Y-64037380D01*
X122864523Y-64037380D01*
X123197857Y-63037380D02*
X123864523Y-63037380D01*
X123435952Y-64037380D01*
%TO.C,R23*%
X109546380Y-79890857D02*
X109070190Y-80224190D01*
X109546380Y-80462285D02*
X108546380Y-80462285D01*
X108546380Y-80081333D01*
X108594000Y-79986095D01*
X108641619Y-79938476D01*
X108736857Y-79890857D01*
X108879714Y-79890857D01*
X108974952Y-79938476D01*
X109022571Y-79986095D01*
X109070190Y-80081333D01*
X109070190Y-80462285D01*
X108641619Y-79509904D02*
X108594000Y-79462285D01*
X108546380Y-79367047D01*
X108546380Y-79128952D01*
X108594000Y-79033714D01*
X108641619Y-78986095D01*
X108736857Y-78938476D01*
X108832095Y-78938476D01*
X108974952Y-78986095D01*
X109546380Y-79557523D01*
X109546380Y-78938476D01*
X108546380Y-78605142D02*
X108546380Y-77986095D01*
X108927333Y-78319428D01*
X108927333Y-78176571D01*
X108974952Y-78081333D01*
X109022571Y-78033714D01*
X109117809Y-77986095D01*
X109355904Y-77986095D01*
X109451142Y-78033714D01*
X109498761Y-78081333D01*
X109546380Y-78176571D01*
X109546380Y-78462285D01*
X109498761Y-78557523D01*
X109451142Y-78605142D01*
%TO.C,D7*%
X118402380Y-35028095D02*
X117402380Y-35028095D01*
X117402380Y-34790000D01*
X117450000Y-34647142D01*
X117545238Y-34551904D01*
X117640476Y-34504285D01*
X117830952Y-34456666D01*
X117973809Y-34456666D01*
X118164285Y-34504285D01*
X118259523Y-34551904D01*
X118354761Y-34647142D01*
X118402380Y-34790000D01*
X118402380Y-35028095D01*
X117402380Y-34123333D02*
X117402380Y-33456666D01*
X118402380Y-33885238D01*
%TO.C,R14*%
X184777142Y-90241380D02*
X184443809Y-89765190D01*
X184205714Y-90241380D02*
X184205714Y-89241380D01*
X184586666Y-89241380D01*
X184681904Y-89289000D01*
X184729523Y-89336619D01*
X184777142Y-89431857D01*
X184777142Y-89574714D01*
X184729523Y-89669952D01*
X184681904Y-89717571D01*
X184586666Y-89765190D01*
X184205714Y-89765190D01*
X185729523Y-90241380D02*
X185158095Y-90241380D01*
X185443809Y-90241380D02*
X185443809Y-89241380D01*
X185348571Y-89384238D01*
X185253333Y-89479476D01*
X185158095Y-89527095D01*
X186586666Y-89574714D02*
X186586666Y-90241380D01*
X186348571Y-89193761D02*
X186110476Y-89908047D01*
X186729523Y-89908047D01*
%TO.C,R29*%
X112133142Y-81606380D02*
X111799809Y-81130190D01*
X111561714Y-81606380D02*
X111561714Y-80606380D01*
X111942666Y-80606380D01*
X112037904Y-80654000D01*
X112085523Y-80701619D01*
X112133142Y-80796857D01*
X112133142Y-80939714D01*
X112085523Y-81034952D01*
X112037904Y-81082571D01*
X111942666Y-81130190D01*
X111561714Y-81130190D01*
X112514095Y-80701619D02*
X112561714Y-80654000D01*
X112656952Y-80606380D01*
X112895047Y-80606380D01*
X112990285Y-80654000D01*
X113037904Y-80701619D01*
X113085523Y-80796857D01*
X113085523Y-80892095D01*
X113037904Y-81034952D01*
X112466476Y-81606380D01*
X113085523Y-81606380D01*
X113561714Y-81606380D02*
X113752190Y-81606380D01*
X113847428Y-81558761D01*
X113895047Y-81511142D01*
X113990285Y-81368285D01*
X114037904Y-81177809D01*
X114037904Y-80796857D01*
X113990285Y-80701619D01*
X113942666Y-80654000D01*
X113847428Y-80606380D01*
X113656952Y-80606380D01*
X113561714Y-80654000D01*
X113514095Y-80701619D01*
X113466476Y-80796857D01*
X113466476Y-81034952D01*
X113514095Y-81130190D01*
X113561714Y-81177809D01*
X113656952Y-81225428D01*
X113847428Y-81225428D01*
X113942666Y-81177809D01*
X113990285Y-81130190D01*
X114037904Y-81034952D01*
%TO.C,C6*%
X177678221Y-46772142D02*
X177630602Y-46819761D01*
X177487745Y-46867380D01*
X177392507Y-46867380D01*
X177249649Y-46819761D01*
X177154411Y-46724523D01*
X177106792Y-46629285D01*
X177059173Y-46438809D01*
X177059173Y-46295952D01*
X177106792Y-46105476D01*
X177154411Y-46010238D01*
X177249649Y-45915000D01*
X177392507Y-45867380D01*
X177487745Y-45867380D01*
X177630602Y-45915000D01*
X177678221Y-45962619D01*
X178535364Y-45867380D02*
X178344888Y-45867380D01*
X178249649Y-45915000D01*
X178202030Y-45962619D01*
X178106792Y-46105476D01*
X178059173Y-46295952D01*
X178059173Y-46676904D01*
X178106792Y-46772142D01*
X178154411Y-46819761D01*
X178249649Y-46867380D01*
X178440126Y-46867380D01*
X178535364Y-46819761D01*
X178582983Y-46772142D01*
X178630602Y-46676904D01*
X178630602Y-46438809D01*
X178582983Y-46343571D01*
X178535364Y-46295952D01*
X178440126Y-46248333D01*
X178249649Y-46248333D01*
X178154411Y-46295952D01*
X178106792Y-46343571D01*
X178059173Y-46438809D01*
%TO.C,U6*%
X178943095Y-73620380D02*
X178943095Y-74429904D01*
X178990714Y-74525142D01*
X179038333Y-74572761D01*
X179133571Y-74620380D01*
X179324047Y-74620380D01*
X179419285Y-74572761D01*
X179466904Y-74525142D01*
X179514523Y-74429904D01*
X179514523Y-73620380D01*
X180419285Y-73620380D02*
X180228809Y-73620380D01*
X180133571Y-73668000D01*
X180085952Y-73715619D01*
X179990714Y-73858476D01*
X179943095Y-74048952D01*
X179943095Y-74429904D01*
X179990714Y-74525142D01*
X180038333Y-74572761D01*
X180133571Y-74620380D01*
X180324047Y-74620380D01*
X180419285Y-74572761D01*
X180466904Y-74525142D01*
X180514523Y-74429904D01*
X180514523Y-74191809D01*
X180466904Y-74096571D01*
X180419285Y-74048952D01*
X180324047Y-74001333D01*
X180133571Y-74001333D01*
X180038333Y-74048952D01*
X179990714Y-74096571D01*
X179943095Y-74191809D01*
%TO.C,D2*%
X175537904Y-90114380D02*
X175537904Y-89114380D01*
X175776000Y-89114380D01*
X175918857Y-89162000D01*
X176014095Y-89257238D01*
X176061714Y-89352476D01*
X176109333Y-89542952D01*
X176109333Y-89685809D01*
X176061714Y-89876285D01*
X176014095Y-89971523D01*
X175918857Y-90066761D01*
X175776000Y-90114380D01*
X175537904Y-90114380D01*
X176490285Y-89209619D02*
X176537904Y-89162000D01*
X176633142Y-89114380D01*
X176871238Y-89114380D01*
X176966476Y-89162000D01*
X177014095Y-89209619D01*
X177061714Y-89304857D01*
X177061714Y-89400095D01*
X177014095Y-89542952D01*
X176442666Y-90114380D01*
X177061714Y-90114380D01*
%TO.C,R25*%
X116197142Y-84907380D02*
X115863809Y-84431190D01*
X115625714Y-84907380D02*
X115625714Y-83907380D01*
X116006666Y-83907380D01*
X116101904Y-83955000D01*
X116149523Y-84002619D01*
X116197142Y-84097857D01*
X116197142Y-84240714D01*
X116149523Y-84335952D01*
X116101904Y-84383571D01*
X116006666Y-84431190D01*
X115625714Y-84431190D01*
X116578095Y-84002619D02*
X116625714Y-83955000D01*
X116720952Y-83907380D01*
X116959047Y-83907380D01*
X117054285Y-83955000D01*
X117101904Y-84002619D01*
X117149523Y-84097857D01*
X117149523Y-84193095D01*
X117101904Y-84335952D01*
X116530476Y-84907380D01*
X117149523Y-84907380D01*
X118054285Y-83907380D02*
X117578095Y-83907380D01*
X117530476Y-84383571D01*
X117578095Y-84335952D01*
X117673333Y-84288333D01*
X117911428Y-84288333D01*
X118006666Y-84335952D01*
X118054285Y-84383571D01*
X118101904Y-84478809D01*
X118101904Y-84716904D01*
X118054285Y-84812142D01*
X118006666Y-84859761D01*
X117911428Y-84907380D01*
X117673333Y-84907380D01*
X117578095Y-84859761D01*
X117530476Y-84812142D01*
%TO.C,C3*%
X156932333Y-62841142D02*
X156884714Y-62888761D01*
X156741857Y-62936380D01*
X156646619Y-62936380D01*
X156503761Y-62888761D01*
X156408523Y-62793523D01*
X156360904Y-62698285D01*
X156313285Y-62507809D01*
X156313285Y-62364952D01*
X156360904Y-62174476D01*
X156408523Y-62079238D01*
X156503761Y-61984000D01*
X156646619Y-61936380D01*
X156741857Y-61936380D01*
X156884714Y-61984000D01*
X156932333Y-62031619D01*
X157265666Y-61936380D02*
X157884714Y-61936380D01*
X157551380Y-62317333D01*
X157694238Y-62317333D01*
X157789476Y-62364952D01*
X157837095Y-62412571D01*
X157884714Y-62507809D01*
X157884714Y-62745904D01*
X157837095Y-62841142D01*
X157789476Y-62888761D01*
X157694238Y-62936380D01*
X157408523Y-62936380D01*
X157313285Y-62888761D01*
X157265666Y-62841142D01*
%TO.C,R26*%
X118308380Y-37980857D02*
X117832190Y-38314190D01*
X118308380Y-38552285D02*
X117308380Y-38552285D01*
X117308380Y-38171333D01*
X117356000Y-38076095D01*
X117403619Y-38028476D01*
X117498857Y-37980857D01*
X117641714Y-37980857D01*
X117736952Y-38028476D01*
X117784571Y-38076095D01*
X117832190Y-38171333D01*
X117832190Y-38552285D01*
X117403619Y-37599904D02*
X117356000Y-37552285D01*
X117308380Y-37457047D01*
X117308380Y-37218952D01*
X117356000Y-37123714D01*
X117403619Y-37076095D01*
X117498857Y-37028476D01*
X117594095Y-37028476D01*
X117736952Y-37076095D01*
X118308380Y-37647523D01*
X118308380Y-37028476D01*
X117308380Y-36171333D02*
X117308380Y-36361809D01*
X117356000Y-36457047D01*
X117403619Y-36504666D01*
X117546476Y-36599904D01*
X117736952Y-36647523D01*
X118117904Y-36647523D01*
X118213142Y-36599904D01*
X118260761Y-36552285D01*
X118308380Y-36457047D01*
X118308380Y-36266571D01*
X118260761Y-36171333D01*
X118213142Y-36123714D01*
X118117904Y-36076095D01*
X117879809Y-36076095D01*
X117784571Y-36123714D01*
X117736952Y-36171333D01*
X117689333Y-36266571D01*
X117689333Y-36457047D01*
X117736952Y-36552285D01*
X117784571Y-36599904D01*
X117879809Y-36647523D01*
%TO.C,U3*%
X157861095Y-73620380D02*
X157861095Y-74429904D01*
X157908714Y-74525142D01*
X157956333Y-74572761D01*
X158051571Y-74620380D01*
X158242047Y-74620380D01*
X158337285Y-74572761D01*
X158384904Y-74525142D01*
X158432523Y-74429904D01*
X158432523Y-73620380D01*
X158813476Y-73620380D02*
X159432523Y-73620380D01*
X159099190Y-74001333D01*
X159242047Y-74001333D01*
X159337285Y-74048952D01*
X159384904Y-74096571D01*
X159432523Y-74191809D01*
X159432523Y-74429904D01*
X159384904Y-74525142D01*
X159337285Y-74572761D01*
X159242047Y-74620380D01*
X158956333Y-74620380D01*
X158861095Y-74572761D01*
X158813476Y-74525142D01*
%TO.C,D4*%
X184808904Y-69159380D02*
X184808904Y-68159380D01*
X185047000Y-68159380D01*
X185189857Y-68207000D01*
X185285095Y-68302238D01*
X185332714Y-68397476D01*
X185380333Y-68587952D01*
X185380333Y-68730809D01*
X185332714Y-68921285D01*
X185285095Y-69016523D01*
X185189857Y-69111761D01*
X185047000Y-69159380D01*
X184808904Y-69159380D01*
X186237476Y-68492714D02*
X186237476Y-69159380D01*
X185999380Y-68111761D02*
X185761285Y-68826047D01*
X186380333Y-68826047D01*
%TO.C,C12*%
X152773142Y-73763142D02*
X152725523Y-73810761D01*
X152582666Y-73858380D01*
X152487428Y-73858380D01*
X152344571Y-73810761D01*
X152249333Y-73715523D01*
X152201714Y-73620285D01*
X152154095Y-73429809D01*
X152154095Y-73286952D01*
X152201714Y-73096476D01*
X152249333Y-73001238D01*
X152344571Y-72906000D01*
X152487428Y-72858380D01*
X152582666Y-72858380D01*
X152725523Y-72906000D01*
X152773142Y-72953619D01*
X153725523Y-73858380D02*
X153154095Y-73858380D01*
X153439809Y-73858380D02*
X153439809Y-72858380D01*
X153344571Y-73001238D01*
X153249333Y-73096476D01*
X153154095Y-73144095D01*
X154106476Y-72953619D02*
X154154095Y-72906000D01*
X154249333Y-72858380D01*
X154487428Y-72858380D01*
X154582666Y-72906000D01*
X154630285Y-72953619D01*
X154677904Y-73048857D01*
X154677904Y-73144095D01*
X154630285Y-73286952D01*
X154058857Y-73858380D01*
X154677904Y-73858380D01*
%TO.C,R19*%
X156837142Y-47282380D02*
X156503809Y-46806190D01*
X156265714Y-47282380D02*
X156265714Y-46282380D01*
X156646666Y-46282380D01*
X156741904Y-46330000D01*
X156789523Y-46377619D01*
X156837142Y-46472857D01*
X156837142Y-46615714D01*
X156789523Y-46710952D01*
X156741904Y-46758571D01*
X156646666Y-46806190D01*
X156265714Y-46806190D01*
X157789523Y-47282380D02*
X157218095Y-47282380D01*
X157503809Y-47282380D02*
X157503809Y-46282380D01*
X157408571Y-46425238D01*
X157313333Y-46520476D01*
X157218095Y-46568095D01*
X158265714Y-47282380D02*
X158456190Y-47282380D01*
X158551428Y-47234761D01*
X158599047Y-47187142D01*
X158694285Y-47044285D01*
X158741904Y-46853809D01*
X158741904Y-46472857D01*
X158694285Y-46377619D01*
X158646666Y-46330000D01*
X158551428Y-46282380D01*
X158360952Y-46282380D01*
X158265714Y-46330000D01*
X158218095Y-46377619D01*
X158170476Y-46472857D01*
X158170476Y-46710952D01*
X158218095Y-46806190D01*
X158265714Y-46853809D01*
X158360952Y-46901428D01*
X158551428Y-46901428D01*
X158646666Y-46853809D01*
X158694285Y-46806190D01*
X158741904Y-46710952D01*
%TO.C,U10*%
X132756904Y-61252380D02*
X132756904Y-62061904D01*
X132804523Y-62157142D01*
X132852142Y-62204761D01*
X132947380Y-62252380D01*
X133137857Y-62252380D01*
X133233095Y-62204761D01*
X133280714Y-62157142D01*
X133328333Y-62061904D01*
X133328333Y-61252380D01*
X134328333Y-62252380D02*
X133756904Y-62252380D01*
X134042619Y-62252380D02*
X134042619Y-61252380D01*
X133947380Y-61395238D01*
X133852142Y-61490476D01*
X133756904Y-61538095D01*
X134947380Y-61252380D02*
X135042619Y-61252380D01*
X135137857Y-61300000D01*
X135185476Y-61347619D01*
X135233095Y-61442857D01*
X135280714Y-61633333D01*
X135280714Y-61871428D01*
X135233095Y-62061904D01*
X135185476Y-62157142D01*
X135137857Y-62204761D01*
X135042619Y-62252380D01*
X134947380Y-62252380D01*
X134852142Y-62204761D01*
X134804523Y-62157142D01*
X134756904Y-62061904D01*
X134709285Y-61871428D01*
X134709285Y-61633333D01*
X134756904Y-61442857D01*
X134804523Y-61347619D01*
X134852142Y-61300000D01*
X134947380Y-61252380D01*
%TO.C,SW1*%
X145692761Y-53149333D02*
X145740380Y-53006476D01*
X145740380Y-52768380D01*
X145692761Y-52673142D01*
X145645142Y-52625523D01*
X145549904Y-52577904D01*
X145454666Y-52577904D01*
X145359428Y-52625523D01*
X145311809Y-52673142D01*
X145264190Y-52768380D01*
X145216571Y-52958857D01*
X145168952Y-53054095D01*
X145121333Y-53101714D01*
X145026095Y-53149333D01*
X144930857Y-53149333D01*
X144835619Y-53101714D01*
X144788000Y-53054095D01*
X144740380Y-52958857D01*
X144740380Y-52720761D01*
X144788000Y-52577904D01*
X144740380Y-52244571D02*
X145740380Y-52006476D01*
X145026095Y-51816000D01*
X145740380Y-51625523D01*
X144740380Y-51387428D01*
X145740380Y-50482666D02*
X145740380Y-51054095D01*
X145740380Y-50768380D02*
X144740380Y-50768380D01*
X144883238Y-50863619D01*
X144978476Y-50958857D01*
X145026095Y-51054095D01*
%TO.C,R4*%
X182078333Y-45617380D02*
X181745000Y-45141190D01*
X181506904Y-45617380D02*
X181506904Y-44617380D01*
X181887857Y-44617380D01*
X181983095Y-44665000D01*
X182030714Y-44712619D01*
X182078333Y-44807857D01*
X182078333Y-44950714D01*
X182030714Y-45045952D01*
X181983095Y-45093571D01*
X181887857Y-45141190D01*
X181506904Y-45141190D01*
X182935476Y-44950714D02*
X182935476Y-45617380D01*
X182697380Y-44569761D02*
X182459285Y-45284047D01*
X183078333Y-45284047D01*
%TO.C,C7*%
X118451333Y-43029142D02*
X118403714Y-43076761D01*
X118260857Y-43124380D01*
X118165619Y-43124380D01*
X118022761Y-43076761D01*
X117927523Y-42981523D01*
X117879904Y-42886285D01*
X117832285Y-42695809D01*
X117832285Y-42552952D01*
X117879904Y-42362476D01*
X117927523Y-42267238D01*
X118022761Y-42172000D01*
X118165619Y-42124380D01*
X118260857Y-42124380D01*
X118403714Y-42172000D01*
X118451333Y-42219619D01*
X118784666Y-42124380D02*
X119451333Y-42124380D01*
X119022761Y-43124380D01*
%TO.C,R9*%
X164298333Y-66873380D02*
X163965000Y-66397190D01*
X163726904Y-66873380D02*
X163726904Y-65873380D01*
X164107857Y-65873380D01*
X164203095Y-65921000D01*
X164250714Y-65968619D01*
X164298333Y-66063857D01*
X164298333Y-66206714D01*
X164250714Y-66301952D01*
X164203095Y-66349571D01*
X164107857Y-66397190D01*
X163726904Y-66397190D01*
X164774523Y-66873380D02*
X164965000Y-66873380D01*
X165060238Y-66825761D01*
X165107857Y-66778142D01*
X165203095Y-66635285D01*
X165250714Y-66444809D01*
X165250714Y-66063857D01*
X165203095Y-65968619D01*
X165155476Y-65921000D01*
X165060238Y-65873380D01*
X164869761Y-65873380D01*
X164774523Y-65921000D01*
X164726904Y-65968619D01*
X164679285Y-66063857D01*
X164679285Y-66301952D01*
X164726904Y-66397190D01*
X164774523Y-66444809D01*
X164869761Y-66492428D01*
X165060238Y-66492428D01*
X165155476Y-66444809D01*
X165203095Y-66397190D01*
X165250714Y-66301952D01*
%TO.C,R15*%
X172204142Y-47823380D02*
X171870809Y-47347190D01*
X171632714Y-47823380D02*
X171632714Y-46823380D01*
X172013666Y-46823380D01*
X172108904Y-46871000D01*
X172156523Y-46918619D01*
X172204142Y-47013857D01*
X172204142Y-47156714D01*
X172156523Y-47251952D01*
X172108904Y-47299571D01*
X172013666Y-47347190D01*
X171632714Y-47347190D01*
X173156523Y-47823380D02*
X172585095Y-47823380D01*
X172870809Y-47823380D02*
X172870809Y-46823380D01*
X172775571Y-46966238D01*
X172680333Y-47061476D01*
X172585095Y-47109095D01*
X174061285Y-46823380D02*
X173585095Y-46823380D01*
X173537476Y-47299571D01*
X173585095Y-47251952D01*
X173680333Y-47204333D01*
X173918428Y-47204333D01*
X174013666Y-47251952D01*
X174061285Y-47299571D01*
X174108904Y-47394809D01*
X174108904Y-47632904D01*
X174061285Y-47728142D01*
X174013666Y-47775761D01*
X173918428Y-47823380D01*
X173680333Y-47823380D01*
X173585095Y-47775761D01*
X173537476Y-47728142D01*
%TO.C,R20*%
X112846380Y-67698857D02*
X112370190Y-68032190D01*
X112846380Y-68270285D02*
X111846380Y-68270285D01*
X111846380Y-67889333D01*
X111894000Y-67794095D01*
X111941619Y-67746476D01*
X112036857Y-67698857D01*
X112179714Y-67698857D01*
X112274952Y-67746476D01*
X112322571Y-67794095D01*
X112370190Y-67889333D01*
X112370190Y-68270285D01*
X111941619Y-67317904D02*
X111894000Y-67270285D01*
X111846380Y-67175047D01*
X111846380Y-66936952D01*
X111894000Y-66841714D01*
X111941619Y-66794095D01*
X112036857Y-66746476D01*
X112132095Y-66746476D01*
X112274952Y-66794095D01*
X112846380Y-67365523D01*
X112846380Y-66746476D01*
X111846380Y-66127428D02*
X111846380Y-66032190D01*
X111894000Y-65936952D01*
X111941619Y-65889333D01*
X112036857Y-65841714D01*
X112227333Y-65794095D01*
X112465428Y-65794095D01*
X112655904Y-65841714D01*
X112751142Y-65889333D01*
X112798761Y-65936952D01*
X112846380Y-66032190D01*
X112846380Y-66127428D01*
X112798761Y-66222666D01*
X112751142Y-66270285D01*
X112655904Y-66317904D01*
X112465428Y-66365523D01*
X112227333Y-66365523D01*
X112036857Y-66317904D01*
X111941619Y-66270285D01*
X111894000Y-66222666D01*
X111846380Y-66127428D01*
%TO.C,J2*%
X159666666Y-33287380D02*
X159666666Y-34001666D01*
X159619047Y-34144523D01*
X159523809Y-34239761D01*
X159380952Y-34287380D01*
X159285714Y-34287380D01*
X160095238Y-33382619D02*
X160142857Y-33335000D01*
X160238095Y-33287380D01*
X160476190Y-33287380D01*
X160571428Y-33335000D01*
X160619047Y-33382619D01*
X160666666Y-33477857D01*
X160666666Y-33573095D01*
X160619047Y-33715952D01*
X160047619Y-34287380D01*
X160666666Y-34287380D01*
%TO.C,C5*%
X157313333Y-56110142D02*
X157265714Y-56157761D01*
X157122857Y-56205380D01*
X157027619Y-56205380D01*
X156884761Y-56157761D01*
X156789523Y-56062523D01*
X156741904Y-55967285D01*
X156694285Y-55776809D01*
X156694285Y-55633952D01*
X156741904Y-55443476D01*
X156789523Y-55348238D01*
X156884761Y-55253000D01*
X157027619Y-55205380D01*
X157122857Y-55205380D01*
X157265714Y-55253000D01*
X157313333Y-55300619D01*
X158218095Y-55205380D02*
X157741904Y-55205380D01*
X157694285Y-55681571D01*
X157741904Y-55633952D01*
X157837142Y-55586333D01*
X158075238Y-55586333D01*
X158170476Y-55633952D01*
X158218095Y-55681571D01*
X158265714Y-55776809D01*
X158265714Y-56014904D01*
X158218095Y-56110142D01*
X158170476Y-56157761D01*
X158075238Y-56205380D01*
X157837142Y-56205380D01*
X157741904Y-56157761D01*
X157694285Y-56110142D01*
%TO.C,D1*%
X170711904Y-90114380D02*
X170711904Y-89114380D01*
X170950000Y-89114380D01*
X171092857Y-89162000D01*
X171188095Y-89257238D01*
X171235714Y-89352476D01*
X171283333Y-89542952D01*
X171283333Y-89685809D01*
X171235714Y-89876285D01*
X171188095Y-89971523D01*
X171092857Y-90066761D01*
X170950000Y-90114380D01*
X170711904Y-90114380D01*
X172235714Y-90114380D02*
X171664285Y-90114380D01*
X171950000Y-90114380D02*
X171950000Y-89114380D01*
X171854761Y-89257238D01*
X171759523Y-89352476D01*
X171664285Y-89400095D01*
%TO.C,R13*%
X155567142Y-45664380D02*
X155233809Y-45188190D01*
X154995714Y-45664380D02*
X154995714Y-44664380D01*
X155376666Y-44664380D01*
X155471904Y-44712000D01*
X155519523Y-44759619D01*
X155567142Y-44854857D01*
X155567142Y-44997714D01*
X155519523Y-45092952D01*
X155471904Y-45140571D01*
X155376666Y-45188190D01*
X154995714Y-45188190D01*
X156519523Y-45664380D02*
X155948095Y-45664380D01*
X156233809Y-45664380D02*
X156233809Y-44664380D01*
X156138571Y-44807238D01*
X156043333Y-44902476D01*
X155948095Y-44950095D01*
X156852857Y-44664380D02*
X157471904Y-44664380D01*
X157138571Y-45045333D01*
X157281428Y-45045333D01*
X157376666Y-45092952D01*
X157424285Y-45140571D01*
X157471904Y-45235809D01*
X157471904Y-45473904D01*
X157424285Y-45569142D01*
X157376666Y-45616761D01*
X157281428Y-45664380D01*
X156995714Y-45664380D01*
X156900476Y-45616761D01*
X156852857Y-45569142D01*
%TO.C,C15*%
X182237142Y-72620142D02*
X182189523Y-72667761D01*
X182046666Y-72715380D01*
X181951428Y-72715380D01*
X181808571Y-72667761D01*
X181713333Y-72572523D01*
X181665714Y-72477285D01*
X181618095Y-72286809D01*
X181618095Y-72143952D01*
X181665714Y-71953476D01*
X181713333Y-71858238D01*
X181808571Y-71763000D01*
X181951428Y-71715380D01*
X182046666Y-71715380D01*
X182189523Y-71763000D01*
X182237142Y-71810619D01*
X183189523Y-72715380D02*
X182618095Y-72715380D01*
X182903809Y-72715380D02*
X182903809Y-71715380D01*
X182808571Y-71858238D01*
X182713333Y-71953476D01*
X182618095Y-72001095D01*
X184094285Y-71715380D02*
X183618095Y-71715380D01*
X183570476Y-72191571D01*
X183618095Y-72143952D01*
X183713333Y-72096333D01*
X183951428Y-72096333D01*
X184046666Y-72143952D01*
X184094285Y-72191571D01*
X184141904Y-72286809D01*
X184141904Y-72524904D01*
X184094285Y-72620142D01*
X184046666Y-72667761D01*
X183951428Y-72715380D01*
X183713333Y-72715380D01*
X183618095Y-72667761D01*
X183570476Y-72620142D01*
%TO.C,R2*%
X182078333Y-36012380D02*
X181745000Y-35536190D01*
X181506904Y-36012380D02*
X181506904Y-35012380D01*
X181887857Y-35012380D01*
X181983095Y-35060000D01*
X182030714Y-35107619D01*
X182078333Y-35202857D01*
X182078333Y-35345714D01*
X182030714Y-35440952D01*
X181983095Y-35488571D01*
X181887857Y-35536190D01*
X181506904Y-35536190D01*
X182459285Y-35107619D02*
X182506904Y-35060000D01*
X182602142Y-35012380D01*
X182840238Y-35012380D01*
X182935476Y-35060000D01*
X182983095Y-35107619D01*
X183030714Y-35202857D01*
X183030714Y-35298095D01*
X182983095Y-35440952D01*
X182411666Y-36012380D01*
X183030714Y-36012380D01*
%TO.C,R22*%
X112846380Y-75826857D02*
X112370190Y-76160190D01*
X112846380Y-76398285D02*
X111846380Y-76398285D01*
X111846380Y-76017333D01*
X111894000Y-75922095D01*
X111941619Y-75874476D01*
X112036857Y-75826857D01*
X112179714Y-75826857D01*
X112274952Y-75874476D01*
X112322571Y-75922095D01*
X112370190Y-76017333D01*
X112370190Y-76398285D01*
X111941619Y-75445904D02*
X111894000Y-75398285D01*
X111846380Y-75303047D01*
X111846380Y-75064952D01*
X111894000Y-74969714D01*
X111941619Y-74922095D01*
X112036857Y-74874476D01*
X112132095Y-74874476D01*
X112274952Y-74922095D01*
X112846380Y-75493523D01*
X112846380Y-74874476D01*
X111941619Y-74493523D02*
X111894000Y-74445904D01*
X111846380Y-74350666D01*
X111846380Y-74112571D01*
X111894000Y-74017333D01*
X111941619Y-73969714D01*
X112036857Y-73922095D01*
X112132095Y-73922095D01*
X112274952Y-73969714D01*
X112846380Y-74541142D01*
X112846380Y-73922095D01*
%TO.C,R6*%
X173823333Y-60523380D02*
X173490000Y-60047190D01*
X173251904Y-60523380D02*
X173251904Y-59523380D01*
X173632857Y-59523380D01*
X173728095Y-59571000D01*
X173775714Y-59618619D01*
X173823333Y-59713857D01*
X173823333Y-59856714D01*
X173775714Y-59951952D01*
X173728095Y-59999571D01*
X173632857Y-60047190D01*
X173251904Y-60047190D01*
X174680476Y-59523380D02*
X174490000Y-59523380D01*
X174394761Y-59571000D01*
X174347142Y-59618619D01*
X174251904Y-59761476D01*
X174204285Y-59951952D01*
X174204285Y-60332904D01*
X174251904Y-60428142D01*
X174299523Y-60475761D01*
X174394761Y-60523380D01*
X174585238Y-60523380D01*
X174680476Y-60475761D01*
X174728095Y-60428142D01*
X174775714Y-60332904D01*
X174775714Y-60094809D01*
X174728095Y-59999571D01*
X174680476Y-59951952D01*
X174585238Y-59904333D01*
X174394761Y-59904333D01*
X174299523Y-59951952D01*
X174251904Y-59999571D01*
X174204285Y-60094809D01*
%TO.C,D5*%
X156691904Y-53919380D02*
X156691904Y-52919380D01*
X156930000Y-52919380D01*
X157072857Y-52967000D01*
X157168095Y-53062238D01*
X157215714Y-53157476D01*
X157263333Y-53347952D01*
X157263333Y-53490809D01*
X157215714Y-53681285D01*
X157168095Y-53776523D01*
X157072857Y-53871761D01*
X156930000Y-53919380D01*
X156691904Y-53919380D01*
X158168095Y-52919380D02*
X157691904Y-52919380D01*
X157644285Y-53395571D01*
X157691904Y-53347952D01*
X157787142Y-53300333D01*
X158025238Y-53300333D01*
X158120476Y-53347952D01*
X158168095Y-53395571D01*
X158215714Y-53490809D01*
X158215714Y-53728904D01*
X158168095Y-53824142D01*
X158120476Y-53871761D01*
X158025238Y-53919380D01*
X157787142Y-53919380D01*
X157691904Y-53871761D01*
X157644285Y-53824142D01*
%TO.C,D3*%
X180896904Y-90241380D02*
X180896904Y-89241380D01*
X181135000Y-89241380D01*
X181277857Y-89289000D01*
X181373095Y-89384238D01*
X181420714Y-89479476D01*
X181468333Y-89669952D01*
X181468333Y-89812809D01*
X181420714Y-90003285D01*
X181373095Y-90098523D01*
X181277857Y-90193761D01*
X181135000Y-90241380D01*
X180896904Y-90241380D01*
X181801666Y-89241380D02*
X182420714Y-89241380D01*
X182087380Y-89622333D01*
X182230238Y-89622333D01*
X182325476Y-89669952D01*
X182373095Y-89717571D01*
X182420714Y-89812809D01*
X182420714Y-90050904D01*
X182373095Y-90146142D01*
X182325476Y-90193761D01*
X182230238Y-90241380D01*
X181944523Y-90241380D01*
X181849285Y-90193761D01*
X181801666Y-90146142D01*
%TO.C,R17*%
X112846380Y-59570857D02*
X112370190Y-59904190D01*
X112846380Y-60142285D02*
X111846380Y-60142285D01*
X111846380Y-59761333D01*
X111894000Y-59666095D01*
X111941619Y-59618476D01*
X112036857Y-59570857D01*
X112179714Y-59570857D01*
X112274952Y-59618476D01*
X112322571Y-59666095D01*
X112370190Y-59761333D01*
X112370190Y-60142285D01*
X112846380Y-58618476D02*
X112846380Y-59189904D01*
X112846380Y-58904190D02*
X111846380Y-58904190D01*
X111989238Y-58999428D01*
X112084476Y-59094666D01*
X112132095Y-59189904D01*
X111846380Y-58285142D02*
X111846380Y-57618476D01*
X112846380Y-58047047D01*
%TO.C,R8*%
X152868333Y-36012380D02*
X152535000Y-35536190D01*
X152296904Y-36012380D02*
X152296904Y-35012380D01*
X152677857Y-35012380D01*
X152773095Y-35060000D01*
X152820714Y-35107619D01*
X152868333Y-35202857D01*
X152868333Y-35345714D01*
X152820714Y-35440952D01*
X152773095Y-35488571D01*
X152677857Y-35536190D01*
X152296904Y-35536190D01*
X153439761Y-35440952D02*
X153344523Y-35393333D01*
X153296904Y-35345714D01*
X153249285Y-35250476D01*
X153249285Y-35202857D01*
X153296904Y-35107619D01*
X153344523Y-35060000D01*
X153439761Y-35012380D01*
X153630238Y-35012380D01*
X153725476Y-35060000D01*
X153773095Y-35107619D01*
X153820714Y-35202857D01*
X153820714Y-35250476D01*
X153773095Y-35345714D01*
X153725476Y-35393333D01*
X153630238Y-35440952D01*
X153439761Y-35440952D01*
X153344523Y-35488571D01*
X153296904Y-35536190D01*
X153249285Y-35631428D01*
X153249285Y-35821904D01*
X153296904Y-35917142D01*
X153344523Y-35964761D01*
X153439761Y-36012380D01*
X153630238Y-36012380D01*
X153725476Y-35964761D01*
X153773095Y-35917142D01*
X153820714Y-35821904D01*
X153820714Y-35631428D01*
X153773095Y-35536190D01*
X153725476Y-35488571D01*
X153630238Y-35440952D01*
%TO.C,R24*%
X121912142Y-54173380D02*
X121578809Y-53697190D01*
X121340714Y-54173380D02*
X121340714Y-53173380D01*
X121721666Y-53173380D01*
X121816904Y-53221000D01*
X121864523Y-53268619D01*
X121912142Y-53363857D01*
X121912142Y-53506714D01*
X121864523Y-53601952D01*
X121816904Y-53649571D01*
X121721666Y-53697190D01*
X121340714Y-53697190D01*
X122293095Y-53268619D02*
X122340714Y-53221000D01*
X122435952Y-53173380D01*
X122674047Y-53173380D01*
X122769285Y-53221000D01*
X122816904Y-53268619D01*
X122864523Y-53363857D01*
X122864523Y-53459095D01*
X122816904Y-53601952D01*
X122245476Y-54173380D01*
X122864523Y-54173380D01*
X123721666Y-53506714D02*
X123721666Y-54173380D01*
X123483571Y-53125761D02*
X123245476Y-53840047D01*
X123864523Y-53840047D01*
%TO.C,J3*%
X190447380Y-81583333D02*
X191161666Y-81583333D01*
X191304523Y-81630952D01*
X191399761Y-81726190D01*
X191447380Y-81869047D01*
X191447380Y-81964285D01*
X190447380Y-81202380D02*
X190447380Y-80583333D01*
X190828333Y-80916666D01*
X190828333Y-80773809D01*
X190875952Y-80678571D01*
X190923571Y-80630952D01*
X191018809Y-80583333D01*
X191256904Y-80583333D01*
X191352142Y-80630952D01*
X191399761Y-80678571D01*
X191447380Y-80773809D01*
X191447380Y-81059523D01*
X191399761Y-81154761D01*
X191352142Y-81202380D01*
%TO.C,R3*%
X173188333Y-36012380D02*
X172855000Y-35536190D01*
X172616904Y-36012380D02*
X172616904Y-35012380D01*
X172997857Y-35012380D01*
X173093095Y-35060000D01*
X173140714Y-35107619D01*
X173188333Y-35202857D01*
X173188333Y-35345714D01*
X173140714Y-35440952D01*
X173093095Y-35488571D01*
X172997857Y-35536190D01*
X172616904Y-35536190D01*
X173521666Y-35012380D02*
X174140714Y-35012380D01*
X173807380Y-35393333D01*
X173950238Y-35393333D01*
X174045476Y-35440952D01*
X174093095Y-35488571D01*
X174140714Y-35583809D01*
X174140714Y-35821904D01*
X174093095Y-35917142D01*
X174045476Y-35964761D01*
X173950238Y-36012380D01*
X173664523Y-36012380D01*
X173569285Y-35964761D01*
X173521666Y-35917142D01*
%TO.C,C1*%
X124801333Y-68175142D02*
X124753714Y-68222761D01*
X124610857Y-68270380D01*
X124515619Y-68270380D01*
X124372761Y-68222761D01*
X124277523Y-68127523D01*
X124229904Y-68032285D01*
X124182285Y-67841809D01*
X124182285Y-67698952D01*
X124229904Y-67508476D01*
X124277523Y-67413238D01*
X124372761Y-67318000D01*
X124515619Y-67270380D01*
X124610857Y-67270380D01*
X124753714Y-67318000D01*
X124801333Y-67365619D01*
X125753714Y-68270380D02*
X125182285Y-68270380D01*
X125468000Y-68270380D02*
X125468000Y-67270380D01*
X125372761Y-67413238D01*
X125277523Y-67508476D01*
X125182285Y-67556095D01*
%TO.C,R12*%
X161282142Y-45617380D02*
X160948809Y-45141190D01*
X160710714Y-45617380D02*
X160710714Y-44617380D01*
X161091666Y-44617380D01*
X161186904Y-44665000D01*
X161234523Y-44712619D01*
X161282142Y-44807857D01*
X161282142Y-44950714D01*
X161234523Y-45045952D01*
X161186904Y-45093571D01*
X161091666Y-45141190D01*
X160710714Y-45141190D01*
X162234523Y-45617380D02*
X161663095Y-45617380D01*
X161948809Y-45617380D02*
X161948809Y-44617380D01*
X161853571Y-44760238D01*
X161758333Y-44855476D01*
X161663095Y-44903095D01*
X162615476Y-44712619D02*
X162663095Y-44665000D01*
X162758333Y-44617380D01*
X162996428Y-44617380D01*
X163091666Y-44665000D01*
X163139285Y-44712619D01*
X163186904Y-44807857D01*
X163186904Y-44903095D01*
X163139285Y-45045952D01*
X162567857Y-45617380D01*
X163186904Y-45617380D01*
%TO.C,R5*%
X173188333Y-45617380D02*
X172855000Y-45141190D01*
X172616904Y-45617380D02*
X172616904Y-44617380D01*
X172997857Y-44617380D01*
X173093095Y-44665000D01*
X173140714Y-44712619D01*
X173188333Y-44807857D01*
X173188333Y-44950714D01*
X173140714Y-45045952D01*
X173093095Y-45093571D01*
X172997857Y-45141190D01*
X172616904Y-45141190D01*
X174093095Y-44617380D02*
X173616904Y-44617380D01*
X173569285Y-45093571D01*
X173616904Y-45045952D01*
X173712142Y-44998333D01*
X173950238Y-44998333D01*
X174045476Y-45045952D01*
X174093095Y-45093571D01*
X174140714Y-45188809D01*
X174140714Y-45426904D01*
X174093095Y-45522142D01*
X174045476Y-45569761D01*
X173950238Y-45617380D01*
X173712142Y-45617380D01*
X173616904Y-45569761D01*
X173569285Y-45522142D01*
%TO.C,U2*%
X147066095Y-73493380D02*
X147066095Y-74302904D01*
X147113714Y-74398142D01*
X147161333Y-74445761D01*
X147256571Y-74493380D01*
X147447047Y-74493380D01*
X147542285Y-74445761D01*
X147589904Y-74398142D01*
X147637523Y-74302904D01*
X147637523Y-73493380D01*
X148066095Y-73588619D02*
X148113714Y-73541000D01*
X148208952Y-73493380D01*
X148447047Y-73493380D01*
X148542285Y-73541000D01*
X148589904Y-73588619D01*
X148637523Y-73683857D01*
X148637523Y-73779095D01*
X148589904Y-73921952D01*
X148018476Y-74493380D01*
X148637523Y-74493380D01*
%TO.C,U5*%
X179197095Y-55840380D02*
X179197095Y-56649904D01*
X179244714Y-56745142D01*
X179292333Y-56792761D01*
X179387571Y-56840380D01*
X179578047Y-56840380D01*
X179673285Y-56792761D01*
X179720904Y-56745142D01*
X179768523Y-56649904D01*
X179768523Y-55840380D01*
X180720904Y-55840380D02*
X180244714Y-55840380D01*
X180197095Y-56316571D01*
X180244714Y-56268952D01*
X180339952Y-56221333D01*
X180578047Y-56221333D01*
X180673285Y-56268952D01*
X180720904Y-56316571D01*
X180768523Y-56411809D01*
X180768523Y-56649904D01*
X180720904Y-56745142D01*
X180673285Y-56792761D01*
X180578047Y-56840380D01*
X180339952Y-56840380D01*
X180244714Y-56792761D01*
X180197095Y-56745142D01*
%TO.C,R11*%
X164203142Y-60650380D02*
X163869809Y-60174190D01*
X163631714Y-60650380D02*
X163631714Y-59650380D01*
X164012666Y-59650380D01*
X164107904Y-59698000D01*
X164155523Y-59745619D01*
X164203142Y-59840857D01*
X164203142Y-59983714D01*
X164155523Y-60078952D01*
X164107904Y-60126571D01*
X164012666Y-60174190D01*
X163631714Y-60174190D01*
X165155523Y-60650380D02*
X164584095Y-60650380D01*
X164869809Y-60650380D02*
X164869809Y-59650380D01*
X164774571Y-59793238D01*
X164679333Y-59888476D01*
X164584095Y-59936095D01*
X166107904Y-60650380D02*
X165536476Y-60650380D01*
X165822190Y-60650380D02*
X165822190Y-59650380D01*
X165726952Y-59793238D01*
X165631714Y-59888476D01*
X165536476Y-59936095D01*
%TO.C,C2*%
X166838333Y-55856142D02*
X166790714Y-55903761D01*
X166647857Y-55951380D01*
X166552619Y-55951380D01*
X166409761Y-55903761D01*
X166314523Y-55808523D01*
X166266904Y-55713285D01*
X166219285Y-55522809D01*
X166219285Y-55379952D01*
X166266904Y-55189476D01*
X166314523Y-55094238D01*
X166409761Y-54999000D01*
X166552619Y-54951380D01*
X166647857Y-54951380D01*
X166790714Y-54999000D01*
X166838333Y-55046619D01*
X167219285Y-55046619D02*
X167266904Y-54999000D01*
X167362142Y-54951380D01*
X167600238Y-54951380D01*
X167695476Y-54999000D01*
X167743095Y-55046619D01*
X167790714Y-55141857D01*
X167790714Y-55237095D01*
X167743095Y-55379952D01*
X167171666Y-55951380D01*
X167790714Y-55951380D01*
%TO.C,C17*%
X185793142Y-54078142D02*
X185745523Y-54125761D01*
X185602666Y-54173380D01*
X185507428Y-54173380D01*
X185364571Y-54125761D01*
X185269333Y-54030523D01*
X185221714Y-53935285D01*
X185174095Y-53744809D01*
X185174095Y-53601952D01*
X185221714Y-53411476D01*
X185269333Y-53316238D01*
X185364571Y-53221000D01*
X185507428Y-53173380D01*
X185602666Y-53173380D01*
X185745523Y-53221000D01*
X185793142Y-53268619D01*
X186745523Y-54173380D02*
X186174095Y-54173380D01*
X186459809Y-54173380D02*
X186459809Y-53173380D01*
X186364571Y-53316238D01*
X186269333Y-53411476D01*
X186174095Y-53459095D01*
X187078857Y-53173380D02*
X187745523Y-53173380D01*
X187316952Y-54173380D01*
%TO.C,R18*%
X112847380Y-63761857D02*
X112371190Y-64095190D01*
X112847380Y-64333285D02*
X111847380Y-64333285D01*
X111847380Y-63952333D01*
X111895000Y-63857095D01*
X111942619Y-63809476D01*
X112037857Y-63761857D01*
X112180714Y-63761857D01*
X112275952Y-63809476D01*
X112323571Y-63857095D01*
X112371190Y-63952333D01*
X112371190Y-64333285D01*
X112847380Y-62809476D02*
X112847380Y-63380904D01*
X112847380Y-63095190D02*
X111847380Y-63095190D01*
X111990238Y-63190428D01*
X112085476Y-63285666D01*
X112133095Y-63380904D01*
X112275952Y-62238047D02*
X112228333Y-62333285D01*
X112180714Y-62380904D01*
X112085476Y-62428523D01*
X112037857Y-62428523D01*
X111942619Y-62380904D01*
X111895000Y-62333285D01*
X111847380Y-62238047D01*
X111847380Y-62047571D01*
X111895000Y-61952333D01*
X111942619Y-61904714D01*
X112037857Y-61857095D01*
X112085476Y-61857095D01*
X112180714Y-61904714D01*
X112228333Y-61952333D01*
X112275952Y-62047571D01*
X112275952Y-62238047D01*
X112323571Y-62333285D01*
X112371190Y-62380904D01*
X112466428Y-62428523D01*
X112656904Y-62428523D01*
X112752142Y-62380904D01*
X112799761Y-62333285D01*
X112847380Y-62238047D01*
X112847380Y-62047571D01*
X112799761Y-61952333D01*
X112752142Y-61904714D01*
X112656904Y-61857095D01*
X112466428Y-61857095D01*
X112371190Y-61904714D01*
X112323571Y-61952333D01*
X112275952Y-62047571D01*
%TO.C,R30*%
X172657142Y-24952380D02*
X172323809Y-24476190D01*
X172085714Y-24952380D02*
X172085714Y-23952380D01*
X172466666Y-23952380D01*
X172561904Y-24000000D01*
X172609523Y-24047619D01*
X172657142Y-24142857D01*
X172657142Y-24285714D01*
X172609523Y-24380952D01*
X172561904Y-24428571D01*
X172466666Y-24476190D01*
X172085714Y-24476190D01*
X172990476Y-23952380D02*
X173609523Y-23952380D01*
X173276190Y-24333333D01*
X173419047Y-24333333D01*
X173514285Y-24380952D01*
X173561904Y-24428571D01*
X173609523Y-24523809D01*
X173609523Y-24761904D01*
X173561904Y-24857142D01*
X173514285Y-24904761D01*
X173419047Y-24952380D01*
X173133333Y-24952380D01*
X173038095Y-24904761D01*
X172990476Y-24857142D01*
X174228571Y-23952380D02*
X174323809Y-23952380D01*
X174419047Y-24000000D01*
X174466666Y-24047619D01*
X174514285Y-24142857D01*
X174561904Y-24333333D01*
X174561904Y-24571428D01*
X174514285Y-24761904D01*
X174466666Y-24857142D01*
X174419047Y-24904761D01*
X174323809Y-24952380D01*
X174228571Y-24952380D01*
X174133333Y-24904761D01*
X174085714Y-24857142D01*
X174038095Y-24761904D01*
X173990476Y-24571428D01*
X173990476Y-24333333D01*
X174038095Y-24142857D01*
X174085714Y-24047619D01*
X174133333Y-24000000D01*
X174228571Y-23952380D01*
%TO.C,J7*%
X190447380Y-61583333D02*
X191161666Y-61583333D01*
X191304523Y-61630952D01*
X191399761Y-61726190D01*
X191447380Y-61869047D01*
X191447380Y-61964285D01*
X190447380Y-61202380D02*
X190447380Y-60535714D01*
X191447380Y-60964285D01*
%TO.C,U9*%
X124587095Y-55205380D02*
X124587095Y-56014904D01*
X124634714Y-56110142D01*
X124682333Y-56157761D01*
X124777571Y-56205380D01*
X124968047Y-56205380D01*
X125063285Y-56157761D01*
X125110904Y-56110142D01*
X125158523Y-56014904D01*
X125158523Y-55205380D01*
X125682333Y-56205380D02*
X125872809Y-56205380D01*
X125968047Y-56157761D01*
X126015666Y-56110142D01*
X126110904Y-55967285D01*
X126158523Y-55776809D01*
X126158523Y-55395857D01*
X126110904Y-55300619D01*
X126063285Y-55253000D01*
X125968047Y-55205380D01*
X125777571Y-55205380D01*
X125682333Y-55253000D01*
X125634714Y-55300619D01*
X125587095Y-55395857D01*
X125587095Y-55633952D01*
X125634714Y-55729190D01*
X125682333Y-55776809D01*
X125777571Y-55824428D01*
X125968047Y-55824428D01*
X126063285Y-55776809D01*
X126110904Y-55729190D01*
X126158523Y-55633952D01*
%TO.C,R32*%
X172657142Y-34572380D02*
X172323809Y-34096190D01*
X172085714Y-34572380D02*
X172085714Y-33572380D01*
X172466666Y-33572380D01*
X172561904Y-33620000D01*
X172609523Y-33667619D01*
X172657142Y-33762857D01*
X172657142Y-33905714D01*
X172609523Y-34000952D01*
X172561904Y-34048571D01*
X172466666Y-34096190D01*
X172085714Y-34096190D01*
X172990476Y-33572380D02*
X173609523Y-33572380D01*
X173276190Y-33953333D01*
X173419047Y-33953333D01*
X173514285Y-34000952D01*
X173561904Y-34048571D01*
X173609523Y-34143809D01*
X173609523Y-34381904D01*
X173561904Y-34477142D01*
X173514285Y-34524761D01*
X173419047Y-34572380D01*
X173133333Y-34572380D01*
X173038095Y-34524761D01*
X172990476Y-34477142D01*
X173990476Y-33667619D02*
X174038095Y-33620000D01*
X174133333Y-33572380D01*
X174371428Y-33572380D01*
X174466666Y-33620000D01*
X174514285Y-33667619D01*
X174561904Y-33762857D01*
X174561904Y-33858095D01*
X174514285Y-34000952D01*
X173942857Y-34572380D01*
X174561904Y-34572380D01*
%TO.C,C16*%
X142740142Y-50395142D02*
X142692523Y-50442761D01*
X142549666Y-50490380D01*
X142454428Y-50490380D01*
X142311571Y-50442761D01*
X142216333Y-50347523D01*
X142168714Y-50252285D01*
X142121095Y-50061809D01*
X142121095Y-49918952D01*
X142168714Y-49728476D01*
X142216333Y-49633238D01*
X142311571Y-49538000D01*
X142454428Y-49490380D01*
X142549666Y-49490380D01*
X142692523Y-49538000D01*
X142740142Y-49585619D01*
X143692523Y-50490380D02*
X143121095Y-50490380D01*
X143406809Y-50490380D02*
X143406809Y-49490380D01*
X143311571Y-49633238D01*
X143216333Y-49728476D01*
X143121095Y-49776095D01*
X144549666Y-49490380D02*
X144359190Y-49490380D01*
X144263952Y-49538000D01*
X144216333Y-49585619D01*
X144121095Y-49728476D01*
X144073476Y-49918952D01*
X144073476Y-50299904D01*
X144121095Y-50395142D01*
X144168714Y-50442761D01*
X144263952Y-50490380D01*
X144454428Y-50490380D01*
X144549666Y-50442761D01*
X144597285Y-50395142D01*
X144644904Y-50299904D01*
X144644904Y-50061809D01*
X144597285Y-49966571D01*
X144549666Y-49918952D01*
X144454428Y-49871333D01*
X144263952Y-49871333D01*
X144168714Y-49918952D01*
X144121095Y-49966571D01*
X144073476Y-50061809D01*
%TO.C,J1*%
X116922380Y-52633333D02*
X117636666Y-52633333D01*
X117779523Y-52680952D01*
X117874761Y-52776190D01*
X117922380Y-52919047D01*
X117922380Y-53014285D01*
X117922380Y-51633333D02*
X117922380Y-52204761D01*
X117922380Y-51919047D02*
X116922380Y-51919047D01*
X117065238Y-52014285D01*
X117160476Y-52109523D01*
X117208095Y-52204761D01*
%TO.C,R28*%
X142486142Y-65857380D02*
X142152809Y-65381190D01*
X141914714Y-65857380D02*
X141914714Y-64857380D01*
X142295666Y-64857380D01*
X142390904Y-64905000D01*
X142438523Y-64952619D01*
X142486142Y-65047857D01*
X142486142Y-65190714D01*
X142438523Y-65285952D01*
X142390904Y-65333571D01*
X142295666Y-65381190D01*
X141914714Y-65381190D01*
X142867095Y-64952619D02*
X142914714Y-64905000D01*
X143009952Y-64857380D01*
X143248047Y-64857380D01*
X143343285Y-64905000D01*
X143390904Y-64952619D01*
X143438523Y-65047857D01*
X143438523Y-65143095D01*
X143390904Y-65285952D01*
X142819476Y-65857380D01*
X143438523Y-65857380D01*
X144009952Y-65285952D02*
X143914714Y-65238333D01*
X143867095Y-65190714D01*
X143819476Y-65095476D01*
X143819476Y-65047857D01*
X143867095Y-64952619D01*
X143914714Y-64905000D01*
X144009952Y-64857380D01*
X144200428Y-64857380D01*
X144295666Y-64905000D01*
X144343285Y-64952619D01*
X144390904Y-65047857D01*
X144390904Y-65095476D01*
X144343285Y-65190714D01*
X144295666Y-65238333D01*
X144200428Y-65285952D01*
X144009952Y-65285952D01*
X143914714Y-65333571D01*
X143867095Y-65381190D01*
X143819476Y-65476428D01*
X143819476Y-65666904D01*
X143867095Y-65762142D01*
X143914714Y-65809761D01*
X144009952Y-65857380D01*
X144200428Y-65857380D01*
X144295666Y-65809761D01*
X144343285Y-65762142D01*
X144390904Y-65666904D01*
X144390904Y-65476428D01*
X144343285Y-65381190D01*
X144295666Y-65333571D01*
X144200428Y-65285952D01*
%TO.C,C13*%
X182237142Y-54967142D02*
X182189523Y-55014761D01*
X182046666Y-55062380D01*
X181951428Y-55062380D01*
X181808571Y-55014761D01*
X181713333Y-54919523D01*
X181665714Y-54824285D01*
X181618095Y-54633809D01*
X181618095Y-54490952D01*
X181665714Y-54300476D01*
X181713333Y-54205238D01*
X181808571Y-54110000D01*
X181951428Y-54062380D01*
X182046666Y-54062380D01*
X182189523Y-54110000D01*
X182237142Y-54157619D01*
X183189523Y-55062380D02*
X182618095Y-55062380D01*
X182903809Y-55062380D02*
X182903809Y-54062380D01*
X182808571Y-54205238D01*
X182713333Y-54300476D01*
X182618095Y-54348095D01*
X183522857Y-54062380D02*
X184141904Y-54062380D01*
X183808571Y-54443333D01*
X183951428Y-54443333D01*
X184046666Y-54490952D01*
X184094285Y-54538571D01*
X184141904Y-54633809D01*
X184141904Y-54871904D01*
X184094285Y-54967142D01*
X184046666Y-55014761D01*
X183951428Y-55062380D01*
X183665714Y-55062380D01*
X183570476Y-55014761D01*
X183522857Y-54967142D01*
%TO.C,R16*%
X172204142Y-53284380D02*
X171870809Y-52808190D01*
X171632714Y-53284380D02*
X171632714Y-52284380D01*
X172013666Y-52284380D01*
X172108904Y-52332000D01*
X172156523Y-52379619D01*
X172204142Y-52474857D01*
X172204142Y-52617714D01*
X172156523Y-52712952D01*
X172108904Y-52760571D01*
X172013666Y-52808190D01*
X171632714Y-52808190D01*
X173156523Y-53284380D02*
X172585095Y-53284380D01*
X172870809Y-53284380D02*
X172870809Y-52284380D01*
X172775571Y-52427238D01*
X172680333Y-52522476D01*
X172585095Y-52570095D01*
X174013666Y-52284380D02*
X173823190Y-52284380D01*
X173727952Y-52332000D01*
X173680333Y-52379619D01*
X173585095Y-52522476D01*
X173537476Y-52712952D01*
X173537476Y-53093904D01*
X173585095Y-53189142D01*
X173632714Y-53236761D01*
X173727952Y-53284380D01*
X173918428Y-53284380D01*
X174013666Y-53236761D01*
X174061285Y-53189142D01*
X174108904Y-53093904D01*
X174108904Y-52855809D01*
X174061285Y-52760571D01*
X174013666Y-52712952D01*
X173918428Y-52665333D01*
X173727952Y-52665333D01*
X173632714Y-52712952D01*
X173585095Y-52760571D01*
X173537476Y-52855809D01*
%TO.C,U8*%
X118872095Y-67832380D02*
X118872095Y-68641904D01*
X118919714Y-68737142D01*
X118967333Y-68784761D01*
X119062571Y-68832380D01*
X119253047Y-68832380D01*
X119348285Y-68784761D01*
X119395904Y-68737142D01*
X119443523Y-68641904D01*
X119443523Y-67832380D01*
X120062571Y-68260952D02*
X119967333Y-68213333D01*
X119919714Y-68165714D01*
X119872095Y-68070476D01*
X119872095Y-68022857D01*
X119919714Y-67927619D01*
X119967333Y-67880000D01*
X120062571Y-67832380D01*
X120253047Y-67832380D01*
X120348285Y-67880000D01*
X120395904Y-67927619D01*
X120443523Y-68022857D01*
X120443523Y-68070476D01*
X120395904Y-68165714D01*
X120348285Y-68213333D01*
X120253047Y-68260952D01*
X120062571Y-68260952D01*
X119967333Y-68308571D01*
X119919714Y-68356190D01*
X119872095Y-68451428D01*
X119872095Y-68641904D01*
X119919714Y-68737142D01*
X119967333Y-68784761D01*
X120062571Y-68832380D01*
X120253047Y-68832380D01*
X120348285Y-68784761D01*
X120395904Y-68737142D01*
X120443523Y-68641904D01*
X120443523Y-68451428D01*
X120395904Y-68356190D01*
X120348285Y-68308571D01*
X120253047Y-68260952D01*
%TO.C,C11*%
X171442142Y-72620142D02*
X171394523Y-72667761D01*
X171251666Y-72715380D01*
X171156428Y-72715380D01*
X171013571Y-72667761D01*
X170918333Y-72572523D01*
X170870714Y-72477285D01*
X170823095Y-72286809D01*
X170823095Y-72143952D01*
X170870714Y-71953476D01*
X170918333Y-71858238D01*
X171013571Y-71763000D01*
X171156428Y-71715380D01*
X171251666Y-71715380D01*
X171394523Y-71763000D01*
X171442142Y-71810619D01*
X172394523Y-72715380D02*
X171823095Y-72715380D01*
X172108809Y-72715380D02*
X172108809Y-71715380D01*
X172013571Y-71858238D01*
X171918333Y-71953476D01*
X171823095Y-72001095D01*
X173346904Y-72715380D02*
X172775476Y-72715380D01*
X173061190Y-72715380D02*
X173061190Y-71715380D01*
X172965952Y-71858238D01*
X172870714Y-71953476D01*
X172775476Y-72001095D01*
%TO.C,U1*%
X152654095Y-55767380D02*
X152654095Y-56576904D01*
X152701714Y-56672142D01*
X152749333Y-56719761D01*
X152844571Y-56767380D01*
X153035047Y-56767380D01*
X153130285Y-56719761D01*
X153177904Y-56672142D01*
X153225523Y-56576904D01*
X153225523Y-55767380D01*
X154225523Y-56767380D02*
X153654095Y-56767380D01*
X153939809Y-56767380D02*
X153939809Y-55767380D01*
X153844571Y-55910238D01*
X153749333Y-56005476D01*
X153654095Y-56053095D01*
%TO.C,R21*%
X112847380Y-71762857D02*
X112371190Y-72096190D01*
X112847380Y-72334285D02*
X111847380Y-72334285D01*
X111847380Y-71953333D01*
X111895000Y-71858095D01*
X111942619Y-71810476D01*
X112037857Y-71762857D01*
X112180714Y-71762857D01*
X112275952Y-71810476D01*
X112323571Y-71858095D01*
X112371190Y-71953333D01*
X112371190Y-72334285D01*
X111942619Y-71381904D02*
X111895000Y-71334285D01*
X111847380Y-71239047D01*
X111847380Y-71000952D01*
X111895000Y-70905714D01*
X111942619Y-70858095D01*
X112037857Y-70810476D01*
X112133095Y-70810476D01*
X112275952Y-70858095D01*
X112847380Y-71429523D01*
X112847380Y-70810476D01*
X112847380Y-69858095D02*
X112847380Y-70429523D01*
X112847380Y-70143809D02*
X111847380Y-70143809D01*
X111990238Y-70239047D01*
X112085476Y-70334285D01*
X112133095Y-70429523D01*
%TO.C,C9*%
X152995333Y-55475142D02*
X152947714Y-55522761D01*
X152804857Y-55570380D01*
X152709619Y-55570380D01*
X152566761Y-55522761D01*
X152471523Y-55427523D01*
X152423904Y-55332285D01*
X152376285Y-55141809D01*
X152376285Y-54998952D01*
X152423904Y-54808476D01*
X152471523Y-54713238D01*
X152566761Y-54618000D01*
X152709619Y-54570380D01*
X152804857Y-54570380D01*
X152947714Y-54618000D01*
X152995333Y-54665619D01*
X153471523Y-55570380D02*
X153662000Y-55570380D01*
X153757238Y-55522761D01*
X153804857Y-55475142D01*
X153900095Y-55332285D01*
X153947714Y-55141809D01*
X153947714Y-54760857D01*
X153900095Y-54665619D01*
X153852476Y-54618000D01*
X153757238Y-54570380D01*
X153566761Y-54570380D01*
X153471523Y-54618000D01*
X153423904Y-54665619D01*
X153376285Y-54760857D01*
X153376285Y-54998952D01*
X153423904Y-55094190D01*
X153471523Y-55141809D01*
X153566761Y-55189428D01*
X153757238Y-55189428D01*
X153852476Y-55141809D01*
X153900095Y-55094190D01*
X153947714Y-54998952D01*
%TO.C,R31*%
X181557142Y-24952380D02*
X181223809Y-24476190D01*
X180985714Y-24952380D02*
X180985714Y-23952380D01*
X181366666Y-23952380D01*
X181461904Y-24000000D01*
X181509523Y-24047619D01*
X181557142Y-24142857D01*
X181557142Y-24285714D01*
X181509523Y-24380952D01*
X181461904Y-24428571D01*
X181366666Y-24476190D01*
X180985714Y-24476190D01*
X181890476Y-23952380D02*
X182509523Y-23952380D01*
X182176190Y-24333333D01*
X182319047Y-24333333D01*
X182414285Y-24380952D01*
X182461904Y-24428571D01*
X182509523Y-24523809D01*
X182509523Y-24761904D01*
X182461904Y-24857142D01*
X182414285Y-24904761D01*
X182319047Y-24952380D01*
X182033333Y-24952380D01*
X181938095Y-24904761D01*
X181890476Y-24857142D01*
X183461904Y-24952380D02*
X182890476Y-24952380D01*
X183176190Y-24952380D02*
X183176190Y-23952380D01*
X183080952Y-24095238D01*
X182985714Y-24190476D01*
X182890476Y-24238095D01*
%TO.C,RV1*%
X164504761Y-47315380D02*
X164171428Y-46839190D01*
X163933333Y-47315380D02*
X163933333Y-46315380D01*
X164314285Y-46315380D01*
X164409523Y-46363000D01*
X164457142Y-46410619D01*
X164504761Y-46505857D01*
X164504761Y-46648714D01*
X164457142Y-46743952D01*
X164409523Y-46791571D01*
X164314285Y-46839190D01*
X163933333Y-46839190D01*
X164790476Y-46315380D02*
X165123809Y-47315380D01*
X165457142Y-46315380D01*
X166314285Y-47315380D02*
X165742857Y-47315380D01*
X166028571Y-47315380D02*
X166028571Y-46315380D01*
X165933333Y-46458238D01*
X165838095Y-46553476D01*
X165742857Y-46601095D01*
%TO.C,R1*%
X182033333Y-34572380D02*
X181700000Y-34096190D01*
X181461904Y-34572380D02*
X181461904Y-33572380D01*
X181842857Y-33572380D01*
X181938095Y-33620000D01*
X181985714Y-33667619D01*
X182033333Y-33762857D01*
X182033333Y-33905714D01*
X181985714Y-34000952D01*
X181938095Y-34048571D01*
X181842857Y-34096190D01*
X181461904Y-34096190D01*
X182985714Y-34572380D02*
X182414285Y-34572380D01*
X182700000Y-34572380D02*
X182700000Y-33572380D01*
X182604761Y-33715238D01*
X182509523Y-33810476D01*
X182414285Y-33858095D01*
D14*
%TO.C,PS1*%
X143100000Y-35050000D02*
X123600000Y-35050000D01*
X123600000Y-35050000D02*
X123600000Y-41050000D01*
X123600000Y-41050000D02*
X143100000Y-41050000D01*
X143100000Y-41050000D02*
X143100000Y-35050000D01*
%TO.C,R7*%
X164102064Y-39810000D02*
X159747936Y-39810000D01*
X164102064Y-36390000D02*
X159747936Y-36390000D01*
%TO.C,C10*%
X161430580Y-73150000D02*
X161149420Y-73150000D01*
X161430580Y-74170000D02*
X161149420Y-74170000D01*
%TO.C,U4*%
X172085000Y-74940000D02*
X168635000Y-74940000D01*
X172085000Y-83810000D02*
X174035000Y-83810000D01*
X172085000Y-74940000D02*
X174035000Y-74940000D01*
X172085000Y-83810000D02*
X170135000Y-83810000D01*
%TO.C,J6*%
X199695000Y-43335000D02*
X199695000Y-36465000D01*
X192105000Y-41915000D02*
X192605000Y-41915000D01*
X192605000Y-37885000D02*
X192105000Y-37885000D01*
X192605000Y-41915000D02*
X192605000Y-37885000D01*
X192105000Y-43335000D02*
X192105000Y-41915000D01*
X199385000Y-43335000D02*
X199695000Y-43335000D01*
X199695000Y-36465000D02*
X199385000Y-36465000D01*
X192105000Y-36465000D02*
X197865000Y-36465000D01*
X192105000Y-37885000D02*
X192105000Y-36465000D01*
X197865000Y-43335000D02*
X192105000Y-43335000D01*
%TO.C,C4*%
X167832000Y-63009113D02*
X169140000Y-63009113D01*
X168279000Y-62329113D02*
X169140000Y-62329113D01*
X171220000Y-63329113D02*
X172648000Y-63329113D01*
X167738000Y-63249113D02*
X169140000Y-63249113D01*
X171220000Y-62529113D02*
X172245000Y-62529113D01*
X169265000Y-61649113D02*
X171095000Y-61649113D01*
X171220000Y-62849113D02*
X172448000Y-62849113D01*
X168527000Y-62089113D02*
X169140000Y-62089113D01*
X168031000Y-62649113D02*
X169140000Y-62649113D01*
X171220000Y-62129113D02*
X171879000Y-62129113D01*
X171220000Y-63049113D02*
X172545000Y-63049113D01*
X168680000Y-61969113D02*
X171680000Y-61969113D01*
X171220000Y-63129113D02*
X172578000Y-63129113D01*
X167652000Y-63570113D02*
X169140000Y-63570113D01*
X168354000Y-62249113D02*
X169140000Y-62249113D01*
X167624000Y-63730113D02*
X169140000Y-63730113D01*
X168243000Y-62369113D02*
X169140000Y-62369113D01*
X167601000Y-64010113D02*
X169140000Y-64010113D01*
X168176000Y-62449113D02*
X169140000Y-62449113D01*
X171220000Y-63209113D02*
X172608000Y-63209113D01*
X171220000Y-63810113D02*
X172745000Y-63810113D01*
X167890000Y-62889113D02*
X169140000Y-62889113D01*
X171220000Y-63890113D02*
X172753000Y-63890113D01*
X167815000Y-63049113D02*
X169140000Y-63049113D01*
X167611000Y-63850113D02*
X169140000Y-63850113D01*
X171220000Y-62329113D02*
X172081000Y-62329113D01*
X167752000Y-63209113D02*
X169140000Y-63209113D01*
X171220000Y-62729113D02*
X172380000Y-62729113D01*
X167660000Y-63530113D02*
X169140000Y-63530113D01*
X167604000Y-63930113D02*
X169140000Y-63930113D01*
X171220000Y-62649113D02*
X172329000Y-62649113D01*
X169503000Y-61569113D02*
X170857000Y-61569113D01*
X168705000Y-66894888D02*
X168705000Y-66394888D01*
X167607000Y-63890113D02*
X169140000Y-63890113D01*
X168115000Y-62529113D02*
X169140000Y-62529113D01*
X171220000Y-63009113D02*
X172528000Y-63009113D01*
X167725000Y-63289113D02*
X169140000Y-63289113D01*
X169662000Y-61529113D02*
X170698000Y-61529113D01*
X171220000Y-63850113D02*
X172749000Y-63850113D01*
X171220000Y-63730113D02*
X172736000Y-63730113D01*
X167712000Y-63329113D02*
X169140000Y-63329113D01*
X171220000Y-62369113D02*
X172117000Y-62369113D01*
X168481000Y-62129113D02*
X169140000Y-62129113D01*
X171220000Y-62809113D02*
X172427000Y-62809113D01*
X167644000Y-63610113D02*
X169140000Y-63610113D01*
X171220000Y-62969113D02*
X172509000Y-62969113D01*
X171220000Y-64050113D02*
X172760000Y-64050113D01*
X167782000Y-63129113D02*
X169140000Y-63129113D01*
X171220000Y-63770113D02*
X172741000Y-63770113D01*
X171220000Y-62889113D02*
X172470000Y-62889113D01*
X171220000Y-63690113D02*
X172730000Y-63690113D01*
X171220000Y-63490113D02*
X172691000Y-63490113D01*
X168005000Y-62689113D02*
X169140000Y-62689113D01*
X169082000Y-61729113D02*
X171278000Y-61729113D01*
X168737000Y-61929113D02*
X171623000Y-61929113D01*
X168437000Y-62169113D02*
X169140000Y-62169113D01*
X171220000Y-62289113D02*
X172044000Y-62289113D01*
X167679000Y-63450113D02*
X169140000Y-63450113D01*
X171220000Y-62769113D02*
X172404000Y-62769113D01*
X171220000Y-63930113D02*
X172756000Y-63930113D01*
X171220000Y-62209113D02*
X171965000Y-62209113D01*
X167700000Y-63369113D02*
X169140000Y-63369113D01*
X171220000Y-63450113D02*
X172681000Y-63450113D01*
X168085000Y-62569113D02*
X169140000Y-62569113D01*
X167689000Y-63410113D02*
X169140000Y-63410113D01*
X169375000Y-61609113D02*
X170985000Y-61609113D01*
X168626000Y-62009113D02*
X171734000Y-62009113D01*
X169002000Y-61769113D02*
X171358000Y-61769113D01*
X167912000Y-62849113D02*
X169140000Y-62849113D01*
X169896000Y-61489113D02*
X170464000Y-61489113D01*
X167798000Y-63089113D02*
X169140000Y-63089113D01*
X171220000Y-62169113D02*
X171923000Y-62169113D01*
X171220000Y-62609113D02*
X172302000Y-62609113D01*
X171220000Y-63249113D02*
X172622000Y-63249113D01*
X171220000Y-62249113D02*
X172006000Y-62249113D01*
X168058000Y-62609113D02*
X169140000Y-62609113D01*
X167630000Y-63690113D02*
X169140000Y-63690113D01*
X168929000Y-61809113D02*
X171431000Y-61809113D01*
X171220000Y-62569113D02*
X172275000Y-62569113D01*
X168455000Y-66644888D02*
X168955000Y-66644888D01*
X171220000Y-63530113D02*
X172700000Y-63530113D01*
X171220000Y-62489113D02*
X172215000Y-62489113D01*
X167619000Y-63770113D02*
X169140000Y-63770113D01*
X167980000Y-62729113D02*
X169140000Y-62729113D01*
X171220000Y-64090113D02*
X172760000Y-64090113D01*
X169169000Y-61689113D02*
X171191000Y-61689113D01*
X168209000Y-62409113D02*
X169140000Y-62409113D01*
X171220000Y-63089113D02*
X172562000Y-63089113D01*
X171220000Y-62929113D02*
X172490000Y-62929113D01*
X171220000Y-62689113D02*
X172355000Y-62689113D01*
X167602000Y-63970113D02*
X169140000Y-63970113D01*
X168395000Y-62209113D02*
X169140000Y-62209113D01*
X167637000Y-63650113D02*
X169140000Y-63650113D01*
X167870000Y-62929113D02*
X169140000Y-62929113D01*
X167766000Y-63169113D02*
X169140000Y-63169113D01*
X168797000Y-61889113D02*
X171563000Y-61889113D01*
X167669000Y-63490113D02*
X169140000Y-63490113D01*
X167956000Y-62769113D02*
X169140000Y-62769113D01*
X167851000Y-62969113D02*
X169140000Y-62969113D01*
X167600000Y-64050113D02*
X169140000Y-64050113D01*
X171220000Y-63169113D02*
X172594000Y-63169113D01*
X171220000Y-63570113D02*
X172708000Y-63570113D01*
X171220000Y-62409113D02*
X172151000Y-62409113D01*
X171220000Y-63410113D02*
X172671000Y-63410113D01*
X171220000Y-62089113D02*
X171833000Y-62089113D01*
X167600000Y-64090113D02*
X169140000Y-64090113D01*
X171220000Y-63970113D02*
X172758000Y-63970113D01*
X171220000Y-63610113D02*
X172716000Y-63610113D01*
X168575000Y-62049113D02*
X171785000Y-62049113D01*
X171220000Y-63650113D02*
X172723000Y-63650113D01*
X171220000Y-64010113D02*
X172759000Y-64010113D01*
X171220000Y-63289113D02*
X172635000Y-63289113D01*
X171220000Y-62449113D02*
X172184000Y-62449113D01*
X168861000Y-61849113D02*
X171499000Y-61849113D01*
X168145000Y-62489113D02*
X169140000Y-62489113D01*
X171220000Y-63369113D02*
X172660000Y-63369113D01*
X168316000Y-62289113D02*
X169140000Y-62289113D01*
X167933000Y-62809113D02*
X169140000Y-62809113D01*
X167615000Y-63810113D02*
X169140000Y-63810113D01*
X172800000Y-64090113D02*
G75*
G03*
X172800000Y-64090113I-2620000J0D01*
G01*
%TO.C,R10*%
X173467500Y-63897743D02*
X173467500Y-64372259D01*
X174512500Y-63897743D02*
X174512500Y-64372259D01*
%TO.C,C8*%
X154969000Y-47722000D02*
X153440000Y-47722000D01*
X154911000Y-48082000D02*
X153440000Y-48082000D01*
X151360000Y-49203000D02*
X150463000Y-49203000D01*
X151360000Y-47522000D02*
X149820000Y-47522000D01*
X154143000Y-49403000D02*
X153440000Y-49403000D01*
X151360000Y-48203000D02*
X149920000Y-48203000D01*
X154798000Y-48443000D02*
X153440000Y-48443000D01*
X151360000Y-48923000D02*
X150251000Y-48923000D01*
X154522000Y-48963000D02*
X153440000Y-48963000D01*
X151360000Y-48403000D02*
X149986000Y-48403000D01*
X151360000Y-48523000D02*
X150035000Y-48523000D01*
X154928000Y-48002000D02*
X153440000Y-48002000D01*
X151360000Y-48443000D02*
X150002000Y-48443000D01*
X153578000Y-49803000D02*
X151222000Y-49803000D01*
X153651000Y-49763000D02*
X151149000Y-49763000D01*
X151360000Y-47722000D02*
X149831000Y-47722000D01*
X151360000Y-48563000D02*
X150052000Y-48563000D01*
X154782000Y-48483000D02*
X153440000Y-48483000D01*
X151360000Y-49443000D02*
X150701000Y-49443000D01*
X154495000Y-49003000D02*
X153440000Y-49003000D01*
X153077000Y-50003000D02*
X151723000Y-50003000D01*
X151360000Y-48843000D02*
X150200000Y-48843000D01*
X153498000Y-49843000D02*
X151302000Y-49843000D01*
X153205000Y-49963000D02*
X151595000Y-49963000D01*
X154961000Y-47802000D02*
X153440000Y-47802000D01*
X154465000Y-49043000D02*
X153440000Y-49043000D01*
X151360000Y-49283000D02*
X150536000Y-49283000D01*
X154980000Y-47482000D02*
X153440000Y-47482000D01*
X154980000Y-47522000D02*
X153440000Y-47522000D01*
X154842000Y-48323000D02*
X153440000Y-48323000D01*
X154868000Y-48243000D02*
X153440000Y-48243000D01*
X153900000Y-49603000D02*
X150900000Y-49603000D01*
X151360000Y-48363000D02*
X149972000Y-48363000D01*
X151360000Y-48122000D02*
X149899000Y-48122000D01*
X154891000Y-48162000D02*
X153440000Y-48162000D01*
X151360000Y-47642000D02*
X149824000Y-47642000D01*
X154371000Y-49163000D02*
X153440000Y-49163000D01*
X151360000Y-47562000D02*
X149821000Y-47562000D01*
X151360000Y-47682000D02*
X149827000Y-47682000D01*
X153719000Y-49723000D02*
X151081000Y-49723000D01*
X151360000Y-49163000D02*
X150429000Y-49163000D01*
X152684000Y-50083000D02*
X152116000Y-50083000D01*
X154765000Y-48523000D02*
X153440000Y-48523000D01*
X154647000Y-48763000D02*
X153440000Y-48763000D01*
X154979000Y-47562000D02*
X153440000Y-47562000D01*
X154125000Y-44927225D02*
X153625000Y-44927225D01*
X153315000Y-49923000D02*
X151485000Y-49923000D01*
X151360000Y-49003000D02*
X150305000Y-49003000D01*
X151360000Y-47882000D02*
X149850000Y-47882000D01*
X151360000Y-49243000D02*
X150499000Y-49243000D01*
X151360000Y-47962000D02*
X149864000Y-47962000D01*
X154435000Y-49083000D02*
X153440000Y-49083000D01*
X151360000Y-47802000D02*
X149839000Y-47802000D01*
X154690000Y-48683000D02*
X153440000Y-48683000D01*
X154956000Y-47842000D02*
X153440000Y-47842000D01*
X151360000Y-48643000D02*
X150090000Y-48643000D01*
X151360000Y-49083000D02*
X150365000Y-49083000D01*
X151360000Y-47842000D02*
X149844000Y-47842000D01*
X154668000Y-48723000D02*
X153440000Y-48723000D01*
X151360000Y-48483000D02*
X150018000Y-48483000D01*
X154976000Y-47642000D02*
X153440000Y-47642000D01*
X154226000Y-49323000D02*
X153440000Y-49323000D01*
X154814000Y-48403000D02*
X153440000Y-48403000D01*
X153783000Y-49683000D02*
X151017000Y-49683000D01*
X154404000Y-49123000D02*
X153440000Y-49123000D01*
X151360000Y-48723000D02*
X150132000Y-48723000D01*
X151360000Y-48883000D02*
X150225000Y-48883000D01*
X151360000Y-48603000D02*
X150071000Y-48603000D01*
X151360000Y-49363000D02*
X150615000Y-49363000D01*
X154936000Y-47962000D02*
X153440000Y-47962000D01*
X151360000Y-48763000D02*
X150153000Y-48763000D01*
X151360000Y-48002000D02*
X149872000Y-48002000D01*
X154828000Y-48363000D02*
X153440000Y-48363000D01*
X154624000Y-48803000D02*
X153440000Y-48803000D01*
X154965000Y-47762000D02*
X153440000Y-47762000D01*
X154950000Y-47882000D02*
X153440000Y-47882000D01*
X151360000Y-49323000D02*
X150574000Y-49323000D01*
X154053000Y-49483000D02*
X153440000Y-49483000D01*
X153411000Y-49883000D02*
X151389000Y-49883000D01*
X154264000Y-49283000D02*
X153440000Y-49283000D01*
X151360000Y-47602000D02*
X149822000Y-47602000D01*
X154973000Y-47682000D02*
X153440000Y-47682000D01*
X154855000Y-48283000D02*
X153440000Y-48283000D01*
X151360000Y-49403000D02*
X150657000Y-49403000D01*
X151360000Y-47482000D02*
X149820000Y-47482000D01*
X154005000Y-49523000D02*
X150795000Y-49523000D01*
X154600000Y-48843000D02*
X153440000Y-48843000D01*
X154099000Y-49443000D02*
X153440000Y-49443000D01*
X154301000Y-49243000D02*
X153440000Y-49243000D01*
X154729000Y-48603000D02*
X153440000Y-48603000D01*
X151360000Y-47922000D02*
X149857000Y-47922000D01*
X151360000Y-48243000D02*
X149932000Y-48243000D01*
X153875000Y-44677225D02*
X153875000Y-45177225D01*
X154710000Y-48643000D02*
X153440000Y-48643000D01*
X154549000Y-48923000D02*
X153440000Y-48923000D01*
X151360000Y-47762000D02*
X149835000Y-47762000D01*
X154337000Y-49203000D02*
X153440000Y-49203000D01*
X151360000Y-49043000D02*
X150335000Y-49043000D01*
X151360000Y-48162000D02*
X149909000Y-48162000D01*
X151360000Y-48963000D02*
X150278000Y-48963000D01*
X151360000Y-48323000D02*
X149958000Y-48323000D01*
X151360000Y-48283000D02*
X149945000Y-48283000D01*
X154748000Y-48563000D02*
X153440000Y-48563000D01*
X151360000Y-48042000D02*
X149880000Y-48042000D01*
X151360000Y-49123000D02*
X150396000Y-49123000D01*
X151360000Y-49483000D02*
X150747000Y-49483000D01*
X154185000Y-49363000D02*
X153440000Y-49363000D01*
X151360000Y-48803000D02*
X150176000Y-48803000D01*
X152918000Y-50043000D02*
X151882000Y-50043000D01*
X151360000Y-48683000D02*
X150110000Y-48683000D01*
X154901000Y-48122000D02*
X153440000Y-48122000D01*
X151360000Y-48082000D02*
X149889000Y-48082000D01*
X154575000Y-48883000D02*
X153440000Y-48883000D01*
X154943000Y-47922000D02*
X153440000Y-47922000D01*
X154978000Y-47602000D02*
X153440000Y-47602000D01*
X154920000Y-48042000D02*
X153440000Y-48042000D01*
X153954000Y-49563000D02*
X150846000Y-49563000D01*
X154880000Y-48203000D02*
X153440000Y-48203000D01*
X153843000Y-49643000D02*
X150957000Y-49643000D01*
X155020000Y-47482000D02*
G75*
G03*
X155020000Y-47482000I-2620000J0D01*
G01*
%TO.C,D6*%
X123285000Y-81145000D02*
X123285000Y-81805000D01*
X123285000Y-79485000D02*
X121255000Y-79485000D01*
X123285000Y-79485000D02*
X123285000Y-80145000D01*
X121875000Y-81805000D02*
X123285000Y-81805000D01*
%TO.C,R27*%
X121827936Y-66315000D02*
X123282064Y-66315000D01*
X121827936Y-64495000D02*
X123282064Y-64495000D01*
%TO.C,R23*%
X110009000Y-79475064D02*
X110009000Y-79020936D01*
X111479000Y-79475064D02*
X111479000Y-79020936D01*
%TO.C,D7*%
X120115000Y-35775000D02*
X120115000Y-33490000D01*
X118645000Y-33490000D02*
X118645000Y-35775000D01*
X118645000Y-35775000D02*
X120115000Y-35775000D01*
%TO.C,R14*%
X185942500Y-87392742D02*
X185942500Y-87867258D01*
X184897500Y-87392742D02*
X184897500Y-87867258D01*
%TO.C,R29*%
X112548936Y-82069000D02*
X113003064Y-82069000D01*
X112548936Y-83539000D02*
X113003064Y-83539000D01*
%TO.C,C6*%
X177964888Y-51205000D02*
X177964888Y-52743000D01*
X179725888Y-51205000D02*
X179725888Y-51950000D01*
X179005888Y-47855000D02*
X179005888Y-49125000D01*
X178605888Y-51205000D02*
X178605888Y-52633000D01*
X175290113Y-48440000D02*
X175290113Y-48940000D01*
X179645888Y-48301000D02*
X179645888Y-49125000D01*
X178084888Y-47596000D02*
X178084888Y-49125000D01*
X177844888Y-51205000D02*
X177844888Y-52745000D01*
X178404888Y-47645000D02*
X178404888Y-49125000D01*
X178725888Y-51205000D02*
X178725888Y-52593000D01*
X178244888Y-47615000D02*
X178244888Y-49125000D01*
X179845888Y-48512000D02*
X179845888Y-49125000D01*
X178645888Y-51205000D02*
X178645888Y-52620000D01*
X178965888Y-51205000D02*
X178965888Y-52494000D01*
X178605888Y-47697000D02*
X178605888Y-49125000D01*
X177844888Y-47585000D02*
X177844888Y-49125000D01*
X180005888Y-48722000D02*
X180005888Y-51608000D01*
X178124888Y-51205000D02*
X178124888Y-52730000D01*
X179285888Y-48016000D02*
X179285888Y-49125000D01*
X175040113Y-48690000D02*
X175540113Y-48690000D01*
X177884888Y-51205000D02*
X177884888Y-52745000D01*
X179205888Y-51205000D02*
X179205888Y-52365000D01*
X179885888Y-48560000D02*
X179885888Y-51770000D01*
X179125888Y-47918000D02*
X179125888Y-49125000D01*
X179805888Y-51205000D02*
X179805888Y-51864000D01*
X179445888Y-48130000D02*
X179445888Y-49125000D01*
X178404888Y-51205000D02*
X178404888Y-52685000D01*
X178044888Y-51205000D02*
X178044888Y-52738000D01*
X179245888Y-51205000D02*
X179245888Y-52340000D01*
X178565888Y-51205000D02*
X178565888Y-52645000D01*
X179485888Y-48161000D02*
X179485888Y-49125000D01*
X179365888Y-51205000D02*
X179365888Y-52260000D01*
X179005888Y-51205000D02*
X179005888Y-52475000D01*
X178925888Y-47817000D02*
X178925888Y-49125000D01*
X180125888Y-48914000D02*
X180125888Y-51416000D01*
X178164888Y-47604000D02*
X178164888Y-49125000D01*
X178364888Y-51205000D02*
X178364888Y-52693000D01*
X179805888Y-48466000D02*
X179805888Y-49125000D01*
X178524888Y-51205000D02*
X178524888Y-52656000D01*
X178685888Y-47723000D02*
X178685888Y-49125000D01*
X177884888Y-47585000D02*
X177884888Y-49125000D01*
X178124888Y-47600000D02*
X178124888Y-49125000D01*
X178925888Y-51205000D02*
X178925888Y-52513000D01*
X178204888Y-51205000D02*
X178204888Y-52721000D01*
X178084888Y-51205000D02*
X178084888Y-52734000D01*
X178164888Y-51205000D02*
X178164888Y-52726000D01*
X180085888Y-48846000D02*
X180085888Y-51484000D01*
X178885888Y-47800000D02*
X178885888Y-49125000D01*
X178284888Y-51205000D02*
X178284888Y-52708000D01*
X177924888Y-47586000D02*
X177924888Y-49125000D01*
X179925888Y-48611000D02*
X179925888Y-51719000D01*
X179245888Y-47990000D02*
X179245888Y-49125000D01*
X178805888Y-47767000D02*
X178805888Y-49125000D01*
X178725888Y-47737000D02*
X178725888Y-49125000D01*
X178565888Y-47685000D02*
X178565888Y-49125000D01*
X178204888Y-47609000D02*
X178204888Y-49125000D01*
X179965888Y-48665000D02*
X179965888Y-51665000D01*
X180365888Y-49488000D02*
X180365888Y-50842000D01*
X178845888Y-51205000D02*
X178845888Y-52547000D01*
X178765888Y-47751000D02*
X178765888Y-49125000D01*
X180325888Y-49360000D02*
X180325888Y-50970000D01*
X179445888Y-51205000D02*
X179445888Y-52200000D01*
X178685888Y-51205000D02*
X178685888Y-52607000D01*
X177964888Y-47587000D02*
X177964888Y-49125000D01*
X179165888Y-51205000D02*
X179165888Y-52389000D01*
X179565888Y-51205000D02*
X179565888Y-52102000D01*
X179125888Y-51205000D02*
X179125888Y-52412000D01*
X179325888Y-51205000D02*
X179325888Y-52287000D01*
X178444888Y-51205000D02*
X178444888Y-52676000D01*
X178845888Y-47783000D02*
X178845888Y-49125000D01*
X180245888Y-49154000D02*
X180245888Y-51176000D01*
X179085888Y-47897000D02*
X179085888Y-49125000D01*
X177924888Y-51205000D02*
X177924888Y-52744000D01*
X179525888Y-51205000D02*
X179525888Y-52136000D01*
X179165888Y-47941000D02*
X179165888Y-49125000D01*
X180405888Y-49647000D02*
X180405888Y-50683000D01*
X179085888Y-51205000D02*
X179085888Y-52433000D01*
X179605888Y-51205000D02*
X179605888Y-52066000D01*
X179045888Y-51205000D02*
X179045888Y-52455000D01*
X179645888Y-51205000D02*
X179645888Y-52029000D01*
X178284888Y-47622000D02*
X178284888Y-49125000D01*
X179325888Y-48043000D02*
X179325888Y-49125000D01*
X179845888Y-51205000D02*
X179845888Y-51818000D01*
X178244888Y-51205000D02*
X178244888Y-52715000D01*
X178444888Y-47654000D02*
X178444888Y-49125000D01*
X178004888Y-47589000D02*
X178004888Y-49125000D01*
X178484888Y-47664000D02*
X178484888Y-49125000D01*
X179685888Y-51205000D02*
X179685888Y-51991000D01*
X180165888Y-48987000D02*
X180165888Y-51343000D01*
X178484888Y-51205000D02*
X178484888Y-52666000D01*
X178885888Y-51205000D02*
X178885888Y-52530000D01*
X179765888Y-51205000D02*
X179765888Y-51908000D01*
X178004888Y-51205000D02*
X178004888Y-52741000D01*
X179405888Y-51205000D02*
X179405888Y-52230000D01*
X178324888Y-47629000D02*
X178324888Y-49125000D01*
X179365888Y-48070000D02*
X179365888Y-49125000D01*
X179525888Y-48194000D02*
X179525888Y-49125000D01*
X179405888Y-48100000D02*
X179405888Y-49125000D01*
X179485888Y-51205000D02*
X179485888Y-52169000D01*
X179205888Y-47965000D02*
X179205888Y-49125000D01*
X180445888Y-49881000D02*
X180445888Y-50449000D01*
X180285888Y-49250000D02*
X180285888Y-51080000D01*
X178324888Y-51205000D02*
X178324888Y-52701000D01*
X178044888Y-47592000D02*
X178044888Y-49125000D01*
X178524888Y-47674000D02*
X178524888Y-49125000D01*
X179565888Y-48228000D02*
X179565888Y-49125000D01*
X179605888Y-48264000D02*
X179605888Y-49125000D01*
X178765888Y-51205000D02*
X178765888Y-52579000D01*
X179045888Y-47875000D02*
X179045888Y-49125000D01*
X180045888Y-48782000D02*
X180045888Y-51548000D01*
X179285888Y-51205000D02*
X179285888Y-52314000D01*
X178805888Y-51205000D02*
X178805888Y-52563000D01*
X180205888Y-49067000D02*
X180205888Y-51263000D01*
X179765888Y-48422000D02*
X179765888Y-49125000D01*
X178364888Y-47637000D02*
X178364888Y-49125000D01*
X179725888Y-48380000D02*
X179725888Y-49125000D01*
X178645888Y-47710000D02*
X178645888Y-49125000D01*
X179685888Y-48339000D02*
X179685888Y-49125000D01*
X178965888Y-47836000D02*
X178965888Y-49125000D01*
X180464888Y-50165000D02*
G75*
G03*
X180464888Y-50165000I-2620000J0D01*
G01*
%TO.C,U6*%
X182880000Y-74940000D02*
X179430000Y-74940000D01*
X182880000Y-74940000D02*
X184830000Y-74940000D01*
X182880000Y-83810000D02*
X180930000Y-83810000D01*
X182880000Y-83810000D02*
X184830000Y-83810000D01*
%TO.C,D2*%
X177260000Y-86470000D02*
X177260000Y-87130000D01*
X177260000Y-88130000D02*
X177260000Y-88790000D01*
X177260000Y-86470000D02*
X175230000Y-86470000D01*
X175850000Y-88790000D02*
X177260000Y-88790000D01*
%TO.C,R25*%
X116602742Y-83326500D02*
X117077258Y-83326500D01*
X116602742Y-82281500D02*
X117077258Y-82281500D01*
%TO.C,C3*%
X161695000Y-63930113D02*
X163231000Y-63930113D01*
X161695000Y-63530113D02*
X163175000Y-63530113D01*
X159850000Y-61609113D02*
X161460000Y-61609113D01*
X158930000Y-66644888D02*
X159430000Y-66644888D01*
X158754000Y-62329113D02*
X159615000Y-62329113D01*
X161695000Y-62409113D02*
X162626000Y-62409113D01*
X161695000Y-63289113D02*
X163110000Y-63289113D01*
X158533000Y-62609113D02*
X159615000Y-62609113D01*
X161695000Y-64010113D02*
X163234000Y-64010113D01*
X158870000Y-62209113D02*
X159615000Y-62209113D01*
X161695000Y-62649113D02*
X162804000Y-62649113D01*
X158455000Y-62729113D02*
X159615000Y-62729113D01*
X158112000Y-63650113D02*
X159615000Y-63650113D01*
X161695000Y-63129113D02*
X163053000Y-63129113D01*
X161695000Y-63249113D02*
X163097000Y-63249113D01*
X159002000Y-62089113D02*
X159615000Y-62089113D01*
X159477000Y-61769113D02*
X161833000Y-61769113D01*
X161695000Y-62849113D02*
X162923000Y-62849113D01*
X161695000Y-63329113D02*
X163123000Y-63329113D01*
X159212000Y-61929113D02*
X162098000Y-61929113D01*
X161695000Y-64090113D02*
X163235000Y-64090113D01*
X158560000Y-62569113D02*
X159615000Y-62569113D01*
X161695000Y-63410113D02*
X163146000Y-63410113D01*
X161695000Y-63450113D02*
X163156000Y-63450113D01*
X161695000Y-62809113D02*
X162902000Y-62809113D01*
X161695000Y-63049113D02*
X163020000Y-63049113D01*
X161695000Y-63570113D02*
X163183000Y-63570113D01*
X158590000Y-62529113D02*
X159615000Y-62529113D01*
X161695000Y-62689113D02*
X162830000Y-62689113D01*
X159155000Y-61969113D02*
X162155000Y-61969113D01*
X158684000Y-62409113D02*
X159615000Y-62409113D01*
X161695000Y-63650113D02*
X163198000Y-63650113D01*
X161695000Y-62889113D02*
X162945000Y-62889113D01*
X158273000Y-63089113D02*
X159615000Y-63089113D01*
X158075000Y-64050113D02*
X159615000Y-64050113D01*
X159272000Y-61889113D02*
X162038000Y-61889113D01*
X158200000Y-63289113D02*
X159615000Y-63289113D01*
X158408000Y-62809113D02*
X159615000Y-62809113D01*
X161695000Y-63770113D02*
X163216000Y-63770113D01*
X161695000Y-62129113D02*
X162354000Y-62129113D01*
X161695000Y-63810113D02*
X163220000Y-63810113D01*
X158365000Y-62889113D02*
X159615000Y-62889113D01*
X158076000Y-64010113D02*
X159615000Y-64010113D01*
X158090000Y-63810113D02*
X159615000Y-63810113D01*
X161695000Y-62929113D02*
X162965000Y-62929113D01*
X158257000Y-63129113D02*
X159615000Y-63129113D01*
X158326000Y-62969113D02*
X159615000Y-62969113D01*
X158094000Y-63770113D02*
X159615000Y-63770113D01*
X158086000Y-63850113D02*
X159615000Y-63850113D01*
X158187000Y-63329113D02*
X159615000Y-63329113D01*
X158077000Y-63970113D02*
X159615000Y-63970113D01*
X158956000Y-62129113D02*
X159615000Y-62129113D01*
X161695000Y-62329113D02*
X162556000Y-62329113D01*
X161695000Y-63730113D02*
X163211000Y-63730113D01*
X158082000Y-63890113D02*
X159615000Y-63890113D01*
X161695000Y-62449113D02*
X162659000Y-62449113D01*
X158213000Y-63249113D02*
X159615000Y-63249113D01*
X158079000Y-63930113D02*
X159615000Y-63930113D01*
X158135000Y-63530113D02*
X159615000Y-63530113D01*
X158164000Y-63410113D02*
X159615000Y-63410113D01*
X158307000Y-63009113D02*
X159615000Y-63009113D01*
X161695000Y-62969113D02*
X162984000Y-62969113D01*
X161695000Y-63690113D02*
X163205000Y-63690113D01*
X161695000Y-62769113D02*
X162879000Y-62769113D01*
X159644000Y-61689113D02*
X161666000Y-61689113D01*
X158387000Y-62849113D02*
X159615000Y-62849113D01*
X158718000Y-62369113D02*
X159615000Y-62369113D01*
X161695000Y-63009113D02*
X163003000Y-63009113D01*
X158175000Y-63369113D02*
X159615000Y-63369113D01*
X159740000Y-61649113D02*
X161570000Y-61649113D01*
X161695000Y-62729113D02*
X162855000Y-62729113D01*
X158345000Y-62929113D02*
X159615000Y-62929113D01*
X161695000Y-62249113D02*
X162481000Y-62249113D01*
X161695000Y-63089113D02*
X163037000Y-63089113D01*
X161695000Y-62529113D02*
X162720000Y-62529113D01*
X158431000Y-62769113D02*
X159615000Y-62769113D01*
X161695000Y-63970113D02*
X163233000Y-63970113D01*
X161695000Y-63890113D02*
X163228000Y-63890113D01*
X158791000Y-62289113D02*
X159615000Y-62289113D01*
X161695000Y-62489113D02*
X162690000Y-62489113D01*
X161695000Y-63610113D02*
X163191000Y-63610113D01*
X158480000Y-62689113D02*
X159615000Y-62689113D01*
X161695000Y-62609113D02*
X162777000Y-62609113D01*
X158099000Y-63730113D02*
X159615000Y-63730113D01*
X159978000Y-61569113D02*
X161332000Y-61569113D01*
X158127000Y-63570113D02*
X159615000Y-63570113D01*
X158105000Y-63690113D02*
X159615000Y-63690113D01*
X158144000Y-63490113D02*
X159615000Y-63490113D01*
X158119000Y-63610113D02*
X159615000Y-63610113D01*
X161695000Y-62089113D02*
X162308000Y-62089113D01*
X161695000Y-63850113D02*
X163224000Y-63850113D01*
X159050000Y-62049113D02*
X162260000Y-62049113D01*
X159101000Y-62009113D02*
X162209000Y-62009113D01*
X161695000Y-63209113D02*
X163083000Y-63209113D01*
X158829000Y-62249113D02*
X159615000Y-62249113D01*
X161695000Y-63490113D02*
X163166000Y-63490113D01*
X158227000Y-63209113D02*
X159615000Y-63209113D01*
X161695000Y-62369113D02*
X162592000Y-62369113D01*
X158912000Y-62169113D02*
X159615000Y-62169113D01*
X161695000Y-62289113D02*
X162519000Y-62289113D01*
X158651000Y-62449113D02*
X159615000Y-62449113D01*
X159336000Y-61849113D02*
X161974000Y-61849113D01*
X158154000Y-63450113D02*
X159615000Y-63450113D01*
X161695000Y-63369113D02*
X163135000Y-63369113D01*
X158075000Y-64090113D02*
X159615000Y-64090113D01*
X159404000Y-61809113D02*
X161906000Y-61809113D01*
X161695000Y-62209113D02*
X162440000Y-62209113D01*
X160371000Y-61489113D02*
X160939000Y-61489113D01*
X158290000Y-63049113D02*
X159615000Y-63049113D01*
X159557000Y-61729113D02*
X161753000Y-61729113D01*
X160137000Y-61529113D02*
X161173000Y-61529113D01*
X159180000Y-66894888D02*
X159180000Y-66394888D01*
X161695000Y-62569113D02*
X162750000Y-62569113D01*
X158620000Y-62489113D02*
X159615000Y-62489113D01*
X158241000Y-63169113D02*
X159615000Y-63169113D01*
X161695000Y-62169113D02*
X162398000Y-62169113D01*
X161695000Y-63169113D02*
X163069000Y-63169113D01*
X161695000Y-64050113D02*
X163235000Y-64050113D01*
X158506000Y-62649113D02*
X159615000Y-62649113D01*
X163275000Y-64090113D02*
G75*
G03*
X163275000Y-64090113I-2620000J0D01*
G01*
%TO.C,R26*%
X118857500Y-37227742D02*
X118857500Y-37702258D01*
X119902500Y-37227742D02*
X119902500Y-37702258D01*
%TO.C,U3*%
X161290000Y-83810000D02*
X159340000Y-83810000D01*
X161290000Y-74940000D02*
X163240000Y-74940000D01*
X161290000Y-74940000D02*
X157840000Y-74940000D01*
X161290000Y-83810000D02*
X163240000Y-83810000D01*
%TO.C,D4*%
X183610000Y-66785000D02*
X181580000Y-66785000D01*
X183610000Y-66785000D02*
X183610000Y-67445000D01*
X182200000Y-69105000D02*
X183610000Y-69105000D01*
X183610000Y-68445000D02*
X183610000Y-69105000D01*
%TO.C,C12*%
X150635580Y-73150000D02*
X150354420Y-73150000D01*
X150635580Y-74170000D02*
X150354420Y-74170000D01*
%TO.C,R19*%
X157242742Y-47737500D02*
X157717258Y-47737500D01*
X157242742Y-48782500D02*
X157717258Y-48782500D01*
%TO.C,U10*%
X136645000Y-62800000D02*
X134995000Y-62800000D01*
X132995000Y-62800000D02*
X131345000Y-62800000D01*
X131345000Y-62800000D02*
X131345000Y-68000000D01*
X131345000Y-68000000D02*
X136645000Y-68000000D01*
X136645000Y-68000000D02*
X136645000Y-62800000D01*
X132995000Y-62800000D02*
G75*
G03*
X134995000Y-62800000I1000000J0D01*
G01*
%TO.C,SW1*%
X152908000Y-51248000D02*
X154238000Y-51248000D01*
X146498000Y-51248000D02*
X146498000Y-53908000D01*
X151638000Y-51248000D02*
X146498000Y-51248000D01*
X151638000Y-51248000D02*
X151638000Y-53908000D01*
X151638000Y-53908000D02*
X146498000Y-53908000D01*
X154238000Y-51248000D02*
X154238000Y-52578000D01*
%TO.C,R4*%
X184422064Y-44255000D02*
X180067936Y-44255000D01*
X184422064Y-40835000D02*
X180067936Y-40835000D01*
%TO.C,C7*%
X121422651Y-51051000D02*
X121422651Y-42929000D01*
X121302651Y-51038000D02*
X121302651Y-42942000D01*
X120021651Y-50656000D02*
X120021651Y-48030000D01*
X118381651Y-49218000D02*
X118381651Y-44762000D01*
X121582651Y-51064000D02*
X121582651Y-42916000D01*
X119941651Y-50617000D02*
X119941651Y-48030000D01*
X120381651Y-45950000D02*
X120381651Y-43169000D01*
X119221651Y-50146000D02*
X119221651Y-48030000D01*
X118221651Y-48954000D02*
X118221651Y-45026000D01*
X119301651Y-50210000D02*
X119301651Y-48030000D01*
X119061651Y-50009000D02*
X119061651Y-48030000D01*
X121142651Y-51014000D02*
X121142651Y-42966000D01*
X121462651Y-51055000D02*
X121462651Y-42925000D01*
X119101651Y-45950000D02*
X119101651Y-43935000D01*
X119661651Y-50459000D02*
X119661651Y-48030000D01*
X119741651Y-50507000D02*
X119741651Y-48030000D01*
X120341651Y-50795000D02*
X120341651Y-48030000D01*
X119221651Y-45950000D02*
X119221651Y-43834000D01*
X121542651Y-51061000D02*
X121542651Y-42919000D01*
X120501651Y-50853000D02*
X120501651Y-48030000D01*
X126232349Y-49305000D02*
X125432349Y-49305000D01*
X119781651Y-45950000D02*
X119781651Y-43450000D01*
X117821651Y-47938000D02*
X117821651Y-46042000D01*
X118061651Y-48635000D02*
X118061651Y-45345000D01*
X121702651Y-51069000D02*
X121702651Y-42911000D01*
X121061651Y-51000000D02*
X121061651Y-48030000D01*
X119741651Y-45950000D02*
X119741651Y-43473000D01*
X119821651Y-45950000D02*
X119821651Y-43428000D01*
X118261651Y-49024000D02*
X118261651Y-44956000D01*
X119941651Y-45950000D02*
X119941651Y-43363000D01*
X117901651Y-48219000D02*
X117901651Y-45761000D01*
X120821651Y-50947000D02*
X120821651Y-48030000D01*
X120621651Y-50892000D02*
X120621651Y-48030000D01*
X120221651Y-50747000D02*
X120221651Y-48030000D01*
X120541651Y-50867000D02*
X120541651Y-48030000D01*
X121021651Y-50992000D02*
X121021651Y-48030000D01*
X118621651Y-49546000D02*
X118621651Y-44434000D01*
X119901651Y-45950000D02*
X119901651Y-43384000D01*
X125832349Y-49705000D02*
X125832349Y-48905000D01*
X117861651Y-48088000D02*
X117861651Y-45892000D01*
X120421651Y-45950000D02*
X120421651Y-43155000D01*
X120901651Y-45950000D02*
X120901651Y-43014000D01*
X120901651Y-50966000D02*
X120901651Y-48030000D01*
X119661651Y-45950000D02*
X119661651Y-43521000D01*
X120581651Y-45950000D02*
X120581651Y-43101000D01*
X118341651Y-49156000D02*
X118341651Y-44824000D01*
X121662651Y-51067000D02*
X121662651Y-42913000D01*
X120181651Y-50730000D02*
X120181651Y-48030000D01*
X118541651Y-49444000D02*
X118541651Y-44536000D01*
X120061651Y-50676000D02*
X120061651Y-48030000D01*
X120621651Y-45950000D02*
X120621651Y-43088000D01*
X118781651Y-49731000D02*
X118781651Y-44249000D01*
X119421651Y-45950000D02*
X119421651Y-43681000D01*
X118701651Y-49641000D02*
X118701651Y-44339000D01*
X118941651Y-49897000D02*
X118941651Y-44083000D01*
X119621651Y-50434000D02*
X119621651Y-48030000D01*
X117981651Y-48443000D02*
X117981651Y-45537000D01*
X119101651Y-50045000D02*
X119101651Y-48030000D01*
X119861651Y-50574000D02*
X119861651Y-48030000D01*
X121021651Y-45950000D02*
X121021651Y-42988000D01*
X119781651Y-50530000D02*
X119781651Y-48030000D01*
X119901651Y-50596000D02*
X119901651Y-48030000D01*
X121382651Y-51047000D02*
X121382651Y-42933000D01*
X120101651Y-45950000D02*
X120101651Y-43286000D01*
X118181651Y-48880000D02*
X118181651Y-45100000D01*
X119981651Y-50637000D02*
X119981651Y-48030000D01*
X120301651Y-45950000D02*
X120301651Y-43200000D01*
X118021651Y-48542000D02*
X118021651Y-45438000D01*
X118421651Y-49277000D02*
X118421651Y-44703000D01*
X121742651Y-51070000D02*
X121742651Y-42910000D01*
X120821651Y-45950000D02*
X120821651Y-43033000D01*
X120701651Y-45950000D02*
X120701651Y-43065000D01*
X117941651Y-48336000D02*
X117941651Y-45644000D01*
X119501651Y-50355000D02*
X119501651Y-48030000D01*
X119461651Y-45950000D02*
X119461651Y-43652000D01*
X120741651Y-50926000D02*
X120741651Y-48030000D01*
X120941651Y-45950000D02*
X120941651Y-43005000D01*
X119541651Y-50382000D02*
X119541651Y-48030000D01*
X121622651Y-51066000D02*
X121622651Y-42914000D01*
X119501651Y-45950000D02*
X119501651Y-43625000D01*
X117741651Y-47523000D02*
X117741651Y-46457000D01*
X119061651Y-45950000D02*
X119061651Y-43971000D01*
X119461651Y-50328000D02*
X119461651Y-48030000D01*
X120741651Y-45950000D02*
X120741651Y-43054000D01*
X119141651Y-45950000D02*
X119141651Y-43900000D01*
X118501651Y-49390000D02*
X118501651Y-44590000D01*
X120181651Y-45950000D02*
X120181651Y-43250000D01*
X119261651Y-45950000D02*
X119261651Y-43801000D01*
X119301651Y-45950000D02*
X119301651Y-43770000D01*
X121101651Y-45950000D02*
X121101651Y-42973000D01*
X119981651Y-45950000D02*
X119981651Y-43343000D01*
X120341651Y-45950000D02*
X120341651Y-43185000D01*
X119181651Y-45950000D02*
X119181651Y-43866000D01*
X119381651Y-50270000D02*
X119381651Y-48030000D01*
X120141651Y-50712000D02*
X120141651Y-48030000D01*
X119021651Y-49973000D02*
X119021651Y-44007000D01*
X119701651Y-45950000D02*
X119701651Y-43497000D01*
X118581651Y-49495000D02*
X118581651Y-44485000D01*
X119341651Y-50240000D02*
X119341651Y-48030000D01*
X119701651Y-50483000D02*
X119701651Y-48030000D01*
X120501651Y-45950000D02*
X120501651Y-43127000D01*
X120141651Y-45950000D02*
X120141651Y-43268000D01*
X119861651Y-45950000D02*
X119861651Y-43406000D01*
X118901651Y-49857000D02*
X118901651Y-44123000D01*
X119581651Y-45950000D02*
X119581651Y-43572000D01*
X118821651Y-49774000D02*
X118821651Y-44206000D01*
X120101651Y-50694000D02*
X120101651Y-48030000D01*
X120701651Y-50915000D02*
X120701651Y-48030000D01*
X118101651Y-48721000D02*
X118101651Y-45259000D01*
X120861651Y-50957000D02*
X120861651Y-48030000D01*
X120461651Y-50840000D02*
X120461651Y-48030000D01*
X120781651Y-50937000D02*
X120781651Y-48030000D01*
X121101651Y-51007000D02*
X121101651Y-48030000D01*
X120381651Y-50811000D02*
X120381651Y-48030000D01*
X120061651Y-45950000D02*
X120061651Y-43304000D01*
X121182651Y-51020000D02*
X121182651Y-42960000D01*
X121262651Y-51032000D02*
X121262651Y-42948000D01*
X120661651Y-45950000D02*
X120661651Y-43076000D01*
X118461651Y-49335000D02*
X118461651Y-44645000D01*
X119421651Y-50299000D02*
X119421651Y-48030000D01*
X121502651Y-51058000D02*
X121502651Y-42922000D01*
X118661651Y-49594000D02*
X118661651Y-44386000D01*
X119141651Y-50080000D02*
X119141651Y-48030000D01*
X119341651Y-45950000D02*
X119341651Y-43740000D01*
X118141651Y-48803000D02*
X118141651Y-45177000D01*
X119621651Y-45950000D02*
X119621651Y-43546000D01*
X120021651Y-45950000D02*
X120021651Y-43324000D01*
X120261651Y-45950000D02*
X120261651Y-43216000D01*
X119261651Y-50179000D02*
X119261651Y-48030000D01*
X120781651Y-45950000D02*
X120781651Y-43043000D01*
X120861651Y-45950000D02*
X120861651Y-43023000D01*
X121342651Y-51042000D02*
X121342651Y-42938000D01*
X117781651Y-47758000D02*
X117781651Y-46222000D01*
X120461651Y-45950000D02*
X120461651Y-43140000D01*
X119541651Y-45950000D02*
X119541651Y-43598000D01*
X121222651Y-51027000D02*
X121222651Y-42953000D01*
X120541651Y-45950000D02*
X120541651Y-43113000D01*
X120421651Y-50825000D02*
X120421651Y-48030000D01*
X121822651Y-51070000D02*
X121822651Y-42910000D01*
X121782651Y-51070000D02*
X121782651Y-42910000D01*
X119821651Y-50552000D02*
X119821651Y-48030000D01*
X120981651Y-45950000D02*
X120981651Y-42996000D01*
X118861651Y-49816000D02*
X118861651Y-44164000D01*
X120261651Y-50764000D02*
X120261651Y-48030000D01*
X120221651Y-45950000D02*
X120221651Y-43233000D01*
X119181651Y-50114000D02*
X119181651Y-48030000D01*
X120661651Y-50904000D02*
X120661651Y-48030000D01*
X120941651Y-50975000D02*
X120941651Y-48030000D01*
X119581651Y-50408000D02*
X119581651Y-48030000D01*
X118301651Y-49092000D02*
X118301651Y-44888000D01*
X118981651Y-49935000D02*
X118981651Y-44045000D01*
X120301651Y-50780000D02*
X120301651Y-48030000D01*
X120581651Y-50879000D02*
X120581651Y-48030000D01*
X120981651Y-50984000D02*
X120981651Y-48030000D01*
X121061651Y-45950000D02*
X121061651Y-42980000D01*
X119381651Y-45950000D02*
X119381651Y-43710000D01*
X118741651Y-49687000D02*
X118741651Y-44293000D01*
X125942651Y-46990000D02*
G75*
G03*
X125942651Y-46990000I-4120000J0D01*
G01*
%TO.C,R9*%
X164987500Y-63897743D02*
X164987500Y-64372259D01*
X163942500Y-63897743D02*
X163942500Y-64372259D01*
%TO.C,R15*%
X172482742Y-51957500D02*
X172957258Y-51957500D01*
X172482742Y-50912500D02*
X172957258Y-50912500D01*
%TO.C,R20*%
X110009000Y-66828936D02*
X110009000Y-67283064D01*
X111479000Y-66828936D02*
X111479000Y-67283064D01*
%TO.C,J2*%
X153565000Y-25155000D02*
X153565000Y-25465000D01*
X154985000Y-32745000D02*
X153565000Y-32745000D01*
X166435000Y-25465000D02*
X166435000Y-25155000D01*
X153565000Y-32745000D02*
X153565000Y-26985000D01*
X165015000Y-32745000D02*
X165015000Y-32245000D01*
X166435000Y-26985000D02*
X166435000Y-32745000D01*
X166435000Y-32745000D02*
X165015000Y-32745000D01*
X165015000Y-32245000D02*
X154985000Y-32245000D01*
X166435000Y-25155000D02*
X153565000Y-25155000D01*
X154985000Y-32245000D02*
X154985000Y-32745000D01*
%TO.C,C5*%
X161695000Y-56619113D02*
X162984000Y-56619113D01*
X161695000Y-57260113D02*
X163191000Y-57260113D01*
X159101000Y-55659113D02*
X162209000Y-55659113D01*
X159002000Y-55739113D02*
X159615000Y-55739113D01*
X158175000Y-57019113D02*
X159615000Y-57019113D01*
X158127000Y-57220113D02*
X159615000Y-57220113D01*
X161695000Y-56899113D02*
X163097000Y-56899113D01*
X158200000Y-56939113D02*
X159615000Y-56939113D01*
X161695000Y-56379113D02*
X162855000Y-56379113D01*
X158326000Y-56619113D02*
X159615000Y-56619113D01*
X158187000Y-56979113D02*
X159615000Y-56979113D01*
X161695000Y-56859113D02*
X163083000Y-56859113D01*
X161695000Y-57420113D02*
X163216000Y-57420113D01*
X161695000Y-57580113D02*
X163231000Y-57580113D01*
X158164000Y-57060113D02*
X159615000Y-57060113D01*
X159978000Y-55219113D02*
X161332000Y-55219113D01*
X161695000Y-56059113D02*
X162626000Y-56059113D01*
X158076000Y-57660113D02*
X159615000Y-57660113D01*
X158912000Y-55819113D02*
X159615000Y-55819113D01*
X158387000Y-56499113D02*
X159615000Y-56499113D01*
X158077000Y-57620113D02*
X159615000Y-57620113D01*
X158144000Y-57140113D02*
X159615000Y-57140113D01*
X159050000Y-55699113D02*
X162260000Y-55699113D01*
X158506000Y-56299113D02*
X159615000Y-56299113D01*
X161695000Y-55819113D02*
X162398000Y-55819113D01*
X161695000Y-56819113D02*
X163069000Y-56819113D01*
X159477000Y-55419113D02*
X161833000Y-55419113D01*
X158345000Y-56579113D02*
X159615000Y-56579113D01*
X161695000Y-56539113D02*
X162945000Y-56539113D01*
X158480000Y-56339113D02*
X159615000Y-56339113D01*
X158590000Y-56179113D02*
X159615000Y-56179113D01*
X158870000Y-55859113D02*
X159615000Y-55859113D01*
X161695000Y-56419113D02*
X162879000Y-56419113D01*
X161695000Y-57300113D02*
X163198000Y-57300113D01*
X161695000Y-55939113D02*
X162519000Y-55939113D01*
X158651000Y-56099113D02*
X159615000Y-56099113D01*
X158791000Y-55939113D02*
X159615000Y-55939113D01*
X158408000Y-56459113D02*
X159615000Y-56459113D01*
X158082000Y-57540113D02*
X159615000Y-57540113D01*
X160137000Y-55179113D02*
X161173000Y-55179113D01*
X160371000Y-55139113D02*
X160939000Y-55139113D01*
X161695000Y-56579113D02*
X162965000Y-56579113D01*
X158290000Y-56699113D02*
X159615000Y-56699113D01*
X161695000Y-55859113D02*
X162440000Y-55859113D01*
X158829000Y-55899113D02*
X159615000Y-55899113D01*
X161695000Y-57100113D02*
X163156000Y-57100113D01*
X161695000Y-57380113D02*
X163211000Y-57380113D01*
X158075000Y-57700113D02*
X159615000Y-57700113D01*
X161695000Y-56339113D02*
X162830000Y-56339113D01*
X158079000Y-57580113D02*
X159615000Y-57580113D01*
X159740000Y-55299113D02*
X161570000Y-55299113D01*
X159180000Y-60544888D02*
X159180000Y-60044888D01*
X158227000Y-56859113D02*
X159615000Y-56859113D01*
X158135000Y-57180113D02*
X159615000Y-57180113D01*
X161695000Y-56019113D02*
X162592000Y-56019113D01*
X161695000Y-56979113D02*
X163123000Y-56979113D01*
X161695000Y-56659113D02*
X163003000Y-56659113D01*
X161695000Y-57220113D02*
X163183000Y-57220113D01*
X161695000Y-57460113D02*
X163220000Y-57460113D01*
X158099000Y-57380113D02*
X159615000Y-57380113D01*
X161695000Y-57180113D02*
X163175000Y-57180113D01*
X158718000Y-56019113D02*
X159615000Y-56019113D01*
X159850000Y-55259113D02*
X161460000Y-55259113D01*
X161695000Y-55739113D02*
X162308000Y-55739113D01*
X161695000Y-57140113D02*
X163166000Y-57140113D01*
X161695000Y-57500113D02*
X163224000Y-57500113D01*
X158154000Y-57100113D02*
X159615000Y-57100113D01*
X161695000Y-56939113D02*
X163110000Y-56939113D01*
X158112000Y-57300113D02*
X159615000Y-57300113D01*
X158094000Y-57420113D02*
X159615000Y-57420113D01*
X158533000Y-56259113D02*
X159615000Y-56259113D01*
X161695000Y-57660113D02*
X163234000Y-57660113D01*
X159404000Y-55459113D02*
X161906000Y-55459113D01*
X159272000Y-55539113D02*
X162038000Y-55539113D01*
X158930000Y-60294888D02*
X159430000Y-60294888D01*
X158754000Y-55979113D02*
X159615000Y-55979113D01*
X161695000Y-56299113D02*
X162804000Y-56299113D01*
X158365000Y-56539113D02*
X159615000Y-56539113D01*
X158086000Y-57500113D02*
X159615000Y-57500113D01*
X158241000Y-56819113D02*
X159615000Y-56819113D01*
X161695000Y-57060113D02*
X163146000Y-57060113D01*
X161695000Y-55899113D02*
X162481000Y-55899113D01*
X158684000Y-56059113D02*
X159615000Y-56059113D01*
X161695000Y-56099113D02*
X162659000Y-56099113D01*
X158105000Y-57340113D02*
X159615000Y-57340113D01*
X159644000Y-55339113D02*
X161666000Y-55339113D01*
X158560000Y-56219113D02*
X159615000Y-56219113D01*
X158455000Y-56379113D02*
X159615000Y-56379113D01*
X161695000Y-56459113D02*
X162902000Y-56459113D01*
X161695000Y-55779113D02*
X162354000Y-55779113D01*
X158257000Y-56779113D02*
X159615000Y-56779113D01*
X161695000Y-57019113D02*
X163135000Y-57019113D01*
X161695000Y-56739113D02*
X163037000Y-56739113D01*
X158620000Y-56139113D02*
X159615000Y-56139113D01*
X161695000Y-57340113D02*
X163205000Y-57340113D01*
X159212000Y-55579113D02*
X162098000Y-55579113D01*
X161695000Y-56499113D02*
X162923000Y-56499113D01*
X158273000Y-56739113D02*
X159615000Y-56739113D01*
X161695000Y-56179113D02*
X162720000Y-56179113D01*
X158956000Y-55779113D02*
X159615000Y-55779113D01*
X161695000Y-56219113D02*
X162750000Y-56219113D01*
X159336000Y-55499113D02*
X161974000Y-55499113D01*
X158075000Y-57740113D02*
X159615000Y-57740113D01*
X161695000Y-56779113D02*
X163053000Y-56779113D01*
X161695000Y-57740113D02*
X163235000Y-57740113D01*
X161695000Y-55979113D02*
X162556000Y-55979113D01*
X161695000Y-57620113D02*
X163233000Y-57620113D01*
X161695000Y-57540113D02*
X163228000Y-57540113D01*
X161695000Y-56699113D02*
X163020000Y-56699113D01*
X158090000Y-57460113D02*
X159615000Y-57460113D01*
X161695000Y-56259113D02*
X162777000Y-56259113D01*
X161695000Y-56139113D02*
X162690000Y-56139113D01*
X158119000Y-57260113D02*
X159615000Y-57260113D01*
X158431000Y-56419113D02*
X159615000Y-56419113D01*
X158213000Y-56899113D02*
X159615000Y-56899113D01*
X158307000Y-56659113D02*
X159615000Y-56659113D01*
X159557000Y-55379113D02*
X161753000Y-55379113D01*
X161695000Y-57700113D02*
X163235000Y-57700113D01*
X159155000Y-55619113D02*
X162155000Y-55619113D01*
X163275000Y-57740113D02*
G75*
G03*
X163275000Y-57740113I-2620000J0D01*
G01*
%TO.C,D1*%
X172180000Y-86470000D02*
X170150000Y-86470000D01*
X170770000Y-88790000D02*
X172180000Y-88790000D01*
X172180000Y-88130000D02*
X172180000Y-88790000D01*
X172180000Y-86470000D02*
X172180000Y-87130000D01*
%TO.C,R13*%
X155212064Y-44255000D02*
X150857936Y-44255000D01*
X155212064Y-40835000D02*
X150857936Y-40835000D01*
%TO.C,C15*%
X183020580Y-74170000D02*
X182739420Y-74170000D01*
X183020580Y-73150000D02*
X182739420Y-73150000D01*
%TO.C,R2*%
X184422064Y-39810000D02*
X180067936Y-39810000D01*
X184422064Y-36390000D02*
X180067936Y-36390000D01*
%TO.C,R22*%
X110009000Y-74956936D02*
X110009000Y-75411064D01*
X111479000Y-74956936D02*
X111479000Y-75411064D01*
%TO.C,R6*%
X174512500Y-57547743D02*
X174512500Y-58022259D01*
X173467500Y-57547743D02*
X173467500Y-58022259D01*
%TO.C,D5*%
X158210000Y-50275000D02*
X158210000Y-50935000D01*
X158210000Y-50275000D02*
X156180000Y-50275000D01*
X158210000Y-51935000D02*
X158210000Y-52595000D01*
X156800000Y-52595000D02*
X158210000Y-52595000D01*
%TO.C,D3*%
X182340000Y-88130000D02*
X182340000Y-88790000D01*
X182340000Y-86470000D02*
X182340000Y-87130000D01*
X180930000Y-88790000D02*
X182340000Y-88790000D01*
X182340000Y-86470000D02*
X180310000Y-86470000D01*
%TO.C,R17*%
X110009000Y-58700936D02*
X110009000Y-59155064D01*
X111479000Y-58700936D02*
X111479000Y-59155064D01*
%TO.C,R8*%
X155212064Y-36390000D02*
X150857936Y-36390000D01*
X155212064Y-39810000D02*
X150857936Y-39810000D01*
%TO.C,R24*%
X122792258Y-55767500D02*
X122317742Y-55767500D01*
X122792258Y-54722500D02*
X122317742Y-54722500D01*
%TO.C,J3*%
X192585000Y-77735000D02*
X192085000Y-77735000D01*
X199675000Y-76315000D02*
X199365000Y-76315000D01*
X192085000Y-86185000D02*
X192085000Y-84765000D01*
X192085000Y-76315000D02*
X197845000Y-76315000D01*
X192085000Y-77735000D02*
X192085000Y-76315000D01*
X197845000Y-86185000D02*
X192085000Y-86185000D01*
X192585000Y-84765000D02*
X192585000Y-77735000D01*
X199675000Y-86185000D02*
X199675000Y-76315000D01*
X192085000Y-84765000D02*
X192585000Y-84765000D01*
X199365000Y-86185000D02*
X199675000Y-86185000D01*
%TO.C,R3*%
X175532064Y-36390000D02*
X171177936Y-36390000D01*
X175532064Y-39810000D02*
X171177936Y-39810000D01*
%TO.C,C1*%
X122695580Y-68455000D02*
X122414420Y-68455000D01*
X122695580Y-67435000D02*
X122414420Y-67435000D01*
%TO.C,R12*%
X164102064Y-40835000D02*
X159747936Y-40835000D01*
X164102064Y-44255000D02*
X159747936Y-44255000D01*
%TO.C,R5*%
X175532064Y-44255000D02*
X171177936Y-44255000D01*
X175532064Y-40835000D02*
X171177936Y-40835000D01*
%TO.C,U2*%
X150495000Y-83810000D02*
X152445000Y-83810000D01*
X150495000Y-74940000D02*
X147045000Y-74940000D01*
X150495000Y-74940000D02*
X152445000Y-74940000D01*
X150495000Y-83810000D02*
X148545000Y-83810000D01*
%TO.C,U5*%
X182880000Y-66030000D02*
X184830000Y-66030000D01*
X182880000Y-57160000D02*
X179430000Y-57160000D01*
X182880000Y-66030000D02*
X180930000Y-66030000D01*
X182880000Y-57160000D02*
X184830000Y-57160000D01*
%TO.C,R11*%
X164987500Y-57547743D02*
X164987500Y-58022259D01*
X163942500Y-57547743D02*
X163942500Y-58022259D01*
%TO.C,C2*%
X169169000Y-55339113D02*
X171191000Y-55339113D01*
X167700000Y-57019113D02*
X169140000Y-57019113D01*
X168279000Y-55979113D02*
X169140000Y-55979113D01*
X169503000Y-55219113D02*
X170857000Y-55219113D01*
X167660000Y-57180113D02*
X169140000Y-57180113D01*
X168176000Y-56099113D02*
X169140000Y-56099113D01*
X167689000Y-57060113D02*
X169140000Y-57060113D01*
X167890000Y-56539113D02*
X169140000Y-56539113D01*
X171220000Y-57380113D02*
X172736000Y-57380113D01*
X169896000Y-55139113D02*
X170464000Y-55139113D01*
X167766000Y-56819113D02*
X169140000Y-56819113D01*
X171220000Y-57060113D02*
X172671000Y-57060113D01*
X168354000Y-55899113D02*
X169140000Y-55899113D01*
X168527000Y-55739113D02*
X169140000Y-55739113D01*
X167644000Y-57260113D02*
X169140000Y-57260113D01*
X171220000Y-55859113D02*
X171965000Y-55859113D01*
X168243000Y-56019113D02*
X169140000Y-56019113D01*
X167607000Y-57540113D02*
X169140000Y-57540113D01*
X168031000Y-56299113D02*
X169140000Y-56299113D01*
X171220000Y-57620113D02*
X172758000Y-57620113D01*
X168797000Y-55539113D02*
X171563000Y-55539113D01*
X169375000Y-55259113D02*
X170985000Y-55259113D01*
X168395000Y-55859113D02*
X169140000Y-55859113D01*
X168705000Y-60544888D02*
X168705000Y-60044888D01*
X168737000Y-55579113D02*
X171623000Y-55579113D01*
X171220000Y-56099113D02*
X172184000Y-56099113D01*
X171220000Y-56259113D02*
X172302000Y-56259113D01*
X168626000Y-55659113D02*
X171734000Y-55659113D01*
X168316000Y-55939113D02*
X169140000Y-55939113D01*
X168861000Y-55499113D02*
X171499000Y-55499113D01*
X171220000Y-55939113D02*
X172044000Y-55939113D01*
X171220000Y-56299113D02*
X172329000Y-56299113D01*
X167782000Y-56779113D02*
X169140000Y-56779113D01*
X168209000Y-56059113D02*
X169140000Y-56059113D01*
X171220000Y-56179113D02*
X172245000Y-56179113D01*
X167725000Y-56939113D02*
X169140000Y-56939113D01*
X171220000Y-56779113D02*
X172578000Y-56779113D01*
X171220000Y-56739113D02*
X172562000Y-56739113D01*
X171220000Y-57540113D02*
X172753000Y-57540113D01*
X168575000Y-55699113D02*
X171785000Y-55699113D01*
X171220000Y-55979113D02*
X172081000Y-55979113D01*
X168680000Y-55619113D02*
X171680000Y-55619113D01*
X171220000Y-56059113D02*
X172151000Y-56059113D01*
X167815000Y-56699113D02*
X169140000Y-56699113D01*
X167980000Y-56379113D02*
X169140000Y-56379113D01*
X171220000Y-56339113D02*
X172355000Y-56339113D01*
X167679000Y-57100113D02*
X169140000Y-57100113D01*
X171220000Y-57140113D02*
X172691000Y-57140113D01*
X171220000Y-56819113D02*
X172594000Y-56819113D01*
X171220000Y-56379113D02*
X172380000Y-56379113D01*
X168481000Y-55779113D02*
X169140000Y-55779113D01*
X169082000Y-55379113D02*
X171278000Y-55379113D01*
X167615000Y-57460113D02*
X169140000Y-57460113D01*
X171220000Y-57460113D02*
X172745000Y-57460113D01*
X167600000Y-57740113D02*
X169140000Y-57740113D01*
X171220000Y-57260113D02*
X172716000Y-57260113D01*
X171220000Y-57340113D02*
X172730000Y-57340113D01*
X167600000Y-57700113D02*
X169140000Y-57700113D01*
X171220000Y-55819113D02*
X171923000Y-55819113D01*
X171220000Y-56939113D02*
X172635000Y-56939113D01*
X171220000Y-56579113D02*
X172490000Y-56579113D01*
X171220000Y-56139113D02*
X172215000Y-56139113D01*
X167619000Y-57420113D02*
X169140000Y-57420113D01*
X167956000Y-56419113D02*
X169140000Y-56419113D01*
X171220000Y-57180113D02*
X172700000Y-57180113D01*
X167933000Y-56459113D02*
X169140000Y-56459113D01*
X168058000Y-56259113D02*
X169140000Y-56259113D01*
X171220000Y-56419113D02*
X172404000Y-56419113D01*
X169002000Y-55419113D02*
X171358000Y-55419113D01*
X167602000Y-57620113D02*
X169140000Y-57620113D01*
X168085000Y-56219113D02*
X169140000Y-56219113D01*
X167637000Y-57300113D02*
X169140000Y-57300113D01*
X167652000Y-57220113D02*
X169140000Y-57220113D01*
X167669000Y-57140113D02*
X169140000Y-57140113D01*
X171220000Y-56659113D02*
X172528000Y-56659113D01*
X171220000Y-56459113D02*
X172427000Y-56459113D01*
X168929000Y-55459113D02*
X171431000Y-55459113D01*
X171220000Y-56619113D02*
X172509000Y-56619113D01*
X171220000Y-57420113D02*
X172741000Y-57420113D01*
X167752000Y-56859113D02*
X169140000Y-56859113D01*
X167798000Y-56739113D02*
X169140000Y-56739113D01*
X171220000Y-57660113D02*
X172759000Y-57660113D01*
X171220000Y-57740113D02*
X172760000Y-57740113D01*
X171220000Y-55739113D02*
X171833000Y-55739113D01*
X167712000Y-56979113D02*
X169140000Y-56979113D01*
X167870000Y-56579113D02*
X169140000Y-56579113D01*
X169662000Y-55179113D02*
X170698000Y-55179113D01*
X171220000Y-56899113D02*
X172622000Y-56899113D01*
X171220000Y-56859113D02*
X172608000Y-56859113D01*
X171220000Y-57019113D02*
X172660000Y-57019113D01*
X168145000Y-56139113D02*
X169140000Y-56139113D01*
X171220000Y-57580113D02*
X172756000Y-57580113D01*
X167624000Y-57380113D02*
X169140000Y-57380113D01*
X168005000Y-56339113D02*
X169140000Y-56339113D01*
X167738000Y-56899113D02*
X169140000Y-56899113D01*
X171220000Y-57100113D02*
X172681000Y-57100113D01*
X167832000Y-56659113D02*
X169140000Y-56659113D01*
X171220000Y-56979113D02*
X172648000Y-56979113D01*
X167611000Y-57500113D02*
X169140000Y-57500113D01*
X167912000Y-56499113D02*
X169140000Y-56499113D01*
X167851000Y-56619113D02*
X169140000Y-56619113D01*
X167630000Y-57340113D02*
X169140000Y-57340113D01*
X168115000Y-56179113D02*
X169140000Y-56179113D01*
X171220000Y-56699113D02*
X172545000Y-56699113D01*
X171220000Y-56499113D02*
X172448000Y-56499113D01*
X171220000Y-56539113D02*
X172470000Y-56539113D01*
X168455000Y-60294888D02*
X168955000Y-60294888D01*
X171220000Y-57220113D02*
X172708000Y-57220113D01*
X168437000Y-55819113D02*
X169140000Y-55819113D01*
X171220000Y-56219113D02*
X172275000Y-56219113D01*
X171220000Y-55779113D02*
X171879000Y-55779113D01*
X167604000Y-57580113D02*
X169140000Y-57580113D01*
X171220000Y-57300113D02*
X172723000Y-57300113D01*
X167601000Y-57660113D02*
X169140000Y-57660113D01*
X171220000Y-56019113D02*
X172117000Y-56019113D01*
X171220000Y-57700113D02*
X172760000Y-57700113D01*
X171220000Y-57500113D02*
X172749000Y-57500113D01*
X171220000Y-55899113D02*
X172006000Y-55899113D01*
X169265000Y-55299113D02*
X171095000Y-55299113D01*
X172800000Y-57740113D02*
G75*
G03*
X172800000Y-57740113I-2620000J0D01*
G01*
%TO.C,C17*%
X184380000Y-50838621D02*
X182434000Y-50838621D01*
X184380000Y-50117621D02*
X182231000Y-50117621D01*
X187070000Y-52398621D02*
X183770000Y-52398621D01*
X184380000Y-51078621D02*
X182544000Y-51078621D01*
X188506000Y-50558621D02*
X186460000Y-50558621D01*
X184380000Y-50918621D02*
X182468000Y-50918621D01*
X187574000Y-46412380D02*
X186944000Y-46412380D01*
X184380000Y-51878621D02*
X183115000Y-51878621D01*
X188316000Y-51038621D02*
X186460000Y-51038621D01*
X187134000Y-52358621D02*
X183706000Y-52358621D01*
X184380000Y-50958621D02*
X182486000Y-50958621D01*
X184380000Y-50678621D02*
X182373000Y-50678621D01*
X188354000Y-50958621D02*
X186460000Y-50958621D01*
X188570000Y-50318621D02*
X186460000Y-50318621D01*
X186682000Y-52598621D02*
X184158000Y-52598621D01*
X188615000Y-50077621D02*
X186460000Y-50077621D01*
X188453000Y-50718621D02*
X186460000Y-50718621D01*
X187602000Y-51998621D02*
X183238000Y-51998621D01*
X184380000Y-51118621D02*
X182564000Y-51118621D01*
X187870000Y-51718621D02*
X186460000Y-51718621D01*
X187196000Y-52318621D02*
X183644000Y-52318621D01*
X188481000Y-50638621D02*
X186460000Y-50638621D01*
X187936000Y-51638621D02*
X186460000Y-51638621D01*
X188644000Y-49797621D02*
X182196000Y-49797621D01*
X184380000Y-49957621D02*
X182209000Y-49957621D01*
X188494000Y-50598621D02*
X186460000Y-50598621D01*
X184380000Y-51278621D02*
X182654000Y-51278621D01*
X188232000Y-51198621D02*
X186460000Y-51198621D01*
X188084000Y-51438621D02*
X186460000Y-51438621D01*
X184380000Y-51158621D02*
X182586000Y-51158621D01*
X187998000Y-51558621D02*
X186460000Y-51558621D01*
X187001000Y-52438621D02*
X183839000Y-52438621D01*
X188438000Y-50758621D02*
X186460000Y-50758621D01*
X188390000Y-50878621D02*
X186460000Y-50878621D01*
X188579000Y-50277621D02*
X186460000Y-50277621D01*
X188422000Y-50798621D02*
X186460000Y-50798621D01*
X188602000Y-50157621D02*
X186460000Y-50157621D01*
X184380000Y-50398621D02*
X182289000Y-50398621D01*
X187464000Y-52118621D02*
X183376000Y-52118621D01*
X184380000Y-49837621D02*
X182198000Y-49837621D01*
X184380000Y-50558621D02*
X182334000Y-50558621D01*
X187763000Y-51838621D02*
X186460000Y-51838621D01*
X184380000Y-50718621D02*
X182387000Y-50718621D01*
X184380000Y-50998621D02*
X182504000Y-50998621D01*
X187415000Y-52158621D02*
X183425000Y-52158621D01*
X188650000Y-49677621D02*
X182190000Y-49677621D01*
X187512000Y-52078621D02*
X183328000Y-52078621D01*
X188296000Y-51078621D02*
X186460000Y-51078621D01*
X188621000Y-50037621D02*
X186460000Y-50037621D01*
X184380000Y-51238621D02*
X182630000Y-51238621D01*
X188406000Y-50838621D02*
X186460000Y-50838621D01*
X184380000Y-50758621D02*
X182402000Y-50758621D01*
X184380000Y-50318621D02*
X182270000Y-50318621D01*
X187557000Y-52038621D02*
X183283000Y-52038621D01*
X187644000Y-51958621D02*
X183196000Y-51958621D01*
X184380000Y-50197621D02*
X182245000Y-50197621D01*
X188210000Y-51238621D02*
X186460000Y-51238621D01*
X188541000Y-50438621D02*
X186460000Y-50438621D01*
X187904000Y-51678621D02*
X186460000Y-51678621D01*
X184380000Y-50077621D02*
X182225000Y-50077621D01*
X188276000Y-51118621D02*
X186460000Y-51118621D01*
X184380000Y-50157621D02*
X182238000Y-50157621D01*
X184380000Y-50518621D02*
X182322000Y-50518621D01*
X184380000Y-51398621D02*
X182730000Y-51398621D01*
X184380000Y-51758621D02*
X183004000Y-51758621D01*
X188136000Y-51358621D02*
X186460000Y-51358621D01*
X186053000Y-52798621D02*
X184787000Y-52798621D01*
X188650000Y-49637621D02*
X182190000Y-49637621D01*
X188530000Y-50478621D02*
X186460000Y-50478621D01*
X184380000Y-50037621D02*
X182219000Y-50037621D01*
X184380000Y-51558621D02*
X182842000Y-51558621D01*
X188467000Y-50678621D02*
X186460000Y-50678621D01*
X184380000Y-50277621D02*
X182261000Y-50277621D01*
X187968000Y-51598621D02*
X186460000Y-51598621D01*
X184380000Y-51638621D02*
X182904000Y-51638621D01*
X188635000Y-49917621D02*
X186460000Y-49917621D01*
X184380000Y-50638621D02*
X182359000Y-50638621D01*
X188254000Y-51158621D02*
X186460000Y-51158621D01*
X187800000Y-51798621D02*
X186460000Y-51798621D01*
X184380000Y-50237621D02*
X182253000Y-50237621D01*
X188561000Y-50358621D02*
X186460000Y-50358621D01*
X188186000Y-51278621D02*
X186460000Y-51278621D01*
X186360000Y-52718621D02*
X184480000Y-52718621D01*
X188650000Y-49597621D02*
X182190000Y-49597621D01*
X184380000Y-51838621D02*
X183077000Y-51838621D01*
X188336000Y-50998621D02*
X186460000Y-50998621D01*
X184380000Y-51718621D02*
X182970000Y-51718621D01*
X187259000Y-46097380D02*
X187259000Y-46727380D01*
X188647000Y-49757621D02*
X182193000Y-49757621D01*
X185822000Y-52838621D02*
X185018000Y-52838621D01*
X188372000Y-50918621D02*
X186460000Y-50918621D01*
X187685000Y-51918621D02*
X183155000Y-51918621D01*
X188162000Y-51318621D02*
X186460000Y-51318621D01*
X188609000Y-50117621D02*
X186460000Y-50117621D01*
X184380000Y-51678621D02*
X182936000Y-51678621D01*
X184380000Y-50878621D02*
X182450000Y-50878621D01*
X188551000Y-50398621D02*
X186460000Y-50398621D01*
X188518000Y-50518621D02*
X186460000Y-50518621D01*
X184380000Y-51438621D02*
X182756000Y-51438621D01*
X186929000Y-52478621D02*
X183911000Y-52478621D01*
X188626000Y-49997621D02*
X186460000Y-49997621D01*
X187836000Y-51758621D02*
X186460000Y-51758621D01*
X186222000Y-52758621D02*
X184618000Y-52758621D01*
X184380000Y-51478621D02*
X182784000Y-51478621D01*
X184380000Y-50438621D02*
X182299000Y-50438621D01*
X188587000Y-50237621D02*
X186460000Y-50237621D01*
X184380000Y-51358621D02*
X182704000Y-51358621D01*
X184380000Y-50358621D02*
X182279000Y-50358621D01*
X188027000Y-51518621D02*
X186460000Y-51518621D01*
X187364000Y-52198621D02*
X183476000Y-52198621D01*
X188110000Y-51398621D02*
X186460000Y-51398621D01*
X188648000Y-49717621D02*
X182192000Y-49717621D01*
X184380000Y-50478621D02*
X182310000Y-50478621D01*
X188595000Y-50197621D02*
X186460000Y-50197621D01*
X184380000Y-51038621D02*
X182524000Y-51038621D01*
X184380000Y-49997621D02*
X182214000Y-49997621D01*
X184380000Y-49877621D02*
X182202000Y-49877621D01*
X184380000Y-51798621D02*
X183040000Y-51798621D01*
X184380000Y-51198621D02*
X182608000Y-51198621D01*
X184380000Y-51318621D02*
X182678000Y-51318621D01*
X188056000Y-51478621D02*
X186460000Y-51478621D01*
X187725000Y-51878621D02*
X186460000Y-51878621D01*
X186479000Y-52678621D02*
X184361000Y-52678621D01*
X188638000Y-49877621D02*
X186460000Y-49877621D01*
X186770000Y-52558621D02*
X184070000Y-52558621D01*
X186585000Y-52638621D02*
X184255000Y-52638621D01*
X184380000Y-51518621D02*
X182813000Y-51518621D01*
X184380000Y-49917621D02*
X182205000Y-49917621D01*
X188631000Y-49957621D02*
X186460000Y-49957621D01*
X187310000Y-52238621D02*
X183530000Y-52238621D01*
X184380000Y-50798621D02*
X182418000Y-50798621D01*
X188642000Y-49837621D02*
X186460000Y-49837621D01*
X184380000Y-51598621D02*
X182872000Y-51598621D01*
X187254000Y-52278621D02*
X183586000Y-52278621D01*
X186852000Y-52518621D02*
X183988000Y-52518621D01*
X184380000Y-50598621D02*
X182346000Y-50598621D01*
X188690000Y-49597621D02*
G75*
G03*
X188690000Y-49597621I-3270000J0D01*
G01*
%TO.C,R18*%
X111479000Y-63219064D02*
X111479000Y-62764936D01*
X110009000Y-63219064D02*
X110009000Y-62764936D01*
%TO.C,R30*%
X175477064Y-25390000D02*
X171122936Y-25390000D01*
X175477064Y-28810000D02*
X171122936Y-28810000D01*
%TO.C,J7*%
X192085000Y-67685000D02*
X192085000Y-66265000D01*
X197845000Y-67685000D02*
X192085000Y-67685000D01*
X192585000Y-56235000D02*
X192085000Y-56235000D01*
X192585000Y-66265000D02*
X192585000Y-56235000D01*
X199675000Y-54815000D02*
X199365000Y-54815000D01*
X192085000Y-54815000D02*
X197845000Y-54815000D01*
X199675000Y-67685000D02*
X199675000Y-54815000D01*
X192085000Y-66265000D02*
X192585000Y-66265000D01*
X199365000Y-67685000D02*
X199675000Y-67685000D01*
X192085000Y-56235000D02*
X192085000Y-54815000D01*
%TO.C,U9*%
X122555000Y-61615000D02*
X124505000Y-61615000D01*
X122555000Y-61615000D02*
X120605000Y-61615000D01*
X122555000Y-56495000D02*
X124505000Y-56495000D01*
X122555000Y-56495000D02*
X119105000Y-56495000D01*
%TO.C,R32*%
X175477064Y-29790000D02*
X171122936Y-29790000D01*
X175477064Y-33210000D02*
X171122936Y-33210000D01*
%TO.C,C16*%
X146557000Y-46868621D02*
X144550000Y-46868621D01*
X142470000Y-47828621D02*
X140994000Y-47828621D01*
X142470000Y-46147621D02*
X140299000Y-46147621D01*
X145160000Y-48588621D02*
X141860000Y-48588621D01*
X146692000Y-46347621D02*
X144550000Y-46347621D01*
X146058000Y-47788621D02*
X144550000Y-47788621D01*
X142470000Y-47028621D02*
X140524000Y-47028621D01*
X142470000Y-46988621D02*
X140508000Y-46988621D01*
X146276000Y-47468621D02*
X144550000Y-47468621D01*
X146571000Y-46828621D02*
X144550000Y-46828621D01*
X146480000Y-47068621D02*
X144550000Y-47068621D01*
X142470000Y-47708621D02*
X140903000Y-47708621D01*
X142470000Y-47988621D02*
X141130000Y-47988621D01*
X146677000Y-46427621D02*
X144550000Y-46427621D01*
X142470000Y-48028621D02*
X141167000Y-48028621D01*
X146725000Y-46107621D02*
X144550000Y-46107621D01*
X146716000Y-46187621D02*
X144550000Y-46187621D01*
X146426000Y-47188621D02*
X144550000Y-47188621D01*
X142470000Y-47068621D02*
X140540000Y-47068621D01*
X146705000Y-46267621D02*
X144550000Y-46267621D01*
X145349000Y-42287380D02*
X145349000Y-42917380D01*
X142470000Y-46548621D02*
X140369000Y-46548621D01*
X146543000Y-46908621D02*
X144550000Y-46908621D01*
X146728000Y-46067621D02*
X144550000Y-46067621D01*
X146732000Y-46027621D02*
X144550000Y-46027621D01*
X142470000Y-46107621D02*
X140295000Y-46107621D01*
X142470000Y-47148621D02*
X140576000Y-47148621D01*
X142470000Y-47268621D02*
X140634000Y-47268621D01*
X146088000Y-47748621D02*
X144550000Y-47748621D01*
X146406000Y-47228621D02*
X144550000Y-47228621D01*
X142470000Y-47188621D02*
X140594000Y-47188621D01*
X146608000Y-46708621D02*
X144550000Y-46708621D01*
X142470000Y-47228621D02*
X140614000Y-47228621D01*
X143912000Y-49028621D02*
X143108000Y-49028621D01*
X145926000Y-47948621D02*
X144550000Y-47948621D01*
X142470000Y-46828621D02*
X140449000Y-46828621D01*
X145775000Y-48108621D02*
X141245000Y-48108621D01*
X146660000Y-46508621D02*
X144550000Y-46508621D01*
X145454000Y-48388621D02*
X141566000Y-48388621D01*
X142470000Y-46628621D02*
X140389000Y-46628621D01*
X142470000Y-46908621D02*
X140477000Y-46908621D01*
X142470000Y-47628621D02*
X140846000Y-47628621D01*
X146740000Y-45867621D02*
X140280000Y-45867621D01*
X144450000Y-48908621D02*
X142570000Y-48908621D01*
X146444000Y-47148621D02*
X144550000Y-47148621D01*
X145602000Y-48268621D02*
X141418000Y-48268621D01*
X146174000Y-47628621D02*
X144550000Y-47628621D01*
X145994000Y-47868621D02*
X144550000Y-47868621D01*
X142470000Y-46347621D02*
X140328000Y-46347621D01*
X146737000Y-45947621D02*
X140283000Y-45947621D01*
X142470000Y-46067621D02*
X140292000Y-46067621D01*
X145400000Y-48428621D02*
X141620000Y-48428621D01*
X144772000Y-48788621D02*
X142248000Y-48788621D01*
X142470000Y-47668621D02*
X140874000Y-47668621D01*
X146386000Y-47268621D02*
X144550000Y-47268621D01*
X146631000Y-46628621D02*
X144550000Y-46628621D01*
X142470000Y-46427621D02*
X140343000Y-46427621D01*
X142470000Y-47388621D02*
X140698000Y-47388621D01*
X142470000Y-47348621D02*
X140676000Y-47348621D01*
X142470000Y-46307621D02*
X140321000Y-46307621D01*
X145224000Y-48548621D02*
X141796000Y-48548621D01*
X144143000Y-48988621D02*
X142877000Y-48988621D01*
X142470000Y-47468621D02*
X140744000Y-47468621D01*
X142470000Y-46027621D02*
X140288000Y-46027621D01*
X145505000Y-48348621D02*
X141515000Y-48348621D01*
X146669000Y-46467621D02*
X144550000Y-46467621D01*
X146584000Y-46788621D02*
X144550000Y-46788621D01*
X146596000Y-46748621D02*
X144550000Y-46748621D01*
X145286000Y-48508621D02*
X141734000Y-48508621D01*
X145853000Y-48028621D02*
X144550000Y-48028621D01*
X145960000Y-47908621D02*
X144550000Y-47908621D01*
X145815000Y-48068621D02*
X144550000Y-48068621D01*
X142470000Y-46187621D02*
X140304000Y-46187621D01*
X145091000Y-48628621D02*
X141929000Y-48628621D01*
X146146000Y-47668621D02*
X144550000Y-47668621D01*
X142470000Y-47508621D02*
X140768000Y-47508621D01*
X142470000Y-46708621D02*
X140412000Y-46708621D01*
X142470000Y-46467621D02*
X140351000Y-46467621D01*
X145734000Y-48148621D02*
X141286000Y-48148621D01*
X146699000Y-46307621D02*
X144550000Y-46307621D01*
X142470000Y-46788621D02*
X140436000Y-46788621D01*
X146740000Y-45827621D02*
X140280000Y-45827621D01*
X142470000Y-46227621D02*
X140309000Y-46227621D01*
X146496000Y-47028621D02*
X144550000Y-47028621D01*
X146026000Y-47828621D02*
X144550000Y-47828621D01*
X145019000Y-48668621D02*
X142001000Y-48668621D01*
X142470000Y-46668621D02*
X140400000Y-46668621D01*
X146200000Y-47588621D02*
X144550000Y-47588621D01*
X144569000Y-48868621D02*
X142451000Y-48868621D01*
X146651000Y-46548621D02*
X144550000Y-46548621D01*
X142470000Y-47588621D02*
X140820000Y-47588621D01*
X146344000Y-47348621D02*
X144550000Y-47348621D01*
X145344000Y-48468621D02*
X141676000Y-48468621D01*
X146721000Y-46147621D02*
X144550000Y-46147621D01*
X146226000Y-47548621D02*
X144550000Y-47548621D01*
X146620000Y-46668621D02*
X144550000Y-46668621D01*
X142470000Y-46387621D02*
X140335000Y-46387621D01*
X144312000Y-48948621D02*
X142708000Y-48948621D01*
X146734000Y-45987621D02*
X140286000Y-45987621D01*
X142470000Y-47748621D02*
X140932000Y-47748621D01*
X146641000Y-46588621D02*
X144550000Y-46588621D01*
X142470000Y-46948621D02*
X140492000Y-46948621D01*
X142470000Y-47428621D02*
X140720000Y-47428621D01*
X142470000Y-46267621D02*
X140315000Y-46267621D01*
X142470000Y-47948621D02*
X141094000Y-47948621D01*
X145692000Y-48188621D02*
X141328000Y-48188621D01*
X142470000Y-47908621D02*
X141060000Y-47908621D01*
X146366000Y-47308621D02*
X144550000Y-47308621D01*
X146740000Y-45787621D02*
X140280000Y-45787621D01*
X142470000Y-47548621D02*
X140794000Y-47548621D01*
X142470000Y-46508621D02*
X140360000Y-46508621D01*
X142470000Y-48068621D02*
X141205000Y-48068621D01*
X146528000Y-46948621D02*
X144550000Y-46948621D01*
X146685000Y-46387621D02*
X144550000Y-46387621D01*
X146512000Y-46988621D02*
X144550000Y-46988621D01*
X146738000Y-45907621D02*
X140282000Y-45907621D01*
X146322000Y-47388621D02*
X144550000Y-47388621D01*
X145890000Y-47988621D02*
X144550000Y-47988621D01*
X146252000Y-47508621D02*
X144550000Y-47508621D01*
X144675000Y-48828621D02*
X142345000Y-48828621D01*
X146300000Y-47428621D02*
X144550000Y-47428621D01*
X142470000Y-47108621D02*
X140558000Y-47108621D01*
X142470000Y-46748621D02*
X140424000Y-46748621D01*
X145554000Y-48308621D02*
X141466000Y-48308621D01*
X146117000Y-47708621D02*
X144550000Y-47708621D01*
X146462000Y-47108621D02*
X144550000Y-47108621D01*
X145647000Y-48228621D02*
X141373000Y-48228621D01*
X142470000Y-47788621D02*
X140962000Y-47788621D01*
X144860000Y-48748621D02*
X142160000Y-48748621D01*
X142470000Y-46868621D02*
X140463000Y-46868621D01*
X144942000Y-48708621D02*
X142078000Y-48708621D01*
X145664000Y-42602380D02*
X145034000Y-42602380D01*
X142470000Y-46588621D02*
X140379000Y-46588621D01*
X142470000Y-47868621D02*
X141026000Y-47868621D01*
X146711000Y-46227621D02*
X144550000Y-46227621D01*
X142470000Y-47308621D02*
X140654000Y-47308621D01*
X146780000Y-45787621D02*
G75*
G03*
X146780000Y-45787621I-3270000J0D01*
G01*
%TO.C,J1*%
X109100000Y-48865000D02*
X108790000Y-48865000D01*
X108790000Y-55735000D02*
X109100000Y-55735000D01*
X116380000Y-54315000D02*
X116380000Y-55735000D01*
X116380000Y-55735000D02*
X110620000Y-55735000D01*
X110620000Y-48865000D02*
X116380000Y-48865000D01*
X116380000Y-50285000D02*
X115880000Y-50285000D01*
X115880000Y-54315000D02*
X116380000Y-54315000D01*
X115880000Y-50285000D02*
X115880000Y-54315000D01*
X108790000Y-48865000D02*
X108790000Y-55735000D01*
X116380000Y-48865000D02*
X116380000Y-50285000D01*
%TO.C,R28*%
X140447500Y-66277258D02*
X140447500Y-65802742D01*
X141492500Y-66277258D02*
X141492500Y-65802742D01*
%TO.C,C13*%
X183020580Y-55370000D02*
X182739420Y-55370000D01*
X183020580Y-56390000D02*
X182739420Y-56390000D01*
%TO.C,R16*%
X172957258Y-48372500D02*
X172482742Y-48372500D01*
X172957258Y-49417500D02*
X172482742Y-49417500D01*
%TO.C,U8*%
X122555000Y-78095000D02*
X124505000Y-78095000D01*
X122555000Y-69225000D02*
X119105000Y-69225000D01*
X122555000Y-69225000D02*
X124505000Y-69225000D01*
X122555000Y-78095000D02*
X120605000Y-78095000D01*
%TO.C,C11*%
X172225580Y-73150000D02*
X171944420Y-73150000D01*
X172225580Y-74170000D02*
X171944420Y-74170000D01*
%TO.C,U1*%
X150495000Y-57160000D02*
X152445000Y-57160000D01*
X150495000Y-66030000D02*
X152445000Y-66030000D01*
X150495000Y-57160000D02*
X147045000Y-57160000D01*
X150495000Y-66030000D02*
X148545000Y-66030000D01*
%TO.C,R21*%
X110009000Y-71347064D02*
X110009000Y-70892936D01*
X111479000Y-71347064D02*
X111479000Y-70892936D01*
%TO.C,C9*%
X150635580Y-55370000D02*
X150354420Y-55370000D01*
X150635580Y-56390000D02*
X150354420Y-56390000D01*
%TO.C,R31*%
X184377064Y-25390000D02*
X180022936Y-25390000D01*
X184377064Y-28810000D02*
X180022936Y-28810000D01*
%TO.C,RV1*%
X169985000Y-47635000D02*
X169985000Y-52705000D01*
X160215000Y-52705000D02*
X169985000Y-52705000D01*
X160215000Y-47635000D02*
X169985000Y-47635000D01*
X160215000Y-47635000D02*
X160215000Y-52705000D01*
%TO.C,R1*%
X184377064Y-33210000D02*
X180022936Y-33210000D01*
X184377064Y-29790000D02*
X180022936Y-29790000D01*
%TD*%
%LPC*%
D15*
%TO.C,PS1*%
X141220000Y-36300000D03*
X138680000Y-36300000D03*
X131060000Y-36300000D03*
X125980000Y-36300000D03*
%TD*%
D16*
%TO.C,R7*%
X164887500Y-38100000D03*
X158962500Y-38100000D03*
%TD*%
D17*
%TO.C,C10*%
X162065000Y-73660000D03*
X160515000Y-73660000D03*
%TD*%
D18*
%TO.C,U4*%
X169610000Y-75565000D03*
X169610000Y-76835000D03*
X169610000Y-78105000D03*
X169610000Y-79375000D03*
X169610000Y-80645000D03*
X169610000Y-81915000D03*
X169610000Y-83185000D03*
X174560000Y-83185000D03*
X174560000Y-81915000D03*
X174560000Y-80645000D03*
X174560000Y-79375000D03*
X174560000Y-78105000D03*
X174560000Y-76835000D03*
X174560000Y-75565000D03*
%TD*%
D19*
%TO.C,J6*%
X198625000Y-36900000D03*
X198625000Y-42900000D03*
D20*
X194685000Y-39900000D03*
D21*
X197685000Y-39900000D03*
%TD*%
D22*
%TO.C,C4*%
X170180000Y-65090113D03*
D23*
X170180000Y-63090113D03*
%TD*%
D24*
%TO.C,R10*%
X173990000Y-63310001D03*
X173990000Y-64960001D03*
%TD*%
D22*
%TO.C,C8*%
X152400000Y-46482000D03*
D23*
X152400000Y-48482000D03*
%TD*%
D25*
%TO.C,D6*%
X121555000Y-79995000D03*
X121555000Y-81295000D03*
X123555000Y-80645000D03*
%TD*%
D26*
%TO.C,R27*%
X121092500Y-65405000D03*
X124017500Y-65405000D03*
%TD*%
D27*
%TO.C,R23*%
X110744000Y-80160500D03*
X110744000Y-78335500D03*
%TD*%
D28*
%TO.C,D7*%
X119380000Y-35077500D03*
X119380000Y-33502500D03*
%TD*%
D24*
%TO.C,R14*%
X185420000Y-86805000D03*
X185420000Y-88455000D03*
%TD*%
D29*
%TO.C,R29*%
X111863500Y-82804000D03*
X113688500Y-82804000D03*
%TD*%
D22*
%TO.C,C6*%
X176844888Y-50165000D03*
D23*
X178844888Y-50165000D03*
%TD*%
D18*
%TO.C,U6*%
X180405000Y-75565000D03*
X180405000Y-76835000D03*
X180405000Y-78105000D03*
X180405000Y-79375000D03*
X180405000Y-80645000D03*
X180405000Y-81915000D03*
X180405000Y-83185000D03*
X185355000Y-83185000D03*
X185355000Y-81915000D03*
X185355000Y-80645000D03*
X185355000Y-79375000D03*
X185355000Y-78105000D03*
X185355000Y-76835000D03*
X185355000Y-75565000D03*
%TD*%
D25*
%TO.C,D2*%
X175530000Y-86980000D03*
X175530000Y-88280000D03*
X177530000Y-87630000D03*
%TD*%
D30*
%TO.C,R25*%
X116015000Y-82804000D03*
X117665000Y-82804000D03*
%TD*%
D22*
%TO.C,C3*%
X160655000Y-65090113D03*
D23*
X160655000Y-63090113D03*
%TD*%
D24*
%TO.C,R26*%
X119380000Y-36640000D03*
X119380000Y-38290000D03*
%TD*%
D18*
%TO.C,U3*%
X158815000Y-75565000D03*
X158815000Y-76835000D03*
X158815000Y-78105000D03*
X158815000Y-79375000D03*
X158815000Y-80645000D03*
X158815000Y-81915000D03*
X158815000Y-83185000D03*
X163765000Y-83185000D03*
X163765000Y-81915000D03*
X163765000Y-80645000D03*
X163765000Y-79375000D03*
X163765000Y-78105000D03*
X163765000Y-76835000D03*
X163765000Y-75565000D03*
%TD*%
D25*
%TO.C,D4*%
X181880000Y-67295000D03*
X181880000Y-68595000D03*
X183880000Y-67945000D03*
%TD*%
D17*
%TO.C,C12*%
X151270000Y-73660000D03*
X149720000Y-73660000D03*
%TD*%
D30*
%TO.C,R19*%
X156655000Y-48260000D03*
X158305000Y-48260000D03*
%TD*%
D22*
%TO.C,U10*%
X130185000Y-64130000D03*
D31*
X130185000Y-66670000D03*
X137805000Y-66670000D03*
X137805000Y-64130000D03*
%TD*%
D32*
%TO.C,SW1*%
X152908000Y-52578000D03*
D33*
X150368000Y-52578000D03*
X147828000Y-52578000D03*
%TD*%
D16*
%TO.C,R4*%
X185207500Y-42545000D03*
X179282500Y-42545000D03*
%TD*%
D22*
%TO.C,C7*%
X123572651Y-46990000D03*
D23*
X120072651Y-46990000D03*
%TD*%
D24*
%TO.C,R9*%
X164465000Y-63310001D03*
X164465000Y-64960001D03*
%TD*%
D30*
%TO.C,R15*%
X171895000Y-51435000D03*
X173545000Y-51435000D03*
%TD*%
D34*
%TO.C,R20*%
X110744000Y-66143500D03*
X110744000Y-67968500D03*
%TD*%
D19*
%TO.C,J2*%
X166000000Y-26225000D03*
X154000000Y-26225000D03*
D35*
X163000000Y-30165000D03*
D21*
X160000000Y-30165000D03*
X157000000Y-30165000D03*
X163000000Y-27165000D03*
X160000000Y-27165000D03*
X157000000Y-27165000D03*
%TD*%
D22*
%TO.C,C5*%
X160655000Y-58740113D03*
D23*
X160655000Y-56740113D03*
%TD*%
D25*
%TO.C,D1*%
X170450000Y-86980000D03*
X170450000Y-88280000D03*
X172450000Y-87630000D03*
%TD*%
D16*
%TO.C,R13*%
X155997500Y-42545000D03*
X150072500Y-42545000D03*
%TD*%
D17*
%TO.C,C15*%
X183655000Y-73660000D03*
X182105000Y-73660000D03*
%TD*%
D16*
%TO.C,R2*%
X185207500Y-38100000D03*
X179282500Y-38100000D03*
%TD*%
D34*
%TO.C,R22*%
X110744000Y-74271500D03*
X110744000Y-76096500D03*
%TD*%
D36*
%TO.C,H1*%
X112750000Y-29000000D03*
%TD*%
D24*
%TO.C,R6*%
X173990000Y-56960001D03*
X173990000Y-58610001D03*
%TD*%
D25*
%TO.C,D5*%
X156480000Y-50785000D03*
X156480000Y-52085000D03*
X158480000Y-51435000D03*
%TD*%
D36*
%TO.C,H3*%
X145000000Y-89250000D03*
%TD*%
D25*
%TO.C,D3*%
X180610000Y-86980000D03*
X180610000Y-88280000D03*
X182610000Y-87630000D03*
%TD*%
D34*
%TO.C,R17*%
X110744000Y-58015500D03*
X110744000Y-59840500D03*
%TD*%
D16*
%TO.C,R8*%
X155997500Y-38100000D03*
X150072500Y-38100000D03*
%TD*%
D37*
%TO.C,R24*%
X123380000Y-55245000D03*
X121730000Y-55245000D03*
%TD*%
D19*
%TO.C,J3*%
X198605000Y-85750000D03*
X198605000Y-76750000D03*
D20*
X194665000Y-82750000D03*
D21*
X194665000Y-79750000D03*
X197665000Y-82750000D03*
X197665000Y-79750000D03*
%TD*%
D16*
%TO.C,R3*%
X176317500Y-38100000D03*
X170392500Y-38100000D03*
%TD*%
D17*
%TO.C,C1*%
X123330000Y-67945000D03*
X121780000Y-67945000D03*
%TD*%
D16*
%TO.C,R12*%
X164887500Y-42545000D03*
X158962500Y-42545000D03*
%TD*%
%TO.C,R5*%
X176317500Y-42545000D03*
X170392500Y-42545000D03*
%TD*%
D18*
%TO.C,U2*%
X148020000Y-75565000D03*
X148020000Y-76835000D03*
X148020000Y-78105000D03*
X148020000Y-79375000D03*
X148020000Y-80645000D03*
X148020000Y-81915000D03*
X148020000Y-83185000D03*
X152970000Y-83185000D03*
X152970000Y-81915000D03*
X152970000Y-80645000D03*
X152970000Y-79375000D03*
X152970000Y-78105000D03*
X152970000Y-76835000D03*
X152970000Y-75565000D03*
%TD*%
%TO.C,U5*%
X180405000Y-57785000D03*
X180405000Y-59055000D03*
X180405000Y-60325000D03*
X180405000Y-61595000D03*
X180405000Y-62865000D03*
X180405000Y-64135000D03*
X180405000Y-65405000D03*
X185355000Y-65405000D03*
X185355000Y-64135000D03*
X185355000Y-62865000D03*
X185355000Y-61595000D03*
X185355000Y-60325000D03*
X185355000Y-59055000D03*
X185355000Y-57785000D03*
%TD*%
D24*
%TO.C,R11*%
X164465000Y-56960001D03*
X164465000Y-58610001D03*
%TD*%
D22*
%TO.C,C2*%
X170180000Y-58740113D03*
D23*
X170180000Y-56740113D03*
%TD*%
D22*
%TO.C,C17*%
X185420000Y-48347621D03*
D23*
X185420000Y-50847621D03*
%TD*%
D27*
%TO.C,R18*%
X110744000Y-63904500D03*
X110744000Y-62079500D03*
%TD*%
D16*
%TO.C,R30*%
X176262500Y-27100000D03*
X170337500Y-27100000D03*
%TD*%
D19*
%TO.C,J7*%
X198605000Y-67250000D03*
X198605000Y-55250000D03*
D20*
X194665000Y-64250000D03*
D21*
X194665000Y-61250000D03*
X194665000Y-58250000D03*
X197665000Y-64250000D03*
X197665000Y-61250000D03*
X197665000Y-58250000D03*
%TD*%
D18*
%TO.C,U9*%
X120080000Y-57150000D03*
X120080000Y-58420000D03*
X120080000Y-59690000D03*
X120080000Y-60960000D03*
X125030000Y-60960000D03*
X125030000Y-59690000D03*
X125030000Y-58420000D03*
X125030000Y-57150000D03*
%TD*%
D16*
%TO.C,R32*%
X176262500Y-31500000D03*
X170337500Y-31500000D03*
%TD*%
D22*
%TO.C,C16*%
X143510000Y-44537621D03*
D23*
X143510000Y-47037621D03*
%TD*%
D19*
%TO.C,J1*%
X109860000Y-49300000D03*
X109860000Y-55300000D03*
D38*
X113800000Y-52300000D03*
D21*
X110800000Y-52300000D03*
%TD*%
D39*
%TO.C,R28*%
X140970000Y-66865000D03*
X140970000Y-65215000D03*
%TD*%
D17*
%TO.C,C13*%
X183655000Y-55880000D03*
X182105000Y-55880000D03*
%TD*%
D37*
%TO.C,R16*%
X173545000Y-48895000D03*
X171895000Y-48895000D03*
%TD*%
D18*
%TO.C,U8*%
X120080000Y-69850000D03*
X120080000Y-71120000D03*
X120080000Y-72390000D03*
X120080000Y-73660000D03*
X120080000Y-74930000D03*
X120080000Y-76200000D03*
X120080000Y-77470000D03*
X125030000Y-77470000D03*
X125030000Y-76200000D03*
X125030000Y-74930000D03*
X125030000Y-73660000D03*
X125030000Y-72390000D03*
X125030000Y-71120000D03*
X125030000Y-69850000D03*
%TD*%
D17*
%TO.C,C11*%
X172860000Y-73660000D03*
X171310000Y-73660000D03*
%TD*%
D36*
%TO.C,H2*%
X196400000Y-29100000D03*
%TD*%
D18*
%TO.C,U1*%
X148020000Y-57785000D03*
X148020000Y-59055000D03*
X148020000Y-60325000D03*
X148020000Y-61595000D03*
X148020000Y-62865000D03*
X148020000Y-64135000D03*
X148020000Y-65405000D03*
X152970000Y-65405000D03*
X152970000Y-64135000D03*
X152970000Y-62865000D03*
X152970000Y-61595000D03*
X152970000Y-60325000D03*
X152970000Y-59055000D03*
X152970000Y-57785000D03*
%TD*%
D27*
%TO.C,R21*%
X110744000Y-72032500D03*
X110744000Y-70207500D03*
%TD*%
D17*
%TO.C,C9*%
X151270000Y-55880000D03*
X149720000Y-55880000D03*
%TD*%
D16*
%TO.C,R31*%
X185162500Y-27100000D03*
X179237500Y-27100000D03*
%TD*%
D40*
%TO.C,RV1*%
X167640000Y-50165000D03*
X165100000Y-50165000D03*
X162560000Y-50165000D03*
%TD*%
D16*
%TO.C,R1*%
X185162500Y-31500000D03*
X179237500Y-31500000D03*
%TD*%
M02*
