%TF.GenerationSoftware,KiCad,Pcbnew,(6.0.5)*%
%TF.CreationDate,2022-06-15T13:59:35+01:00*%
%TF.ProjectId,tsal,7473616c-2e6b-4696-9361-645f70636258,rev?*%
%TF.SameCoordinates,Original*%
%TF.FileFunction,Legend,Top*%
%TF.FilePolarity,Positive*%
%FSLAX46Y46*%
G04 Gerber Fmt 4.6, Leading zero omitted, Abs format (unit mm)*
G04 Created by KiCad (PCBNEW (6.0.5)) date 2022-06-15 13:59:35*
%MOMM*%
%LPD*%
G01*
G04 APERTURE LIST*
G04 Aperture macros list*
%AMRoundRect*
0 Rectangle with rounded corners*
0 $1 Rounding radius*
0 $2 $3 $4 $5 $6 $7 $8 $9 X,Y pos of 4 corners*
0 Add a 4 corners polygon primitive as box body*
4,1,4,$2,$3,$4,$5,$6,$7,$8,$9,$2,$3,0*
0 Add four circle primitives for the rounded corners*
1,1,$1+$1,$2,$3*
1,1,$1+$1,$4,$5*
1,1,$1+$1,$6,$7*
1,1,$1+$1,$8,$9*
0 Add four rect primitives between the rounded corners*
20,1,$1+$1,$2,$3,$4,$5,0*
20,1,$1+$1,$4,$5,$6,$7,0*
20,1,$1+$1,$6,$7,$8,$9,0*
20,1,$1+$1,$8,$9,$2,$3,0*%
%AMFreePoly0*
4,1,43,1.580355,1.210355,1.595000,1.175000,1.595000,0.775000,1.580355,0.739645,1.545000,0.725000,0.975000,0.725000,0.975000,0.575000,1.545000,0.575000,1.580355,0.560355,1.595000,0.525000,1.595000,0.125000,1.580355,0.089645,1.545000,0.075000,0.975000,0.075000,0.975000,-0.075000,1.545000,-0.075000,1.580355,-0.089645,1.595000,-0.125000,1.595000,-0.525000,1.580355,-0.560355,
1.545000,-0.575000,0.975000,-0.575000,0.975000,-0.725000,1.545000,-0.725000,1.580355,-0.739645,1.595000,-0.775000,1.595000,-1.175000,1.580355,-1.210355,1.545000,-1.225000,0.925000,-1.225000,0.889645,-1.210355,0.875000,-1.175000,-0.925000,-1.175000,-0.960355,-1.160355,-0.975000,-1.125000,-0.975000,1.125000,-0.960355,1.160355,-0.925000,1.175000,0.875000,1.175000,0.889645,1.210355,
0.925000,1.225000,1.545000,1.225000,1.580355,1.210355,1.580355,1.210355,$1*%
G04 Aperture macros list end*
%ADD10C,0.150000*%
%ADD11C,0.120000*%
%ADD12C,3.200000*%
%ADD13RoundRect,0.250000X0.362500X1.425000X-0.362500X1.425000X-0.362500X-1.425000X0.362500X-1.425000X0*%
%ADD14RoundRect,0.050000X-0.415000X-0.200000X0.415000X-0.200000X0.415000X0.200000X-0.415000X0.200000X0*%
%ADD15FreePoly0,0.000000*%
%ADD16C,3.000000*%
%ADD17RoundRect,0.250001X0.759999X-0.499999X0.759999X0.499999X-0.759999X0.499999X-0.759999X-0.499999X0*%
%ADD18O,2.020000X1.500000*%
%ADD19RoundRect,0.200000X0.275000X-0.200000X0.275000X0.200000X-0.275000X0.200000X-0.275000X-0.200000X0*%
%ADD20R,1.000000X2.100000*%
%ADD21R,2.100000X2.100000*%
%ADD22R,1.600000X1.600000*%
%ADD23C,1.600000*%
G04 APERTURE END LIST*
D10*
%TO.C,R20*%
X118102142Y-131262380D02*
X117768809Y-130786190D01*
X117530714Y-131262380D02*
X117530714Y-130262380D01*
X117911666Y-130262380D01*
X118006904Y-130310000D01*
X118054523Y-130357619D01*
X118102142Y-130452857D01*
X118102142Y-130595714D01*
X118054523Y-130690952D01*
X118006904Y-130738571D01*
X117911666Y-130786190D01*
X117530714Y-130786190D01*
X118483095Y-130357619D02*
X118530714Y-130310000D01*
X118625952Y-130262380D01*
X118864047Y-130262380D01*
X118959285Y-130310000D01*
X119006904Y-130357619D01*
X119054523Y-130452857D01*
X119054523Y-130548095D01*
X119006904Y-130690952D01*
X118435476Y-131262380D01*
X119054523Y-131262380D01*
X119673571Y-130262380D02*
X119768809Y-130262380D01*
X119864047Y-130310000D01*
X119911666Y-130357619D01*
X119959285Y-130452857D01*
X120006904Y-130643333D01*
X120006904Y-130881428D01*
X119959285Y-131071904D01*
X119911666Y-131167142D01*
X119864047Y-131214761D01*
X119768809Y-131262380D01*
X119673571Y-131262380D01*
X119578333Y-131214761D01*
X119530714Y-131167142D01*
X119483095Y-131071904D01*
X119435476Y-130881428D01*
X119435476Y-130643333D01*
X119483095Y-130452857D01*
X119530714Y-130357619D01*
X119578333Y-130310000D01*
X119673571Y-130262380D01*
%TO.C,Q1*%
X78898761Y-136437619D02*
X78803523Y-136390000D01*
X78708285Y-136294761D01*
X78565428Y-136151904D01*
X78470190Y-136104285D01*
X78374952Y-136104285D01*
X78422571Y-136342380D02*
X78327333Y-136294761D01*
X78232095Y-136199523D01*
X78184476Y-136009047D01*
X78184476Y-135675714D01*
X78232095Y-135485238D01*
X78327333Y-135390000D01*
X78422571Y-135342380D01*
X78613047Y-135342380D01*
X78708285Y-135390000D01*
X78803523Y-135485238D01*
X78851142Y-135675714D01*
X78851142Y-136009047D01*
X78803523Y-136199523D01*
X78708285Y-136294761D01*
X78613047Y-136342380D01*
X78422571Y-136342380D01*
X79803523Y-136342380D02*
X79232095Y-136342380D01*
X79517809Y-136342380D02*
X79517809Y-135342380D01*
X79422571Y-135485238D01*
X79327333Y-135580476D01*
X79232095Y-135628095D01*
%TO.C,J1*%
X59741666Y-146264380D02*
X59741666Y-146978666D01*
X59694047Y-147121523D01*
X59598809Y-147216761D01*
X59455952Y-147264380D01*
X59360714Y-147264380D01*
X60741666Y-147264380D02*
X60170238Y-147264380D01*
X60455952Y-147264380D02*
X60455952Y-146264380D01*
X60360714Y-146407238D01*
X60265476Y-146502476D01*
X60170238Y-146550095D01*
%TO.C,R5*%
X74763333Y-143708380D02*
X74430000Y-143232190D01*
X74191904Y-143708380D02*
X74191904Y-142708380D01*
X74572857Y-142708380D01*
X74668095Y-142756000D01*
X74715714Y-142803619D01*
X74763333Y-142898857D01*
X74763333Y-143041714D01*
X74715714Y-143136952D01*
X74668095Y-143184571D01*
X74572857Y-143232190D01*
X74191904Y-143232190D01*
X75668095Y-142708380D02*
X75191904Y-142708380D01*
X75144285Y-143184571D01*
X75191904Y-143136952D01*
X75287142Y-143089333D01*
X75525238Y-143089333D01*
X75620476Y-143136952D01*
X75668095Y-143184571D01*
X75715714Y-143279809D01*
X75715714Y-143517904D01*
X75668095Y-143613142D01*
X75620476Y-143660761D01*
X75525238Y-143708380D01*
X75287142Y-143708380D01*
X75191904Y-143660761D01*
X75144285Y-143613142D01*
%TO.C,R2*%
X109688333Y-140867380D02*
X109355000Y-140391190D01*
X109116904Y-140867380D02*
X109116904Y-139867380D01*
X109497857Y-139867380D01*
X109593095Y-139915000D01*
X109640714Y-139962619D01*
X109688333Y-140057857D01*
X109688333Y-140200714D01*
X109640714Y-140295952D01*
X109593095Y-140343571D01*
X109497857Y-140391190D01*
X109116904Y-140391190D01*
X110069285Y-139962619D02*
X110116904Y-139915000D01*
X110212142Y-139867380D01*
X110450238Y-139867380D01*
X110545476Y-139915000D01*
X110593095Y-139962619D01*
X110640714Y-140057857D01*
X110640714Y-140153095D01*
X110593095Y-140295952D01*
X110021666Y-140867380D01*
X110640714Y-140867380D01*
%TO.C,D9*%
X87526904Y-139142380D02*
X87526904Y-138142380D01*
X87765000Y-138142380D01*
X87907857Y-138190000D01*
X88003095Y-138285238D01*
X88050714Y-138380476D01*
X88098333Y-138570952D01*
X88098333Y-138713809D01*
X88050714Y-138904285D01*
X88003095Y-138999523D01*
X87907857Y-139094761D01*
X87765000Y-139142380D01*
X87526904Y-139142380D01*
X88574523Y-139142380D02*
X88765000Y-139142380D01*
X88860238Y-139094761D01*
X88907857Y-139047142D01*
X89003095Y-138904285D01*
X89050714Y-138713809D01*
X89050714Y-138332857D01*
X89003095Y-138237619D01*
X88955476Y-138190000D01*
X88860238Y-138142380D01*
X88669761Y-138142380D01*
X88574523Y-138190000D01*
X88526904Y-138237619D01*
X88479285Y-138332857D01*
X88479285Y-138570952D01*
X88526904Y-138666190D01*
X88574523Y-138713809D01*
X88669761Y-138761428D01*
X88860238Y-138761428D01*
X88955476Y-138713809D01*
X89003095Y-138666190D01*
X89050714Y-138570952D01*
%TO.C,R3*%
X118578333Y-152297380D02*
X118245000Y-151821190D01*
X118006904Y-152297380D02*
X118006904Y-151297380D01*
X118387857Y-151297380D01*
X118483095Y-151345000D01*
X118530714Y-151392619D01*
X118578333Y-151487857D01*
X118578333Y-151630714D01*
X118530714Y-151725952D01*
X118483095Y-151773571D01*
X118387857Y-151821190D01*
X118006904Y-151821190D01*
X118911666Y-151297380D02*
X119530714Y-151297380D01*
X119197380Y-151678333D01*
X119340238Y-151678333D01*
X119435476Y-151725952D01*
X119483095Y-151773571D01*
X119530714Y-151868809D01*
X119530714Y-152106904D01*
X119483095Y-152202142D01*
X119435476Y-152249761D01*
X119340238Y-152297380D01*
X119054523Y-152297380D01*
X118959285Y-152249761D01*
X118911666Y-152202142D01*
%TO.C,D3*%
X96416904Y-139142380D02*
X96416904Y-138142380D01*
X96655000Y-138142380D01*
X96797857Y-138190000D01*
X96893095Y-138285238D01*
X96940714Y-138380476D01*
X96988333Y-138570952D01*
X96988333Y-138713809D01*
X96940714Y-138904285D01*
X96893095Y-138999523D01*
X96797857Y-139094761D01*
X96655000Y-139142380D01*
X96416904Y-139142380D01*
X97321666Y-138142380D02*
X97940714Y-138142380D01*
X97607380Y-138523333D01*
X97750238Y-138523333D01*
X97845476Y-138570952D01*
X97893095Y-138618571D01*
X97940714Y-138713809D01*
X97940714Y-138951904D01*
X97893095Y-139047142D01*
X97845476Y-139094761D01*
X97750238Y-139142380D01*
X97464523Y-139142380D01*
X97369285Y-139094761D01*
X97321666Y-139047142D01*
%TO.C,R22*%
X118102142Y-142692380D02*
X117768809Y-142216190D01*
X117530714Y-142692380D02*
X117530714Y-141692380D01*
X117911666Y-141692380D01*
X118006904Y-141740000D01*
X118054523Y-141787619D01*
X118102142Y-141882857D01*
X118102142Y-142025714D01*
X118054523Y-142120952D01*
X118006904Y-142168571D01*
X117911666Y-142216190D01*
X117530714Y-142216190D01*
X118483095Y-141787619D02*
X118530714Y-141740000D01*
X118625952Y-141692380D01*
X118864047Y-141692380D01*
X118959285Y-141740000D01*
X119006904Y-141787619D01*
X119054523Y-141882857D01*
X119054523Y-141978095D01*
X119006904Y-142120952D01*
X118435476Y-142692380D01*
X119054523Y-142692380D01*
X119435476Y-141787619D02*
X119483095Y-141740000D01*
X119578333Y-141692380D01*
X119816428Y-141692380D01*
X119911666Y-141740000D01*
X119959285Y-141787619D01*
X120006904Y-141882857D01*
X120006904Y-141978095D01*
X119959285Y-142120952D01*
X119387857Y-142692380D01*
X120006904Y-142692380D01*
%TO.C,R4*%
X109688333Y-152297380D02*
X109355000Y-151821190D01*
X109116904Y-152297380D02*
X109116904Y-151297380D01*
X109497857Y-151297380D01*
X109593095Y-151345000D01*
X109640714Y-151392619D01*
X109688333Y-151487857D01*
X109688333Y-151630714D01*
X109640714Y-151725952D01*
X109593095Y-151773571D01*
X109497857Y-151821190D01*
X109116904Y-151821190D01*
X110545476Y-151630714D02*
X110545476Y-152297380D01*
X110307380Y-151249761D02*
X110069285Y-151964047D01*
X110688333Y-151964047D01*
%TO.C,R23*%
X109212142Y-142692380D02*
X108878809Y-142216190D01*
X108640714Y-142692380D02*
X108640714Y-141692380D01*
X109021666Y-141692380D01*
X109116904Y-141740000D01*
X109164523Y-141787619D01*
X109212142Y-141882857D01*
X109212142Y-142025714D01*
X109164523Y-142120952D01*
X109116904Y-142168571D01*
X109021666Y-142216190D01*
X108640714Y-142216190D01*
X109593095Y-141787619D02*
X109640714Y-141740000D01*
X109735952Y-141692380D01*
X109974047Y-141692380D01*
X110069285Y-141740000D01*
X110116904Y-141787619D01*
X110164523Y-141882857D01*
X110164523Y-141978095D01*
X110116904Y-142120952D01*
X109545476Y-142692380D01*
X110164523Y-142692380D01*
X110497857Y-141692380D02*
X111116904Y-141692380D01*
X110783571Y-142073333D01*
X110926428Y-142073333D01*
X111021666Y-142120952D01*
X111069285Y-142168571D01*
X111116904Y-142263809D01*
X111116904Y-142501904D01*
X111069285Y-142597142D01*
X111021666Y-142644761D01*
X110926428Y-142692380D01*
X110640714Y-142692380D01*
X110545476Y-142644761D01*
X110497857Y-142597142D01*
%TO.C,R21*%
X109212142Y-131262380D02*
X108878809Y-130786190D01*
X108640714Y-131262380D02*
X108640714Y-130262380D01*
X109021666Y-130262380D01*
X109116904Y-130310000D01*
X109164523Y-130357619D01*
X109212142Y-130452857D01*
X109212142Y-130595714D01*
X109164523Y-130690952D01*
X109116904Y-130738571D01*
X109021666Y-130786190D01*
X108640714Y-130786190D01*
X109593095Y-130357619D02*
X109640714Y-130310000D01*
X109735952Y-130262380D01*
X109974047Y-130262380D01*
X110069285Y-130310000D01*
X110116904Y-130357619D01*
X110164523Y-130452857D01*
X110164523Y-130548095D01*
X110116904Y-130690952D01*
X109545476Y-131262380D01*
X110164523Y-131262380D01*
X111116904Y-131262380D02*
X110545476Y-131262380D01*
X110831190Y-131262380D02*
X110831190Y-130262380D01*
X110735952Y-130405238D01*
X110640714Y-130500476D01*
X110545476Y-130548095D01*
%TO.C,R6*%
X75017333Y-136088380D02*
X74684000Y-135612190D01*
X74445904Y-136088380D02*
X74445904Y-135088380D01*
X74826857Y-135088380D01*
X74922095Y-135136000D01*
X74969714Y-135183619D01*
X75017333Y-135278857D01*
X75017333Y-135421714D01*
X74969714Y-135516952D01*
X74922095Y-135564571D01*
X74826857Y-135612190D01*
X74445904Y-135612190D01*
X75874476Y-135088380D02*
X75684000Y-135088380D01*
X75588761Y-135136000D01*
X75541142Y-135183619D01*
X75445904Y-135326476D01*
X75398285Y-135516952D01*
X75398285Y-135897904D01*
X75445904Y-135993142D01*
X75493523Y-136040761D01*
X75588761Y-136088380D01*
X75779238Y-136088380D01*
X75874476Y-136040761D01*
X75922095Y-135993142D01*
X75969714Y-135897904D01*
X75969714Y-135659809D01*
X75922095Y-135564571D01*
X75874476Y-135516952D01*
X75779238Y-135469333D01*
X75588761Y-135469333D01*
X75493523Y-135516952D01*
X75445904Y-135564571D01*
X75398285Y-135659809D01*
%TO.C,R1*%
X118578333Y-140867380D02*
X118245000Y-140391190D01*
X118006904Y-140867380D02*
X118006904Y-139867380D01*
X118387857Y-139867380D01*
X118483095Y-139915000D01*
X118530714Y-139962619D01*
X118578333Y-140057857D01*
X118578333Y-140200714D01*
X118530714Y-140295952D01*
X118483095Y-140343571D01*
X118387857Y-140391190D01*
X118006904Y-140391190D01*
X119530714Y-140867380D02*
X118959285Y-140867380D01*
X119245000Y-140867380D02*
X119245000Y-139867380D01*
X119149761Y-140010238D01*
X119054523Y-140105476D01*
X118959285Y-140153095D01*
%TO.C,Q2*%
X78644761Y-144184619D02*
X78549523Y-144137000D01*
X78454285Y-144041761D01*
X78311428Y-143898904D01*
X78216190Y-143851285D01*
X78120952Y-143851285D01*
X78168571Y-144089380D02*
X78073333Y-144041761D01*
X77978095Y-143946523D01*
X77930476Y-143756047D01*
X77930476Y-143422714D01*
X77978095Y-143232238D01*
X78073333Y-143137000D01*
X78168571Y-143089380D01*
X78359047Y-143089380D01*
X78454285Y-143137000D01*
X78549523Y-143232238D01*
X78597142Y-143422714D01*
X78597142Y-143756047D01*
X78549523Y-143946523D01*
X78454285Y-144041761D01*
X78359047Y-144089380D01*
X78168571Y-144089380D01*
X78978095Y-143184619D02*
X79025714Y-143137000D01*
X79120952Y-143089380D01*
X79359047Y-143089380D01*
X79454285Y-143137000D01*
X79501904Y-143184619D01*
X79549523Y-143279857D01*
X79549523Y-143375095D01*
X79501904Y-143517952D01*
X78930476Y-144089380D01*
X79549523Y-144089380D01*
%TO.C,C1*%
X70318333Y-147677142D02*
X70270714Y-147724761D01*
X70127857Y-147772380D01*
X70032619Y-147772380D01*
X69889761Y-147724761D01*
X69794523Y-147629523D01*
X69746904Y-147534285D01*
X69699285Y-147343809D01*
X69699285Y-147200952D01*
X69746904Y-147010476D01*
X69794523Y-146915238D01*
X69889761Y-146820000D01*
X70032619Y-146772380D01*
X70127857Y-146772380D01*
X70270714Y-146820000D01*
X70318333Y-146867619D01*
X71270714Y-147772380D02*
X70699285Y-147772380D01*
X70985000Y-147772380D02*
X70985000Y-146772380D01*
X70889761Y-146915238D01*
X70794523Y-147010476D01*
X70699285Y-147058095D01*
%TO.C,D2*%
X87526904Y-131522380D02*
X87526904Y-130522380D01*
X87765000Y-130522380D01*
X87907857Y-130570000D01*
X88003095Y-130665238D01*
X88050714Y-130760476D01*
X88098333Y-130950952D01*
X88098333Y-131093809D01*
X88050714Y-131284285D01*
X88003095Y-131379523D01*
X87907857Y-131474761D01*
X87765000Y-131522380D01*
X87526904Y-131522380D01*
X88479285Y-130617619D02*
X88526904Y-130570000D01*
X88622142Y-130522380D01*
X88860238Y-130522380D01*
X88955476Y-130570000D01*
X89003095Y-130617619D01*
X89050714Y-130712857D01*
X89050714Y-130808095D01*
X89003095Y-130950952D01*
X88431666Y-131522380D01*
X89050714Y-131522380D01*
%TO.C,D6*%
X96416904Y-131522380D02*
X96416904Y-130522380D01*
X96655000Y-130522380D01*
X96797857Y-130570000D01*
X96893095Y-130665238D01*
X96940714Y-130760476D01*
X96988333Y-130950952D01*
X96988333Y-131093809D01*
X96940714Y-131284285D01*
X96893095Y-131379523D01*
X96797857Y-131474761D01*
X96655000Y-131522380D01*
X96416904Y-131522380D01*
X97845476Y-130522380D02*
X97655000Y-130522380D01*
X97559761Y-130570000D01*
X97512142Y-130617619D01*
X97416904Y-130760476D01*
X97369285Y-130950952D01*
X97369285Y-131331904D01*
X97416904Y-131427142D01*
X97464523Y-131474761D01*
X97559761Y-131522380D01*
X97750238Y-131522380D01*
X97845476Y-131474761D01*
X97893095Y-131427142D01*
X97940714Y-131331904D01*
X97940714Y-131093809D01*
X97893095Y-130998571D01*
X97845476Y-130950952D01*
X97750238Y-130903333D01*
X97559761Y-130903333D01*
X97464523Y-130950952D01*
X97416904Y-130998571D01*
X97369285Y-131093809D01*
D11*
%TO.C,R20*%
X120922064Y-131640000D02*
X116567936Y-131640000D01*
X120922064Y-135060000D02*
X116567936Y-135060000D01*
%TO.C,Q1*%
X77520000Y-131580000D02*
X77520000Y-131875000D01*
X80360000Y-131580000D02*
X77520000Y-131580000D01*
X77520000Y-135120000D02*
X80360000Y-135120000D01*
X76790000Y-131875000D02*
X77520000Y-131875000D01*
X80360000Y-131875000D02*
X80360000Y-131580000D01*
X80360000Y-135120000D02*
X80360000Y-134825000D01*
X77520000Y-134825000D02*
X77520000Y-135120000D01*
%TO.C,J1*%
X60075000Y-145150000D02*
X59075000Y-144150000D01*
X69195000Y-140705000D02*
X69195000Y-139366767D01*
X69195000Y-138063233D02*
X69195000Y-136366767D01*
X69195000Y-145150000D02*
X60075000Y-145150000D01*
X59075000Y-144150000D02*
X59075000Y-130280000D01*
X60075000Y-129280000D02*
X69195000Y-129280000D01*
X59075000Y-130280000D02*
X60075000Y-129280000D01*
X69195000Y-135063233D02*
X69195000Y-133366767D01*
X69195000Y-145150000D02*
X69195000Y-142725000D01*
X69195000Y-129280000D02*
X69195000Y-132063233D01*
%TO.C,R5*%
X74407500Y-141207258D02*
X74407500Y-140732742D01*
X75452500Y-141207258D02*
X75452500Y-140732742D01*
%TO.C,R2*%
X112032064Y-139505000D02*
X107677936Y-139505000D01*
X112032064Y-136085000D02*
X107677936Y-136085000D01*
%TO.C,D9*%
X86665000Y-142370000D02*
X89865000Y-142370000D01*
X89865000Y-139570000D02*
X86665000Y-139570000D01*
X86665000Y-139570000D02*
X86665000Y-142370000D01*
%TO.C,R3*%
X120922064Y-150935000D02*
X116567936Y-150935000D01*
X120922064Y-147515000D02*
X116567936Y-147515000D01*
%TO.C,D3*%
X95555000Y-139570000D02*
X95555000Y-142370000D01*
X95555000Y-142370000D02*
X98755000Y-142370000D01*
X98755000Y-139570000D02*
X95555000Y-139570000D01*
%TO.C,R22*%
X120922064Y-143070000D02*
X116567936Y-143070000D01*
X120922064Y-146490000D02*
X116567936Y-146490000D01*
%TO.C,R4*%
X112032064Y-147515000D02*
X107677936Y-147515000D01*
X112032064Y-150935000D02*
X107677936Y-150935000D01*
%TO.C,R23*%
X112032064Y-143070000D02*
X107677936Y-143070000D01*
X112032064Y-146490000D02*
X107677936Y-146490000D01*
%TO.C,R21*%
X112032064Y-131640000D02*
X107677936Y-131640000D01*
X112032064Y-135060000D02*
X107677936Y-135060000D01*
%TO.C,R6*%
X74407500Y-133587258D02*
X74407500Y-133112742D01*
X75452500Y-133587258D02*
X75452500Y-133112742D01*
%TO.C,R1*%
X120922064Y-136085000D02*
X116567936Y-136085000D01*
X120922064Y-139505000D02*
X116567936Y-139505000D01*
%TO.C,Q2*%
X76790000Y-139495000D02*
X77520000Y-139495000D01*
X80360000Y-142740000D02*
X80360000Y-142445000D01*
X77520000Y-139200000D02*
X77520000Y-139495000D01*
X77520000Y-142740000D02*
X80360000Y-142740000D01*
X77520000Y-142445000D02*
X77520000Y-142740000D01*
X80360000Y-139495000D02*
X80360000Y-139200000D01*
X80360000Y-139200000D02*
X77520000Y-139200000D01*
%TO.C,C1*%
X66742621Y-146630000D02*
X66742621Y-153090000D01*
X67663621Y-146762000D02*
X67663621Y-148820000D01*
X68463621Y-150900000D02*
X68463621Y-152602000D01*
X68743621Y-150900000D02*
X68743621Y-152408000D01*
X67623621Y-146750000D02*
X67623621Y-148820000D01*
X68783621Y-147344000D02*
X68783621Y-148820000D01*
X67863621Y-150900000D02*
X67863621Y-152893000D01*
X69223621Y-147768000D02*
X69223621Y-151952000D01*
X69463621Y-148084000D02*
X69463621Y-151636000D01*
X68223621Y-146984000D02*
X68223621Y-148820000D01*
X67823621Y-146813000D02*
X67823621Y-148820000D01*
X68703621Y-150900000D02*
X68703621Y-152438000D01*
X68863621Y-150900000D02*
X68863621Y-152310000D01*
X68103621Y-146926000D02*
X68103621Y-148820000D01*
X68143621Y-150900000D02*
X68143621Y-152776000D01*
X67182621Y-150900000D02*
X67182621Y-153061000D01*
X67262621Y-150900000D02*
X67262621Y-153049000D01*
X67342621Y-150900000D02*
X67342621Y-153035000D01*
X68623621Y-150900000D02*
X68623621Y-152496000D01*
X68983621Y-150900000D02*
X68983621Y-152203000D01*
X69103621Y-147636000D02*
X69103621Y-152084000D01*
X67743621Y-150900000D02*
X67743621Y-152934000D01*
X68383621Y-150900000D02*
X68383621Y-152650000D01*
X67903621Y-146842000D02*
X67903621Y-148820000D01*
X68823621Y-150900000D02*
X68823621Y-152344000D01*
X68183621Y-146964000D02*
X68183621Y-148820000D01*
X68463621Y-147118000D02*
X68463621Y-148820000D01*
X67382621Y-150900000D02*
X67382621Y-153027000D01*
X69023621Y-150900000D02*
X69023621Y-152165000D01*
X68423621Y-150900000D02*
X68423621Y-152626000D01*
X63242380Y-148021000D02*
X63872380Y-148021000D01*
X67903621Y-150900000D02*
X67903621Y-152878000D01*
X67382621Y-146693000D02*
X67382621Y-148820000D01*
X67302621Y-150900000D02*
X67302621Y-153042000D01*
X68143621Y-146944000D02*
X68143621Y-148820000D01*
X68663621Y-150900000D02*
X68663621Y-152467000D01*
X68623621Y-147224000D02*
X68623621Y-148820000D01*
X67983621Y-150900000D02*
X67983621Y-152846000D01*
X67262621Y-146671000D02*
X67262621Y-148820000D01*
X69183621Y-147723000D02*
X69183621Y-151997000D01*
X67503621Y-150900000D02*
X67503621Y-153001000D01*
X67543621Y-146729000D02*
X67543621Y-148820000D01*
X68423621Y-147094000D02*
X68423621Y-148820000D01*
X68263621Y-150900000D02*
X68263621Y-152716000D01*
X66982621Y-150900000D02*
X66982621Y-153082000D01*
X67022621Y-150900000D02*
X67022621Y-153078000D01*
X67222621Y-150900000D02*
X67222621Y-153055000D01*
X63557380Y-147706000D02*
X63557380Y-148336000D01*
X68303621Y-147026000D02*
X68303621Y-148820000D01*
X69303621Y-147865000D02*
X69303621Y-151855000D01*
X67142621Y-150900000D02*
X67142621Y-153066000D01*
X67182621Y-146659000D02*
X67182621Y-148820000D01*
X68543621Y-150900000D02*
X68543621Y-152550000D01*
X66822621Y-146630000D02*
X66822621Y-153090000D01*
X67663621Y-150900000D02*
X67663621Y-152958000D01*
X67783621Y-150900000D02*
X67783621Y-152921000D01*
X69343621Y-147916000D02*
X69343621Y-151804000D01*
X68503621Y-150900000D02*
X68503621Y-152576000D01*
X67823621Y-150900000D02*
X67823621Y-152907000D01*
X69583621Y-148279000D02*
X69583621Y-151441000D01*
X67302621Y-146678000D02*
X67302621Y-148820000D01*
X67062621Y-146645000D02*
X67062621Y-148820000D01*
X67222621Y-146665000D02*
X67222621Y-148820000D01*
X69383621Y-147970000D02*
X69383621Y-151750000D01*
X67422621Y-146701000D02*
X67422621Y-148820000D01*
X68383621Y-147070000D02*
X68383621Y-148820000D01*
X69623621Y-148351000D02*
X69623621Y-151369000D01*
X68943621Y-150900000D02*
X68943621Y-152240000D01*
X68223621Y-150900000D02*
X68223621Y-152736000D01*
X67583621Y-150900000D02*
X67583621Y-152981000D01*
X67342621Y-146685000D02*
X67342621Y-148820000D01*
X68263621Y-147004000D02*
X68263621Y-148820000D01*
X67743621Y-146786000D02*
X67743621Y-148820000D01*
X68343621Y-147048000D02*
X68343621Y-148820000D01*
X67863621Y-146827000D02*
X67863621Y-148820000D01*
X68023621Y-146890000D02*
X68023621Y-148820000D01*
X68663621Y-147253000D02*
X68663621Y-148820000D01*
X68343621Y-150900000D02*
X68343621Y-152672000D01*
X66982621Y-146638000D02*
X66982621Y-148820000D01*
X69743621Y-148598000D02*
X69743621Y-151122000D01*
X68063621Y-150900000D02*
X68063621Y-152812000D01*
X67142621Y-146654000D02*
X67142621Y-148820000D01*
X69423621Y-148026000D02*
X69423621Y-151694000D01*
X67102621Y-150900000D02*
X67102621Y-153071000D01*
X66902621Y-146633000D02*
X66902621Y-153087000D01*
X67703621Y-146774000D02*
X67703621Y-148820000D01*
X68103621Y-150900000D02*
X68103621Y-152794000D01*
X68823621Y-147376000D02*
X68823621Y-148820000D01*
X69663621Y-148428000D02*
X69663621Y-151292000D01*
X68023621Y-150900000D02*
X68023621Y-152830000D01*
X68063621Y-146908000D02*
X68063621Y-148820000D01*
X66862621Y-146632000D02*
X66862621Y-153088000D01*
X67422621Y-150900000D02*
X67422621Y-153019000D01*
X67983621Y-146874000D02*
X67983621Y-148820000D01*
X69823621Y-148801000D02*
X69823621Y-150919000D01*
X68863621Y-147410000D02*
X68863621Y-148820000D01*
X67022621Y-146642000D02*
X67022621Y-148820000D01*
X68943621Y-147480000D02*
X68943621Y-148820000D01*
X67102621Y-146649000D02*
X67102621Y-148820000D01*
X69543621Y-148210000D02*
X69543621Y-151510000D01*
X69023621Y-147555000D02*
X69023621Y-148820000D01*
X69263621Y-147816000D02*
X69263621Y-151904000D01*
X67623621Y-150900000D02*
X67623621Y-152970000D01*
X67463621Y-146710000D02*
X67463621Y-148820000D01*
X67463621Y-150900000D02*
X67463621Y-153010000D01*
X67543621Y-150900000D02*
X67543621Y-152991000D01*
X66942621Y-146636000D02*
X66942621Y-153084000D01*
X69143621Y-147678000D02*
X69143621Y-152042000D01*
X68703621Y-147282000D02*
X68703621Y-148820000D01*
X68583621Y-150900000D02*
X68583621Y-152524000D01*
X69063621Y-147595000D02*
X69063621Y-152125000D01*
X68303621Y-150900000D02*
X68303621Y-152694000D01*
X68903621Y-150900000D02*
X68903621Y-152276000D01*
X69863621Y-148920000D02*
X69863621Y-150800000D01*
X68743621Y-147312000D02*
X68743621Y-148820000D01*
X68543621Y-147170000D02*
X68543621Y-148820000D01*
X67943621Y-146858000D02*
X67943621Y-148820000D01*
X69503621Y-148146000D02*
X69503621Y-151574000D01*
X66782621Y-146630000D02*
X66782621Y-153090000D01*
X68903621Y-147444000D02*
X68903621Y-148820000D01*
X69943621Y-149227000D02*
X69943621Y-150493000D01*
X68983621Y-147517000D02*
X68983621Y-148820000D01*
X67943621Y-150900000D02*
X67943621Y-152862000D01*
X68183621Y-150900000D02*
X68183621Y-152756000D01*
X69703621Y-148510000D02*
X69703621Y-151210000D01*
X69783621Y-148695000D02*
X69783621Y-151025000D01*
X69983621Y-149458000D02*
X69983621Y-150262000D01*
X67062621Y-150900000D02*
X67062621Y-153075000D01*
X68503621Y-147144000D02*
X68503621Y-148820000D01*
X67783621Y-146799000D02*
X67783621Y-148820000D01*
X67583621Y-146739000D02*
X67583621Y-148820000D01*
X68783621Y-150900000D02*
X68783621Y-152376000D01*
X69903621Y-149058000D02*
X69903621Y-150662000D01*
X67503621Y-146719000D02*
X67503621Y-148820000D01*
X68583621Y-147196000D02*
X68583621Y-148820000D01*
X67703621Y-150900000D02*
X67703621Y-152946000D01*
X70012621Y-149860000D02*
G75*
G03*
X70012621Y-149860000I-3270000J0D01*
G01*
%TO.C,D2*%
X86665000Y-131950000D02*
X86665000Y-134750000D01*
X86665000Y-134750000D02*
X89865000Y-134750000D01*
X89865000Y-131950000D02*
X86665000Y-131950000D01*
%TO.C,D6*%
X95555000Y-131950000D02*
X95555000Y-134750000D01*
X98755000Y-131950000D02*
X95555000Y-131950000D01*
X95555000Y-134750000D02*
X98755000Y-134750000D01*
%TD*%
%LPC*%
D12*
%TO.C,REF\u002A\u002A*%
X125250000Y-128000000D03*
%TD*%
%TO.C,REF\u002A\u002A*%
X83250000Y-148750000D03*
%TD*%
D13*
%TO.C,R20*%
X121707500Y-133350000D03*
X115782500Y-133350000D03*
%TD*%
D14*
%TO.C,Q1*%
X77205000Y-132375000D03*
X77205000Y-133025000D03*
X77205000Y-133675000D03*
X77205000Y-134325000D03*
D15*
X79145000Y-133350000D03*
%TD*%
D16*
%TO.C,J1*%
X63785000Y-134865000D03*
X63785000Y-139565000D03*
D17*
X68105000Y-141715000D03*
D18*
X68105000Y-138715000D03*
X68105000Y-135715000D03*
X68105000Y-132715000D03*
%TD*%
D19*
%TO.C,R5*%
X74930000Y-141795000D03*
X74930000Y-140145000D03*
%TD*%
D13*
%TO.C,R2*%
X112817500Y-137795000D03*
X106892500Y-137795000D03*
%TD*%
D20*
%TO.C,D9*%
X87565000Y-140970000D03*
D21*
X89515000Y-140970000D03*
%TD*%
D13*
%TO.C,R3*%
X121707500Y-149225000D03*
X115782500Y-149225000D03*
%TD*%
D20*
%TO.C,D3*%
X96455000Y-140970000D03*
D21*
X98405000Y-140970000D03*
%TD*%
D13*
%TO.C,R22*%
X121707500Y-144780000D03*
X115782500Y-144780000D03*
%TD*%
%TO.C,R4*%
X112817500Y-149225000D03*
X106892500Y-149225000D03*
%TD*%
%TO.C,R23*%
X112817500Y-144780000D03*
X106892500Y-144780000D03*
%TD*%
%TO.C,R21*%
X112817500Y-133350000D03*
X106892500Y-133350000D03*
%TD*%
D19*
%TO.C,R6*%
X74930000Y-134175000D03*
X74930000Y-132525000D03*
%TD*%
D13*
%TO.C,R1*%
X121707500Y-137795000D03*
X115782500Y-137795000D03*
%TD*%
D14*
%TO.C,Q2*%
X77205000Y-139995000D03*
X77205000Y-140645000D03*
X77205000Y-141295000D03*
X77205000Y-141945000D03*
D15*
X79145000Y-140970000D03*
%TD*%
D22*
%TO.C,C1*%
X65492621Y-149860000D03*
D23*
X67992621Y-149860000D03*
%TD*%
D20*
%TO.C,D2*%
X87565000Y-133350000D03*
D21*
X89515000Y-133350000D03*
%TD*%
D20*
%TO.C,D6*%
X96455000Y-133350000D03*
D21*
X98405000Y-133350000D03*
%TD*%
M02*
