%TF.GenerationSoftware,KiCad,Pcbnew,(6.0.5)*%
%TF.CreationDate,2022-06-15T13:59:35+01:00*%
%TF.ProjectId,tsal,7473616c-2e6b-4696-9361-645f70636258,rev?*%
%TF.SameCoordinates,Original*%
%TF.FileFunction,Legend,Bot*%
%TF.FilePolarity,Positive*%
%FSLAX46Y46*%
G04 Gerber Fmt 4.6, Leading zero omitted, Abs format (unit mm)*
G04 Created by KiCad (PCBNEW (6.0.5)) date 2022-06-15 13:59:35*
%MOMM*%
%LPD*%
G01*
G04 APERTURE LIST*
G04 Aperture macros list*
%AMRoundRect*
0 Rectangle with rounded corners*
0 $1 Rounding radius*
0 $2 $3 $4 $5 $6 $7 $8 $9 X,Y pos of 4 corners*
0 Add a 4 corners polygon primitive as box body*
4,1,4,$2,$3,$4,$5,$6,$7,$8,$9,$2,$3,0*
0 Add four circle primitives for the rounded corners*
1,1,$1+$1,$2,$3*
1,1,$1+$1,$4,$5*
1,1,$1+$1,$6,$7*
1,1,$1+$1,$8,$9*
0 Add four rect primitives between the rounded corners*
20,1,$1+$1,$2,$3,$4,$5,0*
20,1,$1+$1,$4,$5,$6,$7,0*
20,1,$1+$1,$6,$7,$8,$9,0*
20,1,$1+$1,$8,$9,$2,$3,0*%
G04 Aperture macros list end*
%ADD10C,0.150000*%
%ADD11C,0.120000*%
%ADD12C,3.200000*%
%ADD13C,3.000000*%
%ADD14RoundRect,0.250001X0.759999X-0.499999X0.759999X0.499999X-0.759999X0.499999X-0.759999X-0.499999X0*%
%ADD15O,2.020000X1.500000*%
%ADD16R,1.600000X1.600000*%
%ADD17C,1.600000*%
%ADD18R,1.000000X2.100000*%
%ADD19R,2.100000X2.100000*%
G04 APERTURE END LIST*
D10*
%TO.C,D1*%
X97893095Y-136082380D02*
X97893095Y-135082380D01*
X97655000Y-135082380D01*
X97512142Y-135130000D01*
X97416904Y-135225238D01*
X97369285Y-135320476D01*
X97321666Y-135510952D01*
X97321666Y-135653809D01*
X97369285Y-135844285D01*
X97416904Y-135939523D01*
X97512142Y-136034761D01*
X97655000Y-136082380D01*
X97893095Y-136082380D01*
X96369285Y-136082380D02*
X96940714Y-136082380D01*
X96655000Y-136082380D02*
X96655000Y-135082380D01*
X96750238Y-135225238D01*
X96845476Y-135320476D01*
X96940714Y-135368095D01*
%TO.C,D8*%
X97893095Y-143702380D02*
X97893095Y-142702380D01*
X97655000Y-142702380D01*
X97512142Y-142750000D01*
X97416904Y-142845238D01*
X97369285Y-142940476D01*
X97321666Y-143130952D01*
X97321666Y-143273809D01*
X97369285Y-143464285D01*
X97416904Y-143559523D01*
X97512142Y-143654761D01*
X97655000Y-143702380D01*
X97893095Y-143702380D01*
X96750238Y-143130952D02*
X96845476Y-143083333D01*
X96893095Y-143035714D01*
X96940714Y-142940476D01*
X96940714Y-142892857D01*
X96893095Y-142797619D01*
X96845476Y-142750000D01*
X96750238Y-142702380D01*
X96559761Y-142702380D01*
X96464523Y-142750000D01*
X96416904Y-142797619D01*
X96369285Y-142892857D01*
X96369285Y-142940476D01*
X96416904Y-143035714D01*
X96464523Y-143083333D01*
X96559761Y-143130952D01*
X96750238Y-143130952D01*
X96845476Y-143178571D01*
X96893095Y-143226190D01*
X96940714Y-143321428D01*
X96940714Y-143511904D01*
X96893095Y-143607142D01*
X96845476Y-143654761D01*
X96750238Y-143702380D01*
X96559761Y-143702380D01*
X96464523Y-143654761D01*
X96416904Y-143607142D01*
X96369285Y-143511904D01*
X96369285Y-143321428D01*
X96416904Y-143226190D01*
X96464523Y-143178571D01*
X96559761Y-143130952D01*
%TO.C,D4*%
X89003095Y-143702380D02*
X89003095Y-142702380D01*
X88765000Y-142702380D01*
X88622142Y-142750000D01*
X88526904Y-142845238D01*
X88479285Y-142940476D01*
X88431666Y-143130952D01*
X88431666Y-143273809D01*
X88479285Y-143464285D01*
X88526904Y-143559523D01*
X88622142Y-143654761D01*
X88765000Y-143702380D01*
X89003095Y-143702380D01*
X87574523Y-143035714D02*
X87574523Y-143702380D01*
X87812619Y-142654761D02*
X88050714Y-143369047D01*
X87431666Y-143369047D01*
%TO.C,D7*%
X89003095Y-136082380D02*
X89003095Y-135082380D01*
X88765000Y-135082380D01*
X88622142Y-135130000D01*
X88526904Y-135225238D01*
X88479285Y-135320476D01*
X88431666Y-135510952D01*
X88431666Y-135653809D01*
X88479285Y-135844285D01*
X88526904Y-135939523D01*
X88622142Y-136034761D01*
X88765000Y-136082380D01*
X89003095Y-136082380D01*
X88098333Y-135082380D02*
X87431666Y-135082380D01*
X87860238Y-136082380D01*
D11*
%TO.C,D1*%
X98755000Y-134750000D02*
X95555000Y-134750000D01*
X95555000Y-134750000D02*
X95555000Y-131950000D01*
X95555000Y-131950000D02*
X98755000Y-131950000D01*
%TO.C,D8*%
X98755000Y-142370000D02*
X95555000Y-142370000D01*
X95555000Y-142370000D02*
X95555000Y-139570000D01*
X95555000Y-139570000D02*
X98755000Y-139570000D01*
%TO.C,D4*%
X86665000Y-139570000D02*
X89865000Y-139570000D01*
X86665000Y-142370000D02*
X86665000Y-139570000D01*
X89865000Y-142370000D02*
X86665000Y-142370000D01*
%TO.C,D7*%
X86665000Y-134750000D02*
X86665000Y-131950000D01*
X89865000Y-134750000D02*
X86665000Y-134750000D01*
X86665000Y-131950000D02*
X89865000Y-131950000D01*
%TD*%
%LPC*%
D12*
%TO.C,REF\u002A\u002A*%
X125250000Y-128000000D03*
%TD*%
%TO.C,REF\u002A\u002A*%
X83250000Y-148750000D03*
%TD*%
D13*
%TO.C,J1*%
X63785000Y-134865000D03*
X63785000Y-139565000D03*
D14*
X68105000Y-141715000D03*
D15*
X68105000Y-138715000D03*
X68105000Y-135715000D03*
X68105000Y-132715000D03*
%TD*%
D16*
%TO.C,C1*%
X65492621Y-149860000D03*
D17*
X67992621Y-149860000D03*
%TD*%
D18*
%TO.C,D1*%
X96455000Y-133350000D03*
D19*
X98405000Y-133350000D03*
%TD*%
D18*
%TO.C,D8*%
X96455000Y-140970000D03*
D19*
X98405000Y-140970000D03*
%TD*%
D18*
%TO.C,D4*%
X87565000Y-140970000D03*
D19*
X89515000Y-140970000D03*
%TD*%
D18*
%TO.C,D7*%
X87565000Y-133350000D03*
D19*
X89515000Y-133350000D03*
%TD*%
M02*
