%TF.GenerationSoftware,KiCad,Pcbnew,(6.0.5)*%
%TF.CreationDate,2022-06-15T13:59:35+01:00*%
%TF.ProjectId,tsal,7473616c-2e6b-4696-9361-645f70636258,rev?*%
%TF.SameCoordinates,Original*%
%TF.FileFunction,Copper,L2,Bot*%
%TF.FilePolarity,Positive*%
%FSLAX46Y46*%
G04 Gerber Fmt 4.6, Leading zero omitted, Abs format (unit mm)*
G04 Created by KiCad (PCBNEW (6.0.5)) date 2022-06-15 13:59:35*
%MOMM*%
%LPD*%
G01*
G04 APERTURE LIST*
G04 Aperture macros list*
%AMRoundRect*
0 Rectangle with rounded corners*
0 $1 Rounding radius*
0 $2 $3 $4 $5 $6 $7 $8 $9 X,Y pos of 4 corners*
0 Add a 4 corners polygon primitive as box body*
4,1,4,$2,$3,$4,$5,$6,$7,$8,$9,$2,$3,0*
0 Add four circle primitives for the rounded corners*
1,1,$1+$1,$2,$3*
1,1,$1+$1,$4,$5*
1,1,$1+$1,$6,$7*
1,1,$1+$1,$8,$9*
0 Add four rect primitives between the rounded corners*
20,1,$1+$1,$2,$3,$4,$5,0*
20,1,$1+$1,$4,$5,$6,$7,0*
20,1,$1+$1,$6,$7,$8,$9,0*
20,1,$1+$1,$8,$9,$2,$3,0*%
G04 Aperture macros list end*
%TA.AperFunction,ComponentPad*%
%ADD10RoundRect,0.250001X0.759999X-0.499999X0.759999X0.499999X-0.759999X0.499999X-0.759999X-0.499999X0*%
%TD*%
%TA.AperFunction,ComponentPad*%
%ADD11O,2.020000X1.500000*%
%TD*%
%TA.AperFunction,ComponentPad*%
%ADD12R,1.600000X1.600000*%
%TD*%
%TA.AperFunction,ComponentPad*%
%ADD13C,1.600000*%
%TD*%
%TA.AperFunction,SMDPad,CuDef*%
%ADD14R,1.000000X2.100000*%
%TD*%
%TA.AperFunction,SMDPad,CuDef*%
%ADD15R,2.100000X2.100000*%
%TD*%
%TA.AperFunction,ViaPad*%
%ADD16C,0.800000*%
%TD*%
%TA.AperFunction,Conductor*%
%ADD17C,1.000000*%
%TD*%
G04 APERTURE END LIST*
D10*
%TO.P,J1,1,Pin_1*%
%TO.N,GND*%
X68105000Y-141715000D03*
D11*
%TO.P,J1,2,Pin_2*%
%TO.N,/RED_LED_ON*%
X68105000Y-138715000D03*
%TO.P,J1,3,Pin_3*%
%TO.N,/GREEN_LED_ON*%
X68105000Y-135715000D03*
%TO.P,J1,4,Pin_4*%
%TO.N,+12V*%
X68105000Y-132715000D03*
%TD*%
D12*
%TO.P,C1,1*%
%TO.N,+12V*%
X65492621Y-149860000D03*
D13*
%TO.P,C1,2*%
%TO.N,GND*%
X67992621Y-149860000D03*
%TD*%
D14*
%TO.P,D1,1,K*%
%TO.N,Net-(D1-Pad1)*%
X96455000Y-133350000D03*
D15*
%TO.P,D1,2,A*%
%TO.N,Net-(D1-Pad2)*%
X98405000Y-133350000D03*
%TD*%
D14*
%TO.P,D8,1,K*%
%TO.N,Net-(D8-Pad1)*%
X96455000Y-140970000D03*
D15*
%TO.P,D8,2,A*%
%TO.N,Net-(D8-Pad2)*%
X98405000Y-140970000D03*
%TD*%
D14*
%TO.P,D4,1,K*%
%TO.N,Net-(D9-Pad1)*%
X87565000Y-140970000D03*
D15*
%TO.P,D4,2,A*%
%TO.N,Net-(D3-Pad1)*%
X89515000Y-140970000D03*
%TD*%
D14*
%TO.P,D7,1,K*%
%TO.N,Net-(D7-Pad1)*%
X87565000Y-133350000D03*
D15*
%TO.P,D7,2,A*%
%TO.N,Net-(D6-Pad1)*%
X89515000Y-133350000D03*
%TD*%
D16*
%TO.N,GND*%
X76200000Y-132715000D03*
X76200000Y-139700000D03*
%TO.N,Net-(D1-Pad2)*%
X100330000Y-134620000D03*
%TO.N,Net-(D1-Pad1)*%
X93345000Y-132080000D03*
%TO.N,Net-(D3-Pad1)*%
X93345000Y-139700000D03*
%TO.N,Net-(D6-Pad1)*%
X93345000Y-133350000D03*
%TO.N,Net-(D7-Pad1)*%
X85725000Y-133350000D03*
%TO.N,Net-(D8-Pad1)*%
X93345000Y-140970000D03*
%TO.N,Net-(D8-Pad2)*%
X102870000Y-142240000D03*
%TO.N,Net-(D9-Pad1)*%
X85725000Y-140970000D03*
%TD*%
D17*
%TO.N,Net-(D1-Pad2)*%
X98405000Y-133350000D02*
X99060000Y-133350000D01*
X99060000Y-133350000D02*
X100330000Y-134620000D01*
%TO.N,Net-(D1-Pad1)*%
X93345000Y-132080000D02*
X95185000Y-132080000D01*
X95185000Y-132080000D02*
X96455000Y-133350000D01*
%TO.N,Net-(D3-Pad1)*%
X90785000Y-139700000D02*
X89515000Y-140970000D01*
X93345000Y-139700000D02*
X90785000Y-139700000D01*
%TO.N,Net-(D6-Pad1)*%
X89515000Y-133350000D02*
X93345000Y-133350000D01*
%TO.N,Net-(D7-Pad1)*%
X85725000Y-133350000D02*
X87565000Y-133350000D01*
%TO.N,Net-(D8-Pad1)*%
X93345000Y-140970000D02*
X96455000Y-140970000D01*
%TO.N,Net-(D8-Pad2)*%
X101600000Y-140970000D02*
X98405000Y-140970000D01*
X102870000Y-142240000D02*
X101600000Y-140970000D01*
%TO.N,Net-(D9-Pad1)*%
X87565000Y-140970000D02*
X85725000Y-140970000D01*
%TD*%
%TA.AperFunction,Conductor*%
%TO.N,Net-(D3-Pad1)*%
G36*
X92652121Y-137815002D02*
G01*
X92698614Y-137868658D01*
X92710000Y-137921000D01*
X92710000Y-140126624D01*
X92689998Y-140194745D01*
X92663636Y-140224267D01*
X92635713Y-140247040D01*
X92635710Y-140247043D01*
X92630938Y-140250935D01*
X92627011Y-140255682D01*
X92627009Y-140255684D01*
X92508799Y-140398575D01*
X92508797Y-140398579D01*
X92504870Y-140403325D01*
X92410802Y-140577299D01*
X92352318Y-140766232D01*
X92331645Y-140962925D01*
X92349570Y-141159888D01*
X92405410Y-141349619D01*
X92497040Y-141524890D01*
X92620968Y-141679025D01*
X92664993Y-141715966D01*
X92704318Y-141775075D01*
X92710000Y-141812486D01*
X92710000Y-147194000D01*
X92689998Y-147262121D01*
X92636342Y-147308614D01*
X92584000Y-147320000D01*
X88391000Y-147320000D01*
X88322879Y-147299998D01*
X88276386Y-147246342D01*
X88265000Y-147194000D01*
X88265000Y-142651927D01*
X88285002Y-142583806D01*
X88338658Y-142537313D01*
X88404603Y-142526663D01*
X88413520Y-142527631D01*
X88420328Y-142528000D01*
X89242885Y-142528000D01*
X89258124Y-142523525D01*
X89259329Y-142522135D01*
X89261000Y-142514452D01*
X89261000Y-142509884D01*
X89769000Y-142509884D01*
X89773475Y-142525123D01*
X89774865Y-142526328D01*
X89782548Y-142527999D01*
X90609669Y-142527999D01*
X90616490Y-142527629D01*
X90667352Y-142522105D01*
X90682604Y-142518479D01*
X90803054Y-142473324D01*
X90818649Y-142464786D01*
X90920724Y-142388285D01*
X90933285Y-142375724D01*
X91009786Y-142273649D01*
X91018324Y-142258054D01*
X91063478Y-142137606D01*
X91067105Y-142122351D01*
X91072631Y-142071486D01*
X91073000Y-142064672D01*
X91073000Y-141242115D01*
X91068525Y-141226876D01*
X91067135Y-141225671D01*
X91059452Y-141224000D01*
X89787115Y-141224000D01*
X89771876Y-141228475D01*
X89770671Y-141229865D01*
X89769000Y-141237548D01*
X89769000Y-142509884D01*
X89261000Y-142509884D01*
X89261000Y-140697885D01*
X89769000Y-140697885D01*
X89773475Y-140713124D01*
X89774865Y-140714329D01*
X89782548Y-140716000D01*
X91054884Y-140716000D01*
X91070123Y-140711525D01*
X91071328Y-140710135D01*
X91072999Y-140702452D01*
X91072999Y-139875331D01*
X91072629Y-139868510D01*
X91067105Y-139817648D01*
X91063479Y-139802396D01*
X91018324Y-139681946D01*
X91009786Y-139666351D01*
X90933285Y-139564276D01*
X90920724Y-139551715D01*
X90818649Y-139475214D01*
X90803054Y-139466676D01*
X90682606Y-139421522D01*
X90667351Y-139417895D01*
X90616486Y-139412369D01*
X90609672Y-139412000D01*
X89787115Y-139412000D01*
X89771876Y-139416475D01*
X89770671Y-139417865D01*
X89769000Y-139425548D01*
X89769000Y-140697885D01*
X89261000Y-140697885D01*
X89261000Y-139430116D01*
X89256525Y-139414877D01*
X89255135Y-139413672D01*
X89247452Y-139412001D01*
X88420331Y-139412001D01*
X88413517Y-139412370D01*
X88404608Y-139413338D01*
X88334726Y-139400810D01*
X88282710Y-139352490D01*
X88265000Y-139288075D01*
X88265000Y-137921000D01*
X88285002Y-137852879D01*
X88338658Y-137806386D01*
X88391000Y-137795000D01*
X92584000Y-137795000D01*
X92652121Y-137815002D01*
G37*
%TD.AperFunction*%
%TD*%
%TA.AperFunction,Conductor*%
%TO.N,Net-(D8-Pad2)*%
G36*
X101542121Y-137815002D02*
G01*
X101588614Y-137868658D01*
X101600000Y-137921000D01*
X101600000Y-147194000D01*
X101579998Y-147262121D01*
X101526342Y-147308614D01*
X101474000Y-147320000D01*
X97281000Y-147320000D01*
X97212879Y-147299998D01*
X97166386Y-147246342D01*
X97155000Y-147194000D01*
X97155000Y-142651927D01*
X97175002Y-142583806D01*
X97228658Y-142537313D01*
X97294603Y-142526663D01*
X97303520Y-142527631D01*
X97310328Y-142528000D01*
X98132885Y-142528000D01*
X98148124Y-142523525D01*
X98149329Y-142522135D01*
X98151000Y-142514452D01*
X98151000Y-142509884D01*
X98659000Y-142509884D01*
X98663475Y-142525123D01*
X98664865Y-142526328D01*
X98672548Y-142527999D01*
X99499669Y-142527999D01*
X99506490Y-142527629D01*
X99557352Y-142522105D01*
X99572604Y-142518479D01*
X99693054Y-142473324D01*
X99708649Y-142464786D01*
X99810724Y-142388285D01*
X99823285Y-142375724D01*
X99899786Y-142273649D01*
X99908324Y-142258054D01*
X99953478Y-142137606D01*
X99957105Y-142122351D01*
X99962631Y-142071486D01*
X99963000Y-142064672D01*
X99963000Y-141242115D01*
X99958525Y-141226876D01*
X99957135Y-141225671D01*
X99949452Y-141224000D01*
X98677115Y-141224000D01*
X98661876Y-141228475D01*
X98660671Y-141229865D01*
X98659000Y-141237548D01*
X98659000Y-142509884D01*
X98151000Y-142509884D01*
X98151000Y-140697885D01*
X98659000Y-140697885D01*
X98663475Y-140713124D01*
X98664865Y-140714329D01*
X98672548Y-140716000D01*
X99944884Y-140716000D01*
X99960123Y-140711525D01*
X99961328Y-140710135D01*
X99962999Y-140702452D01*
X99962999Y-139875331D01*
X99962629Y-139868510D01*
X99957105Y-139817648D01*
X99953479Y-139802396D01*
X99908324Y-139681946D01*
X99899786Y-139666351D01*
X99823285Y-139564276D01*
X99810724Y-139551715D01*
X99708649Y-139475214D01*
X99693054Y-139466676D01*
X99572606Y-139421522D01*
X99557351Y-139417895D01*
X99506486Y-139412369D01*
X99499672Y-139412000D01*
X98677115Y-139412000D01*
X98661876Y-139416475D01*
X98660671Y-139417865D01*
X98659000Y-139425548D01*
X98659000Y-140697885D01*
X98151000Y-140697885D01*
X98151000Y-139430116D01*
X98146525Y-139414877D01*
X98145135Y-139413672D01*
X98137452Y-139412001D01*
X97310331Y-139412001D01*
X97303517Y-139412370D01*
X97294608Y-139413338D01*
X97224726Y-139400810D01*
X97172710Y-139352490D01*
X97155000Y-139288075D01*
X97155000Y-137921000D01*
X97175002Y-137852879D01*
X97228658Y-137806386D01*
X97281000Y-137795000D01*
X101474000Y-137795000D01*
X101542121Y-137815002D01*
G37*
%TD.AperFunction*%
%TD*%
%TA.AperFunction,Conductor*%
%TO.N,GND*%
G36*
X82492121Y-127020002D02*
G01*
X82538614Y-127073658D01*
X82550000Y-127126000D01*
X82550000Y-146672001D01*
X82529998Y-146740122D01*
X82476342Y-146786615D01*
X82466059Y-146790774D01*
X82414702Y-146808960D01*
X82414695Y-146808963D01*
X82410657Y-146810393D01*
X82155188Y-146942250D01*
X82151687Y-146944711D01*
X82151683Y-146944713D01*
X82138734Y-146953814D01*
X81919977Y-147107559D01*
X81709378Y-147303260D01*
X81527287Y-147525732D01*
X81377073Y-147770858D01*
X81261517Y-148034102D01*
X81182756Y-148310594D01*
X81142249Y-148595216D01*
X81142227Y-148599505D01*
X81142226Y-148599512D01*
X81140765Y-148878417D01*
X81140743Y-148882703D01*
X81178268Y-149167734D01*
X81254129Y-149445036D01*
X81255813Y-149448984D01*
X81331611Y-149626688D01*
X81366923Y-149709476D01*
X81369130Y-149713163D01*
X81460287Y-149865475D01*
X81514561Y-149956161D01*
X81694313Y-150180528D01*
X81902851Y-150378423D01*
X82136317Y-150546186D01*
X82140112Y-150548195D01*
X82140113Y-150548196D01*
X82181346Y-150570028D01*
X82390392Y-150680712D01*
X82455989Y-150704717D01*
X82467302Y-150708857D01*
X82524399Y-150751052D01*
X82549621Y-150817417D01*
X82550000Y-150827183D01*
X82550000Y-155575500D01*
X82529998Y-155643621D01*
X82476342Y-155690114D01*
X82424000Y-155701500D01*
X59054500Y-155701500D01*
X58986379Y-155681498D01*
X58939886Y-155627842D01*
X58928500Y-155575500D01*
X58928500Y-150708134D01*
X64184121Y-150708134D01*
X64190876Y-150770316D01*
X64242006Y-150906705D01*
X64329360Y-151023261D01*
X64445916Y-151110615D01*
X64582305Y-151161745D01*
X64644487Y-151168500D01*
X66340755Y-151168500D01*
X66402937Y-151161745D01*
X66539326Y-151110615D01*
X66655882Y-151023261D01*
X66713740Y-150946062D01*
X67271114Y-150946062D01*
X67280410Y-150958077D01*
X67331615Y-150993931D01*
X67341110Y-150999414D01*
X67538568Y-151091490D01*
X67548860Y-151095236D01*
X67759309Y-151151625D01*
X67770102Y-151153528D01*
X67987146Y-151172517D01*
X67998096Y-151172517D01*
X68215140Y-151153528D01*
X68225933Y-151151625D01*
X68436382Y-151095236D01*
X68446674Y-151091490D01*
X68644132Y-150999414D01*
X68653627Y-150993931D01*
X68705669Y-150957491D01*
X68714045Y-150947012D01*
X68706977Y-150933566D01*
X68005433Y-150232022D01*
X67991489Y-150224408D01*
X67989656Y-150224539D01*
X67983041Y-150228790D01*
X67277544Y-150934287D01*
X67271114Y-150946062D01*
X66713740Y-150946062D01*
X66743236Y-150906705D01*
X66794366Y-150770316D01*
X66801121Y-150708134D01*
X66801121Y-150704815D01*
X66824774Y-150637890D01*
X66870777Y-150602196D01*
X66869762Y-150600266D01*
X66880621Y-150594558D01*
X66880866Y-150594368D01*
X66881024Y-150594347D01*
X66919055Y-150574356D01*
X67620599Y-149872812D01*
X67626977Y-149861132D01*
X68357029Y-149861132D01*
X68357160Y-149862965D01*
X68361411Y-149869580D01*
X69066908Y-150575077D01*
X69078683Y-150581507D01*
X69090698Y-150572211D01*
X69126552Y-150521006D01*
X69132035Y-150511511D01*
X69224111Y-150314053D01*
X69227857Y-150303761D01*
X69284246Y-150093312D01*
X69286149Y-150082519D01*
X69305138Y-149865475D01*
X69305138Y-149854525D01*
X69286149Y-149637481D01*
X69284246Y-149626688D01*
X69227857Y-149416239D01*
X69224111Y-149405947D01*
X69132035Y-149208489D01*
X69126552Y-149198994D01*
X69090112Y-149146952D01*
X69079633Y-149138576D01*
X69066187Y-149145644D01*
X68364643Y-149847188D01*
X68357029Y-149861132D01*
X67626977Y-149861132D01*
X67628213Y-149858868D01*
X67628082Y-149857035D01*
X67623831Y-149850420D01*
X66918334Y-149144923D01*
X66876592Y-149122129D01*
X66866592Y-149119953D01*
X66816394Y-149069747D01*
X66801170Y-149016186D01*
X66801121Y-149015281D01*
X66801121Y-149011866D01*
X66794366Y-148949684D01*
X66743236Y-148813295D01*
X66713028Y-148772988D01*
X67271197Y-148772988D01*
X67278265Y-148786434D01*
X67979809Y-149487978D01*
X67993753Y-149495592D01*
X67995586Y-149495461D01*
X68002201Y-149491210D01*
X68707698Y-148785713D01*
X68714128Y-148773938D01*
X68704832Y-148761923D01*
X68653627Y-148726069D01*
X68644132Y-148720586D01*
X68446674Y-148628510D01*
X68436382Y-148624764D01*
X68225933Y-148568375D01*
X68215140Y-148566472D01*
X67998096Y-148547483D01*
X67987146Y-148547483D01*
X67770102Y-148566472D01*
X67759309Y-148568375D01*
X67548860Y-148624764D01*
X67538568Y-148628510D01*
X67341110Y-148720586D01*
X67331615Y-148726069D01*
X67279573Y-148762509D01*
X67271197Y-148772988D01*
X66713028Y-148772988D01*
X66655882Y-148696739D01*
X66539326Y-148609385D01*
X66402937Y-148558255D01*
X66340755Y-148551500D01*
X64644487Y-148551500D01*
X64582305Y-148558255D01*
X64445916Y-148609385D01*
X64329360Y-148696739D01*
X64242006Y-148813295D01*
X64190876Y-148949684D01*
X64184121Y-149011866D01*
X64184121Y-150708134D01*
X58928500Y-150708134D01*
X58928500Y-142262096D01*
X66587000Y-142262096D01*
X66587337Y-142268611D01*
X66597256Y-142364203D01*
X66600150Y-142377602D01*
X66651588Y-142531783D01*
X66657762Y-142544962D01*
X66743063Y-142682807D01*
X66752099Y-142694208D01*
X66866830Y-142808739D01*
X66878241Y-142817751D01*
X67016245Y-142902818D01*
X67029423Y-142908962D01*
X67183716Y-142960139D01*
X67197081Y-142963005D01*
X67291439Y-142972672D01*
X67297855Y-142973000D01*
X67832885Y-142973000D01*
X67848124Y-142968525D01*
X67849329Y-142967135D01*
X67851000Y-142959452D01*
X67851000Y-142954885D01*
X68359000Y-142954885D01*
X68363475Y-142970124D01*
X68364865Y-142971329D01*
X68372548Y-142973000D01*
X68912096Y-142973000D01*
X68918611Y-142972663D01*
X69014203Y-142962744D01*
X69027602Y-142959850D01*
X69181783Y-142908412D01*
X69194962Y-142902238D01*
X69332807Y-142816937D01*
X69344208Y-142807901D01*
X69458739Y-142693170D01*
X69467751Y-142681759D01*
X69552818Y-142543755D01*
X69558962Y-142530577D01*
X69610139Y-142376284D01*
X69613005Y-142362919D01*
X69622672Y-142268561D01*
X69623000Y-142262145D01*
X69623000Y-141987115D01*
X69618525Y-141971876D01*
X69617135Y-141970671D01*
X69609452Y-141969000D01*
X68377115Y-141969000D01*
X68361876Y-141973475D01*
X68360671Y-141974865D01*
X68359000Y-141982548D01*
X68359000Y-142954885D01*
X67851000Y-142954885D01*
X67851000Y-141987115D01*
X67846525Y-141971876D01*
X67845135Y-141970671D01*
X67837452Y-141969000D01*
X66605115Y-141969000D01*
X66589876Y-141973475D01*
X66588671Y-141974865D01*
X66587000Y-141982548D01*
X66587000Y-142262096D01*
X58928500Y-142262096D01*
X58928500Y-139494733D01*
X61772822Y-139494733D01*
X61772975Y-139499121D01*
X61772975Y-139499127D01*
X61778996Y-139671529D01*
X61782625Y-139775458D01*
X61783387Y-139779781D01*
X61783388Y-139779788D01*
X61809133Y-139925795D01*
X61831402Y-140052087D01*
X61918203Y-140319235D01*
X62041340Y-140571702D01*
X62043795Y-140575341D01*
X62043798Y-140575347D01*
X62068689Y-140612249D01*
X62198415Y-140804576D01*
X62386371Y-141013322D01*
X62601550Y-141193879D01*
X62839764Y-141342731D01*
X62973484Y-141402267D01*
X63092227Y-141455135D01*
X63096375Y-141456982D01*
X63366390Y-141534407D01*
X63370740Y-141535018D01*
X63370743Y-141535019D01*
X63473690Y-141549487D01*
X63644552Y-141573500D01*
X63855146Y-141573500D01*
X63857332Y-141573347D01*
X63857336Y-141573347D01*
X64060827Y-141559118D01*
X64060832Y-141559117D01*
X64065212Y-141558811D01*
X64339970Y-141500409D01*
X64344099Y-141498906D01*
X64344103Y-141498905D01*
X64498017Y-141442885D01*
X66587000Y-141442885D01*
X66591475Y-141458124D01*
X66592865Y-141459329D01*
X66600548Y-141461000D01*
X67832885Y-141461000D01*
X67848124Y-141456525D01*
X67849329Y-141455135D01*
X67851000Y-141447452D01*
X67851000Y-141442885D01*
X68359000Y-141442885D01*
X68363475Y-141458124D01*
X68364865Y-141459329D01*
X68372548Y-141461000D01*
X69604885Y-141461000D01*
X69620124Y-141456525D01*
X69621329Y-141455135D01*
X69623000Y-141447452D01*
X69623000Y-141167904D01*
X69622663Y-141161389D01*
X69612744Y-141065797D01*
X69609850Y-141052398D01*
X69558412Y-140898217D01*
X69552238Y-140885038D01*
X69466937Y-140747193D01*
X69457901Y-140735792D01*
X69343170Y-140621261D01*
X69331759Y-140612249D01*
X69193755Y-140527182D01*
X69180577Y-140521038D01*
X69026284Y-140469861D01*
X69012919Y-140466995D01*
X68918561Y-140457328D01*
X68912144Y-140457000D01*
X68377115Y-140457000D01*
X68361876Y-140461475D01*
X68360671Y-140462865D01*
X68359000Y-140470548D01*
X68359000Y-141442885D01*
X67851000Y-141442885D01*
X67851000Y-140475115D01*
X67846525Y-140459876D01*
X67845135Y-140458671D01*
X67837452Y-140457000D01*
X67297904Y-140457000D01*
X67291389Y-140457337D01*
X67195797Y-140467256D01*
X67182398Y-140470150D01*
X67028217Y-140521588D01*
X67015038Y-140527762D01*
X66877193Y-140613063D01*
X66865792Y-140622099D01*
X66751261Y-140736830D01*
X66742249Y-140748241D01*
X66657182Y-140886245D01*
X66651038Y-140899423D01*
X66599861Y-141053716D01*
X66596995Y-141067081D01*
X66587328Y-141161439D01*
X66587000Y-141167856D01*
X66587000Y-141442885D01*
X64498017Y-141442885D01*
X64599781Y-141405846D01*
X64599785Y-141405844D01*
X64603926Y-141404337D01*
X64851942Y-141272464D01*
X64956896Y-141196211D01*
X65075629Y-141109947D01*
X65075632Y-141109944D01*
X65079192Y-141107358D01*
X65281252Y-140912231D01*
X65454188Y-140690882D01*
X65456384Y-140687078D01*
X65456389Y-140687071D01*
X65581628Y-140470150D01*
X65594636Y-140447619D01*
X65699862Y-140187176D01*
X65733544Y-140052087D01*
X65766753Y-139918893D01*
X65766754Y-139918888D01*
X65767817Y-139914624D01*
X65769269Y-139900817D01*
X65796719Y-139639636D01*
X65796719Y-139639633D01*
X65797178Y-139635267D01*
X65794754Y-139565847D01*
X65787529Y-139358939D01*
X65787528Y-139358933D01*
X65787375Y-139354542D01*
X65781944Y-139323738D01*
X65739360Y-139082236D01*
X65738598Y-139077913D01*
X65651797Y-138810765D01*
X65624448Y-138754690D01*
X66582037Y-138754690D01*
X66609025Y-138977715D01*
X66675082Y-139192435D01*
X66677652Y-139197415D01*
X66677654Y-139197419D01*
X66758751Y-139354542D01*
X66778118Y-139392064D01*
X66914877Y-139570292D01*
X67081036Y-139721485D01*
X67085783Y-139724463D01*
X67085786Y-139724465D01*
X67214229Y-139805036D01*
X67271344Y-139840864D01*
X67479783Y-139924656D01*
X67699767Y-139970213D01*
X67704378Y-139970479D01*
X67704379Y-139970479D01*
X67754952Y-139973395D01*
X67754956Y-139973395D01*
X67756775Y-139973500D01*
X68421999Y-139973500D01*
X68424786Y-139973251D01*
X68424792Y-139973251D01*
X68494929Y-139966991D01*
X68588762Y-139958617D01*
X68594176Y-139957136D01*
X68594181Y-139957135D01*
X68733967Y-139918893D01*
X68805451Y-139899337D01*
X68810509Y-139896925D01*
X68810513Y-139896923D01*
X68928042Y-139840864D01*
X69008218Y-139802622D01*
X69190654Y-139671529D01*
X69346992Y-139510201D01*
X69472290Y-139323738D01*
X69562588Y-139118033D01*
X69605633Y-138938741D01*
X69613722Y-138905046D01*
X69613722Y-138905045D01*
X69615032Y-138899589D01*
X69627320Y-138686461D01*
X69627640Y-138680917D01*
X69627640Y-138680914D01*
X69627963Y-138675310D01*
X69600975Y-138452285D01*
X69534918Y-138237565D01*
X69523124Y-138214713D01*
X69434454Y-138042919D01*
X69434454Y-138042918D01*
X69431882Y-138037936D01*
X69295123Y-137859708D01*
X69128964Y-137708515D01*
X69124217Y-137705537D01*
X69124214Y-137705535D01*
X68943405Y-137592115D01*
X68938656Y-137589136D01*
X68730217Y-137505344D01*
X68510233Y-137459787D01*
X68505622Y-137459521D01*
X68505621Y-137459521D01*
X68455048Y-137456605D01*
X68455044Y-137456605D01*
X68453225Y-137456500D01*
X67788001Y-137456500D01*
X67785214Y-137456749D01*
X67785208Y-137456749D01*
X67715071Y-137463009D01*
X67621238Y-137471383D01*
X67615824Y-137472864D01*
X67615819Y-137472865D01*
X67501262Y-137504205D01*
X67404549Y-137530663D01*
X67399491Y-137533075D01*
X67399487Y-137533077D01*
X67317670Y-137572102D01*
X67201782Y-137627378D01*
X67019346Y-137758471D01*
X66863008Y-137919799D01*
X66737710Y-138106262D01*
X66647412Y-138311967D01*
X66646103Y-138317418D01*
X66646102Y-138317422D01*
X66615012Y-138446923D01*
X66594968Y-138530411D01*
X66582037Y-138754690D01*
X65624448Y-138754690D01*
X65583010Y-138669732D01*
X65528660Y-138558298D01*
X65526205Y-138554659D01*
X65526202Y-138554653D01*
X65445935Y-138435653D01*
X65371585Y-138325424D01*
X65183629Y-138116678D01*
X64968450Y-137936121D01*
X64730236Y-137787269D01*
X64473625Y-137673018D01*
X64203610Y-137595593D01*
X64199260Y-137594982D01*
X64199257Y-137594981D01*
X64096310Y-137580513D01*
X63925448Y-137556500D01*
X63714854Y-137556500D01*
X63712668Y-137556653D01*
X63712664Y-137556653D01*
X63509173Y-137570882D01*
X63509168Y-137570883D01*
X63504788Y-137571189D01*
X63230030Y-137629591D01*
X63225901Y-137631094D01*
X63225897Y-137631095D01*
X62970219Y-137724154D01*
X62970215Y-137724156D01*
X62966074Y-137725663D01*
X62718058Y-137857536D01*
X62714499Y-137860122D01*
X62714497Y-137860123D01*
X62609895Y-137936121D01*
X62490808Y-138022642D01*
X62487644Y-138025698D01*
X62487641Y-138025700D01*
X62409034Y-138101610D01*
X62288748Y-138217769D01*
X62115812Y-138439118D01*
X62113616Y-138442922D01*
X62113611Y-138442929D01*
X61999794Y-138640067D01*
X61975364Y-138682381D01*
X61870138Y-138942824D01*
X61869073Y-138947097D01*
X61869072Y-138947099D01*
X61807903Y-139192435D01*
X61802183Y-139215376D01*
X61801724Y-139219744D01*
X61801723Y-139219749D01*
X61783145Y-139396512D01*
X61772822Y-139494733D01*
X58928500Y-139494733D01*
X58928500Y-134794733D01*
X61772822Y-134794733D01*
X61772975Y-134799121D01*
X61772975Y-134799127D01*
X61781489Y-135042919D01*
X61782625Y-135075458D01*
X61783387Y-135079781D01*
X61783388Y-135079788D01*
X61807164Y-135214624D01*
X61831402Y-135352087D01*
X61918203Y-135619235D01*
X61920131Y-135623188D01*
X61920133Y-135623193D01*
X61948287Y-135680917D01*
X62041340Y-135871702D01*
X62043795Y-135875341D01*
X62043798Y-135875347D01*
X62109088Y-135972143D01*
X62198415Y-136104576D01*
X62386371Y-136313322D01*
X62601550Y-136493879D01*
X62839764Y-136642731D01*
X63096375Y-136756982D01*
X63366390Y-136834407D01*
X63370740Y-136835018D01*
X63370743Y-136835019D01*
X63473690Y-136849487D01*
X63644552Y-136873500D01*
X63855146Y-136873500D01*
X63857332Y-136873347D01*
X63857336Y-136873347D01*
X64060827Y-136859118D01*
X64060832Y-136859117D01*
X64065212Y-136858811D01*
X64339970Y-136800409D01*
X64344099Y-136798906D01*
X64344103Y-136798905D01*
X64599781Y-136705846D01*
X64599785Y-136705844D01*
X64603926Y-136704337D01*
X64851942Y-136572464D01*
X64956896Y-136496211D01*
X65075629Y-136409947D01*
X65075632Y-136409944D01*
X65079192Y-136407358D01*
X65090424Y-136396512D01*
X65278087Y-136215287D01*
X65281252Y-136212231D01*
X65454188Y-135990882D01*
X65456384Y-135987078D01*
X65456389Y-135987071D01*
X65587333Y-135760268D01*
X65590554Y-135754690D01*
X66582037Y-135754690D01*
X66609025Y-135977715D01*
X66675082Y-136192435D01*
X66677652Y-136197415D01*
X66677654Y-136197419D01*
X66742852Y-136323738D01*
X66778118Y-136392064D01*
X66914877Y-136570292D01*
X67081036Y-136721485D01*
X67085783Y-136724463D01*
X67085786Y-136724465D01*
X67214229Y-136805036D01*
X67271344Y-136840864D01*
X67479783Y-136924656D01*
X67699767Y-136970213D01*
X67704378Y-136970479D01*
X67704379Y-136970479D01*
X67754952Y-136973395D01*
X67754956Y-136973395D01*
X67756775Y-136973500D01*
X68421999Y-136973500D01*
X68424786Y-136973251D01*
X68424792Y-136973251D01*
X68494929Y-136966991D01*
X68588762Y-136958617D01*
X68594176Y-136957136D01*
X68594181Y-136957135D01*
X68721912Y-136922191D01*
X68805451Y-136899337D01*
X68810509Y-136896925D01*
X68810513Y-136896923D01*
X68928042Y-136840864D01*
X69008218Y-136802622D01*
X69190654Y-136671529D01*
X69346992Y-136510201D01*
X69472290Y-136323738D01*
X69562588Y-136118033D01*
X69565034Y-136107848D01*
X69613722Y-135905046D01*
X69613722Y-135905045D01*
X69615032Y-135899589D01*
X69627963Y-135675310D01*
X69600975Y-135452285D01*
X69534918Y-135237565D01*
X69523078Y-135214624D01*
X69434454Y-135042919D01*
X69434454Y-135042918D01*
X69431882Y-135037936D01*
X69295123Y-134859708D01*
X69128964Y-134708515D01*
X69124217Y-134705537D01*
X69124214Y-134705535D01*
X68943405Y-134592115D01*
X68938656Y-134589136D01*
X68730217Y-134505344D01*
X68510233Y-134459787D01*
X68505622Y-134459521D01*
X68505621Y-134459521D01*
X68455048Y-134456605D01*
X68455044Y-134456605D01*
X68453225Y-134456500D01*
X67788001Y-134456500D01*
X67785214Y-134456749D01*
X67785208Y-134456749D01*
X67715071Y-134463009D01*
X67621238Y-134471383D01*
X67615824Y-134472864D01*
X67615819Y-134472865D01*
X67501262Y-134504205D01*
X67404549Y-134530663D01*
X67399491Y-134533075D01*
X67399487Y-134533077D01*
X67303165Y-134579021D01*
X67201782Y-134627378D01*
X67019346Y-134758471D01*
X66863008Y-134919799D01*
X66737710Y-135106262D01*
X66647412Y-135311967D01*
X66646103Y-135317418D01*
X66646102Y-135317422D01*
X66596278Y-135524954D01*
X66594968Y-135530411D01*
X66594645Y-135536016D01*
X66582445Y-135747619D01*
X66582037Y-135754690D01*
X65590554Y-135754690D01*
X65594636Y-135747619D01*
X65699862Y-135487176D01*
X65733544Y-135352087D01*
X65766753Y-135218893D01*
X65766754Y-135218888D01*
X65767817Y-135214624D01*
X65778667Y-135111396D01*
X65796719Y-134939636D01*
X65796719Y-134939633D01*
X65797178Y-134935267D01*
X65797025Y-134930873D01*
X65787529Y-134658939D01*
X65787528Y-134658933D01*
X65787375Y-134654542D01*
X65783163Y-134630650D01*
X65739360Y-134382236D01*
X65738598Y-134377913D01*
X65651797Y-134110765D01*
X65528660Y-133858298D01*
X65526205Y-133854659D01*
X65526202Y-133854653D01*
X65433834Y-133717712D01*
X65371585Y-133625424D01*
X65325338Y-133574061D01*
X65186566Y-133419940D01*
X65183629Y-133416678D01*
X64968450Y-133236121D01*
X64730236Y-133087269D01*
X64473625Y-132973018D01*
X64203610Y-132895593D01*
X64199260Y-132894982D01*
X64199257Y-132894981D01*
X64096310Y-132880513D01*
X63925448Y-132856500D01*
X63714854Y-132856500D01*
X63712668Y-132856653D01*
X63712664Y-132856653D01*
X63509173Y-132870882D01*
X63509168Y-132870883D01*
X63504788Y-132871189D01*
X63230030Y-132929591D01*
X63225901Y-132931094D01*
X63225897Y-132931095D01*
X62970219Y-133024154D01*
X62970215Y-133024156D01*
X62966074Y-133025663D01*
X62718058Y-133157536D01*
X62714499Y-133160122D01*
X62714497Y-133160123D01*
X62496366Y-133318604D01*
X62490808Y-133322642D01*
X62487644Y-133325698D01*
X62487641Y-133325700D01*
X62424079Y-133387081D01*
X62288748Y-133517769D01*
X62115812Y-133739118D01*
X62113616Y-133742922D01*
X62113611Y-133742929D01*
X62008034Y-133925795D01*
X61975364Y-133982381D01*
X61870138Y-134242824D01*
X61869073Y-134247097D01*
X61869072Y-134247099D01*
X61804162Y-134507440D01*
X61802183Y-134515376D01*
X61801724Y-134519744D01*
X61801723Y-134519749D01*
X61776633Y-134758471D01*
X61772822Y-134794733D01*
X58928500Y-134794733D01*
X58928500Y-132754690D01*
X66582037Y-132754690D01*
X66609025Y-132977715D01*
X66675082Y-133192435D01*
X66677652Y-133197415D01*
X66677654Y-133197419D01*
X66740950Y-133320053D01*
X66778118Y-133392064D01*
X66914877Y-133570292D01*
X67081036Y-133721485D01*
X67085783Y-133724463D01*
X67085786Y-133724465D01*
X67214229Y-133805036D01*
X67271344Y-133840864D01*
X67479783Y-133924656D01*
X67699767Y-133970213D01*
X67704378Y-133970479D01*
X67704379Y-133970479D01*
X67754952Y-133973395D01*
X67754956Y-133973395D01*
X67756775Y-133973500D01*
X68421999Y-133973500D01*
X68424786Y-133973251D01*
X68424792Y-133973251D01*
X68494929Y-133966991D01*
X68588762Y-133958617D01*
X68594176Y-133957136D01*
X68594181Y-133957135D01*
X68721912Y-133922191D01*
X68805451Y-133899337D01*
X68810509Y-133896925D01*
X68810513Y-133896923D01*
X68928042Y-133840864D01*
X69008218Y-133802622D01*
X69190654Y-133671529D01*
X69293067Y-133565847D01*
X69343089Y-133514229D01*
X69343091Y-133514226D01*
X69346992Y-133510201D01*
X69472290Y-133323738D01*
X69562588Y-133118033D01*
X69570403Y-133085484D01*
X69613722Y-132905046D01*
X69613722Y-132905045D01*
X69615032Y-132899589D01*
X69627963Y-132675310D01*
X69600975Y-132452285D01*
X69534918Y-132237565D01*
X69469798Y-132111396D01*
X69434454Y-132042919D01*
X69434454Y-132042918D01*
X69431882Y-132037936D01*
X69295123Y-131859708D01*
X69128964Y-131708515D01*
X69124217Y-131705537D01*
X69124214Y-131705535D01*
X68943405Y-131592115D01*
X68938656Y-131589136D01*
X68730217Y-131505344D01*
X68510233Y-131459787D01*
X68505622Y-131459521D01*
X68505621Y-131459521D01*
X68455048Y-131456605D01*
X68455044Y-131456605D01*
X68453225Y-131456500D01*
X67788001Y-131456500D01*
X67785214Y-131456749D01*
X67785208Y-131456749D01*
X67715071Y-131463009D01*
X67621238Y-131471383D01*
X67615824Y-131472864D01*
X67615819Y-131472865D01*
X67501262Y-131504205D01*
X67404549Y-131530663D01*
X67399491Y-131533075D01*
X67399487Y-131533077D01*
X67303165Y-131579021D01*
X67201782Y-131627378D01*
X67019346Y-131758471D01*
X66863008Y-131919799D01*
X66737710Y-132106262D01*
X66647412Y-132311967D01*
X66594968Y-132530411D01*
X66582037Y-132754690D01*
X58928500Y-132754690D01*
X58928500Y-127126000D01*
X58948502Y-127057879D01*
X59002158Y-127011386D01*
X59054500Y-127000000D01*
X82424000Y-127000000D01*
X82492121Y-127020002D01*
G37*
%TD.AperFunction*%
%TD*%
%TA.AperFunction,Conductor*%
%TO.N,Net-(D1-Pad2)*%
G36*
X101542121Y-127655002D02*
G01*
X101588614Y-127708658D01*
X101600000Y-127761000D01*
X101600000Y-137034000D01*
X101579998Y-137102121D01*
X101526342Y-137148614D01*
X101474000Y-137160000D01*
X97281000Y-137160000D01*
X97212879Y-137139998D01*
X97166386Y-137086342D01*
X97155000Y-137034000D01*
X97155000Y-135031927D01*
X97175002Y-134963806D01*
X97228658Y-134917313D01*
X97294603Y-134906663D01*
X97303520Y-134907631D01*
X97310328Y-134908000D01*
X98132885Y-134908000D01*
X98148124Y-134903525D01*
X98149329Y-134902135D01*
X98151000Y-134894452D01*
X98151000Y-134889884D01*
X98659000Y-134889884D01*
X98663475Y-134905123D01*
X98664865Y-134906328D01*
X98672548Y-134907999D01*
X99499669Y-134907999D01*
X99506490Y-134907629D01*
X99557352Y-134902105D01*
X99572604Y-134898479D01*
X99693054Y-134853324D01*
X99708649Y-134844786D01*
X99810724Y-134768285D01*
X99823285Y-134755724D01*
X99899786Y-134653649D01*
X99908324Y-134638054D01*
X99953478Y-134517606D01*
X99957105Y-134502351D01*
X99962631Y-134451486D01*
X99963000Y-134444672D01*
X99963000Y-133622115D01*
X99958525Y-133606876D01*
X99957135Y-133605671D01*
X99949452Y-133604000D01*
X98677115Y-133604000D01*
X98661876Y-133608475D01*
X98660671Y-133609865D01*
X98659000Y-133617548D01*
X98659000Y-134889884D01*
X98151000Y-134889884D01*
X98151000Y-133077885D01*
X98659000Y-133077885D01*
X98663475Y-133093124D01*
X98664865Y-133094329D01*
X98672548Y-133096000D01*
X99944884Y-133096000D01*
X99960123Y-133091525D01*
X99961328Y-133090135D01*
X99962999Y-133082452D01*
X99962999Y-132255331D01*
X99962629Y-132248510D01*
X99957105Y-132197648D01*
X99953479Y-132182396D01*
X99908324Y-132061946D01*
X99899786Y-132046351D01*
X99823285Y-131944276D01*
X99810724Y-131931715D01*
X99708649Y-131855214D01*
X99693054Y-131846676D01*
X99572606Y-131801522D01*
X99557351Y-131797895D01*
X99506486Y-131792369D01*
X99499672Y-131792000D01*
X98677115Y-131792000D01*
X98661876Y-131796475D01*
X98660671Y-131797865D01*
X98659000Y-131805548D01*
X98659000Y-133077885D01*
X98151000Y-133077885D01*
X98151000Y-131810116D01*
X98146525Y-131794877D01*
X98145135Y-131793672D01*
X98137452Y-131792001D01*
X97310331Y-131792001D01*
X97303517Y-131792370D01*
X97294608Y-131793338D01*
X97224726Y-131780810D01*
X97172710Y-131732490D01*
X97155000Y-131668075D01*
X97155000Y-127761000D01*
X97175002Y-127692879D01*
X97228658Y-127646386D01*
X97281000Y-127635000D01*
X101474000Y-127635000D01*
X101542121Y-127655002D01*
G37*
%TD.AperFunction*%
%TD*%
%TA.AperFunction,Conductor*%
%TO.N,Net-(D6-Pad1)*%
G36*
X92652121Y-127655002D02*
G01*
X92698614Y-127708658D01*
X92710000Y-127761000D01*
X92710000Y-131236624D01*
X92689998Y-131304745D01*
X92663636Y-131334267D01*
X92635713Y-131357040D01*
X92635710Y-131357043D01*
X92630938Y-131360935D01*
X92627011Y-131365682D01*
X92627009Y-131365684D01*
X92508799Y-131508575D01*
X92508797Y-131508579D01*
X92504870Y-131513325D01*
X92410802Y-131687299D01*
X92352318Y-131876232D01*
X92351674Y-131882357D01*
X92351674Y-131882358D01*
X92345959Y-131936739D01*
X92331645Y-132072925D01*
X92349570Y-132269888D01*
X92405410Y-132459619D01*
X92497040Y-132634890D01*
X92620968Y-132789025D01*
X92664993Y-132825966D01*
X92704318Y-132885075D01*
X92710000Y-132922486D01*
X92710000Y-137034000D01*
X92689998Y-137102121D01*
X92636342Y-137148614D01*
X92584000Y-137160000D01*
X88391000Y-137160000D01*
X88322879Y-137139998D01*
X88276386Y-137086342D01*
X88265000Y-137034000D01*
X88265000Y-135031927D01*
X88285002Y-134963806D01*
X88338658Y-134917313D01*
X88404603Y-134906663D01*
X88413520Y-134907631D01*
X88420328Y-134908000D01*
X89242885Y-134908000D01*
X89258124Y-134903525D01*
X89259329Y-134902135D01*
X89261000Y-134894452D01*
X89261000Y-134889884D01*
X89769000Y-134889884D01*
X89773475Y-134905123D01*
X89774865Y-134906328D01*
X89782548Y-134907999D01*
X90609669Y-134907999D01*
X90616490Y-134907629D01*
X90667352Y-134902105D01*
X90682604Y-134898479D01*
X90803054Y-134853324D01*
X90818649Y-134844786D01*
X90920724Y-134768285D01*
X90933285Y-134755724D01*
X91009786Y-134653649D01*
X91018324Y-134638054D01*
X91063478Y-134517606D01*
X91067105Y-134502351D01*
X91072631Y-134451486D01*
X91073000Y-134444672D01*
X91073000Y-133622115D01*
X91068525Y-133606876D01*
X91067135Y-133605671D01*
X91059452Y-133604000D01*
X89787115Y-133604000D01*
X89771876Y-133608475D01*
X89770671Y-133609865D01*
X89769000Y-133617548D01*
X89769000Y-134889884D01*
X89261000Y-134889884D01*
X89261000Y-133077885D01*
X89769000Y-133077885D01*
X89773475Y-133093124D01*
X89774865Y-133094329D01*
X89782548Y-133096000D01*
X91054884Y-133096000D01*
X91070123Y-133091525D01*
X91071328Y-133090135D01*
X91072999Y-133082452D01*
X91072999Y-132255331D01*
X91072629Y-132248510D01*
X91067105Y-132197648D01*
X91063479Y-132182396D01*
X91018324Y-132061946D01*
X91009786Y-132046351D01*
X90933285Y-131944276D01*
X90920724Y-131931715D01*
X90818649Y-131855214D01*
X90803054Y-131846676D01*
X90682606Y-131801522D01*
X90667351Y-131797895D01*
X90616486Y-131792369D01*
X90609672Y-131792000D01*
X89787115Y-131792000D01*
X89771876Y-131796475D01*
X89770671Y-131797865D01*
X89769000Y-131805548D01*
X89769000Y-133077885D01*
X89261000Y-133077885D01*
X89261000Y-131810116D01*
X89256525Y-131794877D01*
X89255135Y-131793672D01*
X89247452Y-131792001D01*
X88420331Y-131792001D01*
X88413517Y-131792370D01*
X88404608Y-131793338D01*
X88334726Y-131780810D01*
X88282710Y-131732490D01*
X88265000Y-131668075D01*
X88265000Y-127761000D01*
X88285002Y-127692879D01*
X88338658Y-127646386D01*
X88391000Y-127635000D01*
X92584000Y-127635000D01*
X92652121Y-127655002D01*
G37*
%TD.AperFunction*%
%TD*%
M02*
