%TF.GenerationSoftware,KiCad,Pcbnew,(6.0.5)*%
%TF.CreationDate,2022-06-15T13:59:35+01:00*%
%TF.ProjectId,tsal,7473616c-2e6b-4696-9361-645f70636258,rev?*%
%TF.SameCoordinates,Original*%
%TF.FileFunction,Copper,L1,Top*%
%TF.FilePolarity,Positive*%
%FSLAX46Y46*%
G04 Gerber Fmt 4.6, Leading zero omitted, Abs format (unit mm)*
G04 Created by KiCad (PCBNEW (6.0.5)) date 2022-06-15 13:59:35*
%MOMM*%
%LPD*%
G01*
G04 APERTURE LIST*
G04 Aperture macros list*
%AMRoundRect*
0 Rectangle with rounded corners*
0 $1 Rounding radius*
0 $2 $3 $4 $5 $6 $7 $8 $9 X,Y pos of 4 corners*
0 Add a 4 corners polygon primitive as box body*
4,1,4,$2,$3,$4,$5,$6,$7,$8,$9,$2,$3,0*
0 Add four circle primitives for the rounded corners*
1,1,$1+$1,$2,$3*
1,1,$1+$1,$4,$5*
1,1,$1+$1,$6,$7*
1,1,$1+$1,$8,$9*
0 Add four rect primitives between the rounded corners*
20,1,$1+$1,$2,$3,$4,$5,0*
20,1,$1+$1,$4,$5,$6,$7,0*
20,1,$1+$1,$6,$7,$8,$9,0*
20,1,$1+$1,$8,$9,$2,$3,0*%
%AMFreePoly0*
4,1,21,1.545000,0.775000,0.925000,0.775000,0.925000,0.525000,1.545000,0.525000,1.545000,0.125000,0.925000,0.125000,0.925000,-0.125000,1.545000,-0.125000,1.545000,-0.525000,0.925000,-0.525000,0.925000,-0.775000,1.545000,-0.775000,1.545000,-1.175000,0.925000,-1.175000,0.925000,-1.125000,-0.925000,-1.125000,-0.925000,1.125000,0.925000,1.125000,0.925000,1.175000,1.545000,1.175000,
1.545000,0.775000,1.545000,0.775000,$1*%
G04 Aperture macros list end*
%TA.AperFunction,SMDPad,CuDef*%
%ADD10RoundRect,0.250000X0.362500X1.425000X-0.362500X1.425000X-0.362500X-1.425000X0.362500X-1.425000X0*%
%TD*%
%TA.AperFunction,SMDPad,CuDef*%
%ADD11R,0.830000X0.400000*%
%TD*%
%TA.AperFunction,SMDPad,CuDef*%
%ADD12FreePoly0,0.000000*%
%TD*%
%TA.AperFunction,ComponentPad*%
%ADD13RoundRect,0.250001X0.759999X-0.499999X0.759999X0.499999X-0.759999X0.499999X-0.759999X-0.499999X0*%
%TD*%
%TA.AperFunction,ComponentPad*%
%ADD14O,2.020000X1.500000*%
%TD*%
%TA.AperFunction,SMDPad,CuDef*%
%ADD15RoundRect,0.200000X0.275000X-0.200000X0.275000X0.200000X-0.275000X0.200000X-0.275000X-0.200000X0*%
%TD*%
%TA.AperFunction,SMDPad,CuDef*%
%ADD16R,1.000000X2.100000*%
%TD*%
%TA.AperFunction,SMDPad,CuDef*%
%ADD17R,2.100000X2.100000*%
%TD*%
%TA.AperFunction,ComponentPad*%
%ADD18R,1.600000X1.600000*%
%TD*%
%TA.AperFunction,ComponentPad*%
%ADD19C,1.600000*%
%TD*%
%TA.AperFunction,ViaPad*%
%ADD20C,0.800000*%
%TD*%
%TA.AperFunction,Conductor*%
%ADD21C,1.000000*%
%TD*%
%TA.AperFunction,Conductor*%
%ADD22C,0.500000*%
%TD*%
%TA.AperFunction,Conductor*%
%ADD23C,0.250000*%
%TD*%
G04 APERTURE END LIST*
D10*
%TO.P,R20,1*%
%TO.N,+12V*%
X121707500Y-133350000D03*
%TO.P,R20,2*%
%TO.N,Net-(R20-Pad2)*%
X115782500Y-133350000D03*
%TD*%
D11*
%TO.P,Q1,1,S*%
%TO.N,GND*%
X77205000Y-132375000D03*
%TO.P,Q1,2,S*%
X77205000Y-133025000D03*
%TO.P,Q1,3,S*%
X77205000Y-133675000D03*
%TO.P,Q1,4,G*%
%TO.N,/RED_LED_ON*%
X77205000Y-134325000D03*
D12*
%TO.P,Q1,5,D*%
%TO.N,Net-(D7-Pad1)*%
X79145000Y-133350000D03*
%TD*%
D13*
%TO.P,J1,1,Pin_1*%
%TO.N,GND*%
X68105000Y-141715000D03*
D14*
%TO.P,J1,2,Pin_2*%
%TO.N,/RED_LED_ON*%
X68105000Y-138715000D03*
%TO.P,J1,3,Pin_3*%
%TO.N,/GREEN_LED_ON*%
X68105000Y-135715000D03*
%TO.P,J1,4,Pin_4*%
%TO.N,+12V*%
X68105000Y-132715000D03*
%TD*%
D15*
%TO.P,R5,1*%
%TO.N,/GREEN_LED_ON*%
X74930000Y-141795000D03*
%TO.P,R5,2*%
%TO.N,GND*%
X74930000Y-140145000D03*
%TD*%
D10*
%TO.P,R2,1*%
%TO.N,Net-(R1-Pad2)*%
X112817500Y-137795000D03*
%TO.P,R2,2*%
%TO.N,Net-(D1-Pad2)*%
X106892500Y-137795000D03*
%TD*%
D16*
%TO.P,D9,1,K*%
%TO.N,Net-(D9-Pad1)*%
X87565000Y-140970000D03*
D17*
%TO.P,D9,2,A*%
%TO.N,Net-(D8-Pad1)*%
X89515000Y-140970000D03*
%TD*%
D10*
%TO.P,R3,1*%
%TO.N,+12V*%
X121707500Y-149225000D03*
%TO.P,R3,2*%
%TO.N,Net-(R3-Pad2)*%
X115782500Y-149225000D03*
%TD*%
D16*
%TO.P,D3,1,K*%
%TO.N,Net-(D3-Pad1)*%
X96455000Y-140970000D03*
D17*
%TO.P,D3,2,A*%
%TO.N,Net-(D3-Pad2)*%
X98405000Y-140970000D03*
%TD*%
D10*
%TO.P,R22,1*%
%TO.N,+12V*%
X121707500Y-144780000D03*
%TO.P,R22,2*%
%TO.N,Net-(R22-Pad2)*%
X115782500Y-144780000D03*
%TD*%
%TO.P,R4,1*%
%TO.N,Net-(R3-Pad2)*%
X112817500Y-149225000D03*
%TO.P,R4,2*%
%TO.N,Net-(D3-Pad2)*%
X106892500Y-149225000D03*
%TD*%
%TO.P,R23,1*%
%TO.N,Net-(R22-Pad2)*%
X112817500Y-144780000D03*
%TO.P,R23,2*%
%TO.N,Net-(D8-Pad2)*%
X106892500Y-144780000D03*
%TD*%
%TO.P,R21,1*%
%TO.N,Net-(R20-Pad2)*%
X112817500Y-133350000D03*
%TO.P,R21,2*%
%TO.N,Net-(D6-Pad2)*%
X106892500Y-133350000D03*
%TD*%
D15*
%TO.P,R6,1*%
%TO.N,/RED_LED_ON*%
X74930000Y-134175000D03*
%TO.P,R6,2*%
%TO.N,GND*%
X74930000Y-132525000D03*
%TD*%
D10*
%TO.P,R1,1*%
%TO.N,+12V*%
X121707500Y-137795000D03*
%TO.P,R1,2*%
%TO.N,Net-(R1-Pad2)*%
X115782500Y-137795000D03*
%TD*%
D11*
%TO.P,Q2,1,S*%
%TO.N,GND*%
X77205000Y-139995000D03*
%TO.P,Q2,2,S*%
X77205000Y-140645000D03*
%TO.P,Q2,3,S*%
X77205000Y-141295000D03*
%TO.P,Q2,4,G*%
%TO.N,/GREEN_LED_ON*%
X77205000Y-141945000D03*
D12*
%TO.P,Q2,5,D*%
%TO.N,Net-(D9-Pad1)*%
X79145000Y-140970000D03*
%TD*%
D18*
%TO.P,C1,1*%
%TO.N,+12V*%
X65492621Y-149860000D03*
D19*
%TO.P,C1,2*%
%TO.N,GND*%
X67992621Y-149860000D03*
%TD*%
D16*
%TO.P,D2,1,K*%
%TO.N,Net-(D7-Pad1)*%
X87565000Y-133350000D03*
D17*
%TO.P,D2,2,A*%
%TO.N,Net-(D1-Pad1)*%
X89515000Y-133350000D03*
%TD*%
D16*
%TO.P,D6,1,K*%
%TO.N,Net-(D6-Pad1)*%
X96455000Y-133350000D03*
D17*
%TO.P,D6,2,A*%
%TO.N,Net-(D6-Pad2)*%
X98405000Y-133350000D03*
%TD*%
D20*
%TO.N,GND*%
X76200000Y-132715000D03*
X76200000Y-139700000D03*
%TO.N,Net-(D1-Pad2)*%
X100330000Y-134620000D03*
%TO.N,Net-(D1-Pad1)*%
X93345000Y-132080000D03*
%TO.N,Net-(D3-Pad1)*%
X93345000Y-139700000D03*
%TO.N,Net-(D6-Pad1)*%
X93345000Y-133350000D03*
%TO.N,Net-(D7-Pad1)*%
X85725000Y-133350000D03*
%TO.N,Net-(D8-Pad1)*%
X93345000Y-140970000D03*
%TO.N,Net-(D8-Pad2)*%
X102870000Y-142240000D03*
%TO.N,Net-(D9-Pad1)*%
X85725000Y-140970000D03*
%TD*%
D21*
%TO.N,+12V*%
X121707500Y-149225000D02*
X117182500Y-153750000D01*
X117182500Y-153750000D02*
X69382621Y-153750000D01*
X69382621Y-153750000D02*
X65492621Y-149860000D01*
X121707500Y-137795000D02*
X121707500Y-144780000D01*
X121707500Y-144780000D02*
X121707500Y-149225000D01*
X67470000Y-132080000D02*
X62230000Y-132080000D01*
X62230000Y-132080000D02*
X60960000Y-133350000D01*
X60960000Y-145327379D02*
X65492621Y-149860000D01*
X121707500Y-133350000D02*
X121707500Y-137795000D01*
X68105000Y-132715000D02*
X67470000Y-132080000D01*
X60960000Y-133350000D02*
X60960000Y-145327379D01*
D22*
%TO.N,GND*%
X77205000Y-139995000D02*
X76495000Y-139995000D01*
X77205000Y-132375000D02*
X76540000Y-132375000D01*
D23*
X77205000Y-133025000D02*
X77205000Y-133675000D01*
X75755000Y-140145000D02*
X76200000Y-139700000D01*
D22*
X77205000Y-133025000D02*
X77205000Y-132375000D01*
D23*
X77205000Y-141295000D02*
X77205000Y-140645000D01*
D22*
X76495000Y-139995000D02*
X76200000Y-139700000D01*
D23*
X74930000Y-140145000D02*
X75755000Y-140145000D01*
D22*
X77205000Y-140645000D02*
X77205000Y-139995000D01*
D23*
X76010000Y-132525000D02*
X76200000Y-132715000D01*
D22*
X76540000Y-132375000D02*
X76200000Y-132715000D01*
D23*
X74930000Y-132525000D02*
X76010000Y-132525000D01*
D21*
%TO.N,Net-(D1-Pad2)*%
X103717500Y-134620000D02*
X106892500Y-137795000D01*
X100330000Y-134620000D02*
X103717500Y-134620000D01*
%TO.N,Net-(D3-Pad2)*%
X106660000Y-149225000D02*
X98405000Y-140970000D01*
X106892500Y-149225000D02*
X106660000Y-149225000D01*
%TO.N,Net-(R1-Pad2)*%
X112817500Y-137795000D02*
X115782500Y-137795000D01*
%TO.N,Net-(R3-Pad2)*%
X112817500Y-149225000D02*
X115782500Y-149225000D01*
%TO.N,Net-(D1-Pad1)*%
X93345000Y-132080000D02*
X90785000Y-132080000D01*
X90785000Y-132080000D02*
X89515000Y-133350000D01*
%TO.N,Net-(D3-Pad1)*%
X93345000Y-139700000D02*
X95185000Y-139700000D01*
X95185000Y-139700000D02*
X96455000Y-140970000D01*
%TO.N,Net-(D6-Pad1)*%
X93345000Y-133350000D02*
X96455000Y-133350000D01*
%TO.N,Net-(D6-Pad2)*%
X98405000Y-133350000D02*
X106892500Y-133350000D01*
%TO.N,Net-(D7-Pad1)*%
X79145000Y-133350000D02*
X87565000Y-133350000D01*
%TO.N,Net-(D8-Pad1)*%
X89515000Y-140970000D02*
X93345000Y-140970000D01*
%TO.N,Net-(D8-Pad2)*%
X104352500Y-142240000D02*
X106892500Y-144780000D01*
X102870000Y-142240000D02*
X104352500Y-142240000D01*
%TO.N,Net-(D9-Pad1)*%
X85725000Y-140970000D02*
X87565000Y-140970000D01*
X79145000Y-140970000D02*
X85725000Y-140970000D01*
D23*
%TO.N,/RED_LED_ON*%
X70390000Y-138715000D02*
X68105000Y-138715000D01*
X75080000Y-134325000D02*
X77205000Y-134325000D01*
X74930000Y-134175000D02*
X75080000Y-134325000D01*
X74930000Y-134175000D02*
X70390000Y-138715000D01*
%TO.N,/GREEN_LED_ON*%
X74930000Y-141795000D02*
X75080000Y-141945000D01*
X66675000Y-139700000D02*
X67310000Y-140335000D01*
X68105000Y-135715000D02*
X66675000Y-137145000D01*
X75080000Y-141945000D02*
X77205000Y-141945000D01*
X73470000Y-140335000D02*
X74930000Y-141795000D01*
X66675000Y-137145000D02*
X66675000Y-139700000D01*
X67310000Y-140335000D02*
X73470000Y-140335000D01*
D21*
%TO.N,Net-(R20-Pad2)*%
X112817500Y-133350000D02*
X115782500Y-133350000D01*
%TO.N,Net-(R22-Pad2)*%
X112817500Y-144780000D02*
X115782500Y-144780000D01*
%TD*%
%TA.AperFunction,Conductor*%
%TO.N,Net-(D8-Pad1)*%
G36*
X92652121Y-137815002D02*
G01*
X92698614Y-137868658D01*
X92710000Y-137921000D01*
X92710000Y-138856624D01*
X92689998Y-138924745D01*
X92663636Y-138954267D01*
X92635713Y-138977040D01*
X92635710Y-138977043D01*
X92630938Y-138980935D01*
X92627011Y-138985682D01*
X92627009Y-138985684D01*
X92508799Y-139128575D01*
X92508797Y-139128579D01*
X92504870Y-139133325D01*
X92410802Y-139307299D01*
X92352318Y-139496232D01*
X92351674Y-139502357D01*
X92351674Y-139502358D01*
X92345959Y-139556739D01*
X92331645Y-139692925D01*
X92349570Y-139889888D01*
X92405410Y-140079619D01*
X92497040Y-140254890D01*
X92620968Y-140409025D01*
X92664993Y-140445966D01*
X92704318Y-140505075D01*
X92710000Y-140542486D01*
X92710000Y-147194000D01*
X92689998Y-147262121D01*
X92636342Y-147308614D01*
X92584000Y-147320000D01*
X88391000Y-147320000D01*
X88322879Y-147299998D01*
X88276386Y-147246342D01*
X88265000Y-147194000D01*
X88265000Y-142651927D01*
X88285002Y-142583806D01*
X88338658Y-142537313D01*
X88404603Y-142526663D01*
X88413520Y-142527631D01*
X88420328Y-142528000D01*
X89242885Y-142528000D01*
X89258124Y-142523525D01*
X89259329Y-142522135D01*
X89261000Y-142514452D01*
X89261000Y-142509884D01*
X89769000Y-142509884D01*
X89773475Y-142525123D01*
X89774865Y-142526328D01*
X89782548Y-142527999D01*
X90609669Y-142527999D01*
X90616490Y-142527629D01*
X90667352Y-142522105D01*
X90682604Y-142518479D01*
X90803054Y-142473324D01*
X90818649Y-142464786D01*
X90920724Y-142388285D01*
X90933285Y-142375724D01*
X91009786Y-142273649D01*
X91018324Y-142258054D01*
X91063478Y-142137606D01*
X91067105Y-142122351D01*
X91072631Y-142071486D01*
X91073000Y-142064672D01*
X91073000Y-141242115D01*
X91068525Y-141226876D01*
X91067135Y-141225671D01*
X91059452Y-141224000D01*
X89787115Y-141224000D01*
X89771876Y-141228475D01*
X89770671Y-141229865D01*
X89769000Y-141237548D01*
X89769000Y-142509884D01*
X89261000Y-142509884D01*
X89261000Y-140697885D01*
X89769000Y-140697885D01*
X89773475Y-140713124D01*
X89774865Y-140714329D01*
X89782548Y-140716000D01*
X91054884Y-140716000D01*
X91070123Y-140711525D01*
X91071328Y-140710135D01*
X91072999Y-140702452D01*
X91072999Y-139875331D01*
X91072629Y-139868510D01*
X91067105Y-139817648D01*
X91063479Y-139802396D01*
X91018324Y-139681946D01*
X91009786Y-139666351D01*
X90933285Y-139564276D01*
X90920724Y-139551715D01*
X90818649Y-139475214D01*
X90803054Y-139466676D01*
X90682606Y-139421522D01*
X90667351Y-139417895D01*
X90616486Y-139412369D01*
X90609672Y-139412000D01*
X89787115Y-139412000D01*
X89771876Y-139416475D01*
X89770671Y-139417865D01*
X89769000Y-139425548D01*
X89769000Y-140697885D01*
X89261000Y-140697885D01*
X89261000Y-139430116D01*
X89256525Y-139414877D01*
X89255135Y-139413672D01*
X89247452Y-139412001D01*
X88420331Y-139412001D01*
X88413517Y-139412370D01*
X88404608Y-139413338D01*
X88334726Y-139400810D01*
X88282710Y-139352490D01*
X88265000Y-139288075D01*
X88265000Y-137921000D01*
X88285002Y-137852879D01*
X88338658Y-137806386D01*
X88391000Y-137795000D01*
X92584000Y-137795000D01*
X92652121Y-137815002D01*
G37*
%TD.AperFunction*%
%TD*%
%TA.AperFunction,Conductor*%
%TO.N,Net-(D1-Pad1)*%
G36*
X92652121Y-127655002D02*
G01*
X92698614Y-127708658D01*
X92710000Y-127761000D01*
X92710000Y-132506624D01*
X92689998Y-132574745D01*
X92663636Y-132604267D01*
X92635713Y-132627040D01*
X92635710Y-132627043D01*
X92630938Y-132630935D01*
X92627011Y-132635682D01*
X92627009Y-132635684D01*
X92508799Y-132778575D01*
X92508797Y-132778579D01*
X92504870Y-132783325D01*
X92410802Y-132957299D01*
X92352318Y-133146232D01*
X92331645Y-133342925D01*
X92349570Y-133539888D01*
X92405410Y-133729619D01*
X92497040Y-133904890D01*
X92620968Y-134059025D01*
X92664993Y-134095966D01*
X92704318Y-134155075D01*
X92710000Y-134192486D01*
X92710000Y-137034000D01*
X92689998Y-137102121D01*
X92636342Y-137148614D01*
X92584000Y-137160000D01*
X88391000Y-137160000D01*
X88322879Y-137139998D01*
X88276386Y-137086342D01*
X88265000Y-137034000D01*
X88265000Y-135031927D01*
X88285002Y-134963806D01*
X88338658Y-134917313D01*
X88404603Y-134906663D01*
X88413520Y-134907631D01*
X88420328Y-134908000D01*
X89242885Y-134908000D01*
X89258124Y-134903525D01*
X89259329Y-134902135D01*
X89261000Y-134894452D01*
X89261000Y-134889884D01*
X89769000Y-134889884D01*
X89773475Y-134905123D01*
X89774865Y-134906328D01*
X89782548Y-134907999D01*
X90609669Y-134907999D01*
X90616490Y-134907629D01*
X90667352Y-134902105D01*
X90682604Y-134898479D01*
X90803054Y-134853324D01*
X90818649Y-134844786D01*
X90920724Y-134768285D01*
X90933285Y-134755724D01*
X91009786Y-134653649D01*
X91018324Y-134638054D01*
X91063478Y-134517606D01*
X91067105Y-134502351D01*
X91072631Y-134451486D01*
X91073000Y-134444672D01*
X91073000Y-133622115D01*
X91068525Y-133606876D01*
X91067135Y-133605671D01*
X91059452Y-133604000D01*
X89787115Y-133604000D01*
X89771876Y-133608475D01*
X89770671Y-133609865D01*
X89769000Y-133617548D01*
X89769000Y-134889884D01*
X89261000Y-134889884D01*
X89261000Y-133077885D01*
X89769000Y-133077885D01*
X89773475Y-133093124D01*
X89774865Y-133094329D01*
X89782548Y-133096000D01*
X91054884Y-133096000D01*
X91070123Y-133091525D01*
X91071328Y-133090135D01*
X91072999Y-133082452D01*
X91072999Y-132255331D01*
X91072629Y-132248510D01*
X91067105Y-132197648D01*
X91063479Y-132182396D01*
X91018324Y-132061946D01*
X91009786Y-132046351D01*
X90933285Y-131944276D01*
X90920724Y-131931715D01*
X90818649Y-131855214D01*
X90803054Y-131846676D01*
X90682606Y-131801522D01*
X90667351Y-131797895D01*
X90616486Y-131792369D01*
X90609672Y-131792000D01*
X89787115Y-131792000D01*
X89771876Y-131796475D01*
X89770671Y-131797865D01*
X89769000Y-131805548D01*
X89769000Y-133077885D01*
X89261000Y-133077885D01*
X89261000Y-131810116D01*
X89256525Y-131794877D01*
X89255135Y-131793672D01*
X89247452Y-131792001D01*
X88420331Y-131792001D01*
X88413517Y-131792370D01*
X88404608Y-131793338D01*
X88334726Y-131780810D01*
X88282710Y-131732490D01*
X88265000Y-131668075D01*
X88265000Y-127761000D01*
X88285002Y-127692879D01*
X88338658Y-127646386D01*
X88391000Y-127635000D01*
X92584000Y-127635000D01*
X92652121Y-127655002D01*
G37*
%TD.AperFunction*%
%TD*%
%TA.AperFunction,Conductor*%
%TO.N,Net-(D3-Pad2)*%
G36*
X101542121Y-137815002D02*
G01*
X101588614Y-137868658D01*
X101600000Y-137921000D01*
X101600000Y-147194000D01*
X101579998Y-147262121D01*
X101526342Y-147308614D01*
X101474000Y-147320000D01*
X97281000Y-147320000D01*
X97212879Y-147299998D01*
X97166386Y-147246342D01*
X97155000Y-147194000D01*
X97155000Y-142651927D01*
X97175002Y-142583806D01*
X97228658Y-142537313D01*
X97294603Y-142526663D01*
X97303520Y-142527631D01*
X97310328Y-142528000D01*
X98132885Y-142528000D01*
X98148124Y-142523525D01*
X98149329Y-142522135D01*
X98151000Y-142514452D01*
X98151000Y-142509884D01*
X98659000Y-142509884D01*
X98663475Y-142525123D01*
X98664865Y-142526328D01*
X98672548Y-142527999D01*
X99499669Y-142527999D01*
X99506490Y-142527629D01*
X99557352Y-142522105D01*
X99572604Y-142518479D01*
X99693054Y-142473324D01*
X99708649Y-142464786D01*
X99810724Y-142388285D01*
X99823285Y-142375724D01*
X99899786Y-142273649D01*
X99908324Y-142258054D01*
X99953478Y-142137606D01*
X99957105Y-142122351D01*
X99962631Y-142071486D01*
X99963000Y-142064672D01*
X99963000Y-141242115D01*
X99958525Y-141226876D01*
X99957135Y-141225671D01*
X99949452Y-141224000D01*
X98677115Y-141224000D01*
X98661876Y-141228475D01*
X98660671Y-141229865D01*
X98659000Y-141237548D01*
X98659000Y-142509884D01*
X98151000Y-142509884D01*
X98151000Y-140697885D01*
X98659000Y-140697885D01*
X98663475Y-140713124D01*
X98664865Y-140714329D01*
X98672548Y-140716000D01*
X99944884Y-140716000D01*
X99960123Y-140711525D01*
X99961328Y-140710135D01*
X99962999Y-140702452D01*
X99962999Y-139875331D01*
X99962629Y-139868510D01*
X99957105Y-139817648D01*
X99953479Y-139802396D01*
X99908324Y-139681946D01*
X99899786Y-139666351D01*
X99823285Y-139564276D01*
X99810724Y-139551715D01*
X99708649Y-139475214D01*
X99693054Y-139466676D01*
X99572606Y-139421522D01*
X99557351Y-139417895D01*
X99506486Y-139412369D01*
X99499672Y-139412000D01*
X98677115Y-139412000D01*
X98661876Y-139416475D01*
X98660671Y-139417865D01*
X98659000Y-139425548D01*
X98659000Y-140697885D01*
X98151000Y-140697885D01*
X98151000Y-139430116D01*
X98146525Y-139414877D01*
X98145135Y-139413672D01*
X98137452Y-139412001D01*
X97310331Y-139412001D01*
X97303517Y-139412370D01*
X97294608Y-139413338D01*
X97224726Y-139400810D01*
X97172710Y-139352490D01*
X97155000Y-139288075D01*
X97155000Y-137921000D01*
X97175002Y-137852879D01*
X97228658Y-137806386D01*
X97281000Y-137795000D01*
X101474000Y-137795000D01*
X101542121Y-137815002D01*
G37*
%TD.AperFunction*%
%TD*%
%TA.AperFunction,Conductor*%
%TO.N,Net-(D6-Pad2)*%
G36*
X101542121Y-127655002D02*
G01*
X101588614Y-127708658D01*
X101600000Y-127761000D01*
X101600000Y-133485500D01*
X101579998Y-133553621D01*
X101526342Y-133600114D01*
X101474000Y-133611500D01*
X100280231Y-133611500D01*
X100277175Y-133611800D01*
X100277168Y-133611800D01*
X100218660Y-133617537D01*
X100133167Y-133625920D01*
X100086413Y-133640036D01*
X100015420Y-133640577D01*
X99967483Y-133614638D01*
X99957135Y-133605671D01*
X99949452Y-133604000D01*
X98677115Y-133604000D01*
X98661876Y-133608475D01*
X98660671Y-133609865D01*
X98659000Y-133617548D01*
X98659000Y-134889884D01*
X98663475Y-134905123D01*
X98664865Y-134906328D01*
X98672548Y-134907999D01*
X99269184Y-134907999D01*
X99337305Y-134928001D01*
X99383798Y-134981657D01*
X99386191Y-134988063D01*
X99386362Y-134987994D01*
X99388670Y-134993707D01*
X99390410Y-134999619D01*
X99482040Y-135174890D01*
X99605968Y-135329025D01*
X99757474Y-135456154D01*
X99762872Y-135459121D01*
X99762877Y-135459125D01*
X99906180Y-135537905D01*
X99930787Y-135551433D01*
X99936654Y-135553294D01*
X99936656Y-135553295D01*
X100113436Y-135609373D01*
X100119306Y-135611235D01*
X100273227Y-135628500D01*
X101474000Y-135628500D01*
X101542121Y-135648502D01*
X101588614Y-135702158D01*
X101600000Y-135754500D01*
X101600000Y-137034000D01*
X101579998Y-137102121D01*
X101526342Y-137148614D01*
X101474000Y-137160000D01*
X97281000Y-137160000D01*
X97212879Y-137139998D01*
X97166386Y-137086342D01*
X97155000Y-137034000D01*
X97155000Y-135031927D01*
X97175002Y-134963806D01*
X97228658Y-134917313D01*
X97294603Y-134906663D01*
X97303520Y-134907631D01*
X97310328Y-134908000D01*
X98132885Y-134908000D01*
X98148124Y-134903525D01*
X98149329Y-134902135D01*
X98151000Y-134894452D01*
X98151000Y-133077885D01*
X98659000Y-133077885D01*
X98663475Y-133093124D01*
X98664865Y-133094329D01*
X98672548Y-133096000D01*
X99944884Y-133096000D01*
X99960123Y-133091525D01*
X99961328Y-133090135D01*
X99962999Y-133082452D01*
X99962999Y-132255331D01*
X99962629Y-132248510D01*
X99957105Y-132197648D01*
X99953479Y-132182396D01*
X99908324Y-132061946D01*
X99899786Y-132046351D01*
X99823285Y-131944276D01*
X99810724Y-131931715D01*
X99708649Y-131855214D01*
X99693054Y-131846676D01*
X99572606Y-131801522D01*
X99557351Y-131797895D01*
X99506486Y-131792369D01*
X99499672Y-131792000D01*
X98677115Y-131792000D01*
X98661876Y-131796475D01*
X98660671Y-131797865D01*
X98659000Y-131805548D01*
X98659000Y-133077885D01*
X98151000Y-133077885D01*
X98151000Y-131810116D01*
X98146525Y-131794877D01*
X98145135Y-131793672D01*
X98137452Y-131792001D01*
X97310331Y-131792001D01*
X97303517Y-131792370D01*
X97294608Y-131793338D01*
X97224726Y-131780810D01*
X97172710Y-131732490D01*
X97155000Y-131668075D01*
X97155000Y-127761000D01*
X97175002Y-127692879D01*
X97228658Y-127646386D01*
X97281000Y-127635000D01*
X101474000Y-127635000D01*
X101542121Y-127655002D01*
G37*
%TD.AperFunction*%
%TD*%
M02*
