%TF.GenerationSoftware,KiCad,Pcbnew,(6.0.5)*%
%TF.CreationDate,2022-06-15T13:59:35+01:00*%
%TF.ProjectId,tsal,7473616c-2e6b-4696-9361-645f70636258,rev?*%
%TF.SameCoordinates,Original*%
%TF.FileFunction,Soldermask,Top*%
%TF.FilePolarity,Negative*%
%FSLAX46Y46*%
G04 Gerber Fmt 4.6, Leading zero omitted, Abs format (unit mm)*
G04 Created by KiCad (PCBNEW (6.0.5)) date 2022-06-15 13:59:35*
%MOMM*%
%LPD*%
G01*
G04 APERTURE LIST*
G04 Aperture macros list*
%AMRoundRect*
0 Rectangle with rounded corners*
0 $1 Rounding radius*
0 $2 $3 $4 $5 $6 $7 $8 $9 X,Y pos of 4 corners*
0 Add a 4 corners polygon primitive as box body*
4,1,4,$2,$3,$4,$5,$6,$7,$8,$9,$2,$3,0*
0 Add four circle primitives for the rounded corners*
1,1,$1+$1,$2,$3*
1,1,$1+$1,$4,$5*
1,1,$1+$1,$6,$7*
1,1,$1+$1,$8,$9*
0 Add four rect primitives between the rounded corners*
20,1,$1+$1,$2,$3,$4,$5,0*
20,1,$1+$1,$4,$5,$6,$7,0*
20,1,$1+$1,$6,$7,$8,$9,0*
20,1,$1+$1,$8,$9,$2,$3,0*%
%AMFreePoly0*
4,1,43,1.580355,1.210355,1.595000,1.175000,1.595000,0.775000,1.580355,0.739645,1.545000,0.725000,0.975000,0.725000,0.975000,0.575000,1.545000,0.575000,1.580355,0.560355,1.595000,0.525000,1.595000,0.125000,1.580355,0.089645,1.545000,0.075000,0.975000,0.075000,0.975000,-0.075000,1.545000,-0.075000,1.580355,-0.089645,1.595000,-0.125000,1.595000,-0.525000,1.580355,-0.560355,
1.545000,-0.575000,0.975000,-0.575000,0.975000,-0.725000,1.545000,-0.725000,1.580355,-0.739645,1.595000,-0.775000,1.595000,-1.175000,1.580355,-1.210355,1.545000,-1.225000,0.925000,-1.225000,0.889645,-1.210355,0.875000,-1.175000,-0.925000,-1.175000,-0.960355,-1.160355,-0.975000,-1.125000,-0.975000,1.125000,-0.960355,1.160355,-0.925000,1.175000,0.875000,1.175000,0.889645,1.210355,
0.925000,1.225000,1.545000,1.225000,1.580355,1.210355,1.580355,1.210355,$1*%
G04 Aperture macros list end*
%ADD10C,3.200000*%
%ADD11RoundRect,0.250000X0.362500X1.425000X-0.362500X1.425000X-0.362500X-1.425000X0.362500X-1.425000X0*%
%ADD12RoundRect,0.050000X-0.415000X-0.200000X0.415000X-0.200000X0.415000X0.200000X-0.415000X0.200000X0*%
%ADD13FreePoly0,0.000000*%
%ADD14C,3.000000*%
%ADD15RoundRect,0.250001X0.759999X-0.499999X0.759999X0.499999X-0.759999X0.499999X-0.759999X-0.499999X0*%
%ADD16O,2.020000X1.500000*%
%ADD17RoundRect,0.200000X0.275000X-0.200000X0.275000X0.200000X-0.275000X0.200000X-0.275000X-0.200000X0*%
%ADD18R,1.000000X2.100000*%
%ADD19R,2.100000X2.100000*%
%ADD20R,1.600000X1.600000*%
%ADD21C,1.600000*%
G04 APERTURE END LIST*
D10*
%TO.C,REF\u002A\u002A*%
X125250000Y-128000000D03*
%TD*%
%TO.C,REF\u002A\u002A*%
X83250000Y-148750000D03*
%TD*%
D11*
%TO.C,R20*%
X121707500Y-133350000D03*
X115782500Y-133350000D03*
%TD*%
D12*
%TO.C,Q1*%
X77205000Y-132375000D03*
X77205000Y-133025000D03*
X77205000Y-133675000D03*
X77205000Y-134325000D03*
D13*
X79145000Y-133350000D03*
%TD*%
D14*
%TO.C,J1*%
X63785000Y-134865000D03*
X63785000Y-139565000D03*
D15*
X68105000Y-141715000D03*
D16*
X68105000Y-138715000D03*
X68105000Y-135715000D03*
X68105000Y-132715000D03*
%TD*%
D17*
%TO.C,R5*%
X74930000Y-141795000D03*
X74930000Y-140145000D03*
%TD*%
D11*
%TO.C,R2*%
X112817500Y-137795000D03*
X106892500Y-137795000D03*
%TD*%
D18*
%TO.C,D9*%
X87565000Y-140970000D03*
D19*
X89515000Y-140970000D03*
%TD*%
D11*
%TO.C,R3*%
X121707500Y-149225000D03*
X115782500Y-149225000D03*
%TD*%
D18*
%TO.C,D3*%
X96455000Y-140970000D03*
D19*
X98405000Y-140970000D03*
%TD*%
D11*
%TO.C,R22*%
X121707500Y-144780000D03*
X115782500Y-144780000D03*
%TD*%
%TO.C,R4*%
X112817500Y-149225000D03*
X106892500Y-149225000D03*
%TD*%
%TO.C,R23*%
X112817500Y-144780000D03*
X106892500Y-144780000D03*
%TD*%
%TO.C,R21*%
X112817500Y-133350000D03*
X106892500Y-133350000D03*
%TD*%
D17*
%TO.C,R6*%
X74930000Y-134175000D03*
X74930000Y-132525000D03*
%TD*%
D11*
%TO.C,R1*%
X121707500Y-137795000D03*
X115782500Y-137795000D03*
%TD*%
D12*
%TO.C,Q2*%
X77205000Y-139995000D03*
X77205000Y-140645000D03*
X77205000Y-141295000D03*
X77205000Y-141945000D03*
D13*
X79145000Y-140970000D03*
%TD*%
D20*
%TO.C,C1*%
X65492621Y-149860000D03*
D21*
X67992621Y-149860000D03*
%TD*%
D18*
%TO.C,D2*%
X87565000Y-133350000D03*
D19*
X89515000Y-133350000D03*
%TD*%
D18*
%TO.C,D6*%
X96455000Y-133350000D03*
D19*
X98405000Y-133350000D03*
%TD*%
M02*
